<svg width="25" height="25" viewBox="0 0 25 25" fill="none" xmlns="http://www.w3.org/2000/svg">
<g clip-path="url(#clip0)">
<path d="M23.1701 2.27275H4.54544V2.4358L4.3124 1.63684C4.03163 0.67303 3.13445 0 2.13068 0H0.5682C0.254137 0 0 0.254137 0 0.5682C0 0.882263 0.254137 1.1364 0.5682 1.1364H2.13068C2.63283 1.1364 3.08118 1.47268 3.22154 1.95485L6.75826 14.0803L4.94606 16.3453C4.6875 16.6688 4.54544 17.0744 4.54544 17.4883C4.54544 18.4976 5.36607 19.3182 6.37538 19.3182H22.1591C22.4732 19.3182 22.7273 19.0641 22.7273 18.75C22.7273 18.436 22.4732 18.1818 22.1591 18.1818H6.37538C5.99308 18.1818 5.68179 17.8705 5.68179 17.4882C5.68179 17.3312 5.73559 17.1769 5.83381 17.0549L7.65975 14.7727H18.8043C19.6805 14.7727 20.4878 14.2606 20.8613 13.4677L24.8263 5.04205C24.9401 4.79958 25 4.53047 25 4.26355V4.10263C25 3.09338 24.1794 2.27275 23.1701 2.27275ZM23.8637 4.2636C23.8637 4.36513 23.8409 4.46724 23.7976 4.55881L19.8331 12.9839C19.6461 13.3801 19.2427 13.6364 18.8043 13.6364H7.81252L4.82935 3.40909H23.1701C23.5524 3.40909 23.8637 3.72039 23.8637 4.10268V4.2636Z" fill="#F96F14"/>
<path d="M6.81962 20.4546C5.56619 20.4546 4.54688 21.4739 4.54688 22.7273C4.54688 23.9808 5.56614 25.0001 6.81962 25.0001C8.0731 25.0001 9.09237 23.9808 9.09237 22.7273C9.09237 21.4739 8.07305 20.4546 6.81962 20.4546ZM6.81962 23.8637C6.1932 23.8637 5.68327 23.3538 5.68327 22.7273C5.68327 22.1009 6.1932 21.591 6.81962 21.591C7.44604 21.591 7.95597 22.1009 7.95597 22.7273C7.95597 23.3538 7.44604 23.8637 6.81962 23.8637Z" fill="#F96F14"/>
<path d="M20.4563 20.4546C19.2029 20.4546 18.1836 21.4739 18.1836 22.7273C18.1836 23.9808 19.2029 25.0001 20.4563 25.0001C21.7098 25.0001 22.7291 23.9808 22.7291 22.7273C22.7291 21.4739 21.7098 20.4546 20.4563 20.4546ZM20.4563 23.8637C19.8299 23.8637 19.32 23.3538 19.32 22.7273C19.32 22.1009 19.8299 21.591 20.4563 21.591C21.0828 21.591 21.5927 22.1009 21.5927 22.7273C21.5927 23.3538 21.0828 23.8637 20.4563 23.8637Z" fill="#F96F14"/>
</g>
<defs>
<clipPath id="clip0">
<rect width="25" height="25" fill="white"/>
</clipPath>
</defs>
</svg>
