<svg width="28" height="28" viewBox="0 0 28 28" fill="none" xmlns="http://www.w3.org/2000/svg">
<g clip-path="url(#clip0)">
<path d="M14 0C6.28062 0 0 6.28008 0 14C0 21.7199 6.28062 28 14 28C21.7194 28 28 21.7199 28 14C28 6.28008 21.7194 0 14 0ZM14 26.9231C6.87454 26.9231 1.07692 21.1255 1.07692 14C1.07692 6.87454 6.87454 1.07692 14 1.07692C21.1255 1.07692 26.9231 6.87454 26.9231 14C26.9231 21.1255 21.1255 26.9231 14 26.9231Z" fill="#F96F14"/>
<path d="M20.5967 8.25784L12.3211 17.5678L7.33548 13.5795C7.10394 13.3937 6.76417 13.4319 6.57894 13.6635C6.39317 13.8961 6.43086 14.2348 6.66294 14.4205L12.0476 18.7282C12.1466 18.8074 12.2656 18.8461 12.3841 18.8461C12.5327 18.8461 12.6808 18.7848 12.7869 18.6652L21.4022 8.97292C21.5999 8.75107 21.5799 8.41022 21.3576 8.21315C21.1346 8.01499 20.7949 8.03492 20.5967 8.25784Z" fill="#F96F14"/>
</g>
<defs>
<clipPath id="clip0">
<rect width="28" height="28" fill="white"/>
</clipPath>
</defs>
</svg>
