<svg width="115" height="22" viewBox="0 0 115 22" fill="none" xmlns="http://www.w3.org/2000/svg">
<path d="M114.031 7.17391C113.548 4.87826 109.103 4.2087 103.498 4.49565C101.565 1.72174 98.2792 0 94.7035 0C89.9682 0 86.0061 2.96522 84.4598 7.26957C84.3632 7.65217 84.1699 8.03478 84.1699 8.41739C83.9766 8.9913 83.88 9.66087 83.88 10.3304C83.88 10.6174 83.88 10.8087 83.88 11.0957C83.88 11.5739 83.88 11.9565 83.9766 12.4348C84.1699 13.6783 84.4598 14.8261 85.0397 15.9739C84.0733 15.9739 83.2035 15.9739 82.3338 15.9739C78.275 15.7826 77.2119 14.9217 77.1153 14.6348C77.0187 14.3478 77.6951 13.2 81.2708 11.4783V9.46957C81.0775 9.56522 80.8842 9.66087 80.7876 9.66087C76.922 11.3826 75.1825 13.1043 75.4724 14.7304C75.7623 16.3565 78.0817 17.313 82.3338 17.4087C82.817 17.4087 83.2035 17.4087 83.6867 17.4087C84.4598 17.4087 85.2329 17.4087 86.0061 17.313C87.9388 20.087 91.2245 21.8087 94.8002 21.8087C97.8926 21.8087 100.695 20.5652 102.628 18.4609H100.019C98.4724 19.513 96.7329 20.087 94.8002 20.087C92.0943 20.087 89.6783 18.9391 88.0355 17.1217C88.5187 17.1217 88.9052 17.0261 89.3884 17.0261C91.4178 16.8348 93.6405 16.4522 95.8632 16.0696C96.9262 15.8783 97.9893 15.687 98.9556 15.4C100.502 15.0174 102.048 14.6348 103.498 14.1565C104.174 13.9652 104.851 13.7739 105.43 13.487C105.527 13.487 105.624 13.3913 105.624 13.3913C106.783 13.0087 107.846 12.5304 108.813 12.1478C112.485 10.5217 114.321 8.8 114.031 7.17391ZM103.788 12.3391C103.304 12.5304 102.821 12.6261 102.241 12.8174C101.372 13.1043 100.502 13.2957 99.5355 13.5826C99.2456 13.6783 98.9556 13.7739 98.6657 13.7739C97.6027 14.0609 96.443 14.2522 95.2834 14.5391C92.2876 15.113 89.2918 15.4957 86.5859 15.687C86.0061 14.6348 85.6195 13.487 85.4262 12.2435C85.3296 11.8609 85.3296 11.3826 85.3296 10.9043C85.3296 10.4261 85.3296 9.94783 85.4262 9.56522C85.5229 8.89565 85.7161 8.22609 85.9094 7.65217C85.9094 7.55652 86.0061 7.46087 86.1027 7.26957C87.4556 3.92174 90.838 1.62609 94.6069 1.62609C97.3128 1.62609 99.7288 2.77391 101.372 4.5913C101.855 5.06957 102.241 5.64348 102.531 6.21739C103.304 7.55652 103.788 9.18261 103.788 10.9043C103.884 11.4783 103.788 11.9565 103.788 12.3391ZM108.04 10.713C107.267 11.0957 106.493 11.3826 105.527 11.7652C105.527 11.4783 105.527 11.287 105.527 11C105.527 9.27826 105.141 7.65217 104.464 6.21739C104.947 6.21739 105.334 6.21739 105.817 6.21739C106.3 6.21739 106.687 6.21739 107.17 6.21739C111.325 6.4087 112.292 7.26957 112.388 7.55652C112.388 7.84348 111.712 9.08696 108.04 10.713Z" fill="#3E3E3E"/>
<path d="M2.41459 8.22607L4.444 13.2L6.47341 8.22607H7.53644V14.3478H6.66669V11.9565L6.76333 9.3739L4.73392 14.3478H4.05744L2.02803 9.3739L2.12467 11.9565V14.3478H1.35156V8.22607H2.41459ZM14.3011 12.7217H11.6919L11.2087 14.3478H10.339L12.6583 8.22607H13.3348L15.6541 14.3478H14.7843L14.3011 12.7217ZM11.9818 12.0522H14.1079L13.0448 9.1826L11.9818 12.0522ZM18.5532 14.3478V8.22607H20.2927C20.8726 8.22607 21.2591 8.32173 21.7423 8.60868C22.1289 8.79999 22.5154 9.1826 22.7087 9.66086C22.902 10.1391 23.0953 10.6174 23.0953 11.1913V11.4782C23.0953 12.0522 22.9986 12.5304 22.7087 13.0087C22.5154 13.4869 22.1289 13.7739 21.7423 13.9652C21.2591 14.2522 20.7759 14.3478 20.1961 14.3478H18.5532ZM19.3264 8.89564V13.6782H20.1961C20.8726 13.6782 21.3558 13.4869 21.6457 13.1043C22.0322 12.7217 22.1289 12.1478 22.1289 11.4782V11.0956C22.1289 10.4261 21.9356 9.85216 21.6457 9.46955C21.3558 9.08694 20.8726 8.89564 20.1961 8.89564H19.3264ZM29.6667 11.4782H26.9608V13.6782H30.0532V14.3478H26.0911V8.22607H29.9566V8.89564H26.8642V10.9043H29.57V11.4782H29.6667ZM37.0112 14.3478V8.22607H39.0406C39.7171 8.22607 40.2003 8.32173 40.5869 8.60868C40.9734 8.89564 41.07 9.27825 41.07 9.85216C41.07 10.1391 40.9734 10.4261 40.7801 10.6174C40.5869 10.8087 40.3936 11 40.1037 11.0956C40.3936 11.1913 40.6835 11.3826 40.8768 11.6696C41.07 11.9565 41.1667 12.2435 41.1667 12.6261C41.1667 13.2 40.9734 13.5826 40.5869 13.9652C40.2003 14.2522 39.7171 14.4435 39.0406 14.4435H37.0112V14.3478ZM37.881 11.4782V13.6782H39.2339C39.6205 13.6782 39.9104 13.5826 40.1037 13.3913C40.2969 13.2 40.3936 12.913 40.3936 12.6261C40.3936 11.8609 40.007 11.4782 39.1373 11.4782H37.881ZM37.881 10.8087H39.1373C39.5238 10.8087 39.8137 10.713 40.007 10.5217C40.2003 10.3304 40.2969 10.1391 40.2969 9.75651C40.2969 9.3739 40.2003 9.1826 40.007 8.99129C39.8137 8.79999 39.5238 8.79999 39.1373 8.79999H37.9776V10.8087H37.881ZM45.9986 11.2869L47.6415 8.22607H48.6079L46.4818 12.0522V14.3478H45.7087V12.0522L43.5826 8.22607H44.549L45.9986 11.2869Z" fill="#3E3E3E"/>
</svg>
