<svg width="18" height="19" viewBox="0 0 18 19" fill="none" xmlns="http://www.w3.org/2000/svg">
<path fill-rule="evenodd" clip-rule="evenodd" d="M4.96724 0.143066H13.0325C15.7717 0.143066 18.0001 2.3689 18 5.10465V13.1606C18 15.8964 15.7717 18.1222 13.0325 18.1222H4.96724C2.22831 18.1222 0 15.8965 0 13.1606V5.10465C0 2.3689 2.22831 0.143066 4.96724 0.143066ZM13.0326 16.527C14.8911 16.527 16.4031 15.0169 16.4031 13.1606H16.403V5.10466C16.403 3.24849 14.891 1.73826 13.0325 1.73826H4.96724C3.10892 1.73826 1.59705 3.24849 1.59705 5.10466V13.1606C1.59705 15.0169 3.10892 16.5271 4.96724 16.527H13.0326ZM4.28571 9.13274C4.28571 6.5362 6.4005 4.42381 9 4.42381C11.5995 4.42381 13.7143 6.5362 13.7143 9.13274C13.7143 11.7292 11.5995 13.8414 9 13.8414C6.4005 13.8414 4.28571 11.7292 4.28571 9.13274ZM5.90898 9.13263C5.90898 10.835 7.29568 12.2199 9 12.2199C10.7043 12.2199 12.091 10.835 12.091 9.13263C12.091 7.43014 10.7044 6.04512 9 6.04512C7.29557 6.04512 5.90898 7.43014 5.90898 9.13263Z" fill="#3E3E3E"/>
</svg>
