<?xml version="1.0" encoding="utf-8"?>
<!-- Generator: Adobe Illustrator 22.1.0, SVG Export Plug-In . SVG Version: 6.00 Build 0)  -->
<svg version="1.1" id="Layer_1" xmlns="http://www.w3.org/2000/svg" xmlns:xlink="http://www.w3.org/1999/xlink" x="0px" y="0px"
	 viewBox="0 0 28 28" style="enable-background:new 0 0 28 28;" xml:space="preserve">
<style type="text/css">
	.st0{clip-path:url(#SVGID_2_);}
	.st1{fill:#F16F82;}
</style>
<g>
	<defs>
		<rect id="SVGID_1_" width="28" height="28"/>
	</defs>
	<clipPath id="SVGID_2_">
		<use xlink:href="#SVGID_1_"  style="overflow:visible;"/>
	</clipPath>
	<g class="st0">
		<g>
			<path class="st1" d="M13.9,27l-9.8-8.9c-2-1.8-3.3-4-3.9-6.5C-0.1,10,0,8.9,0,8.7C0.5,4.2,3.6,1,7.6,1c2.6,0,4.9,1.4,6.3,3.7
				C15.3,2.4,17.7,1,20.4,1c4,0,7.2,3.3,7.6,7.8l0,0c0,0.2,0.2,1.2-0.2,2.9c-0.6,2.5-1.9,4.7-3.9,6.5L13.9,27z M7.6,2
				C4.2,2,1.4,4.9,1,8.8C1,9,0.9,9.9,1.3,11.5c0.5,2.3,1.8,4.3,3.6,6l9.1,8.2l9.2-8.2c1.8-1.6,3-3.7,3.6-6C27.1,9.9,27,9,27,8.9
				l0.5-0.1l-0.5,0c-0.4-4-3.1-6.9-6.6-6.9c-2.3,0-4.4,1.2-5.6,3.2l-0.9,1.5l-0.9-1.5C11.9,3.2,9.8,2,7.6,2z"/>
		</g>
	</g>
</g>
</svg>
