<svg width="25" height="25" viewBox="0 0 25 25" fill="none" xmlns="http://www.w3.org/2000/svg">
<path d="M20.0929 25C19.0527 25 17.7965 24.7393 16.4149 24.218C13.3861 23.076 10.0907 20.8191 7.13586 17.8643C4.18019 14.9086 1.92329 11.6124 0.780544 8.5836C-0.257935 5.82974 -0.260457 3.56947 0.774658 2.5352C0.923492 2.38636 1.07485 2.2266 1.23125 2.06179C2.17555 1.06872 3.24262 -0.0488046 4.65697 0.00164779C5.63154 0.0420097 6.57584 0.647438 7.54285 1.85073C10.4001 5.40426 9.11191 6.67061 7.62105 8.13878L7.35785 8.39945C7.114 8.6433 6.6532 9.77259 10.94 14.0594C12.3392 15.4586 13.5324 16.4828 14.4859 17.1025C15.0863 17.4927 16.1601 18.0829 16.6007 17.6423L16.8656 17.3749C18.3321 15.8874 19.5984 14.6034 23.1495 17.4582C24.3527 18.4252 24.9573 19.3686 24.9977 20.3449C25.0557 21.7584 23.9298 22.828 22.9359 23.7715C22.7719 23.9279 22.6121 24.0792 22.4633 24.2272C21.9495 24.7418 21.128 25 20.0929 25ZM4.55606 0.840839C3.55122 0.840839 2.64392 1.79607 1.84088 2.64115C1.67944 2.81101 1.52303 2.97582 1.36915 3.1297C0.598074 3.89994 0.676275 5.92392 1.5676 8.28761C2.66914 11.2071 4.85794 14.3974 7.7312 17.2707C10.6036 20.1422 13.7922 22.331 16.7126 23.4317C19.0763 24.3247 21.1002 24.4004 21.8696 23.631C22.0235 23.4771 22.1883 23.3207 22.3582 23.1601C23.2218 22.3394 24.2014 21.4094 24.1585 20.3777C24.1291 19.6688 23.6128 18.9062 22.6239 18.1115C19.6649 15.7319 18.8375 16.5719 17.4651 17.9635L17.1961 18.2351C16.5402 18.8919 15.4748 18.7464 14.0285 17.8063C13.0253 17.1538 11.7859 16.0926 10.3463 14.6522C6.78858 11.0953 5.65088 8.91827 6.7642 7.80243L7.03244 7.53755C8.42744 6.16525 9.26916 5.33699 6.88865 2.37627C6.09234 1.38825 5.33051 0.871951 4.62165 0.84168C4.59979 0.840839 4.57793 0.840839 4.55606 0.840839Z" fill="#F96F14"/>
</svg>
