<?xml version="1.0" encoding="utf-8"?>
<!-- Generator: Adobe Illustrator 22.1.0, SVG Export Plug-In . SVG Version: 6.00 Build 0)  -->
<svg version="1.1" id="Layer_1" xmlns="http://www.w3.org/2000/svg" xmlns:xlink="http://www.w3.org/1999/xlink" x="0px" y="0px"
	 viewBox="0 0 24 24" style="enable-background:new 0 0 24 24;" xml:space="preserve">
<style type="text/css">
	.st0{clip-path:url(#SVGID_2_);}
	.st1{fill:#F96F14;}
</style>
<g>
	<defs>
		<rect id="SVGID_1_" width="24" height="24"/>
	</defs>
	<clipPath id="SVGID_2_">
		<use xlink:href="#SVGID_1_"  style="overflow:visible;"/>
	</clipPath>
	<g class="st0">
		<g>
			<path class="st1" d="M23.4,23.2l-6.7-7c1.7-1.7,2.8-4.1,2.8-6.7C19.5,4.3,15.2,0,10,0C4.7,0,0.4,4.3,0.4,9.5
				c0,5.2,4.3,9.5,9.5,9.5c2.3,0,4.4-0.8,6.1-2.2l6.7,7C22.9,24,23,24,23.1,24c0.1,0,0.2,0,0.3-0.1C23.6,23.7,23.6,23.4,23.4,23.2z
				 M10,18.1c-4.7,0-8.6-3.9-8.6-8.6c0-4.7,3.9-8.6,8.6-8.6s8.6,3.9,8.6,8.6C18.6,14.3,14.7,18.1,10,18.1z"/>
			<path class="st1" d="M23.1,24.1c-0.2,0-0.3-0.1-0.4-0.2L16,17c-1.7,1.4-3.9,2.1-6.1,2.1c-5.3,0-9.6-4.3-9.6-9.6
				c0-5.3,4.3-9.6,9.6-9.6c5.3,0,9.6,4.3,9.6,9.6c0,2.5-1,4.9-2.7,6.7l6.6,6.9c0.1,0.1,0.2,0.3,0.2,0.4c0,0.2-0.1,0.3-0.2,0.4
				C23.4,24.1,23.3,24.1,23.1,24.1z M16,16.7L16,16.7l6.8,7.1c0.1,0.1,0.3,0.1,0.5,0c0.1-0.1,0.1-0.3,0-0.5l-6.8-7.1l0.1-0.1
				c1.8-1.8,2.7-4.1,2.7-6.6c0-5.2-4.2-9.4-9.4-9.4c-5.2,0-9.4,4.2-9.4,9.4c0,5.2,4.2,9.4,9.4,9.4C12.1,18.9,14.3,18.1,16,16.7
				L16,16.7z M10,18.2c-4.8,0-8.7-3.9-8.7-8.7c0-4.8,3.9-8.7,8.7-8.7c4.8,0,8.7,3.9,8.7,8.7C18.7,14.3,14.8,18.2,10,18.2z M10,1
				C5.3,1,1.5,4.8,1.5,9.5c0,4.7,3.8,8.5,8.5,8.5c4.7,0,8.5-3.8,8.5-8.5C18.4,4.8,14.6,1,10,1z"/>
		</g>
	</g>
</g>
</svg>
