<svg width="16" height="16" viewBox="0 0 16 16" fill="none" xmlns="http://www.w3.org/2000/svg">
<path d="M7.54381 1.01636C7.72051 0.622674 8.27944 0.622674 8.45614 1.01636L10.3795 5.30173C10.4522 5.46373 10.6054 5.57501 10.7819 5.5941L15.4519 6.09907C15.8809 6.14546 16.0536 6.67704 15.7338 6.96674L12.2525 10.1202C12.1209 10.2394 12.0624 10.4195 12.0988 10.5933L13.0617 15.1907C13.1501 15.6131 12.6979 15.9416 12.3236 15.727L8.24868 13.3906C8.09464 13.3022 7.90531 13.3022 7.75127 13.3906L3.67637 15.727C3.30202 15.9416 2.84983 15.6131 2.93828 15.1907L3.90113 10.5933C3.93753 10.4195 3.87903 10.2394 3.74743 10.1202L0.266146 6.96674C-0.0536716 6.67704 0.119048 6.14546 0.548069 6.09907L5.21805 5.5941C5.39458 5.57501 5.54775 5.46373 5.62046 5.30173L7.54381 1.01636Z" fill="#FFBA00"/>
</svg>
