<svg width="22" height="23" viewBox="0 0 22 23" fill="none" xmlns="http://www.w3.org/2000/svg">
<path fill-rule="evenodd" clip-rule="evenodd" d="M20 5.77278C19.3743 6.04971 18.7029 6.23752 17.9975 6.32137C18.7178 5.89056 19.2691 5.20724 19.5304 4.39552C18.8548 4.79447 18.1091 5.08416 17.3144 5.2412C16.6781 4.56318 15.7731 4.14087 14.7692 4.14087C12.8432 4.14087 11.2816 5.70064 11.2816 7.6233C11.2816 7.89598 11.3124 8.16231 11.3719 8.41699C8.474 8.2716 5.90431 6.88479 4.18444 4.77749C3.88381 5.29106 3.71278 5.88948 3.71278 6.52826C3.71278 7.73683 4.32892 8.80321 5.26375 9.42709C4.69222 9.408 4.15469 9.25096 3.68411 8.98993V9.03344C3.68411 10.7205 4.88664 12.1286 6.48114 12.449C6.189 12.5275 5.88094 12.5711 5.56225 12.5711C5.33706 12.5711 5.11928 12.5488 4.90575 12.5063C5.34978 13.891 6.63731 14.898 8.16278 14.9256C6.96981 15.8593 5.46558 16.4143 3.83178 16.4143C3.55028 16.4143 3.273 16.3973 3 16.3665C4.54353 17.3565 6.376 17.9337 8.3455 17.9337C14.7607 17.9337 18.2674 12.6262 18.2674 8.02333L18.2557 7.57239C18.9409 7.08426 19.5336 6.47097 20 5.77278Z" fill="#F96F14"/>
</svg>
