<svg width="28" height="28" viewBox="0 0 28 28" fill="none" xmlns="http://www.w3.org/2000/svg">
<path d="M28 14C28 6.28065 21.7193 0 14 0C6.28065 0 0 6.28065 0 14C0 18.0773 1.75331 21.7524 4.54415 24.3132L4.53091 24.3249L4.98502 24.7077C5.01455 24.7327 5.04662 24.753 5.07615 24.7775C5.31745 24.9775 5.56742 25.1674 5.82196 25.3512C5.90444 25.4108 5.98691 25.4703 6.07091 25.5284C6.34276 25.7157 6.62175 25.8934 6.90684 26.0619C6.96895 26.0985 7.03156 26.1342 7.09418 26.1698C7.40625 26.3475 7.72495 26.515 8.05127 26.6687C8.0752 26.6799 8.09964 26.6901 8.12356 26.7013C9.18705 27.1956 10.3223 27.5586 11.5095 27.7729C11.5406 27.7785 11.5716 27.7841 11.6032 27.7897C11.9718 27.8534 12.3444 27.9043 12.7217 27.9384C12.7675 27.9425 12.8133 27.945 12.8596 27.9491C13.2353 27.9801 13.6151 28 14 28C14.3813 28 14.7575 27.9801 15.1312 27.9501C15.1785 27.946 15.2259 27.9435 15.2732 27.9394C15.6474 27.9053 16.017 27.8559 16.382 27.7933C16.4136 27.7877 16.4457 27.7821 16.4772 27.776C17.6466 27.5663 18.7656 27.2114 19.8153 26.7298C19.854 26.712 19.8932 26.6952 19.9319 26.6769C20.246 26.5292 20.553 26.3699 20.8539 26.2004C20.9287 26.1581 21.0031 26.1153 21.0774 26.0716C21.3513 25.9102 21.6206 25.7417 21.8823 25.5625C21.9764 25.4983 22.0686 25.4306 22.1617 25.3634C22.3852 25.2025 22.6047 25.0366 22.818 24.863C22.8653 24.8248 22.9162 24.7917 22.9625 24.7525L23.4284 24.3636L23.4146 24.3519C26.2299 21.7901 28 18.0982 28 14ZM1.01818 14C1.01818 6.84167 6.84167 1.01818 14 1.01818C21.1583 1.01818 26.9818 6.84167 26.9818 14C26.9818 17.8574 25.2891 21.3253 22.6092 23.7048C22.4596 23.6015 22.3089 23.5088 22.1546 23.4314L17.8441 21.2764C17.4572 21.083 17.2169 20.694 17.2169 20.2618V18.7564C17.3167 18.6332 17.4221 18.4937 17.5311 18.3405C18.089 17.5524 18.5365 16.6758 18.8628 15.7324C19.5079 15.426 19.9243 14.7835 19.9243 14.058V12.2533C19.9243 11.8119 19.7624 11.3838 19.4727 11.0473V8.67135C19.4992 8.40713 19.5929 6.916 18.5141 5.68604C17.5759 4.61491 16.0572 4.07273 14 4.07273C11.9428 4.07273 10.4241 4.61491 9.48589 5.68553C8.40713 6.91549 8.5008 8.40662 8.52727 8.67084V11.0468C8.23811 11.3833 8.07571 11.8114 8.07571 12.2528V14.0575C8.07571 14.618 8.3272 15.1409 8.75789 15.4937C9.17025 17.109 10.0189 18.3319 10.3325 18.7463V20.2196C10.3325 20.635 10.106 21.0168 9.74095 21.2164L5.71556 23.4121C5.58727 23.4818 5.46 23.5633 5.33273 23.6544C2.68596 21.2759 1.01818 17.8294 1.01818 14ZM21.6155 24.5036C21.4373 24.6329 21.2561 24.7581 21.0723 24.8777C20.9878 24.9327 20.9038 24.9877 20.8177 25.0412C20.5775 25.1898 20.3331 25.3313 20.0836 25.4637C20.0287 25.4927 19.9732 25.5202 19.9177 25.5487C19.3444 25.8425 18.7513 26.095 18.142 26.3001C18.1206 26.3073 18.0992 26.3149 18.0773 26.322C17.7581 26.4279 17.4348 26.5221 17.108 26.6031C17.107 26.6031 17.106 26.6036 17.1049 26.6036C16.7751 26.685 16.4411 26.7527 16.1051 26.8082C16.0959 26.8097 16.0868 26.8118 16.0776 26.8133C15.7615 26.8647 15.4428 26.9019 15.1231 26.9299C15.0665 26.935 15.01 26.9385 14.953 26.9426C14.6369 26.9665 14.3192 26.9818 14 26.9818C13.6772 26.9818 13.3555 26.966 13.0353 26.9421C12.9798 26.938 12.9243 26.9345 12.8693 26.9294C12.5465 26.9009 12.2253 26.8627 11.9071 26.8108C11.8929 26.8082 11.8786 26.8057 11.8644 26.8031C11.1913 26.6906 10.529 26.5252 9.884 26.3088C9.86415 26.3022 9.84378 26.2951 9.82393 26.2884C9.50371 26.1795 9.18705 26.0588 8.876 25.9255C8.87396 25.9244 8.87142 25.9234 8.86938 25.9224C8.57513 25.7956 8.28647 25.6551 8.00138 25.507C7.96422 25.4876 7.92655 25.4693 7.88989 25.4495C7.62975 25.3105 7.3752 25.1603 7.12422 25.0035C7.04989 24.9567 6.97607 24.9093 6.90276 24.8615C6.67164 24.7103 6.44356 24.5529 6.2216 24.3865C6.19869 24.3692 6.1768 24.3508 6.15389 24.3335C6.17018 24.3244 6.18647 24.3152 6.20276 24.306L10.2281 22.1103C10.9205 21.7326 11.3507 21.0081 11.3507 20.2196L11.3502 18.3858L11.2331 18.2443C11.2219 18.2316 10.1212 16.8927 9.70531 15.0798L9.65898 14.8782L9.48538 14.7657C9.24051 14.6073 9.09389 14.3426 9.09389 14.057V12.2523C9.09389 12.0156 9.19418 11.7951 9.37745 11.6297L9.54545 11.478V8.64233L9.54087 8.57564C9.53934 8.56342 9.38916 7.33905 10.2516 6.356C10.9877 5.51702 12.2492 5.09091 14 5.09091C15.7441 5.09091 17.0016 5.51345 17.7398 6.34633C18.6012 7.3192 18.4601 8.56647 18.4591 8.57665L18.4545 11.479L18.6225 11.6307C18.8053 11.7956 18.9061 12.0166 18.9061 12.2533V14.058C18.9061 14.421 18.6592 14.7504 18.3049 14.8599L18.0519 14.9377L17.9704 15.1897C17.67 16.1229 17.2424 16.9848 16.6997 17.7515C16.5663 17.9399 16.4365 18.1068 16.325 18.2346L16.1988 18.3787V20.2618C16.1988 21.0825 16.6549 21.8207 17.389 22.1872L21.6995 24.3422C21.727 24.3559 21.754 24.3702 21.7809 24.3844C21.7265 24.4257 21.6705 24.4639 21.6155 24.5036Z" fill="#F96F14"/>
</svg>
