<svg width="22" height="14" viewBox="0 0 22 14" fill="none" xmlns="http://www.w3.org/2000/svg">
<path d="M21.8834 12.0597C21.8567 12.0023 21.8319 11.9547 21.8088 11.9165C21.4271 11.2291 20.6977 10.3853 19.621 9.38488L19.5983 9.36197L19.5869 9.35074L19.5754 9.33922H19.5638C19.0751 8.87339 18.7657 8.56018 18.6361 8.39982C18.399 8.09435 18.3459 7.78514 18.4755 7.47185C18.567 7.23514 18.9109 6.73525 19.5064 5.97149C19.8196 5.56672 20.0677 5.24231 20.2509 4.9979C21.572 3.24146 22.1448 2.11907 21.9691 1.63029L21.9009 1.51607C21.855 1.4473 21.7367 1.38439 21.546 1.32702C21.3548 1.26977 21.1105 1.2603 20.8127 1.29846L17.5138 1.32125C17.4604 1.30231 17.3841 1.30407 17.2847 1.32702C17.1854 1.34997 17.1357 1.36149 17.1357 1.36149L17.0783 1.39017L17.0327 1.42463C16.9945 1.44742 16.9525 1.4875 16.9067 1.54479C16.8611 1.60188 16.8229 1.66888 16.7924 1.74523C16.4333 2.66923 16.0249 3.52831 15.5666 4.32245C15.2841 4.79598 15.0246 5.20636 14.7876 5.55384C14.5509 5.9012 14.3524 6.15712 14.1921 6.32117C14.0317 6.48538 13.8868 6.61693 13.7568 6.71631C13.6269 6.81573 13.5277 6.85773 13.4591 6.84237C13.3903 6.827 13.3255 6.81176 13.2642 6.79651C13.1573 6.72775 13.0714 6.63423 13.0066 6.51587C12.9415 6.39752 12.8977 6.24856 12.8748 6.0691C12.852 5.88952 12.8385 5.73506 12.8347 5.6052C12.8311 5.47549 12.8328 5.29202 12.8405 5.05531C12.8484 4.81849 12.852 4.65825 12.852 4.57424C12.852 4.28401 12.8577 3.96903 12.869 3.62922C12.8806 3.2894 12.8899 3.02016 12.8977 2.8218C12.9055 2.62325 12.9091 2.41319 12.9091 2.19172C12.9091 1.97026 12.8957 1.79658 12.869 1.67053C12.8427 1.54463 12.8023 1.42243 12.7491 1.30395C12.6955 1.1856 12.6171 1.09405 12.5142 1.02905C12.4112 0.964139 12.283 0.912625 12.1305 0.874351C11.7258 0.782758 11.2103 0.73321 10.584 0.725507C9.16376 0.710261 8.25115 0.801975 7.84643 1.00053C7.68607 1.08442 7.54095 1.19904 7.41121 1.34403C7.27372 1.51209 7.25454 1.60381 7.3538 1.61889C7.81204 1.68754 8.13645 1.85175 8.32738 2.11136L8.39619 2.24893C8.44971 2.34819 8.50315 2.52392 8.55663 2.77587C8.61003 3.02782 8.64449 3.30653 8.65965 3.61184C8.69777 4.16939 8.69777 4.64665 8.65965 5.04368C8.62142 5.44086 8.58531 5.75007 8.55085 5.97153C8.51639 6.19299 8.46487 6.37245 8.39619 6.50986C8.32738 6.64731 8.2816 6.73132 8.25866 6.76181C8.23575 6.7923 8.21665 6.81152 8.20149 6.81906C8.10223 6.85709 7.999 6.87647 7.89216 6.87647C7.78516 6.87647 7.65542 6.82295 7.50272 6.71599C7.35006 6.60903 7.19163 6.46211 7.02742 6.27499C6.86321 6.08784 6.67802 5.82629 6.47176 5.49033C6.26567 5.15437 6.05183 4.7573 5.83037 4.29914L5.64714 3.96686C5.5326 3.75311 5.37613 3.44186 5.17758 3.0334C4.9789 2.62478 4.8033 2.22952 4.65064 1.8477C4.58962 1.68734 4.49795 1.56525 4.37578 1.48124L4.31845 1.44678C4.28034 1.41629 4.21916 1.38391 4.13523 1.34941C4.05117 1.31495 3.96347 1.29023 3.87176 1.27503L0.733229 1.29782C0.412512 1.29782 0.194902 1.37047 0.0803198 1.51559L0.0344629 1.58423C0.0115545 1.62246 0 1.68353 0 1.76758C0 1.85159 0.0229084 1.9547 0.0687653 2.07678C0.526933 3.1536 1.02518 4.1921 1.56351 5.19244C2.10184 6.19279 2.56963 6.99859 2.96662 7.60914C3.36368 8.22012 3.76841 8.79676 4.1808 9.33878C4.59319 9.881 4.86617 10.2285 4.99973 10.3811C5.13345 10.5341 5.23848 10.6484 5.31483 10.7248L5.60124 10.9996C5.78451 11.1829 6.05363 11.4025 6.40873 11.6582C6.76391 11.9141 7.15713 12.1661 7.58858 12.4145C8.0201 12.6625 8.52212 12.8648 9.09491 13.0213C9.66762 13.178 10.225 13.2409 10.7673 13.2105H12.0846C12.3517 13.1875 12.5541 13.1035 12.6917 12.9585L12.7373 12.9011C12.7679 12.8555 12.7966 12.7847 12.8231 12.6894C12.8499 12.5939 12.8632 12.4888 12.8632 12.3744C12.8554 12.0461 12.8804 11.7502 12.9375 11.4868C12.9946 11.2234 13.0597 11.0249 13.1324 10.8912C13.2052 10.7576 13.2873 10.6448 13.3786 10.5534C13.4702 10.4619 13.5354 10.4064 13.5737 10.3873C13.6117 10.3681 13.6421 10.355 13.665 10.3472C13.8483 10.2861 14.0639 10.3453 14.3124 10.5249C14.5606 10.7043 14.7934 10.9259 15.0112 11.1893C15.2288 11.4529 15.4903 11.7486 15.7957 12.0769C16.1013 12.4053 16.3685 12.6494 16.5975 12.81L16.8265 12.9475C16.9795 13.0392 17.178 13.1232 17.4224 13.1995C17.6664 13.2759 17.8801 13.295 18.0637 13.2568L20.9959 13.2111C21.2859 13.2111 21.5116 13.163 21.6717 13.0678C21.8321 12.9723 21.9274 12.8672 21.9581 12.7528C21.9888 12.6383 21.9904 12.5084 21.9639 12.3631C21.9368 12.2183 21.91 12.117 21.8834 12.0597Z" fill="#3E3E3E"/>
</svg>
