<svg width="80" height="80" viewBox="0 0 80 80" fill="none" xmlns="http://www.w3.org/2000/svg">
<g clip-path="url(#clip0)">
<path d="M77.4113 26.723H58.8237L46.0717 4.63579C45.5477 3.72766 44.7012 3.07844 43.6886 2.80719C42.6759 2.53579 41.6183 2.67516 40.7102 3.19938C40.4503 3.34938 40.2147 3.52844 39.9998 3.72751C39.7852 3.52844 39.5494 3.34938 39.2895 3.19938C38.3817 2.67516 37.3239 2.53579 36.3114 2.80719C35.2988 3.0786 34.4523 3.72797 33.9283 4.63579L21.1763 26.723H2.58875C1.16125 26.723 0 27.8842 0 29.3117V35.9923C0 37.4198 1.16125 38.5811 2.58875 38.5811H2.75563L5.09 72.4294C5.27953 75.1764 7.58484 77.3284 10.3386 77.3284H69.6616C72.4152 77.3284 74.7206 75.1766 74.9102 72.4294L77.2445 38.5811H77.4114C78.8389 38.5811 80.0002 37.4198 80.0002 35.9923V29.3117C80 27.8842 78.8388 26.723 77.4113 26.723ZM41.3016 6.23047C41.3995 5.86438 41.6345 5.55829 41.963 5.3686C42.1817 5.24235 42.4244 5.17766 42.6705 5.17766C42.7938 5.17766 42.918 5.19391 43.0403 5.22657C43.4066 5.32469 43.7127 5.55954 43.9023 5.88813L57.2634 29.0302C57.6547 29.7083 57.4217 30.578 56.7439 30.9694C56.4156 31.1591 56.0328 31.2094 55.6667 31.1114C55.3005 31.0133 54.9944 30.7784 54.8047 30.4498L41.4436 7.30766C41.2538 6.97922 41.2033 6.59688 41.3016 6.23047ZM40 9.81844L49.7598 26.7228H30.2402L40 9.81844ZM22.7367 29.0305L36.0978 5.88829C36.2873 5.56001 36.5934 5.32501 36.9598 5.22688C37.3262 5.12891 37.7087 5.17907 38.037 5.36891C38.3653 5.55844 38.6003 5.86454 38.6984 6.23094C38.7967 6.59719 38.7463 6.97969 38.5567 7.30813L25.1956 30.4503C25.0061 30.7788 24.7 31.0136 24.3336 31.1117C23.9673 31.2097 23.5847 31.1595 23.2564 30.9697C22.5784 30.5783 22.3453 29.7083 22.7367 29.0305ZM77.4948 35.9922C77.4948 36.0381 77.4575 36.0756 77.4114 36.0756H72.0669C71.3752 36.0756 70.8142 36.6364 70.8142 37.3283C70.8142 38.0202 71.375 38.5809 72.0669 38.5809H74.7333L72.4108 72.2569C72.3116 73.6959 71.1039 74.8231 69.6616 74.8231H10.3386C8.89625 74.8231 7.68859 73.6959 7.58937 72.2569L5.26688 38.5809H66.7223C67.4141 38.5809 67.975 38.0202 67.975 37.3283C67.975 36.6364 67.4142 36.0756 66.7223 36.0756H2.58875C2.54266 36.0756 2.50531 36.0381 2.50531 35.9922V29.3116C2.50531 29.2656 2.54266 29.2281 2.58875 29.2281H20.0755C19.8766 30.7541 20.59 32.3231 22.0036 33.1392C22.6083 33.4884 23.2794 33.6669 23.9595 33.6669C24.3005 33.6669 24.6436 33.6219 24.9819 33.5313C25.9945 33.26 26.8409 32.6105 27.365 31.7027L28.7936 29.2281H51.2059L52.6345 31.7027C53.1586 32.6108 54.005 33.26 55.0177 33.5313C55.3559 33.6219 55.6989 33.6669 56.04 33.6669C56.7202 33.6669 57.3912 33.4884 57.9961 33.1392C59.4097 32.323 60.1231 30.7541 59.9242 29.2281H77.4111C77.4572 29.2281 77.4945 29.2656 77.4945 29.3116V35.9922H77.4948Z" fill="#595959"/>
<path d="M42.6713 50.7729C41.9795 50.7729 41.4186 51.3337 41.4186 52.0256V66.7229C41.4186 67.5058 40.7817 68.1426 39.9989 68.1426C39.2161 68.1426 38.5792 67.5058 38.5792 66.7229V46.6811C38.5792 45.8983 39.2161 45.2614 39.9989 45.2614C40.7817 45.2614 41.4186 45.8983 41.4186 46.6811C41.4186 47.3728 41.9794 47.9337 42.6713 47.9337C43.3631 47.9337 43.9239 47.3729 43.9239 46.6811C43.9239 44.5168 42.1633 42.7562 39.9991 42.7562C37.8348 42.7562 36.0742 44.5168 36.0742 46.6811V66.7228C36.0742 68.887 37.8348 70.6476 39.9991 70.6476C42.1633 70.6476 43.9239 68.887 43.9239 66.7228V52.0254C43.9239 51.3339 43.3631 50.7729 42.6713 50.7729Z" fill="#F96F14"/>
<path d="M53.3627 50.7729C52.6709 50.7729 52.11 51.3337 52.11 52.0256V66.7229C52.11 67.5058 51.4731 68.1426 50.6903 68.1426C49.9075 68.1426 49.2706 67.5058 49.2706 66.7229V46.6811C49.2706 45.8983 49.9075 45.2614 50.6903 45.2614C51.4731 45.2614 52.11 45.8983 52.11 46.6811C52.11 47.3728 52.6708 47.9337 53.3627 47.9337C54.0545 47.9337 54.6153 47.3729 54.6153 46.6811C54.6153 44.5168 52.8547 42.7562 50.6905 42.7562C48.5262 42.7562 46.7656 44.5168 46.7656 46.6811V66.7228C46.7656 68.887 48.5262 70.6476 50.6905 70.6476C52.8547 70.6476 54.6153 68.887 54.6153 66.7228V52.0254C54.6153 51.3339 54.0545 50.7729 53.3627 50.7729Z" fill="#F96F14"/>
<path d="M64.0502 50.7729C63.3584 50.7729 62.7975 51.3337 62.7975 52.0256V66.7229C62.7975 67.5058 62.1606 68.1426 61.3778 68.1426C60.595 68.1426 59.9581 67.5058 59.9581 66.7229V46.6811C59.9581 45.8983 60.595 45.2614 61.3778 45.2614C62.1606 45.2614 62.7975 45.8983 62.7975 46.6811C62.7975 47.3728 63.3583 47.9337 64.0502 47.9337C64.7419 47.9337 65.3028 47.3729 65.3028 46.6811C65.3028 44.5168 63.5422 42.7562 61.378 42.7562C59.2137 42.7562 57.4531 44.5168 57.4531 46.6811V66.7228C57.4531 68.887 59.2137 70.6476 61.378 70.6476C63.5422 70.6476 65.3028 68.887 65.3028 66.7228V52.0254C65.3027 51.3339 64.7419 50.7729 64.0502 50.7729Z" fill="#F96F14"/>
<path d="M21.2943 50.7729C20.6026 50.7729 20.0416 51.3337 20.0416 52.0256V66.7229C20.0416 67.5058 19.4048 68.1426 18.622 68.1426C17.8391 68.1426 17.2023 67.5058 17.2023 66.7229V46.6811C17.2023 45.8983 17.8391 45.2614 18.622 45.2614C19.4048 45.2614 20.0416 45.8983 20.0416 46.6811C20.0416 47.3728 20.6024 47.9337 21.2943 47.9337C21.9862 47.9337 22.547 47.3729 22.547 46.6811C22.547 44.5168 20.7863 42.7562 18.6221 42.7562C16.4579 42.7562 14.6973 44.5168 14.6973 46.6811V66.7228C14.6973 68.887 16.4579 70.6476 18.6221 70.6476C20.7863 70.6476 22.547 68.887 22.547 66.7228V52.0254C22.547 51.3339 21.986 50.7729 21.2943 50.7729Z" fill="#F96F14"/>
<path d="M31.9818 50.7729C31.2901 50.7729 30.7291 51.3337 30.7291 52.0256V66.7229C30.7291 67.5058 30.0923 68.1426 29.3095 68.1426C28.5266 68.1426 27.8898 67.5058 27.8898 66.7229V46.6811C27.8898 45.8983 28.5266 45.2614 29.3095 45.2614C30.0923 45.2614 30.7291 45.8983 30.7291 46.6811C30.7291 47.3728 31.2899 47.9337 31.9818 47.9337C32.6737 47.9337 33.2345 47.3729 33.2345 46.6811C33.2345 44.5168 31.4738 42.7562 29.3096 42.7562C27.1454 42.7562 25.3848 44.5168 25.3848 46.6811V66.7228C25.3848 68.887 27.1454 70.6476 29.3096 70.6476C31.4738 70.6476 33.2345 68.887 33.2345 66.7228V52.0254C33.2345 51.3339 32.6735 50.7729 31.9818 50.7729Z" fill="#F96F14"/>
</g>
<defs>
<clipPath id="clip0">
<rect width="80" height="80" fill="white"/>
</clipPath>
</defs>
</svg>
