<svg width="222" height="292" viewBox="0 0 222 292" fill="none" xmlns="http://www.w3.org/2000/svg">
<path d="M88.8442 290.883C102.463 292.314 116.082 289.451 126.117 286.587C128.985 285.871 132.568 285.155 135.436 284.439C138.303 283.723 141.887 283.007 145.471 282.291C149.771 281.575 153.355 279.427 157.656 277.279C159.09 276.563 160.523 275.847 161.957 275.131C164.107 274.415 165.541 272.984 166.258 271.552C167.691 270.12 168.408 269.404 169.842 268.688C170.558 267.972 171.992 267.256 172.709 266.54C176.293 262.96 180.593 259.38 184.177 254.369C184.894 252.937 186.328 252.221 187.045 251.505C188.478 250.789 189.195 249.357 189.912 248.641C190.628 247.209 191.345 246.493 192.062 245.061C192.779 243.629 193.496 242.197 194.212 241.481C196.363 238.617 197.796 236.469 199.947 233.606C202.097 230.742 204.964 227.162 207.115 224.298C207.831 223.582 208.548 222.866 208.548 221.434C208.548 221.434 208.548 221.434 209.265 221.434H209.982V220.718V220.002C212.849 215.707 214.999 210.695 217.15 206.399C218.583 203.535 219.3 199.955 220.017 195.66C220.734 192.08 220.734 189.216 220.734 185.636C220.734 183.488 220.734 180.624 220.734 178.477C220.734 174.181 220.734 170.601 220.734 166.305C221.45 161.293 221.45 156.998 221.45 152.702C221.45 151.27 221.45 149.122 221.45 147.69C221.45 136.235 219.3 125.495 216.433 114.04C215.716 111.176 214.999 108.312 214.283 105.448C213.566 101.869 212.849 99.0047 211.415 95.4249C210.699 93.277 209.982 90.4132 209.265 88.2653C207.831 83.9695 205.681 79.6737 203.531 75.378C202.814 73.946 202.097 72.5141 200.664 71.0821C197.796 66.0704 194.929 62.4906 190.629 58.1948C187.761 55.3309 184.894 52.4671 182.027 49.6033C179.877 47.4554 177.726 45.3075 175.576 43.1597C166.258 33.1362 156.223 26.6925 146.904 22.3967C144.754 21.6807 141.887 20.2488 139.736 18.8169C139.02 18.1009 137.586 17.385 136.869 17.385V16.6691H136.152C135.436 16.6691 134.719 16.6691 134.002 16.6691C133.285 16.6691 132.568 15.9531 131.852 15.9531C125.401 13.0892 119.666 11.6573 113.932 10.9414C112.498 10.9414 111.065 10.2254 109.631 9.50945C108.198 8.79349 106.764 8.7934 105.33 8.07744C101.746 7.36148 98.8793 6.6456 96.7289 5.92964C95.2953 5.21368 93.8618 5.21363 92.4282 5.21363C91.7114 5.21363 90.2778 5.21359 89.561 4.49763C86.6938 3.78166 83.8267 3.06572 80.2428 3.06572C78.0924 3.06572 76.6588 2.34983 74.5084 2.34983C69.4909 1.63386 64.4734 0.917815 59.4558 0.917815C58.739 0.917815 57.3055 0.917815 56.5887 0.917815C55.1551 0.917815 53.7215 0.917815 51.5712 0.917815C50.1376 0.917815 47.9872 0.201853 46.5536 0.917815C45.8368 0.917815 45.12 0.917859 44.4033 1.63382C42.9697 1.63382 41.5361 1.63386 40.1025 2.34983H39.3857C33.6514 3.78175 28.6339 5.92955 23.6163 8.07744L20.7491 8.79344C19.3156 9.50941 18.5988 9.50938 17.1652 10.2253C15.7316 10.9413 13.5813 10.9413 12.1477 11.6572C10.7141 12.3732 9.9973 13.0892 9.28051 13.8052C8.56371 14.5211 7.8469 14.5211 7.13011 15.2371C4.97974 16.669 2.82937 17.385 -0.0377884 17.385C-0.754578 17.385 -1.47134 17.385 -2.18813 18.101C-4.3385 18.8169 -5.7721 20.2488 -7.92247 23.1127C-10.0728 25.9765 -13.6568 28.1244 -17.2407 30.2723C-18.6743 30.9883 -20.1079 32.4202 -21.5415 33.1361C-27.2758 37.4319 -33.0101 42.4436 -37.3109 47.4554C-41.6116 51.7511 -44.4788 57.4789 -47.3459 62.4906L-48.7795 64.6385C-51.6467 70.3662 -55.2306 76.0939 -58.0978 81.8216C-64.5489 93.277 -68.1329 104.732 -69.5664 114.756C-69.5664 116.188 -69.5664 117.62 -70.2832 119.052C-70.2832 121.915 -70.2832 124.063 -70.2832 126.927C-70.2832 130.507 -70.2832 134.087 -71 137.667C-71 139.815 -71 141.962 -71 143.394C-71 144.826 -71 145.542 -71 146.974C-71 148.406 -71 149.838 -71 150.554C-71 152.702 -71 154.85 -71 156.998C-68.8496 168.453 -66.6993 182.056 -60.965 194.944C-59.5314 198.523 -57.381 202.103 -55.2306 205.683C-53.7971 207.831 -53.0803 209.979 -51.6467 212.127L-50.2131 214.991C-49.4963 217.139 -48.0627 218.57 -47.3459 220.718V221.434C-46.6292 222.866 -45.9123 223.582 -45.1956 224.298C-44.4788 225.73 -43.0452 226.446 -42.3284 227.878C-42.3284 228.594 -41.6116 229.31 -41.6116 230.026C-40.178 233.606 -38.0276 237.185 -35.1605 240.049C-32.2933 242.913 -29.4262 246.493 -26.559 250.073C-25.1254 251.505 -23.6919 253.653 -22.2583 255.084C-18.6743 259.38 -14.3736 262.96 -10.0728 266.54C-7.20565 268.688 -3.62174 270.12 -0.0377884 272.268C2.82937 273.7 4.97974 275.131 7.13011 276.563C11.4309 279.427 17.1652 280.859 22.1828 282.291L24.3331 283.007C25.7667 283.007 26.4835 283.723 27.917 283.723C32.9346 285.155 37.2353 286.587 42.2529 287.303C47.9872 288.019 53.0047 288.735 58.7391 289.451C70.2077 288.735 79.526 290.167 88.8442 290.883ZM25.0499 277.279C23.6163 276.563 21.4659 276.563 20.0324 275.847C23.6163 275.847 27.2003 275.131 30.0674 275.131C32.9346 275.131 35.8017 274.415 38.6689 274.415C42.2529 274.415 45.12 273.699 47.9872 272.983L49.4208 272.268C51.5711 271.552 53.7215 271.552 55.8719 270.836C58.0223 270.12 60.8894 270.12 63.7566 269.404C65.1902 268.688 66.6237 268.688 68.0573 268.688C70.2077 268.688 72.3581 267.972 73.7916 267.256C75.942 266.54 78.0924 265.824 80.2428 265.824C82.3931 265.108 83.8267 265.108 85.9771 264.392C88.1274 263.676 89.561 262.96 91.7114 262.244C98.8793 260.096 106.047 257.948 113.215 255.8C126.117 252.221 134.719 242.197 144.037 232.89C146.904 230.026 149.771 227.162 151.922 224.298C154.072 222.15 156.939 219.286 159.807 216.423C161.24 214.275 162.674 212.127 163.39 209.979C164.107 207.831 165.541 206.399 166.258 204.967C171.275 197.807 174.142 190.648 175.576 182.056C179.877 184.204 184.177 186.352 187.761 189.216C188.478 189.932 189.912 190.648 190.629 191.364C192.062 192.08 193.496 193.512 194.929 194.228C197.08 195.66 197.796 197.807 199.23 199.955C199.947 200.671 199.947 201.387 200.664 202.819L201.38 203.535C203.531 206.399 204.964 209.263 205.681 212.843C205.681 214.275 206.398 214.991 207.115 215.707C207.831 216.422 207.831 217.138 207.831 217.854C204.964 222.15 202.097 226.446 199.23 230.026C197.796 232.174 196.363 234.322 194.212 236.469L192.779 237.901C192.062 239.333 191.345 240.765 189.912 242.197C188.478 244.345 187.761 246.493 185.611 247.925C182.744 250.073 181.31 252.221 179.16 255.084C177.726 256.516 177.009 257.948 175.576 259.38C173.425 261.528 171.275 262.96 169.125 264.392C166.974 265.824 164.107 267.972 162.674 270.12C160.523 272.268 158.373 272.984 155.506 274.415C154.789 274.415 154.072 275.131 153.355 275.131C151.922 275.847 150.488 276.563 149.055 277.279C147.621 277.995 146.187 278.711 144.754 279.427C140.453 281.575 135.436 282.291 130.418 283.007C128.268 283.723 125.401 283.723 123.25 284.439C111.782 287.303 98.1625 289.451 84.5435 288.019C76.6588 287.303 68.7741 285.871 60.8894 285.155C54.4383 284.439 48.704 283.723 42.2529 283.007C37.2353 282.291 32.2178 280.859 27.917 279.427C27.917 278.711 26.4835 277.995 25.0499 277.279ZM-12.94 224.298C-11.5064 224.298 -10.0728 223.582 -8.63926 223.582C-2.18814 222.866 3.54617 222.15 9.99728 220.718C12.1477 220.002 14.298 219.286 16.4484 218.57C17.882 217.854 20.0324 217.138 22.1828 216.423C23.6163 215.707 25.0499 215.707 27.2003 214.991C27.2003 214.991 27.917 214.991 28.6338 214.991H29.3507H30.7842C32.2178 214.991 33.6514 214.275 35.085 214.275C37.9521 213.559 40.8193 212.127 43.6865 210.695C46.5536 209.263 48.704 207.831 51.5712 206.399C53.0047 205.683 53.7215 204.967 55.1551 204.251C55.8719 203.535 57.3055 203.535 58.0223 202.819C60.1727 201.387 62.323 200.671 65.1902 199.239C66.6238 198.523 68.0573 197.092 69.4909 195.66C70.9245 194.228 71.6413 193.512 73.0749 192.796C75.942 190.648 78.0924 189.932 80.2428 187.068C81.6763 184.92 82.3931 183.488 83.8267 181.34C84.5435 179.908 85.9771 178.477 86.6939 177.045L87.4107 175.613C88.8443 173.465 90.9946 170.601 91.7114 167.737C91.7114 167.021 92.4282 166.305 92.4282 165.589C93.145 164.873 93.145 163.441 93.8618 162.725C93.8618 162.009 94.5786 161.293 94.5786 161.293C95.2954 162.009 96.0121 162.009 96.7289 162.009H97.4458H98.1625C100.313 162.725 102.463 163.441 104.614 163.441C106.047 163.441 108.198 164.157 109.631 164.157C113.215 164.873 116.799 164.873 120.383 165.589C123.25 166.305 126.834 167.021 130.418 167.737C132.568 167.737 134.002 168.453 136.152 168.453C141.17 169.169 146.187 170.601 153.355 172.033C160.523 173.465 166.974 177.045 172.709 179.908L174.142 180.624C174.142 180.624 174.142 181.34 174.859 181.34C174.859 182.056 174.859 183.488 174.142 183.488V184.204C173.426 187.068 172.709 189.216 171.992 191.364C170.558 194.944 169.125 198.523 165.541 202.819C163.39 204.967 162.674 207.831 161.24 209.979C160.523 210.695 160.523 212.127 159.807 212.843C158.373 214.991 156.223 217.138 154.072 219.286C153.355 220.002 153.355 220.002 152.639 220.718C149.055 224.298 146.187 227.162 142.604 230.742C140.453 233.606 137.586 235.754 134.719 238.617C133.285 240.049 131.135 242.197 128.984 243.629C128.268 244.345 127.551 245.061 126.834 245.061C123.967 247.209 120.383 248.641 116.799 250.073C116.082 250.789 114.649 250.789 113.932 251.505C111.065 252.937 108.198 253.653 105.33 254.369C103.897 255.085 102.463 255.084 101.03 255.8C99.5961 256.516 98.1625 256.516 96.7289 257.232C93.8618 257.948 91.7114 259.38 88.8442 260.096C87.4107 260.812 85.9771 260.812 83.8267 261.528C80.9596 262.244 78.8092 262.96 75.942 263.676C74.5085 263.676 73.0748 264.392 71.6413 264.392C68.7741 265.108 65.907 265.824 63.0398 266.54C43.6864 271.552 27.917 273.699 14.298 272.983C14.298 272.983 13.5813 272.268 12.8645 272.268H12.1477H11.4309C9.28053 270.836 6.41332 269.404 3.54617 267.972C1.39579 267.256 -0.0377579 265.824 -2.18813 265.108C-2.90492 264.392 -3.62172 264.392 -5.0553 263.676C-6.48888 262.96 -7.92246 261.528 -8.63926 260.812C-9.35604 260.096 -10.0728 259.38 -11.5064 258.664C-15.8072 255.8 -20.1079 250.789 -25.1255 243.629C-26.559 241.481 -27.9926 240.049 -29.4262 238.617C-31.5766 236.47 -33.0101 234.322 -34.4437 232.174C-36.5941 227.878 -38.7445 224.298 -40.8948 221.434C-36.5941 221.434 -32.2934 222.15 -29.4262 222.866C-23.6919 224.298 -17.2407 224.298 -12.94 224.298ZM-61.6818 175.613C-62.3985 174.181 -62.3985 172.033 -63.1153 170.601C-64.5489 164.157 -66.6993 156.998 -66.6993 150.554C-66.6993 148.406 -66.6993 146.258 -66.6993 143.394C-66.6993 140.531 -66.6993 136.951 -66.6993 134.087C-66.6993 131.223 -66.6993 128.359 -66.6993 125.495C-66.6993 121.916 -66.6993 118.336 -65.9825 114.756C-65.9825 114.04 -65.9825 114.04 -65.9825 113.324C-64.5489 100.437 -58.8146 88.2652 -53.7971 79.6737C-53.0803 78.2417 -51.6467 76.0939 -50.9299 74.6619C-45.9124 65.3544 -41.6116 56.047 -34.4437 48.8874C-27.9926 42.4437 -20.8247 36.716 -13.6568 30.9883C-11.5064 29.5564 -9.35607 27.4084 -7.2057 25.9765C-6.48891 25.2605 -5.77208 25.2606 -5.77208 24.5446C-6.48887 25.2606 -6.48886 25.9765 -6.48886 25.9765C-7.20565 27.4084 -8.63924 28.8404 -9.35603 30.2723C-10.7896 32.4202 -12.2232 34.568 -12.94 36.7159C-16.5239 44.5915 -17.9575 53.1831 -18.6743 59.6268C-18.6743 61.0587 -18.6743 61.7747 -19.3911 63.2066C-19.3911 64.6385 -19.3911 66.0705 -20.1079 66.7864C-20.8247 70.3662 -20.8247 73.9461 -20.8247 77.5259C-20.8247 79.6738 -20.8247 81.8216 -20.8247 83.9695C-20.8247 86.1174 -20.8247 88.9812 -20.8247 91.1291C-21.5415 101.869 -20.8247 111.892 -19.3911 121.2C-17.9575 129.075 -15.8071 136.951 -12.94 145.542C-12.2232 146.974 -12.2232 148.406 -11.5064 149.838C-9.35606 157.714 -6.48886 165.589 -2.90491 173.465C-0.754539 177.761 2.11263 182.056 4.26299 186.352C4.97979 187.068 5.69656 188.5 5.69656 189.932C7.13013 192.08 7.84692 194.944 9.28051 196.376C9.9973 197.092 9.99728 197.807 10.7141 197.807C11.4309 198.523 11.4309 199.239 12.1477 199.955C12.8645 200.671 13.5812 201.387 13.5812 201.387C14.298 202.103 15.7316 202.819 16.4484 204.251C17.1652 205.683 18.5988 207.115 19.3156 207.831C20.7492 209.263 22.1827 211.411 23.6163 212.843H22.8995C19.3156 213.559 15.7316 214.275 12.1477 215.707C5.69656 217.854 -0.754578 219.286 -7.2057 220.002H-7.92247C-14.3736 220.718 -20.8247 221.434 -25.8422 220.718C-27.9926 220.718 -29.4262 220.002 -31.5765 220.002C-33.0101 220.002 -34.4437 219.286 -35.8773 219.286L-40.178 218.57L-40.8948 217.854H-42.3284C-43.0452 216.423 -43.762 214.991 -44.4788 213.559C-45.1956 212.843 -45.1955 212.127 -45.9123 211.411C-46.6291 209.979 -47.3459 209.263 -48.0627 207.831C-48.7795 205.683 -50.2131 204.251 -50.9299 202.819C-53.7971 197.808 -56.6642 192.796 -58.8146 187.068C-60.2482 183.488 -60.965 179.193 -61.6818 175.613ZM68.0573 2.34983C68.7741 2.34983 70.2077 2.34976 70.9245 3.06572L82.3931 4.49763C88.1274 5.21359 93.8618 6.64556 99.5961 8.79344C101.03 9.50941 102.463 9.50938 103.897 10.2253C103.18 10.2253 103.18 10.2253 102.463 10.2253C99.5961 9.50938 96.0121 8.79344 93.145 8.79344C89.561 8.07748 86.6939 8.07744 83.8267 8.07744C83.1099 8.07744 81.6763 8.07744 80.9595 8.07744C80.2428 8.07744 78.8092 8.07744 78.0924 8.07744C77.3756 7.36148 77.3756 7.36154 76.6588 7.36154H75.942C75.2253 7.36154 75.2252 6.64553 74.5084 6.64553C73.0748 5.92957 72.3581 5.92959 70.2077 5.21363H69.4909C65.907 4.49767 61.6062 3.78175 58.0223 2.34983C58.7391 2.34983 60.1726 2.34983 60.8894 2.34983H61.6062C63.7566 1.63386 65.9069 1.63386 68.0573 2.34983ZM128.984 17.385C129.701 17.385 129.701 17.385 128.984 17.385C130.418 17.385 131.852 18.101 132.568 18.101L135.436 19.5329C139.02 20.9648 141.887 23.1127 144.754 24.5446C146.187 25.2606 148.338 26.6925 149.771 27.4085C151.205 28.1245 152.639 28.8403 154.072 29.5563C164.824 36 173.426 45.3075 182.027 53.8991L184.894 57.4789C185.611 58.1949 187.045 59.6267 187.761 60.3427C192.062 64.6385 195.646 68.9343 199.23 73.9461C199.947 74.662 200.664 76.0939 200.664 76.8099C203.531 81.8216 206.398 87.5493 207.831 93.277C207.831 94.7089 208.548 96.8568 209.265 98.2887C209.265 99.0047 209.982 99.7207 209.982 100.437C210.699 103.3 211.415 105.448 212.132 108.312C212.132 109.028 212.132 109.744 212.849 110.46L214.283 116.904C212.849 115.472 211.415 114.756 209.982 113.324C205.681 109.744 202.097 106.164 197.796 102.585C194.929 100.437 192.779 97.5728 189.912 95.4249C185.611 91.8451 179.877 88.9812 174.859 86.8333C173.426 86.1173 171.992 85.4015 170.558 84.6855C168.408 83.2536 165.541 82.5376 163.39 81.1057C159.09 78.9578 154.789 76.8099 149.771 75.378C134.719 70.3662 121.1 68.2183 108.198 68.9342C106.047 68.9342 103.18 68.9342 101.03 68.9342C96.0122 68.9342 90.9946 68.9343 86.6939 69.6502C79.526 70.3662 72.3581 69.6502 65.1902 69.6502H63.7566C63.0398 62.4906 63.0398 56.7629 63.0398 51.0352C63.0398 48.8873 63.0398 47.4555 63.0398 45.3076C63.0398 43.1597 63.0398 40.2958 63.0398 37.4319C63.0398 36 63.0398 35.284 63.7566 33.8521C63.7566 32.4202 63.7566 31.7042 64.4733 30.2723C64.4733 28.1244 65.1902 25.2606 65.907 23.1127C67.3405 18.8169 70.2077 13.8052 74.5084 10.9414C76.6588 9.50943 79.526 9.50945 82.3931 9.50945C83.8267 9.50945 84.5435 9.50945 85.9771 9.50945C88.8442 9.50945 92.4282 10.2253 96.0121 10.2253C97.4457 10.2253 98.8793 10.9414 101.03 10.9414C105.33 11.6573 109.631 12.3732 113.215 13.8052C114.649 14.5211 116.799 14.5212 118.233 14.5212C121.1 14.5212 123.25 14.5211 125.401 15.9531C127.551 17.385 128.268 17.385 128.984 17.385ZM209.265 214.991C208.548 213.559 207.831 212.127 207.115 210.695C206.398 209.263 206.398 207.831 204.964 205.683V204.967C202.814 199.955 199.947 195.66 195.646 191.364C194.212 189.932 192.779 189.216 191.345 188.5C190.629 187.784 189.912 187.784 189.195 187.068C188.478 186.352 187.761 186.352 187.045 185.636C184.894 184.204 183.461 182.772 181.31 182.056C179.16 181.34 177.009 179.908 174.859 179.193C174.859 179.193 174.859 178.477 174.142 178.477H173.426L172.709 177.761C169.125 176.329 166.258 174.181 162.674 172.749C156.939 169.885 151.205 169.169 145.471 167.737C144.754 167.737 143.32 167.021 142.604 167.021C141.17 166.305 139.02 166.305 137.586 165.589C136.152 165.589 134.719 164.873 133.285 164.873C131.852 164.157 130.418 164.157 128.268 164.157C125.401 164.157 121.817 163.441 118.949 162.725C116.082 162.009 112.498 161.293 108.914 161.293H108.198C103.897 160.577 99.5961 160.577 96.0121 159.146C95.2953 159.146 95.2954 159.145 95.2954 158.43C95.2954 158.43 95.2954 158.43 94.5786 158.43C93.8618 157.714 93.145 156.282 92.4282 154.85C91.7114 153.418 91.7114 152.702 90.9946 151.986C88.8443 149.122 87.4106 146.258 85.9771 142.678C85.2603 141.246 85.2603 140.53 84.5435 139.099C80.9595 131.939 78.0924 124.063 75.942 116.904C75.2253 114.04 73.7917 111.176 73.0749 109.028C71.6413 105.448 70.9245 101.868 70.2077 97.5727C70.2077 96.8568 69.4909 95.4249 69.4909 94.7089C68.7741 92.561 68.0573 90.4131 68.0573 88.9812C67.3405 86.1173 66.6237 83.2535 65.907 80.3897C65.907 77.5258 65.1902 75.3779 65.1902 72.514C70.9245 73.23 76.6588 73.9461 83.1099 73.9461H85.9771C92.4282 73.2301 98.8793 73.23 105.33 73.23C107.481 73.23 108.914 73.23 111.065 73.23C116.082 73.23 120.383 73.2301 125.401 73.9461C131.852 74.662 137.586 76.0939 144.037 77.5259C151.922 79.6738 159.09 82.5375 164.824 85.4014C167.691 86.8333 171.275 88.2653 174.142 89.6972C177.726 91.1291 181.31 92.561 184.894 94.7089C187.761 96.1408 190.628 99.0046 192.779 101.153L193.496 101.869C195.646 104.016 197.08 105.448 199.23 106.88C199.947 107.596 201.38 109.028 202.097 109.744L203.531 110.46C205.681 112.608 207.831 114.756 209.982 116.188C210.699 116.904 214.283 119.768 215.716 121.2C216.433 124.063 217.15 128.359 217.867 132.655C220.017 144.826 220.017 157.714 218.583 171.317C217.867 174.181 218.583 177.761 218.583 181.34C218.583 184.204 218.583 187.068 218.583 189.932V190.648C217.867 197.807 216.433 204.251 212.132 212.843C210.699 213.559 209.982 214.991 209.265 214.991C209.265 215.707 209.265 215.707 209.265 214.991ZM47.9872 2.34983C48.704 2.34983 49.4208 2.34983 49.4208 2.34983C51.5711 2.34983 53.0047 3.06577 55.1551 3.78173C56.5887 3.78173 57.3055 4.49763 58.7391 4.49763C60.1726 4.49763 61.6062 5.21363 63.0398 5.21363C64.4734 5.21363 66.6237 5.92964 68.0573 5.92964C68.7741 5.92964 69.4909 5.92957 70.2077 6.64553H70.9245C71.6413 6.64553 73.0749 7.36154 73.7916 7.36154C67.3405 10.9414 64.4734 18.8169 63.0398 21.6808C62.323 23.8287 61.6062 25.9766 61.6062 28.8404C61.6062 30.2723 61.6062 31.7042 60.8894 33.8521C60.8894 35.284 60.8894 36.716 60.1726 38.1479C59.4558 41.7278 59.4558 44.5916 59.4558 48.1714C59.4558 50.3193 59.4558 51.7512 59.4558 53.8991C59.4558 58.1949 59.4558 63.2065 60.1726 68.9342V69.6502V71.0821L60.8894 71.7981C61.6062 75.378 61.6062 78.9577 62.323 83.2535C63.0398 86.1173 63.7566 88.9812 64.4733 91.1291C65.1901 93.993 65.907 96.1409 66.6237 99.0047C67.3405 104.016 69.4909 109.028 70.9245 113.324C71.6413 114.756 71.6413 115.472 72.3581 116.904C73.7917 121.2 75.2252 126.211 76.6588 130.507L77.3756 132.655C78.8092 136.951 80.9596 141.247 83.1099 145.542L85.9771 150.554C87.4106 153.418 88.8443 156.282 90.2778 159.146H89.561V159.862C89.561 159.862 89.5611 160.577 90.2778 161.293C87.4107 166.305 85.2603 171.317 81.6763 175.613C80.2428 177.761 78.8092 179.908 78.0924 181.34C77.3756 182.056 76.6588 183.488 75.942 184.204C73.7917 187.784 70.9245 189.216 68.0573 191.364C65.9069 192.796 64.4734 194.228 63.0398 195.66C60.1726 197.808 57.3055 200.671 53.7215 201.387C50.1375 202.819 46.5536 204.967 42.9696 206.399C40.1025 207.831 37.2353 209.979 33.6514 211.411C31.501 212.127 29.3506 212.843 27.2003 213.559L26.4835 212.843C25.0499 211.411 24.3331 209.979 22.8995 208.547C22.1827 207.831 21.4659 206.399 20.7491 205.683C20.0324 204.251 18.5988 203.535 17.882 202.103C16.4484 200.671 14.298 198.523 13.5812 197.092C13.5812 196.376 12.8645 195.66 12.1477 194.944C11.4309 194.228 11.4309 193.512 10.7141 192.796C9.99728 191.364 9.28053 189.216 7.84695 187.784C4.97979 182.772 2.82941 178.477 0.679047 174.897C-2.90491 168.453 -5.05532 162.009 -7.2057 154.85C-7.92249 152.702 -8.63924 150.554 -9.35603 149.122C-12.94 138.383 -15.8071 129.075 -17.2407 120.484C-18.6743 111.892 -19.3911 103.3 -18.6743 93.9929C-18.6743 90.4131 -18.6743 86.8333 -17.9576 83.2535C-17.9576 78.2417 -17.2407 72.5141 -17.2407 66.7864C-17.2407 65.3545 -16.5239 63.2065 -16.5239 61.7746C-15.0904 53.1831 -13.6568 46.0235 -11.5064 38.8638C-10.0728 35.284 -8.63923 32.4202 -6.48886 28.8404C-5.77207 28.1244 -5.77209 27.4085 -5.0553 26.6925C-3.62172 24.5446 -1.47135 22.3968 -1.47135 20.2489V19.5329C0.679024 18.8169 2.82941 18.1009 4.97977 17.385C7.13015 16.669 8.5637 15.9531 10.7141 14.5212C13.5812 12.3733 15.7316 11.6573 19.3156 10.2253C23.6163 8.79342 27.2003 7.36156 30.7842 5.92964C32.2178 5.21368 32.9346 5.21359 34.3682 4.49763C37.9521 3.0657 42.2528 2.34978 46.5536 1.63382L47.9872 2.34983Z" fill="url(#paint0_linear)" fill-opacity="0.2"/>
<path d="M70.207 13.8054C70.207 13.8054 71.6406 13.8055 73.791 14.5214C75.2246 14.5214 76.6581 15.2373 78.0917 15.2373C79.5253 15.2373 81.6757 15.9533 83.8261 15.9533C88.1268 16.6693 92.4276 16.6693 97.4451 16.6693C100.312 16.6693 102.463 16.6693 105.33 17.3852C108.197 17.3852 111.064 17.3853 113.214 18.1012C116.082 18.1012 118.949 18.8172 121.099 19.5331C123.966 20.2491 126.117 20.9651 128.984 21.681C131.134 22.397 134.001 23.8289 135.435 24.5448C137.585 25.2608 139.736 26.6928 141.169 27.4087C143.32 28.1247 144.753 29.5566 146.187 30.2725C147.62 30.9885 149.054 31.7045 149.771 32.4205C151.921 33.8524 152.638 34.5684 152.638 34.5684C152.638 34.5684 147.62 32.4205 140.453 28.8406C138.302 28.1247 136.869 26.6927 134.718 25.9767C132.568 25.2608 130.417 23.8289 128.267 23.1129C126.117 22.397 123.25 21.6811 121.099 20.2491C118.232 19.5332 116.082 18.8171 113.214 18.8171C110.347 18.1012 108.197 18.1012 105.33 18.1012C102.463 18.1012 100.312 17.3852 97.4451 17.3852C92.4276 17.3852 87.41 16.6693 83.8261 15.9533C81.6757 15.9533 80.2421 15.2373 78.0917 15.2373C76.6581 15.2373 75.2246 14.5214 73.791 14.5214C71.6406 13.8055 70.207 13.8054 70.207 13.8054Z" fill="url(#paint1_linear)" fill-opacity="0.2"/>
<path d="M68.7734 19.5336C68.7734 19.5336 70.9238 19.5336 73.7909 20.2496C77.3749 20.9655 81.6757 20.2495 87.41 20.9655C90.2771 20.9655 93.1443 20.9655 96.7282 21.6815C100.312 21.6815 103.179 22.3974 106.763 23.1134C110.347 23.8293 113.931 24.5453 117.515 25.9772C121.099 27.4091 124.683 28.1251 128.267 29.557C131.851 30.9889 135.435 31.7049 139.019 33.1368C142.603 34.5687 146.187 36.0007 149.054 37.4326C151.921 38.8646 155.505 40.2965 158.372 42.4443C161.239 43.8763 164.107 45.3082 166.257 47.4561C168.407 48.888 170.558 50.32 172.708 51.7519C174.858 53.1838 176.292 53.8998 177.726 55.3317C179.159 56.0476 179.876 56.7636 180.593 58.1955V58.9115C180.593 58.9115 180.593 58.9115 179.876 58.9115C179.876 58.9115 180.593 58.9115 179.876 58.1955C179.159 57.4795 178.442 56.7637 177.009 56.0477C174.142 54.6158 170.558 51.7519 165.54 48.8881C160.523 46.0242 154.788 43.1603 148.337 39.5805C145.47 38.1486 141.886 36.7166 138.302 35.2847C134.718 33.8528 131.134 32.4209 127.55 31.7049C123.966 30.273 120.382 29.557 116.798 28.1251C113.214 26.6932 109.63 25.9773 106.047 25.2613C102.463 24.5453 98.8786 23.8294 96.0114 23.8294C93.1443 23.8294 89.5604 23.1134 86.6932 23.1134C80.9589 23.1134 76.6581 22.3974 73.0742 22.3974C70.207 20.2495 68.7734 19.5336 68.7734 19.5336Z" fill="url(#paint2_linear)" fill-opacity="0.2"/>
<path d="M68.0566 27.4098C68.0566 27.4098 78.8085 28.1257 90.2772 28.8417C93.1443 28.8417 96.0115 29.5576 98.1619 29.5576C101.029 29.5576 103.179 30.2736 105.33 30.9896C109.631 31.7056 111.781 32.4215 111.781 32.4215C111.781 32.4215 108.914 32.4215 104.613 32.4215C102.463 32.4215 100.312 31.7055 97.4451 31.7055C94.5779 30.9895 92.4275 30.9896 89.5604 30.2736C78.8085 28.8417 68.0566 28.1258 68.0566 27.4098Z" fill="url(#paint3_linear)" fill-opacity="0.2"/>
<path d="M66.623 34.5695C66.623 34.5695 71.6406 35.2854 75.9413 35.2854C77.3749 35.2854 78.0917 35.2854 79.5253 35.2854C80.9589 35.2854 81.6756 36.0014 82.3924 36.0014C83.826 36.7174 85.2596 36.7173 85.2596 36.7173C85.2596 36.7173 83.826 36.7173 82.3924 36.7173C81.6756 36.7173 80.2421 36.7173 79.5253 36.7173C78.0917 36.7173 77.3749 36.0014 75.9413 36.0014C71.6406 35.2854 66.623 34.5695 66.623 34.5695Z" fill="url(#paint4_linear)" fill-opacity="0.2"/>
<path d="M80.9588 8.79395C80.9588 8.79395 80.242 9.50993 78.0916 10.9419C77.3749 11.6578 76.6581 13.0897 75.9413 13.8057C75.2245 15.2376 74.5077 16.6695 73.0741 18.1015C72.3573 19.5334 70.9238 21.6813 70.207 23.8292C69.4902 25.9771 68.0566 28.1249 68.0566 30.2728C67.3398 32.4207 66.623 34.5686 65.9062 37.4324C65.1894 39.5803 65.1894 42.4441 64.4726 44.592C63.7558 47.4559 64.4726 49.6038 63.7558 52.4676C63.7558 55.3315 63.7558 57.4794 63.7558 59.6273C63.7558 61.7751 63.7558 64.639 64.4726 66.7869C64.4726 68.9347 65.1895 71.0826 65.1895 73.2305C65.9062 81.106 66.623 86.1178 66.623 86.1178C66.623 86.1178 66.623 84.6859 65.9062 82.538C65.1894 80.3901 64.4726 76.8103 64.4726 73.2305C63.7558 69.6507 63.0391 64.6389 63.0391 60.3431C63.0391 58.1953 63.0391 55.3314 63.0391 53.1835C63.0391 50.3197 63.0391 48.1719 63.7558 45.308C63.7558 43.8761 63.7558 42.4442 64.4726 41.7282C64.4726 40.2963 65.1895 38.8644 65.1895 38.1484C65.9062 36.0005 66.623 33.1367 67.3398 30.9888C68.7734 26.693 70.9238 22.3972 73.0741 18.8174C74.5077 17.3854 75.2245 15.9536 75.9413 14.5217C76.6581 13.0897 78.0916 12.3737 78.8084 11.6577C80.242 9.50986 80.9588 8.79395 80.9588 8.79395Z" fill="url(#paint5_linear)" fill-opacity="0.2"/>
<path d="M76.6581 12.3739C76.6581 12.3739 76.6581 13.0898 75.9414 15.2377C75.9414 15.9537 75.2245 17.3856 75.2245 18.8175C74.5077 20.2495 74.5077 21.6814 74.5077 23.1134C73.791 25.9772 73.0742 30.273 73.0742 33.8528C72.3574 38.1486 71.6406 42.4444 71.6406 46.7402C71.6406 48.8881 70.9238 51.0359 70.9238 53.1838C70.9238 55.3317 70.9238 57.4796 70.207 59.6275C70.207 61.7754 69.4902 63.2073 69.4902 65.3552C69.4902 67.5031 69.4902 68.9351 69.4902 70.367C69.4902 73.9468 69.4902 76.0946 69.4902 78.2425C69.4902 80.3904 69.4902 81.1064 69.4902 81.1064C69.4902 81.1064 69.4902 80.3904 68.7735 78.2425C68.7735 77.5266 68.7734 76.0946 68.0566 74.6627C68.0566 73.2308 67.3398 71.7989 67.3398 70.367C67.3398 68.9351 67.3398 66.7871 67.3398 65.3552C67.3398 63.2073 67.3398 61.7754 67.3398 59.6275C67.3398 57.4796 67.3398 55.3317 68.0566 53.1838C68.7734 51.0359 68.7734 48.8881 69.4902 46.7402C70.207 42.4444 70.9238 38.1486 71.6406 33.8528C72.3574 29.557 73.0742 25.9772 73.791 23.1134C73.791 21.6814 74.5077 20.2495 74.5077 18.8175C75.2245 17.3856 75.2245 16.6696 75.2245 15.2377C76.6581 13.8058 76.6581 12.3739 76.6581 12.3739Z" fill="url(#paint6_linear)" fill-opacity="0.2"/>
<path d="M83.8262 13.0906C83.8262 13.0906 83.1093 15.2384 82.3925 19.5342C82.3925 20.2501 81.6758 21.682 81.6758 22.398C81.6758 23.1139 80.959 24.5459 80.959 25.9778C80.959 27.4097 80.959 28.1257 80.959 29.5576C80.959 30.9895 80.959 32.4214 80.959 33.1374C80.959 38.1491 80.959 43.1609 80.2422 46.7407C79.5254 50.3205 78.8086 53.1843 78.8086 53.1843C78.8086 53.1843 78.8086 50.3205 78.8086 46.7407C78.8086 44.5928 78.8086 42.4449 78.8086 40.297C78.8086 38.1491 79.5254 35.2853 79.5254 33.1374C79.5254 31.7055 79.5254 30.2736 80.2422 29.5576C80.2422 28.1257 80.2422 27.4097 80.959 25.9778C80.959 24.5459 81.6758 23.8299 81.6758 22.398C81.6758 21.682 82.3925 20.2501 82.3925 19.5342C83.1093 15.2384 83.8262 13.0906 83.8262 13.0906Z" fill="url(#paint7_linear)" fill-opacity="0.2"/>
<path d="M97.4453 11.6573C97.4453 11.6573 97.4452 12.3734 96.7284 13.0894C96.0116 13.8053 95.2949 15.2372 94.5781 16.6691C94.5781 17.3851 93.8613 18.101 93.8613 19.5329C93.8613 20.2489 93.1445 21.6808 93.1445 22.3967C92.4277 24.5446 92.4277 26.6925 91.7109 29.5563C91.7109 31.7042 90.9941 34.568 90.9941 36.7159C90.9941 38.8638 90.2774 41.0117 90.2774 42.4436C89.5606 46.0234 88.8438 48.1713 88.8438 48.1713C88.8438 48.1713 88.8438 46.0234 88.8438 42.4436C88.8438 40.2957 88.8437 38.8638 89.5605 36C89.5605 33.8521 90.2774 31.7042 90.9941 28.8404C91.7109 26.6925 91.7109 23.8287 92.4277 21.6808C93.1445 20.9649 93.1445 19.5329 93.1445 18.8169C93.8613 18.101 93.8613 16.6691 94.5781 15.9531C95.2949 14.5212 96.0116 13.0893 96.7284 12.3734C97.4452 11.6574 97.4453 11.6573 97.4453 11.6573Z" fill="url(#paint8_linear)" fill-opacity="0.2"/>
<path d="M104.613 22.3967C104.613 22.3967 103.896 24.5447 103.896 27.4086C103.18 30.2724 102.463 34.5682 102.463 38.148C102.463 40.2959 102.463 42.4437 101.746 43.8756C101.746 46.0235 101.746 47.4555 101.029 48.8874C101.029 51.7513 100.312 53.8992 100.312 53.8992C100.312 53.8992 99.5957 51.7513 99.5957 48.8874C99.5957 48.1715 99.5957 47.4555 99.5957 46.7395C99.5957 46.0236 99.5957 45.3075 99.5957 43.8756C99.5957 41.7277 100.312 40.2959 100.312 38.148C101.029 33.8522 101.746 30.2724 103.18 27.4086C103.896 24.5447 104.613 22.3967 104.613 22.3967Z" fill="url(#paint9_linear)" fill-opacity="0.2"/>
<path d="M116.799 22.3977C116.799 22.3977 116.799 23.8297 116.082 25.2616C115.365 26.6935 115.365 29.5573 114.648 31.7052C114.648 33.1371 114.648 33.8531 114.648 35.285C114.648 36.7169 113.932 37.4329 113.932 38.1489C113.215 39.5808 113.215 41.0127 113.215 41.0127C113.215 41.0127 113.215 39.5808 113.215 38.1489C113.215 37.4329 113.215 36.0009 113.215 35.285C113.215 33.8531 113.932 33.1371 113.932 31.7052C114.648 30.2733 114.648 29.5573 115.365 28.1254C115.365 26.6935 116.082 25.9775 116.799 25.2616C116.082 23.1137 116.799 21.6817 116.799 22.3977Z" fill="url(#paint10_linear)" fill-opacity="0.2"/>
<path d="M126.117 17.3864C126.117 17.3864 126.117 17.3864 126.117 18.1024C126.117 18.8184 125.4 19.5344 125.4 20.2503C124.684 22.3982 124.684 25.262 123.967 28.1258C123.967 29.5578 123.967 30.9897 123.967 32.4217C123.967 33.8536 123.25 35.2855 123.25 36.0015C122.533 38.1494 122.533 39.5813 122.533 39.5813C122.533 39.5813 122.533 38.1494 122.533 36.0015C122.533 35.2855 122.533 33.8536 122.533 32.4217C122.533 30.9897 123.25 29.5578 123.25 28.1258C123.967 25.262 124.684 22.3982 125.4 20.2503C125.4 19.5344 126.117 18.1024 126.117 18.1024C126.117 17.3864 126.117 16.6704 126.117 17.3864Z" fill="url(#paint11_linear)" fill-opacity="0.2"/>
<path d="M138.303 25.2616C138.303 25.2616 137.586 30.2733 136.152 35.285C136.152 36.717 135.435 38.1489 135.435 38.8649C135.435 40.2968 134.719 41.0127 134.719 42.4447C134.002 44.5926 133.285 45.3086 133.285 45.3086C133.285 45.3086 133.285 43.8767 133.285 41.7288C133.285 41.0128 133.285 39.5809 134.002 38.149C134.002 36.717 134.719 36.0011 134.719 34.5691C136.152 30.2734 137.586 25.2616 138.303 25.2616Z" fill="url(#paint12_linear)" fill-opacity="0.2"/>
<path d="M90.2773 164.158C90.2773 164.158 93.1445 164.158 96.7284 164.874C97.4452 164.874 98.8788 164.874 100.312 164.874C101.746 164.874 102.463 164.874 103.896 165.589C106.763 166.305 108.914 166.306 111.781 167.021C114.648 167.737 116.799 168.453 119.666 169.169C121.099 169.885 121.816 169.885 123.25 170.601C124.683 171.317 125.4 171.317 126.117 172.033C129.701 173.465 132.568 174.897 132.568 174.897C132.568 174.897 129.701 174.181 126.117 172.749C123.966 172.033 121.816 171.317 119.666 170.601C117.515 169.885 114.648 169.169 111.781 168.453C108.914 167.737 106.763 167.021 103.896 167.021C101.746 166.306 98.8788 166.305 96.7284 165.589C93.1445 164.874 90.2773 164.874 90.2773 164.158Z" fill="url(#paint13_linear)" fill-opacity="0.2"/>
<path d="M88.127 170.602C88.127 170.602 88.8437 170.602 89.5605 170.602C90.2773 170.602 91.7109 170.602 93.1445 171.318C94.578 171.318 96.0117 172.034 98.162 172.75C100.312 173.466 101.746 174.182 103.896 174.182C106.047 174.898 107.48 175.614 109.631 176.33C111.064 177.046 113.215 177.762 113.931 178.478C116.799 179.91 118.232 181.342 118.232 181.342C118.232 181.342 116.082 180.626 113.215 179.91C111.781 179.194 110.347 178.478 108.197 177.762C106.764 177.046 104.613 176.33 103.18 175.614C101.029 174.898 99.5956 174.182 97.4452 173.466C96.0117 172.75 93.8613 172.034 92.4277 172.034C90.9941 171.318 89.5605 171.318 88.8437 171.318C88.1269 170.602 88.127 170.602 88.127 170.602Z" fill="url(#paint14_linear)" fill-opacity="0.2"/>
<path d="M84.543 177.762C84.543 177.762 85.9765 177.762 88.1269 178.478C90.2773 178.478 93.1444 179.194 96.7284 179.91C98.162 179.91 99.5956 180.626 101.029 180.626C101.746 180.626 102.463 180.626 103.18 181.342C103.896 181.342 104.613 182.058 104.613 182.058C106.763 182.774 108.197 184.206 108.197 184.206C108.197 184.206 106.763 184.206 104.613 183.49C103.18 183.49 102.463 182.774 101.029 182.774C99.5956 182.058 98.162 182.058 96.7284 181.342C90.2773 179.91 84.543 178.478 84.543 177.762Z" fill="url(#paint15_linear)" fill-opacity="0.2"/>
<path d="M78.0918 184.205C78.0918 184.205 82.3926 185.637 87.4101 186.353C88.8437 186.353 89.5605 187.069 90.994 187.069C91.7108 187.069 93.1444 187.785 93.8612 188.501C95.2948 189.217 96.7283 189.933 96.7283 189.933C96.7283 189.933 95.2948 189.933 93.8612 189.933C93.1444 189.933 91.7108 189.217 90.994 189.217C90.2773 188.501 88.8437 188.501 88.1269 187.785C82.3925 186.353 78.0918 184.205 78.0918 184.205Z" fill="url(#paint16_linear)" fill-opacity="0.2"/>
<path d="M74.5078 191.364C74.5078 191.364 75.2246 191.364 75.9414 191.364C76.6582 191.364 78.0918 191.364 79.5254 192.08C80.2422 192.08 80.9589 192.796 80.9589 192.796C81.6757 192.796 81.6757 193.512 82.3925 193.512C83.1093 194.228 83.1093 194.944 83.1093 194.944C83.1093 194.944 82.3925 194.944 81.6757 194.944C80.9589 194.944 80.9589 194.228 80.2422 194.228C79.5254 194.228 79.5253 193.512 78.8085 193.512C78.0918 192.796 76.6582 192.796 75.9414 192.08C75.2246 192.08 74.5078 192.08 74.5078 191.364Z" fill="url(#paint17_linear)" fill-opacity="0.2"/>
<path d="M68.0566 197.093C68.0566 197.093 68.7735 197.093 70.207 197.093H70.9238C70.9238 197.093 71.6406 197.093 71.6406 197.809L72.3574 198.524C72.3574 198.524 72.3574 198.525 71.6406 199.24H70.9238C70.9238 199.24 70.207 199.24 70.207 198.524C68.7735 197.809 68.0566 197.093 68.0566 197.093Z" fill="url(#paint18_linear)" fill-opacity="0.2"/>
<path d="M94.5778 162.009C94.5778 162.009 94.5778 162.725 93.861 164.873C93.861 165.589 93.1442 166.305 93.1442 167.737C92.4274 169.169 92.4274 169.885 91.7106 171.317C90.9938 172.749 90.277 174.181 89.5602 174.897C88.8435 176.329 87.4099 177.761 86.6931 179.192C84.5428 182.056 81.6756 184.92 79.5252 187.784C78.0916 189.216 77.3748 190.648 75.9413 192.08C74.5077 193.512 73.7909 194.944 72.3573 196.376C70.9237 197.808 70.2069 199.239 68.7734 199.955C67.3398 200.671 66.623 202.103 65.1894 202.819C64.4726 203.535 63.039 204.251 61.6055 204.967C60.8887 205.683 59.4551 206.399 58.7383 206.399C57.3047 207.115 56.5879 207.831 56.5879 207.831C56.5879 207.831 57.3047 207.115 58.7383 206.399C59.4551 205.683 60.1718 204.967 60.8886 204.251C61.6054 203.535 63.039 202.819 63.7558 202.103C64.4726 201.387 65.9062 199.955 67.3397 199.24C68.7733 197.808 69.4901 197.092 70.9237 195.66C72.3573 194.228 73.0741 192.796 74.5077 191.364C75.9412 189.932 76.658 188.5 78.0916 187.068C80.242 184.204 83.1091 181.34 85.2595 178.476C87.4099 175.613 89.5603 173.465 90.9939 170.601C91.7106 169.169 92.4274 168.453 93.1442 167.021C93.861 166.305 93.861 164.873 94.5778 164.157C93.861 162.725 94.5778 162.009 94.5778 162.009Z" fill="url(#paint19_linear)" fill-opacity="0.2"/>
<path d="M100.312 164.158C100.312 164.158 100.312 164.874 99.5954 166.305C99.5954 167.021 98.8787 167.737 98.8787 168.453C98.8787 169.169 98.1619 169.885 98.1619 171.317C97.4451 172.033 97.4451 173.465 96.7283 174.181C96.0115 174.897 95.2947 176.329 94.5779 177.045C93.8611 178.477 93.1443 179.193 92.4275 180.625C91.7107 182.057 90.994 182.773 90.2772 184.205C88.1268 186.352 86.6932 188.5 84.5429 189.932C83.8261 190.648 82.3925 191.364 81.6757 192.08C80.9589 192.796 79.5253 193.512 78.8085 194.228C77.3749 195.66 75.9414 196.376 74.5078 197.092C73.791 197.808 73.0742 197.808 73.0742 197.808C73.0742 197.808 73.791 197.092 74.5078 196.376C75.2246 195.66 75.2246 195.66 75.9414 194.944C76.6582 194.228 77.3749 193.512 78.0917 192.796C79.5253 191.364 81.6757 189.932 83.1093 187.784C85.2597 186.352 86.6932 184.205 88.8436 182.057C89.5604 181.341 90.2772 179.909 91.7108 179.193C92.4275 178.477 93.1444 177.045 93.8611 176.329C94.5779 175.613 95.2947 174.181 96.0115 173.465C96.7283 172.749 96.7283 171.317 97.4451 170.601C98.1619 169.885 98.1619 169.169 98.8787 168.453C98.8787 167.737 99.5954 167.021 99.5954 166.305C99.5954 164.158 99.5954 164.158 100.312 164.158Z" fill="url(#paint20_linear)" fill-opacity="0.2"/>
<path d="M107.48 162.725C107.48 162.725 106.047 164.873 103.896 168.453C101.746 172.033 98.8787 177.045 96.0116 181.34C94.578 183.488 93.1444 186.352 90.994 187.784C90.2773 188.5 89.5605 189.932 88.1269 190.648C87.4101 191.364 86.6933 192.08 85.9765 192.796C84.5429 194.228 83.1093 194.944 81.6757 196.375C80.959 197.091 80.2422 197.807 80.2422 197.807C80.2422 197.807 80.959 197.091 81.6757 196.375C82.3925 195.66 83.8261 194.228 85.2597 192.796C86.6933 191.364 88.1268 189.216 89.5604 187.068C90.994 184.92 93.1444 182.772 94.578 180.624C98.1619 176.329 101.029 171.317 103.179 167.737C106.047 164.873 107.48 162.009 107.48 162.725Z" fill="url(#paint21_linear)" fill-opacity="0.2"/>
<path d="M116.082 163.443C116.082 163.443 116.082 164.159 115.365 164.875C115.365 165.59 114.648 167.022 113.931 168.454C113.931 169.17 113.215 169.886 113.215 170.602C112.498 171.318 112.498 172.034 111.781 173.466C111.064 175.614 109.631 177.046 108.197 178.478C106.764 179.91 106.047 182.058 104.613 183.49C103.18 184.921 101.746 186.353 101.029 187.069C98.8789 189.217 96.7285 190.649 96.7285 190.649C96.7285 190.649 96.7286 189.933 97.4453 189.217C98.1621 188.501 98.8789 187.785 99.5957 186.353C100.312 184.922 101.746 183.49 103.18 182.058C104.613 180.626 106.047 179.194 107.48 177.046C108.914 175.614 110.348 173.466 111.064 172.034C111.781 171.318 111.781 170.602 112.498 169.886C113.215 169.17 113.215 168.454 113.931 167.738C114.648 166.306 115.365 164.874 115.365 164.159C116.082 164.159 116.082 163.443 116.082 163.443Z" fill="url(#paint22_linear)" fill-opacity="0.2"/>
<path d="M123.25 167.737C123.25 167.737 123.25 168.453 122.533 168.453C122.533 169.169 121.816 169.885 121.099 171.317C120.383 172.749 119.666 173.465 118.949 174.897C118.232 176.329 116.799 177.761 116.082 179.193C115.365 180.625 113.932 182.057 113.215 182.773C112.498 184.204 111.064 184.92 110.348 185.636C109.631 186.352 108.914 187.068 108.197 187.784C107.481 188.5 107.48 188.5 107.48 188.5C107.48 188.5 108.197 187.068 109.631 184.92C110.348 184.205 111.064 182.773 112.498 181.341C113.215 179.909 114.648 179.193 116.082 177.761C116.799 176.329 118.232 175.613 118.949 174.181C119.666 172.749 120.383 172.033 121.099 170.601C121.816 169.885 121.816 168.453 122.533 167.737H123.25Z" fill="url(#paint23_linear)" fill-opacity="0.2"/>
<path d="M132.568 168.454C132.568 168.454 131.851 169.17 131.135 170.602C130.418 172.034 128.984 174.182 128.267 175.614C127.551 176.33 126.834 177.761 126.834 178.477C126.117 179.193 125.4 179.909 124.684 180.625C123.25 182.057 122.533 182.057 122.533 182.057C122.533 182.057 123.25 180.625 123.967 179.909C124.684 179.193 124.684 178.477 125.4 177.761C126.117 177.046 126.834 176.33 127.551 175.614C128.984 174.182 130.418 172.034 131.135 170.602C131.851 169.17 131.851 168.454 132.568 168.454Z" fill="url(#paint24_linear)" fill-opacity="0.2"/>
<path d="M141.887 169.169C141.887 169.169 141.17 169.885 140.453 171.317C139.736 172.033 139.736 172.749 139.019 173.465C138.303 174.181 137.586 175.613 136.869 176.329C136.152 177.044 135.435 178.476 134.719 179.192C134.002 179.908 133.285 180.624 132.568 181.34C131.135 182.772 130.418 182.772 130.418 182.772C130.418 182.772 131.135 181.34 131.852 179.908C132.568 179.192 132.568 178.476 133.285 177.761C134.002 177.045 134.719 176.329 135.435 175.613C136.869 174.181 138.303 172.033 139.019 171.317C140.453 169.885 141.17 169.169 141.887 169.169Z" fill="url(#paint25_linear)" fill-opacity="0.2"/>
<path d="M8.56395 211.412C8.56395 211.412 7.84714 211.412 6.41356 212.128C4.97998 212.844 2.8296 213.56 -0.0375671 214.275C-1.47115 214.275 -2.90472 214.992 -4.3383 214.992C-5.77188 215.708 -7.20544 215.707 -9.35581 215.707C-10.7894 215.707 -12.9398 216.423 -14.3734 216.423C-15.807 216.423 -17.9573 216.423 -19.3909 216.423C-22.9748 216.423 -26.5588 216.423 -30.1427 215.707C-31.5763 215.707 -33.7267 214.992 -35.1603 214.992C-36.5938 214.992 -38.0275 214.275 -39.461 214.275C-42.3282 213.56 -44.4785 212.844 -45.9121 212.844C-47.3457 212.128 -48.0625 212.128 -48.0625 212.128C-48.0625 212.128 -47.3457 212.128 -45.9121 212.128C-44.4785 212.128 -42.3282 212.844 -39.461 212.844C-36.5939 213.56 -33.7267 213.56 -30.8595 214.275C-27.2756 214.991 -24.4084 214.991 -20.8244 215.707C-19.3909 215.707 -17.2405 215.707 -15.8069 215.707C-14.3734 215.707 -12.223 215.707 -10.7894 215.707C-9.35584 215.707 -7.20544 215.708 -5.77185 214.992C-4.33828 214.992 -2.90471 214.275 -1.47112 214.275C1.39604 214.275 3.54642 212.844 4.98 212.844C7.84716 211.412 8.56395 211.412 8.56395 211.412Z" fill="url(#paint26_linear)" fill-opacity="0.2"/>
<path d="M84.5427 44.5919H83.826C83.1092 44.5919 82.3924 44.5919 80.9588 44.5919C78.8084 44.5919 75.9413 44.5919 73.0741 44.5919C71.6405 44.5919 70.207 44.5919 68.7734 44.5919C67.3398 44.5919 65.9062 44.5919 65.1894 44.5919C64.4726 44.5919 64.4726 44.5919 63.7558 44.5919C63.039 44.5919 63.039 44.5919 62.3222 44.5919C61.6055 44.5919 61.6055 44.5919 61.6055 44.5919C61.6055 44.5919 61.6055 44.5919 62.3222 43.8759C63.039 43.8759 63.7558 43.16 65.1894 43.16C66.623 43.16 67.3398 42.444 68.7734 42.444C70.207 42.444 71.6405 42.444 73.0741 43.16C75.9413 43.876 78.8084 43.8759 80.9588 43.8759C82.3924 43.8759 83.1092 43.8759 83.826 43.8759C84.5428 44.5919 84.5427 44.5919 84.5427 44.5919Z" fill="url(#paint27_linear)" fill-opacity="0.2"/>
<path d="M76.6581 51.7518C76.6581 51.7518 75.9413 51.7518 74.5077 51.7518C73.0741 51.7518 71.6406 51.7519 70.207 52.4678C69.4902 52.4678 68.7734 52.4678 68.0566 53.1837C67.3398 53.1837 66.623 53.1837 65.9063 53.1837C64.4727 53.1837 63.7559 52.4678 63.7559 52.4678C63.7559 52.4678 64.4727 51.7518 65.9063 51.7518C66.623 51.7518 67.3398 51.7518 68.0566 51.7518C68.7734 51.7518 69.4902 51.7518 70.207 51.7518C70.9238 51.7518 71.6406 51.7518 72.3574 51.7518C73.0742 51.7518 73.7909 51.7518 74.5077 51.7518C75.9413 51.7518 76.6581 51.7518 76.6581 51.7518Z" fill="url(#paint28_linear)" fill-opacity="0.2"/>
<path d="M103.181 282.292C103.181 282.292 101.747 282.292 98.8801 281.576C97.4465 281.576 96.0129 280.86 93.8625 280.86C91.7122 280.86 89.5618 280.144 87.4114 279.428C85.261 278.712 82.3939 277.996 79.5267 277.281C76.6596 276.565 73.7924 275.133 70.9252 274.417C68.0581 272.985 64.4741 272.269 61.607 270.837C58.7398 269.405 55.1558 267.973 52.2887 266.541C49.4215 265.109 46.5544 262.961 43.6872 261.529C40.8201 260.098 37.9529 257.95 35.0857 256.518C32.2185 254.37 30.0682 252.938 27.9178 251.506C25.7674 249.358 23.617 247.926 21.4667 246.494C19.3163 245.062 17.8827 243.63 16.4492 242.199C15.0156 240.767 13.582 239.335 12.8652 238.619C10.7148 236.471 9.28125 235.039 9.28125 235.039C9.28125 235.039 10.7148 235.755 12.8652 237.903C15.0156 240.051 17.8828 242.915 22.1835 245.778C24.3339 247.21 26.4842 248.642 28.6346 250.79C30.7849 252.938 33.6521 254.37 35.8025 255.802C38.6696 257.234 40.8201 259.382 43.6872 260.813C46.5544 262.245 49.4215 264.393 52.2887 265.825C55.1558 267.257 58.023 268.689 61.607 270.121C64.4741 271.553 67.3413 272.269 70.9252 273.701C73.7924 274.417 76.6596 275.849 79.5267 276.565C82.3939 277.28 85.261 277.996 87.4114 278.712C89.5618 279.428 92.429 280.144 93.8625 280.144C96.0129 280.86 97.4465 280.86 98.8801 280.86C101.747 281.576 103.181 282.292 103.181 282.292Z" fill="url(#paint29_linear)" fill-opacity="0.2"/>
<path d="M71.6419 282.292C71.6419 282.292 70.2084 282.292 68.7748 282.292C68.058 282.292 66.6245 282.292 65.1909 282.292C63.7573 282.292 62.3237 282.292 60.1733 281.576C58.7397 281.576 56.5894 280.86 54.439 280.86C52.2886 280.144 50.1383 279.428 48.7047 279.428C46.5543 278.712 44.4039 277.996 42.2536 277.28C40.1032 276.564 37.9528 275.848 35.8024 275.132C33.6521 274.416 31.5017 272.984 29.3514 272.269C27.201 271.553 25.0506 270.121 23.617 269.405C21.4666 267.973 20.033 267.257 17.8827 265.825C16.4491 264.393 15.0155 263.677 13.5819 262.245C10.7148 260.097 8.56439 257.949 7.13081 256.517C5.69723 255.085 4.98047 254.369 4.98047 254.369C4.98047 254.369 5.69727 255.085 7.84764 256.517C8.56443 257.233 9.99797 257.949 10.7148 258.665C12.1483 259.381 12.8651 260.097 14.2987 261.529C15.7323 262.245 17.1659 263.677 19.3163 264.393C20.7499 265.109 22.9002 266.541 25.0506 267.257C27.2009 268.689 28.6345 269.405 30.7849 270.837C32.9353 271.553 35.0857 272.984 37.236 273.7C39.3864 274.416 41.5368 275.132 43.6872 276.564C45.8375 277.28 47.9879 277.996 50.1382 278.712C52.2886 279.428 54.439 280.144 55.8726 280.86C58.0229 281.576 59.4566 281.576 61.6069 282.292C63.0405 283.008 65.1909 283.008 65.9077 283.008C67.3412 283.008 68.7748 283.008 69.4916 283.724C70.9252 281.576 71.6419 281.576 71.6419 282.292Z" fill="url(#paint30_linear)" fill-opacity="0.2"/>
<path d="M193.496 73.9473C193.496 73.9473 194.213 76.0951 196.363 79.6749C197.08 81.8228 197.797 83.9707 199.23 86.1186C200.664 88.9825 201.381 91.8463 202.098 95.4261C202.814 99.0059 204.248 102.586 204.965 106.166C205.682 109.745 206.398 114.041 207.115 118.337C207.115 120.485 207.832 122.633 207.832 124.781C207.832 126.928 208.549 129.076 208.549 131.224C209.266 135.52 209.266 140.532 209.266 144.827C209.266 149.123 209.266 154.135 209.266 158.431C209.266 160.579 209.266 162.727 209.266 164.874C209.266 167.022 208.549 169.17 208.549 171.318C208.549 175.614 207.115 179.91 206.398 183.489C205.682 187.069 204.965 191.365 203.531 194.229C202.098 197.809 201.381 200.673 199.947 202.82C198.514 205.684 197.797 207.832 197.08 209.264C194.93 212.844 193.496 214.992 193.496 214.992C193.496 214.992 194.213 212.844 196.363 209.264C197.08 207.832 197.797 204.968 199.23 202.82C200.664 199.957 200.664 197.093 202.098 193.513C202.814 189.933 203.531 186.353 204.248 182.774C204.965 179.194 205.682 174.898 206.398 170.602C206.398 168.454 207.115 166.306 207.115 164.158C207.115 162.011 207.115 159.863 207.832 157.715C208.549 153.419 207.832 148.407 207.832 144.111C207.832 139.816 207.832 134.804 207.115 130.508C207.115 128.36 207.115 126.213 206.398 124.065C206.398 121.917 205.682 119.769 205.682 117.621C204.965 113.325 204.248 109.029 203.531 105.45C202.814 101.87 202.098 97.574 200.664 94.7101C199.947 91.1303 199.23 88.2664 197.797 85.4026C197.08 82.5387 196.363 80.3909 194.93 78.959C194.213 76.0951 193.496 73.9473 193.496 73.9473Z" fill="url(#paint31_linear)" fill-opacity="0.2"/>
<path d="M185.611 91.8464C185.611 91.8464 186.328 93.9943 186.328 96.8581C187.045 100.438 187.762 104.734 188.478 110.461C189.195 116.189 189.912 122.633 190.629 129.792C191.346 136.952 191.346 144.112 191.346 151.987C191.346 155.567 191.346 159.863 190.629 163.443C190.629 167.022 189.912 170.602 189.195 174.182C188.478 177.762 187.762 181.342 187.045 184.205C186.328 187.069 185.611 190.649 184.894 192.797C184.178 195.661 183.461 197.809 182.027 199.957C181.311 202.104 180.594 204.252 179.877 205.684C178.443 208.548 177.727 209.98 177.727 209.98C177.727 209.98 178.443 208.548 179.877 204.968C180.594 203.536 181.311 201.389 182.027 199.241C182.744 197.093 183.461 194.945 184.178 192.081C184.894 189.217 185.611 186.353 186.328 183.489C187.045 180.626 187.762 177.046 187.762 173.466C188.478 169.886 188.478 166.306 189.195 162.727C189.912 159.147 189.912 155.567 189.912 151.271C189.912 144.112 189.912 136.236 189.912 129.076C189.195 121.917 189.195 115.473 188.478 109.745C187.762 104.018 187.045 99.7219 186.328 96.1421C185.611 93.2783 185.611 91.8464 185.611 91.8464Z" fill="url(#paint32_linear)" fill-opacity="0.2"/>
<path d="M44.4034 28.8413C44.4034 28.8413 42.9699 29.5572 40.1027 30.2732C37.2355 30.9892 32.9348 32.4211 27.9172 33.853C25.7669 34.569 22.8997 35.285 20.0326 36.0009C17.1654 36.7169 14.2983 38.1488 11.4311 38.8647C8.56393 40.2967 5.69674 41.0127 2.82957 43.1606C1.396 43.8765 -0.0375748 44.5925 -1.47116 45.3085L-5.77189 48.1723C-8.63905 50.3202 -11.5062 52.468 -13.6566 54.6159C-16.5237 56.7638 -18.6741 58.9117 -21.5413 61.0596C-23.6917 63.2075 -26.5588 65.3554 -28.7092 67.5033C-30.8596 69.6511 -33.0099 71.083 -35.1603 72.515C-37.3107 73.9469 -39.461 75.3789 -40.8946 76.8108C-42.3282 78.2427 -44.4786 78.9586 -45.1954 79.6746C-48.0625 81.1065 -49.4961 81.8225 -49.4961 81.8225C-49.4961 81.8225 -48.0625 81.1066 -45.9121 78.9587C-44.4786 78.2427 -43.045 76.8107 -41.6114 76.0948C-40.1778 74.6629 -38.0275 73.231 -35.8771 71.7991C-32.2932 68.2193 -27.2756 64.6394 -22.9749 60.3436C-20.8245 58.1957 -17.9573 56.0479 -15.0902 53.9C-12.223 51.7521 -10.0726 49.6042 -6.48867 47.4563L-2.18793 44.5925C-0.754356 43.8765 0.679214 43.1605 2.1128 42.4446C4.97996 41.0126 8.56393 39.5808 11.4311 38.1488C14.2983 36.7169 17.1654 36.0009 20.0326 35.2849C22.8997 34.569 25.7669 33.853 27.9172 33.137C32.9348 31.7051 37.2355 30.9892 40.1027 30.2732C42.9699 29.5572 44.4034 28.8413 44.4034 28.8413Z" fill="url(#paint33_linear)" fill-opacity="0.2"/>
<path d="M20.7493 53.9C20.7493 53.9 15.015 56.0479 7.13029 60.3436C2.82955 62.4915 -1.47115 64.6394 -6.48868 67.5033C-11.5062 70.3671 -16.5237 73.231 -20.8245 76.8108C-22.9749 78.9587 -25.842 80.3906 -27.9924 82.5385C-30.1428 84.6864 -32.2931 86.1183 -34.4435 88.2662C-36.5939 90.4141 -38.0275 91.846 -40.1779 93.9938C-41.6114 96.1417 -43.7618 97.5737 -44.4786 99.7216C-45.1954 100.438 -45.9122 101.154 -46.629 101.869C-47.3458 102.585 -48.0625 103.301 -48.0625 104.017C-48.7793 105.449 -50.2129 106.881 -50.2129 107.597C-51.6465 109.745 -52.3633 111.177 -52.3633 111.177C-52.3633 111.177 -51.6465 109.745 -50.9297 107.597C-50.2129 106.165 -49.4961 104.733 -48.7793 103.301C-48.0625 101.869 -46.629 99.7216 -45.1954 98.2897C-43.7618 96.1418 -42.3282 94.7098 -40.8946 92.5619C-39.4611 90.4141 -37.3107 88.9821 -35.1603 86.8342C-33.0099 84.6863 -30.8596 83.2545 -28.7092 81.1066C-26.5589 78.9587 -23.6917 77.5267 -21.5413 76.0948C-16.5238 72.515 -11.5062 69.6512 -6.48868 66.7874C-1.47115 63.9235 2.82955 61.7756 7.13029 59.6277C15.015 56.0479 20.7493 53.9 20.7493 53.9Z" fill="url(#paint34_linear)" fill-opacity="0.2"/>
<defs>
<linearGradient id="paint0_linear" x1="75.2252" y1="0.599609" x2="75.2252" y2="291.263" gradientUnits="userSpaceOnUse">
<stop stop-color="#F96F14" stop-opacity="0.58"/>
<stop offset="1" stop-color="#F96F14" stop-opacity="0.14"/>
</linearGradient>
<linearGradient id="paint1_linear" x1="111.422" y1="13.8054" x2="111.422" y2="34.5684" gradientUnits="userSpaceOnUse">
<stop stop-color="#F96F14" stop-opacity="0.58"/>
<stop offset="1" stop-color="#F96F14" stop-opacity="0.14"/>
</linearGradient>
<linearGradient id="paint2_linear" x1="124.683" y1="19.5336" x2="124.683" y2="58.9115" gradientUnits="userSpaceOnUse">
<stop stop-color="#F96F14" stop-opacity="0.58"/>
<stop offset="1" stop-color="#F96F14" stop-opacity="0.14"/>
</linearGradient>
<linearGradient id="paint3_linear" x1="89.9188" y1="27.4098" x2="89.9188" y2="32.4215" gradientUnits="userSpaceOnUse">
<stop stop-color="#F96F14" stop-opacity="0.58"/>
<stop offset="1" stop-color="#F96F14" stop-opacity="0.14"/>
</linearGradient>
<linearGradient id="paint4_linear" x1="75.9413" y1="34.5695" x2="75.9413" y2="36.7173" gradientUnits="userSpaceOnUse">
<stop stop-color="#F96F14" stop-opacity="0.58"/>
<stop offset="1" stop-color="#F96F14" stop-opacity="0.14"/>
</linearGradient>
<linearGradient id="paint5_linear" x1="71.9989" y1="8.79395" x2="71.9989" y2="86.1178" gradientUnits="userSpaceOnUse">
<stop stop-color="#F96F14" stop-opacity="0.58"/>
<stop offset="1" stop-color="#F96F14" stop-opacity="0.14"/>
</linearGradient>
<linearGradient id="paint6_linear" x1="71.999" y1="12.3739" x2="71.999" y2="81.1064" gradientUnits="userSpaceOnUse">
<stop stop-color="#F96F14" stop-opacity="0.58"/>
<stop offset="1" stop-color="#F96F14" stop-opacity="0.14"/>
</linearGradient>
<linearGradient id="paint7_linear" x1="81.3174" y1="13.0906" x2="81.3174" y2="53.1843" gradientUnits="userSpaceOnUse">
<stop stop-color="#F96F14" stop-opacity="0.58"/>
<stop offset="1" stop-color="#F96F14" stop-opacity="0.14"/>
</linearGradient>
<linearGradient id="paint8_linear" x1="93.1445" y1="11.6573" x2="93.1445" y2="48.1713" gradientUnits="userSpaceOnUse">
<stop stop-color="#F96F14" stop-opacity="0.58"/>
<stop offset="1" stop-color="#F96F14" stop-opacity="0.14"/>
</linearGradient>
<linearGradient id="paint9_linear" x1="102.104" y1="22.3967" x2="102.104" y2="53.8992" gradientUnits="userSpaceOnUse">
<stop stop-color="#F96F14" stop-opacity="0.58"/>
<stop offset="1" stop-color="#F96F14" stop-opacity="0.14"/>
</linearGradient>
<linearGradient id="paint10_linear" x1="115.007" y1="22.2114" x2="115.007" y2="41.0127" gradientUnits="userSpaceOnUse">
<stop stop-color="#F96F14" stop-opacity="0.58"/>
<stop offset="1" stop-color="#F96F14" stop-opacity="0.14"/>
</linearGradient>
<linearGradient id="paint11_linear" x1="124.325" y1="17.0898" x2="124.325" y2="39.5813" gradientUnits="userSpaceOnUse">
<stop stop-color="#F96F14" stop-opacity="0.58"/>
<stop offset="1" stop-color="#F96F14" stop-opacity="0.14"/>
</linearGradient>
<linearGradient id="paint12_linear" x1="135.794" y1="25.2616" x2="135.794" y2="45.3086" gradientUnits="userSpaceOnUse">
<stop stop-color="#F96F14" stop-opacity="0.58"/>
<stop offset="1" stop-color="#F96F14" stop-opacity="0.14"/>
</linearGradient>
<linearGradient id="paint13_linear" x1="111.423" y1="164.158" x2="111.423" y2="174.897" gradientUnits="userSpaceOnUse">
<stop stop-color="#F96F14" stop-opacity="0.58"/>
<stop offset="1" stop-color="#F96F14" stop-opacity="0.14"/>
</linearGradient>
<linearGradient id="paint14_linear" x1="103.18" y1="170.602" x2="103.18" y2="181.342" gradientUnits="userSpaceOnUse">
<stop stop-color="#F96F14" stop-opacity="0.58"/>
<stop offset="1" stop-color="#F96F14" stop-opacity="0.14"/>
</linearGradient>
<linearGradient id="paint15_linear" x1="96.37" y1="177.762" x2="96.37" y2="184.206" gradientUnits="userSpaceOnUse">
<stop stop-color="#F96F14" stop-opacity="0.58"/>
<stop offset="1" stop-color="#F96F14" stop-opacity="0.14"/>
</linearGradient>
<linearGradient id="paint16_linear" x1="87.4101" y1="184.205" x2="87.4101" y2="189.933" gradientUnits="userSpaceOnUse">
<stop stop-color="#F96F14" stop-opacity="0.58"/>
<stop offset="1" stop-color="#F96F14" stop-opacity="0.14"/>
</linearGradient>
<linearGradient id="paint17_linear" x1="78.8086" y1="191.364" x2="78.8086" y2="194.944" gradientUnits="userSpaceOnUse">
<stop stop-color="#F96F14" stop-opacity="0.58"/>
<stop offset="1" stop-color="#F96F14" stop-opacity="0.14"/>
</linearGradient>
<linearGradient id="paint18_linear" x1="70.207" y1="197.093" x2="70.207" y2="199.24" gradientUnits="userSpaceOnUse">
<stop stop-color="#F96F14" stop-opacity="0.58"/>
<stop offset="1" stop-color="#F96F14" stop-opacity="0.14"/>
</linearGradient>
<linearGradient id="paint19_linear" x1="75.5828" y1="162.009" x2="75.5828" y2="207.831" gradientUnits="userSpaceOnUse">
<stop stop-color="#F96F14" stop-opacity="0.58"/>
<stop offset="1" stop-color="#F96F14" stop-opacity="0.14"/>
</linearGradient>
<linearGradient id="paint20_linear" x1="86.6932" y1="164.158" x2="86.6932" y2="197.808" gradientUnits="userSpaceOnUse">
<stop stop-color="#F96F14" stop-opacity="0.58"/>
<stop offset="1" stop-color="#F96F14" stop-opacity="0.14"/>
</linearGradient>
<linearGradient id="paint21_linear" x1="93.8612" y1="162.614" x2="93.8612" y2="197.807" gradientUnits="userSpaceOnUse">
<stop stop-color="#F96F14" stop-opacity="0.58"/>
<stop offset="1" stop-color="#F96F14" stop-opacity="0.14"/>
</linearGradient>
<linearGradient id="paint22_linear" x1="106.405" y1="163.443" x2="106.405" y2="190.649" gradientUnits="userSpaceOnUse">
<stop stop-color="#F96F14" stop-opacity="0.58"/>
<stop offset="1" stop-color="#F96F14" stop-opacity="0.14"/>
</linearGradient>
<linearGradient id="paint23_linear" x1="115.365" y1="167.737" x2="115.365" y2="188.5" gradientUnits="userSpaceOnUse">
<stop stop-color="#F96F14" stop-opacity="0.58"/>
<stop offset="1" stop-color="#F96F14" stop-opacity="0.14"/>
</linearGradient>
<linearGradient id="paint24_linear" x1="127.551" y1="168.454" x2="127.551" y2="182.057" gradientUnits="userSpaceOnUse">
<stop stop-color="#F96F14" stop-opacity="0.58"/>
<stop offset="1" stop-color="#F96F14" stop-opacity="0.14"/>
</linearGradient>
<linearGradient id="paint25_linear" x1="136.152" y1="169.169" x2="136.152" y2="182.772" gradientUnits="userSpaceOnUse">
<stop stop-color="#F96F14" stop-opacity="0.58"/>
<stop offset="1" stop-color="#F96F14" stop-opacity="0.14"/>
</linearGradient>
<linearGradient id="paint26_linear" x1="-19.7493" y1="211.412" x2="-19.7493" y2="216.423" gradientUnits="userSpaceOnUse">
<stop stop-color="#F96F14" stop-opacity="0.58"/>
<stop offset="1" stop-color="#F96F14" stop-opacity="0.14"/>
</linearGradient>
<linearGradient id="paint27_linear" x1="73.0741" y1="42.444" x2="73.0741" y2="44.5919" gradientUnits="userSpaceOnUse">
<stop stop-color="#F96F14" stop-opacity="0.58"/>
<stop offset="1" stop-color="#F96F14" stop-opacity="0.14"/>
</linearGradient>
<linearGradient id="paint28_linear" x1="70.207" y1="51.7518" x2="70.207" y2="53.1837" gradientUnits="userSpaceOnUse">
<stop stop-color="#F96F14" stop-opacity="0.58"/>
<stop offset="1" stop-color="#F96F14" stop-opacity="0.14"/>
</linearGradient>
<linearGradient id="paint29_linear" x1="56.231" y1="235.039" x2="56.231" y2="282.292" gradientUnits="userSpaceOnUse">
<stop stop-color="#F96F14" stop-opacity="0.58"/>
<stop offset="1" stop-color="#F96F14" stop-opacity="0.14"/>
</linearGradient>
<linearGradient id="paint30_linear" x1="38.3112" y1="254.369" x2="38.3112" y2="283.724" gradientUnits="userSpaceOnUse">
<stop stop-color="#F96F14" stop-opacity="0.58"/>
<stop offset="1" stop-color="#F96F14" stop-opacity="0.14"/>
</linearGradient>
<linearGradient id="paint31_linear" x1="201.381" y1="73.9473" x2="201.381" y2="214.992" gradientUnits="userSpaceOnUse">
<stop stop-color="#F96F14" stop-opacity="0.58"/>
<stop offset="1" stop-color="#F96F14" stop-opacity="0.14"/>
</linearGradient>
<linearGradient id="paint32_linear" x1="184.536" y1="91.8464" x2="184.536" y2="209.98" gradientUnits="userSpaceOnUse">
<stop stop-color="#F96F14" stop-opacity="0.58"/>
<stop offset="1" stop-color="#F96F14" stop-opacity="0.14"/>
</linearGradient>
<linearGradient id="paint33_linear" x1="-2.54633" y1="28.8413" x2="-2.54633" y2="81.8225" gradientUnits="userSpaceOnUse">
<stop stop-color="#F96F14" stop-opacity="0.58"/>
<stop offset="1" stop-color="#F96F14" stop-opacity="0.14"/>
</linearGradient>
<linearGradient id="paint34_linear" x1="-15.807" y1="53.9" x2="-15.807" y2="111.177" gradientUnits="userSpaceOnUse">
<stop stop-color="#F96F14" stop-opacity="0.58"/>
<stop offset="1" stop-color="#F96F14" stop-opacity="0.14"/>
</linearGradient>
</defs>
</svg>
