<svg width="211" height="403" viewBox="0 0 211 403" fill="none" xmlns="http://www.w3.org/2000/svg">
<path d="M180.401 22.5536C179.925 22.1508 179.925 21.748 179.449 21.3451C177.547 18.9282 174.693 16.1084 171.364 16.1084H170.888C170.413 16.1084 169.461 16.1084 168.986 16.1084C168.51 16.1084 167.559 16.1084 167.083 16.1084C164.705 16.1084 161.851 16.1084 159.473 17.3169C158.998 17.3169 158.522 17.7197 158.046 17.7197C157.095 18.1225 155.668 18.5254 154.241 19.331V18.9282H153.766C153.29 18.9282 152.815 18.9282 152.815 19.331C152.339 19.7338 151.863 20.1367 151.863 20.5395V20.9423L150.912 22.1508L151.863 21.748V22.1508L152.339 22.5536H154.241V21.748C169.937 23.3593 179.449 35.8469 182.303 47.5288C184.206 54.3769 185.157 61.2249 185.632 68.0729V68.4758C186.108 72.1012 186.108 75.3238 186.108 78.9492C186.108 79.7549 186.108 80.1577 186.108 80.9634C186.108 82.1718 185.632 82.9775 186.108 84.186L186.584 84.9916H187.535C188.011 84.9916 188.486 84.5888 188.486 84.5888C189.913 82.9775 190.389 80.5606 190.864 78.5464C190.864 77.7408 191.34 76.9351 191.816 76.1295C193.718 70.4899 195.145 66.0588 195.145 61.6277C195.621 52.3627 194.194 43.5006 189.913 35.8469C186.108 29.8045 183.254 25.7762 180.401 22.5536ZM168.51 18.1225C172.315 18.1225 174.693 20.5395 177.071 22.9564C182.779 28.596 187.535 35.8469 189.437 42.6949C192.767 51.9599 191.34 62.4334 190.389 67.6701C189.913 69.6842 189.437 72.1012 188.486 74.1153C188.486 74.5182 188.011 74.921 188.011 75.3238C188.011 62.8362 186.584 46.7232 178.498 33.8327C175.169 28.9988 168.51 23.7621 162.803 21.3451C160.9 20.5395 158.998 20.1367 157.095 19.7338C161.376 18.1225 163.754 18.1225 168.51 18.1225Z" fill="url(#paint0_linear)" fill-opacity="0.2"/>
<path d="M-38.8609 93.8539C-38.3853 93.8539 -37.9097 93.4511 -37.9097 93.0482C-37.9097 93.0482 -37.4341 92.6454 -37.4341 92.2426C-37.4341 90.6313 -37.4341 89.02 -37.4341 87.4087C-37.4341 85.3945 -37.4341 83.3804 -37.4341 81.3663C-37.4341 76.5324 -35.056 71.6984 -32.6779 66.8645C-30.7754 62.8363 -27.446 57.1967 -24.1167 52.7656C-20.7873 49.1402 -16.5067 45.9176 -11.7505 43.0978L-10.7993 42.2921C-6.99431 39.8752 -3.18934 38.6667 1.09125 37.0554C2.51811 36.6526 2.51808 35.8469 2.9937 35.4441C4.42057 31.8186 -5.09184 28.1932 -7.46995 27.3876C-7.46995 27.3876 -7.46995 27.3876 -7.46995 26.9847L-7.94553 26.5819H-8.42118C-8.8968 26.5819 -8.89679 26.5819 -9.37241 26.5819C-9.84803 26.5819 -9.84801 26.5819 -10.3236 26.5819C-10.3236 26.5819 -10.7993 26.5819 -11.2749 26.9847C-14.6043 28.1932 -17.9336 31.4158 -20.3117 33.8328C-21.263 34.6384 -21.7385 35.4441 -22.2142 35.8469C-26.9704 40.278 -31.251 45.9176 -35.5316 51.96C-39.3366 58.4052 -41.7147 64.4476 -41.7147 70.49C-42.1903 77.7408 -42.6659 86.2002 -39.8122 93.0482C-39.8122 93.8539 -39.3365 93.8539 -38.8609 93.8539ZM-8.42118 28.596C-6.04307 29.8045 -1.76251 32.2215 -1.76251 32.6243C-1.28689 33.0271 0.14002 34.2356 0.14002 34.6384C0.14002 35.0413 -0.335589 35.0413 -0.811209 35.4441C-7.94553 37.4582 -13.653 41.4865 -18.8848 45.5147C-23.641 49.1402 -26.9704 52.7656 -29.8241 57.5995C-33.6291 64.0447 -36.9585 70.0871 -39.3366 77.338C-39.3366 73.7126 -39.3365 70.49 -38.8609 67.6702C-37.9097 58.808 -31.7266 50.7515 -27.446 45.1119C-25.5435 42.2921 -22.6898 39.8752 -19.3605 36.6526C-18.8849 36.2497 -18.4092 35.8469 -17.9336 35.4441C-15.5555 32.6243 -11.7505 28.9989 -8.42118 28.596C-8.8968 28.596 -8.8968 28.596 -8.42118 28.596Z" fill="url(#paint1_linear)" fill-opacity="0.2"/>
<path d="M126.18 122.455C125.229 117.621 124.277 112.787 120.948 108.758C116.667 104.327 108.582 102.313 101.923 102.313C100.972 101.91 100.021 101.91 99.0695 101.91C98.5938 101.91 97.6426 102.716 97.6426 103.119V103.925L98.5938 104.327H99.0695L99.545 104.73H100.021H100.496C100.972 104.73 100.972 104.73 101.448 104.327C101.923 104.73 102.874 105.133 102.874 105.536C103.35 105.939 103.826 105.939 104.777 106.341C105.728 106.744 106.204 107.147 106.679 107.55C109.057 108.758 110.96 111.981 112.387 114.398C112.862 114.801 112.862 115.606 113.338 116.009C116.667 121.649 118.094 128.497 119.521 134.136C120.948 140.984 121.899 147.027 122.375 153.472C122.375 154.681 122.375 156.292 122.375 157.903C122.375 161.529 121.899 165.557 123.802 168.377L124.277 168.779H124.753C125.704 168.779 126.18 167.974 126.18 167.571C126.18 165.557 127.131 163.543 127.607 161.529C128.082 160.32 128.558 158.709 128.558 157.5C129.034 154.278 129.509 151.055 129.509 147.43C129.509 139.776 129.034 132.928 127.607 126.483C126.656 125.274 126.655 124.066 126.18 122.455ZM126.18 154.278C125.704 156.695 125.229 159.112 124.753 161.931C124.277 158.709 124.277 155.083 124.277 151.861C124.277 149.847 124.277 147.43 124.277 145.416C123.802 139.776 122.375 133.734 120.472 128.094C118.094 121.246 115.716 116.009 112.862 110.773C111.436 108.356 109.057 106.341 106.679 104.73C108.106 105.133 110.484 105.536 112.387 106.341C117.143 107.953 120.472 110.773 121.899 113.995C124.277 119.232 125.229 125.274 125.704 130.914C125.704 132.122 126.18 132.928 126.18 134.136C126.655 140.984 126.655 147.43 126.18 154.278Z" fill="url(#paint2_linear)" fill-opacity="0.2"/>
<path d="M204.182 38.2638C202.755 36.2497 201.329 34.2355 199.426 32.2214C198.95 31.4158 198.475 31.0129 197.999 30.2073C197.048 29.4016 196.572 28.1932 196.097 27.3875C195.146 26.179 194.194 24.5677 193.243 23.3592C191.816 21.7479 190.389 20.1366 189.438 18.9282C188.487 17.7197 187.536 16.5112 186.584 15.7055C185.157 14.0942 182.304 12.4829 179.926 11.2745C178.499 10.4688 176.596 9.66315 175.645 8.45467C170.413 4.42641 161.852 2.81511 156.145 2.00945C147.108 0.800976 137.595 0.398149 128.559 1.60663C115.241 3.21793 100.972 8.45467 86.2282 17.3168C80.9964 20.1366 76.7158 24.1649 71.9596 28.1932C71.484 27.3875 71.0084 26.179 70.5328 25.3734C70.0572 24.5677 70.0571 24.1649 69.5815 23.7621C68.1546 21.3451 65.7765 20.1366 63.874 18.9282C58.6422 16.1084 52.9348 13.2886 46.2761 12.0801C27.7268 9.66315 13.4582 10.066 -0.334858 13.2886C-14.6035 16.5112 -29.3477 24.1649 -37.9089 32.6242C-42.6651 37.0553 -47.4213 41.8892 -50.7507 46.7232C-53.6044 50.7514 -55.9825 55.1825 -58.3606 59.2108C-59.3119 61.2249 -60.7387 63.239 -61.69 65.2532C-68.3487 76.1295 -67.3975 87.4086 -65.9706 100.299C-65.495 105.536 -64.0681 111.175 -61.69 116.412C-60.2631 120.038 -57.885 123.26 -55.9825 126.483C-54.0801 128.9 -52.6532 131.719 -51.2263 134.539C-50.2751 136.553 -48.3726 138.568 -46.9458 140.179C-46.4701 140.984 -45.5189 141.79 -45.0432 142.596C-44.092 143.804 -43.6164 144.61 -42.6651 145.818C-41.7139 147.43 -40.287 149.041 -38.8601 150.652C-35.0552 155.083 -29.8234 159.112 -24.1159 163.14C-20.7866 165.557 -16.9816 167.571 -13.1766 169.585C-11.2741 170.794 -8.89601 171.599 -6.99353 172.808C-2.23731 175.628 4.89698 180.059 11.5557 185.295L12.0313 185.698C15.8363 191.338 20.5925 196.172 25.8243 201.408V201.811C25.8243 203.423 26.3 204.631 27.2512 206.242L27.7269 207.451C28.6781 210.271 27.7268 215.105 27.2512 217.924V218.327C25.8243 224.37 23.9219 230.815 20.5925 238.468C16.7876 246.525 19.1656 254.984 21.0681 262.638C22.495 267.875 23.9218 273.111 23.4462 277.945C23.4462 281.168 22.0194 284.391 21.0681 287.613C20.1169 290.836 19.1656 294.058 18.69 297.281C18.69 301.309 20.1169 304.532 21.5438 308.157C22.495 309.769 22.9706 311.38 23.9219 312.991C25.3487 317.422 25.8244 321.853 26.3 326.285C26.3 327.493 26.7756 328.701 26.7756 329.91C27.7268 335.952 25.8243 339.578 20.1169 342.8C19.6413 343.203 18.69 343.606 18.2144 343.606C17.2632 344.009 16.3119 344.412 15.3607 345.217C14.8851 345.62 14.885 346.023 14.885 346.023C15.3606 347.231 15.3607 348.843 15.3607 350.454C15.3607 350.857 15.3607 351.663 15.3607 352.065C15.3607 354.482 16.7875 356.899 17.7388 358.913C18.2144 359.719 18.2144 360.122 18.69 360.928C19.1656 362.136 19.6412 363.747 19.6412 364.956C19.6412 366.567 20.1169 368.178 21.0681 369.79C21.5437 370.595 22.495 371.401 23.4462 372.207C24.8731 373.012 25.8244 374.221 26.3 375.429V376.235H27.2512C27.7268 376.235 28.2024 375.832 28.2024 375.832L28.6781 375.429V375.027C28.2025 372.61 26.3 370.998 23.9219 369.387C22.495 368.581 22.495 366.97 22.495 365.359V364.553C22.495 363.345 22.0194 361.733 21.0681 360.525C21.0681 360.122 20.5925 360.122 20.5925 359.719L20.1169 358.913C18.2144 354.885 17.2631 352.065 17.2631 348.037C17.2631 347.634 17.2631 347.232 17.2631 346.829C17.2631 346.023 17.2632 345.62 17.7388 345.62C19.1656 345.217 20.5925 344.412 22.0193 343.606C28.2024 339.981 28.678 334.744 28.2024 329.507C27.2512 322.256 26.7756 314.2 22.9706 306.949C20.5925 302.115 19.6413 298.49 20.1169 293.656C20.5925 291.239 21.0681 288.822 22.0193 286.405C22.495 284.391 23.4462 282.779 23.9219 280.765C24.8731 277.14 24.8731 273.111 23.9219 268.278C23.4462 265.861 22.9706 263.846 22.0193 261.43C21.0681 259.013 20.5925 256.596 20.1169 254.179C19.1656 248.136 19.6413 242.497 21.5438 238.066L22.495 235.649C23.4462 232.829 24.8731 230.009 25.8243 226.786C26.2999 225.175 26.7756 223.967 27.2512 222.355C28.2024 219.938 28.678 217.521 29.1537 215.105C29.1537 215.105 29.6293 207.854 29.1537 203.423C33.9099 207.854 40.093 211.479 48.1785 214.702C47.7029 216.716 47.7029 218.73 48.1785 220.744C47.2273 221.55 45.8005 221.55 44.3736 221.55C43.898 221.55 43.8979 221.55 43.4223 221.55C42.4711 221.55 41.9955 221.55 41.5198 221.55H40.093L40.5686 221.953C38.1905 222.355 36.288 224.772 35.8124 226.384C35.3368 227.592 35.8124 228.801 36.288 229.606C37.2392 230.815 38.6661 232.023 41.0442 232.426C42.9467 232.829 43.898 232.829 45.3248 234.44C46.2761 235.649 47.7029 236.857 48.6542 237.663C50.5566 238.871 52.4592 238.871 53.886 237.26C54.3616 236.454 54.8373 235.649 54.8373 234.843C54.8373 236.051 54.8372 237.26 54.3616 238.871C54.3616 240.885 53.886 242.9 54.3616 244.914C54.3616 245.719 54.3616 246.525 54.8373 246.928C55.3129 248.942 55.3129 250.553 53.4104 253.776C52.4591 255.387 50.5567 256.998 49.1298 258.61C48.6542 259.013 48.1786 259.818 47.7029 260.221C47.2273 261.027 46.7516 261.43 45.8004 262.235C43.8979 264.249 41.5198 266.666 40.093 269.083C39.1417 271.097 37.7148 272.709 36.288 274.723C33.9099 277.945 31.0562 281.168 31.0562 286.002C31.0562 294.058 31.5318 302.921 35.3367 310.172C36.288 311.783 36.7636 312.991 37.7149 314.603C39.1417 317.02 40.5686 319.034 41.0442 321.451C42.4711 325.479 42.4711 329.91 41.0442 335.147C40.5686 337.161 40.093 339.175 39.1417 341.592C38.6661 343.203 38.1905 344.815 37.7149 346.023C37.7149 346.829 37.2393 347.634 37.2393 348.037C36.288 350.454 35.8124 352.871 36.7636 355.691C37.2393 356.496 37.7149 357.705 37.7149 358.511C39.1417 361.33 40.093 363.747 40.5686 366.97C41.5199 371.401 41.5198 375.832 41.5198 379.86C41.5198 385.097 38.1905 389.931 35.3367 393.959C33.9099 395.973 34.3856 398.39 34.8612 400.405C34.8612 400.807 35.3367 401.613 35.3367 402.016V402.822H36.288C36.7636 402.822 36.7637 402.822 37.2393 402.419L37.7149 402.016V401.613C37.7149 400.405 37.2393 398.793 37.2393 397.585C36.7637 395.973 37.7149 394.362 39.1417 392.751L39.6174 391.945C40.093 391.542 40.5686 390.737 41.0442 390.334C42.4711 388.32 44.3736 385.5 44.3736 383.083V381.472C44.3736 373.818 44.3736 365.359 40.5686 358.108C40.5686 357.705 40.093 357.302 40.093 356.899C39.1417 354.885 38.1905 352.871 38.6661 350.454C38.6661 349.246 39.1418 348.44 39.6174 347.232C40.093 346.426 40.093 345.217 40.5686 344.412C41.0442 342.8 41.5199 341.592 41.9955 340.383C42.9467 337.564 43.898 334.744 44.3736 331.924C45.8005 323.868 42.4711 317.422 38.1905 310.574C36.288 307.352 35.8124 304.129 35.3367 300.907C35.3367 300.101 34.8612 299.295 34.8612 298.087C33.9099 292.044 32.0074 283.182 36.288 277.945C40.5686 272.306 45.8004 266.666 50.081 261.027L53.886 256.596C57.2154 252.567 57.2153 248.136 56.7397 244.108C56.7397 242.9 56.7398 241.288 56.2641 240.08C56.2641 238.871 56.2641 237.663 56.2641 236.454C56.2641 233.635 56.7397 230.815 55.7885 228.398C55.3129 227.189 54.8373 226.384 53.886 225.578C57.691 225.578 60.0691 223.564 61.9716 221.55L62.9228 221.953C66.2522 223.161 70.5328 223.161 76.2402 221.953C75.289 223.161 74.3377 223.967 72.9109 225.175C71.9596 225.981 71.0084 226.786 70.0571 227.592C68.1546 230.009 67.2034 232.426 66.2521 235.246C66.2521 235.649 65.7766 236.051 65.7766 236.857C62.4472 246.122 64.3497 252.165 69.1059 259.818C71.9596 265.055 78.1427 277.945 69.5815 289.225C67.679 291.239 65.7765 293.253 63.874 295.267C60.0691 298.892 56.2641 302.115 55.3128 307.755C54.8372 310.977 55.3129 313.394 57.2154 316.214C57.691 317.02 58.6422 318.228 59.5935 319.034C60.0691 319.839 61.0203 320.242 61.4959 321.048C62.9228 322.659 62.9228 325.479 62.9228 327.896C62.9228 333.133 62.4472 337.967 60.5447 342.398C60.0691 344.009 58.6422 345.62 57.2154 347.232C55.7885 348.843 54.3616 350.454 53.4104 352.468C52.4591 355.288 51.5079 357.302 53.4104 360.525C53.886 361.733 54.3616 362.539 55.3128 363.345C55.7885 364.15 56.2641 364.553 56.7397 365.359C57.691 367.373 57.2153 369.387 56.7397 371.401V372.207C55.7885 375.832 56.7397 378.249 58.1666 381.472L58.6422 382.277C59.5935 384.292 58.6422 387.111 58.1666 389.528C57.691 391.542 57.2154 393.154 57.2154 395.168V395.973H58.1666C58.6422 395.973 59.5935 395.571 59.5935 395.168C59.5935 393.557 60.0691 391.542 60.5447 389.931C61.0203 388.32 61.4959 386.306 61.4959 384.292C61.4959 382.277 61.0203 380.666 60.069 378.652C59.5934 377.041 58.6422 375.429 58.6422 373.415C58.6422 372.207 58.6422 371.401 59.1178 370.193C59.5934 367.776 60.0691 365.762 58.1666 362.539C57.691 361.733 57.2153 360.928 56.7397 360.525C56.2641 359.719 55.3128 358.913 55.3128 358.108C53.886 354.885 56.7397 351.663 59.1178 348.843C63.3984 344.009 65.3009 338.369 65.3009 331.521C65.3009 327.896 65.3009 324.27 64.3497 321.048C63.8741 319.839 62.9228 318.631 61.9716 317.422L61.4959 317.02C59.1178 314.2 57.6909 312.186 57.6909 308.963C57.6909 303.726 61.9716 299.698 66.7278 295.67C69.1059 293.253 71.9596 290.836 73.3865 288.419C76.7158 283.182 77.6671 275.528 75.289 267.875C74.3377 264.249 72.4352 260.624 70.0571 257.401L69.5815 256.193C66.2521 250.553 65.7765 245.316 67.679 239.274C69.1059 234.843 71.0083 230.815 74.3377 227.592C74.8133 227.189 75.2889 226.786 75.7646 225.981C77.1914 224.772 78.1427 223.564 79.0939 222.355C80.9964 221.953 82.4233 221.55 83.8501 221.147C85.277 220.744 87.1795 220.744 89.082 220.341C90.9845 220.341 92.4114 220.341 94.3138 219.938C98.1188 219.133 101.924 217.521 105.253 215.91C111.436 213.09 117.619 210.271 122.375 206.242C127.132 202.617 129.51 197.783 131.888 192.949L132.839 190.935C134.266 188.115 136.168 185.698 137.595 183.281C139.973 179.656 142.827 175.628 144.254 171.196C144.73 170.391 144.73 169.585 145.205 168.377C145.681 168.377 146.632 167.974 147.108 167.974C147.583 167.974 148.059 167.974 148.059 167.974C148.059 167.974 148.535 167.974 150.913 166.363C151.388 165.96 151.864 165.96 151.864 165.96L153.767 165.154C156.62 163.946 158.998 162.737 161.852 160.723L162.328 160.32C167.559 156.695 173.267 152.666 177.548 147.833C178.974 146.221 180.401 144.61 181.828 142.999C184.682 140.179 187.536 136.956 189.914 133.331C193.719 128.094 196.097 122.052 198.475 116.009L198.951 114.398C199.902 111.981 200.853 109.967 201.804 107.55C203.231 103.522 205.134 99.4934 206.56 95.4651C208.939 89.4227 209.89 83.3803 209.414 75.3238C211.317 63.239 211.317 49.1401 204.182 38.2638ZM195.621 118.426C194.194 122.052 192.767 125.677 190.389 129.303C186.109 136.151 179.45 142.596 174.694 147.027C168.986 152.666 160.901 158.306 154.242 161.529C152.34 162.334 149.961 163.543 147.108 164.348C148.059 159.917 149.01 154.681 149.01 148.638C149.01 145.013 149.01 140.984 148.535 137.359C148.535 134.539 148.059 131.317 148.059 128.497C148.059 121.649 147.583 115.606 146.157 110.773C142.827 97.4793 134.266 86.2001 120.473 77.3379C114.29 73.3097 107.631 71.2956 100.021 70.8927H98.1187C95.7407 70.8927 93.3625 70.4899 90.9844 70.4899C90.5088 70.4899 90.0333 70.4899 89.5576 70.4899C84.8014 70.0871 80.5208 70.8927 76.2402 71.6984C73.8621 72.1012 71.484 72.504 68.6302 72.9069C62.4472 73.3097 55.7885 75.3238 49.6054 77.7408C48.6541 78.1436 47.703 78.5464 46.7517 79.3521C47.2273 73.3097 49.1298 67.2673 51.0323 62.0306C51.9835 60.0164 52.9348 57.5995 53.886 55.5853C54.3616 54.3769 55.3129 52.7656 55.7885 51.5571V51.1543C57.691 47.126 59.1178 43.5006 61.9716 40.2779C64.3497 37.4582 66.7278 34.6384 70.0571 31.8186H71.0084C71.484 31.8186 72.4352 31.4158 72.4352 30.6101V29.4016C80.9964 22.1508 91.4601 15.7055 102.399 11.2745C119.522 4.42641 135.217 2.41228 152.34 4.42641C168.986 6.44054 184.682 15.7055 191.816 28.1932C192.767 30.2073 194.194 31.8186 195.621 33.4299C196.572 34.6384 197.524 35.444 197.999 36.6525C199.902 39.0695 201.329 41.8892 202.755 44.709C204.658 48.7373 205.134 53.1684 206.085 57.1966C206.56 59.2108 206.56 61.2249 207.036 62.8362C207.512 65.656 207.512 68.4758 207.512 71.2956C207.512 72.504 207.512 73.3097 207.512 74.5182C207.512 79.7549 207.512 83.7832 206.56 88.2143C204.658 95.0623 201.804 103.522 197.999 110.37C197.524 113.189 196.572 115.606 195.621 118.426ZM144.254 165.154C144.254 165.154 144.254 165.557 144.254 165.154C143.303 165.557 142.827 166.363 142.827 166.765V167.168C142.827 167.571 142.827 167.571 143.303 167.974C141.876 171.196 140.449 174.822 138.547 177.642C137.12 179.656 136.169 181.67 134.742 183.684C132.364 187.31 129.51 191.338 127.607 195.366C124.278 201.811 116.668 205.84 109.534 209.465L108.582 209.868C105.253 211.479 101.448 213.493 96.6919 215.105C94.7895 215.91 92.4113 215.91 90.5089 215.91C88.6064 215.91 86.7039 216.313 84.3258 216.716C80.5208 217.924 75.289 219.133 70.0571 219.133C67.2034 219.133 64.3497 218.73 61.9716 217.924C59.5935 217.119 57.2154 216.313 54.8373 215.507C53.4104 215.105 51.9835 214.299 50.5566 213.896L50.081 213.493H49.6054C49.6054 213.493 49.6054 213.493 49.1298 213.493C46.2761 212.285 42.9467 211.076 39.6174 209.062C32.4831 204.631 26.7756 198.991 22.495 194.158L21.5438 193.352C15.3607 186.504 10.1288 180.461 7.75069 172.002C7.27507 169.585 7.27507 166.765 7.75069 163.543C7.75069 161.931 7.75069 160.723 7.75069 159.514C7.75069 155.083 7.75072 150.249 8.22634 145.013C8.22634 143.401 8.22637 142.193 8.70199 140.582C9.17762 135.748 9.17761 130.914 12.0313 126.483C14.4094 122.857 16.3119 119.232 18.2144 115.606C19.6413 112.787 21.5438 109.967 22.9706 107.147C26.3 101.508 30.5805 95.868 36.288 90.2284C43.4223 82.9775 51.5079 78.5464 61.0203 76.1295C63.8741 75.3238 66.7278 74.921 69.1059 74.5182C71.484 74.1153 74.3377 73.7125 76.7158 73.3097C77.1914 73.3097 78.1427 72.9069 78.6183 72.9069V73.3097V74.1153H79.0939H79.5696C82.4233 73.3097 85.277 72.9069 89.082 72.9069C91.9357 72.9069 94.7894 72.9069 97.1675 73.3097C98.1188 73.3097 99.5456 73.3097 100.497 73.7125C109.058 74.1153 115.717 78.1436 121.424 81.3662C134.742 90.2284 143.303 103.119 144.254 116.412C144.254 118.426 144.73 120.038 144.73 122.052C145.681 132.525 146.632 143.804 145.681 154.278C146.157 157.903 145.205 161.529 144.254 165.154ZM39.6174 229.606L38.6661 229.203C38.1905 227.995 38.6661 226.786 39.1417 226.384C40.093 225.578 41.5198 225.175 43.898 225.578C45.8004 226.384 48.1786 228.398 49.1298 228.801L49.6054 229.203C47.7029 227.995 44.8492 226.786 41.5198 226.786H41.0442C41.0442 226.786 40.093 227.189 40.093 227.592V228.398H41.0442C42.4711 228.801 43.898 229.203 45.3248 229.606C44.8492 230.009 44.8492 230.412 44.8492 230.815V231.62C43.8979 231.218 42.9467 231.218 41.9955 231.218C41.5199 231.218 41.5198 231.218 41.0442 231.218C40.5686 230.815 40.093 230.009 39.6174 229.606ZM50.081 223.967C50.5567 224.37 50.5566 224.772 51.0323 225.175C51.0323 225.175 51.0323 225.175 51.5079 225.578C51.5079 225.981 51.5079 226.384 51.5079 226.384V226.786V227.189V227.592C50.5567 226.786 49.1298 225.981 48.1785 225.175C47.7029 224.772 47.7029 224.772 47.2273 224.37C47.7029 224.37 48.1785 224.37 48.1785 223.967C48.6541 223.967 49.1298 223.564 49.6054 223.161L50.081 223.967ZM50.5566 235.649C51.0322 235.649 51.9835 235.649 52.4591 234.44C52.4591 234.037 52.9347 234.037 52.9347 233.635V234.037C52.9347 234.843 52.9348 235.649 52.4591 236.051C51.9835 236.454 51.5079 236.454 51.0323 236.051C50.5566 235.649 50.5567 235.649 50.081 235.246C50.081 235.649 50.081 235.649 50.5566 235.649ZM53.886 222.758H52.9347V223.564V222.758C52.4591 222.758 51.5079 222.355 51.5079 221.953V221.55C51.0323 220.744 51.0323 219.938 51.0323 219.133V216.716C54.8372 218.327 58.6422 219.536 61.4959 220.341C61.0203 220.744 61.0203 220.744 60.5447 221.147C58.6422 222.355 56.2641 222.758 53.886 222.758ZM-62.1656 70.8927C-60.7388 66.8645 -58.3606 63.239 -55.9825 59.6136C-55.0313 58.0023 -54.08 56.7938 -53.1288 55.1825C-50.2751 50.3486 -46.9457 46.3203 -43.1408 41.8892L-41.7139 40.2779C-40.7627 39.0695 -39.8114 38.2638 -38.3846 37.0553C-37.4333 36.2497 -36.4821 35.444 -36.0065 34.6384C-33.6283 32.2214 -30.7746 29.8045 -27.4453 28.1932C-21.2622 24.5677 -14.1279 20.9423 -6.51795 18.1225C2.51886 14.8999 13.4582 13.2886 25.3487 13.2886C29.1537 13.2886 33.4343 13.2886 37.2393 13.6914C42.9467 14.0942 49.1298 14.8999 54.8373 17.3168C59.1178 18.9282 62.9228 20.9423 65.7766 22.9564C67.679 24.1649 68.6302 26.179 69.5815 28.596C70.0571 28.9988 70.0572 29.8045 70.5328 30.2073C66.2522 33.8327 61.496 38.2638 58.6422 43.5006C55.3129 49.1401 51.9835 55.5853 49.6054 61.6277C49.1298 63.239 45.3248 76.5323 45.3248 80.5606C41.9955 82.5747 39.1417 84.9916 35.3367 88.6171C32.9586 91.034 30.5805 93.451 28.2024 95.868C27.7268 96.2708 27.2512 97.0764 26.7756 97.4793C25.3487 99.0906 23.4463 100.702 22.9706 102.716C21.5438 106.744 18.69 110.773 16.3119 115.204C15.8363 116.412 14.8851 117.218 14.4094 118.426C11.0801 124.066 8.70194 128.9 7.75069 133.734C6.79945 137.359 6.79946 141.387 6.79946 145.013C6.79946 146.221 6.79946 147.43 6.79946 148.638C6.79946 152.264 6.32389 156.292 6.32389 159.514C6.32389 160.723 6.32389 162.334 6.32389 163.543C6.32389 165.96 5.84826 168.377 6.32389 170.794C6.79951 173.613 7.75071 176.433 9.17758 179.253C2.51888 174.419 -5.56666 169.585 -14.1278 165.154C-24.1159 160.32 -34.104 151.458 -40.7627 141.79C-42.1895 139.373 -44.092 137.359 -45.5189 134.942C-50.7507 127.691 -55.9825 120.038 -59.3119 111.578C-61.69 105.536 -62.1656 99.4934 -62.6412 94.2567C-65.0193 86.2001 -65.0194 78.1436 -62.1656 70.8927ZM54.3616 230.815L54.8373 230.009V229.606C54.3616 229.203 54.3616 228.398 54.3616 227.995C54.8372 228.801 54.8372 229.203 55.3128 230.009C55.7885 231.218 55.7885 232.829 55.7885 234.44C55.3129 233.232 54.8372 232.023 54.3616 230.815Z" fill="url(#paint3_linear)" fill-opacity="0.2"/>
<path d="M-55.9824 82.5745C-55.9824 82.5745 -55.9824 84.1858 -55.9824 87.0056C-55.9824 88.214 -55.5068 89.8253 -55.5068 91.8395C-55.0312 93.8536 -54.5556 95.8677 -53.6043 97.8819C-53.1287 99.0904 -52.6531 100.299 -52.1774 101.507C-51.7018 102.716 -51.2262 103.924 -50.275 105.133C-48.8481 107.55 -47.4212 109.967 -45.9943 112.786C-42.665 118.023 -38.3844 122.857 -34.1038 127.691C-29.8232 132.525 -25.0671 137.359 -20.7865 142.193C-18.884 144.61 -16.5059 146.624 -14.6034 148.638C-12.7009 150.652 -10.7984 152.666 -8.89593 154.278C-6.99345 155.889 -5.09093 157.5 -3.66407 158.709C-2.2372 159.917 -0.334751 160.723 0.616494 161.931C2.04336 162.737 2.51901 163.543 3.47025 163.945C3.94587 164.348 3.9459 163.945 3.9459 163.543V163.14C3.9459 163.14 3.9459 163.14 3.9459 163.543V163.945C3.9459 164.348 3.47025 164.348 3.47025 163.945C2.51901 163.543 1.56774 162.737 0.616494 161.931C-0.810371 161.126 -2.23724 160.32 -4.13972 159.111C-6.0422 157.903 -7.94467 156.695 -9.84716 155.083C-11.7496 153.472 -14.1278 151.458 -16.0303 149.444C-17.9327 147.43 -20.3108 145.013 -22.2133 142.998C-26.4939 138.567 -30.7745 133.331 -35.0551 128.497C-39.3357 123.663 -43.6163 118.426 -46.9456 113.189C-48.3725 110.772 -50.275 107.953 -51.2262 105.536C-51.7018 104.327 -52.1775 103.119 -52.6531 101.91C-53.1287 100.702 -53.6043 99.4932 -54.08 98.2847C-55.0312 95.8677 -55.0312 93.8536 -55.5068 92.2423C-55.9824 90.2282 -55.9824 88.6169 -55.9824 87.4084C-55.9824 84.1858 -55.9824 82.5745 -55.9824 82.5745Z" fill="url(#paint4_linear)" fill-opacity="0.2"/>
<path d="M-50.75 125.677C-50.75 125.677 -50.2744 126.483 -48.8475 128.094C-48.3719 128.9 -47.4207 129.705 -46.4694 130.914C-45.5182 132.122 -44.5669 133.331 -43.6157 134.136C-42.6644 135.345 -41.2376 136.553 -39.8108 138.165C-38.3839 139.373 -36.957 140.984 -35.5301 142.193C-34.1033 143.804 -32.2008 145.013 -30.7739 146.624C-28.8714 147.832 -27.4446 149.444 -25.5421 151.055C-23.6396 152.263 -21.7371 153.875 -19.8346 155.083C-17.9321 156.292 -16.0297 157.5 -14.1272 158.709C-12.2247 159.917 -10.3222 161.126 -8.89538 161.931C-6.9929 162.737 -5.56603 163.945 -4.13917 164.751C-2.7123 165.557 -1.2854 166.362 0.141469 167.168C1.56833 167.974 2.51956 168.377 3.4708 168.779C5.37329 169.585 6.32456 170.391 6.32456 170.391C6.32456 170.391 5.37326 169.988 2.99515 169.182C1.09267 168.376 -1.76105 167.571 -5.0904 165.96C-6.51726 165.154 -8.4197 164.348 -10.3222 163.543C-12.2247 162.737 -14.1272 161.528 -16.0297 160.32C-17.9322 159.112 -19.8347 157.903 -21.7371 156.695C-23.6396 155.486 -25.5421 153.875 -27.4446 152.666C-29.3471 151.055 -30.774 149.847 -32.6764 148.235C-34.5789 146.624 -36.0058 145.415 -37.4327 143.804C-38.8595 142.193 -40.2864 140.984 -41.7132 139.373C-43.1401 137.762 -44.0913 136.553 -45.5182 135.345C-46.4695 134.136 -47.4207 132.928 -48.3719 131.719C-49.3231 130.511 -49.7988 129.705 -50.2744 128.9C-49.7988 126.483 -50.75 125.677 -50.75 125.677Z" fill="url(#paint5_linear)" fill-opacity="0.2"/>
<path d="M-8.89453 169.988C-8.89453 169.988 -7.94325 169.182 -6.992 168.377C-6.51638 167.974 -5.56517 167.168 -5.08955 166.765C-4.61392 165.96 -3.66268 165.557 -2.71144 164.751C-2.23582 163.945 -1.28453 163.14 -0.808911 162.334C-0.333289 161.529 0.617924 161.126 1.09355 160.723C2.04479 159.514 2.996 159.112 2.996 159.112C2.996 159.112 2.5204 159.917 2.04477 161.529C1.56915 162.334 1.09352 162.737 0.617896 163.543C0.142274 164.348 -0.808968 164.751 -1.76021 165.557C-2.71145 166.362 -3.6627 166.765 -4.13832 167.571C-5.08956 168.377 -5.56518 168.779 -6.51642 169.182C-7.94329 169.585 -8.89453 169.988 -8.89453 169.988Z" fill="url(#paint6_linear)" fill-opacity="0.2"/>
<path d="M-18.4082 162.737C-18.4082 162.737 -17.9325 162.737 -17.4569 162.737C-16.9813 162.737 -16.0301 162.334 -14.6032 162.334C-13.652 161.931 -12.2251 161.529 -11.2739 161.126C-9.84702 160.723 -8.89576 159.917 -7.4689 159.112C-6.51765 158.306 -5.0908 157.5 -4.13956 156.695C-3.18832 155.889 -2.23705 155.486 -1.2858 154.681C-0.810184 154.278 -0.334577 154.278 -0.334577 153.875C0.141045 153.472 0.14103 153.472 0.616652 153.069C1.09227 152.666 1.56795 152.666 1.56795 152.666C1.56795 152.666 1.56792 153.069 1.0923 153.472C0.616681 153.875 0.141045 154.681 -0.334577 155.486C-0.810197 155.889 -1.28583 156.292 -1.76145 156.695C-2.23708 157.097 -2.71264 157.5 -3.18826 157.903C-4.1395 158.709 -5.56638 159.514 -6.99325 159.917C-8.42011 160.32 -9.84702 161.126 -11.2739 161.529C-12.7007 161.931 -14.1276 162.334 -15.0788 162.334C-16.03 162.737 -16.9813 162.737 -17.9326 162.737C-17.9326 162.737 -18.4082 162.737 -18.4082 162.737Z" fill="url(#paint7_linear)" fill-opacity="0.2"/>
<path d="M30.1055 127.288C30.1055 127.288 30.1055 126.886 30.1055 126.483C30.1055 125.677 30.1054 124.871 30.581 123.663C31.0567 122.454 31.5323 121.246 32.4836 119.635C32.9592 118.829 33.4348 118.023 33.9104 117.218C34.386 116.412 34.8617 115.606 35.8129 114.801C37.2398 113.189 38.6666 111.175 40.5691 109.564C42.4716 107.55 44.3741 105.939 46.7522 104.327C51.0328 100.702 56.2646 97.4792 61.9721 94.2566C73.387 88.617 86.2288 85.7972 96.2168 85.7972C98.5949 85.7972 100.973 85.7972 102.875 86.2001C104.778 86.6029 106.68 86.6029 108.107 87.4085C109.534 87.8114 110.485 88.2142 110.961 88.617C111.437 89.0199 111.912 89.0198 111.912 89.0198C111.912 89.0198 111.437 89.0199 110.961 88.617C110.485 88.2142 109.059 88.2142 107.632 87.8114C106.205 87.4085 104.778 87.4085 102.4 87.0057C100.497 87.0057 98.1193 87.0057 95.7412 87.0057C93.3631 87.0057 90.985 87.4085 88.1313 87.8114C85.2775 88.2142 82.4238 88.617 79.5701 89.4227C76.7163 90.2283 73.8626 91.034 71.0089 91.8396C68.1551 92.6453 65.3014 93.8538 62.4477 95.4651C51.5084 101.105 41.9959 108.758 36.2885 115.606C35.8129 116.412 34.8617 117.218 34.386 118.023C33.9104 118.829 33.4348 119.635 32.9592 120.44C32.0079 122.052 31.5323 123.26 31.0567 124.469C30.5811 125.677 30.5811 126.483 30.1055 127.288C30.1055 127.691 30.5811 127.288 30.1055 127.288Z" fill="url(#paint8_linear)" fill-opacity="0.2"/>
<path d="M48.6543 125.677C48.6543 125.677 48.6543 124.871 49.1299 124.066C49.1299 123.663 49.6055 122.857 49.6055 122.052C49.6055 121.246 50.0811 120.44 50.5568 119.635C51.508 118.023 52.9349 116.009 54.8374 114.398C55.7886 113.592 56.7398 112.787 57.6911 111.578C58.6423 110.772 60.0692 109.967 61.0205 109.161C63.3986 107.55 65.7767 106.341 68.1548 105.133C70.5329 103.924 72.911 103.119 75.2891 102.716C79.5697 101.507 82.4234 101.105 82.4234 101.105C82.4234 101.105 81.9478 101.507 80.5209 101.91C79.5697 102.313 77.6672 103.119 75.7647 103.924C73.8622 104.73 71.4841 105.536 69.106 106.744C66.7279 107.953 64.3498 109.161 61.9717 110.37C61.0205 111.175 59.5936 111.981 58.6424 112.787C57.6911 113.592 56.7399 114.398 55.7886 115.204C53.8861 116.815 52.4593 118.829 51.5081 120.44C51.0324 121.246 50.5568 122.052 50.0812 122.857C49.6056 123.663 49.6055 124.066 49.6055 124.871C49.1299 124.871 48.6543 125.677 48.6543 125.677Z" fill="url(#paint9_linear)" fill-opacity="0.2"/>
<path d="M82.9001 80.5604C82.9001 80.5604 82.4245 80.9633 81.9489 81.7689C81.4733 82.5746 80.522 83.783 79.5708 85.3943C79.0952 86.2 78.6195 87.0056 78.1439 87.8113C77.6683 88.6169 77.6683 89.8254 77.1927 90.6311C76.7171 91.8395 76.2414 92.6452 76.2414 93.8537C75.7658 95.0622 75.7658 96.2706 75.2902 97.0763C74.8146 99.4932 74.8146 101.507 74.8146 103.924C74.8146 105.133 74.8146 105.938 74.8146 107.147C74.8146 107.953 74.8146 109.161 74.8146 109.967C74.8146 110.772 74.8146 111.578 74.8146 112.384C74.8146 113.189 74.8146 113.592 74.8146 114.398C74.8146 115.606 74.8146 116.009 74.8146 116.009C74.8146 116.009 74.8145 115.606 74.3389 114.398C73.8633 113.592 73.3877 111.981 73.3877 110.37C73.3877 109.564 73.3877 108.355 72.9121 107.55C72.9121 106.341 72.9121 105.536 72.9121 104.327C72.9121 103.119 72.9121 101.91 73.3877 101.105C73.3877 99.8961 73.8633 98.6876 73.8633 97.4791C74.339 96.2706 74.3389 95.0622 74.8146 94.2565C75.2902 93.048 75.7658 92.2424 75.7658 91.0339C76.2414 89.8254 76.7171 89.0198 77.1927 88.2141C77.6683 87.4085 78.1439 86.6028 78.6196 85.7972C79.5708 84.1859 80.522 82.9774 80.9977 82.1717C81.9489 80.9632 82.4245 80.5604 82.9001 80.5604Z" fill="url(#paint10_linear)" fill-opacity="0.2"/>
<path d="M56.7413 88.2141C56.7413 88.2141 56.7414 89.0198 56.2658 89.8254C56.2658 90.2283 55.7901 91.0339 55.7901 91.8396C55.3145 92.6452 55.3145 93.4509 55.3145 94.6594C55.3145 95.465 55.3145 96.6735 55.3145 97.882C55.3145 99.0905 55.3145 100.299 55.7901 101.507C55.7901 102.716 56.2658 103.924 56.2658 105.133C56.7414 106.341 56.7414 107.55 57.217 109.161C58.1682 111.578 58.6438 114.398 59.5951 116.412C60.5463 118.829 61.0219 120.843 61.9732 122.857C62.4488 123.663 62.4488 124.871 62.9244 125.274C63.4 126.08 63.4 126.886 63.8756 127.288C64.3513 128.497 64.3513 128.9 64.3513 128.9C64.3513 128.9 63.8757 128.497 63.4001 127.288C62.9244 126.08 61.9732 124.871 61.022 122.857C60.5463 122.052 60.0707 120.843 59.5951 120.037C59.1195 118.829 58.6438 117.621 58.1682 116.815C57.217 114.398 56.7414 111.578 56.2658 109.161C56.2658 107.953 55.7901 106.341 55.7901 105.133C55.3145 103.924 55.3145 102.716 55.3145 101.105C55.3145 99.8961 55.3145 98.6876 55.3145 97.4791C55.3145 96.2707 55.3145 95.0622 55.7901 94.2565C55.7901 93.4509 55.7901 92.2424 56.2658 91.4367C56.2658 90.6311 56.7413 89.8254 56.7413 89.4226C56.2657 89.0198 56.2657 88.2141 56.7413 88.2141Z" fill="url(#paint11_linear)" fill-opacity="0.2"/>
<path d="M26.3008 103.924C26.3008 103.924 26.3008 104.73 26.3008 105.536C26.3008 105.939 26.3007 106.744 26.7764 107.55C26.7764 108.356 27.252 109.161 27.7277 109.967C28.2033 110.772 28.6788 111.981 29.1545 112.787C29.6301 113.592 30.1058 114.801 31.057 116.009C31.5326 117.218 32.4839 118.023 33.4351 119.232C34.3863 120.44 35.3375 121.246 36.2888 122.454C38.1913 124.469 40.0938 126.483 42.4719 128.094C44.3744 129.705 46.2769 131.719 47.7037 132.928C49.1306 134.136 50.5575 135.345 51.5087 136.151C52.46 136.956 52.9355 137.359 52.9355 137.359C52.9355 137.359 50.0819 136.151 46.7525 133.734C44.85 132.525 42.9475 130.914 41.045 129.302C39.1425 127.691 37.24 125.274 35.3376 123.26C34.3863 122.052 33.4351 121.246 32.9595 120.037C32.0082 118.829 31.5326 117.621 30.5813 116.815C30.1057 115.606 29.1545 114.398 28.6789 113.592C28.2033 112.384 27.7277 111.578 27.7277 110.37C27.252 109.564 27.252 108.356 27.252 107.55C27.252 106.744 27.252 105.939 27.252 105.536C26.3008 104.73 26.3008 103.924 26.3008 103.924Z" fill="url(#paint12_linear)" fill-opacity="0.2"/>
<path d="M59.5938 202.214C59.5938 202.214 60.5449 202.214 62.4474 202.214C63.3987 202.214 64.35 202.214 65.7768 202.617C67.2037 202.617 68.6305 203.02 70.0574 202.617C71.4843 202.617 73.3868 202.617 75.2893 202.617C77.1918 202.617 79.0942 202.214 80.9967 202.214C82.8992 201.811 84.8017 201.811 86.7042 201.408C88.6066 201.005 90.5091 200.2 92.8872 199.797C94.7897 198.991 96.6922 198.186 98.5947 197.38C100.497 196.574 101.924 195.769 103.827 194.56C105.253 193.755 107.156 192.949 108.583 191.74C110.01 190.935 111.436 189.726 112.388 188.921C113.815 188.115 114.766 187.309 115.717 186.504C116.668 185.698 117.62 184.892 118.095 184.49C119.522 183.281 119.998 182.878 119.998 182.878C119.998 182.878 119.522 183.684 118.095 184.892C117.62 185.698 116.668 186.101 116.193 186.907C115.241 187.712 114.29 188.921 113.339 189.726C112.388 190.532 110.961 191.74 109.534 192.546C108.107 193.755 106.68 194.56 104.778 195.366C102.875 196.172 101.448 197.38 99.5459 197.783C97.6434 198.589 95.741 198.991 93.8385 199.797C91.936 200.2 89.5579 200.603 87.6554 201.006C85.7529 201.408 83.3748 201.408 81.4723 201.811C79.5698 202.214 77.6673 202.214 75.7648 202.214C73.8624 202.214 72.4355 202.214 70.5331 202.214C69.1062 202.214 67.6793 201.811 66.2524 201.811C64.8256 201.811 63.8743 201.408 62.9231 201.408C60.545 202.617 59.5938 202.617 59.5938 202.214Z" fill="url(#paint13_linear)" fill-opacity="0.2"/>
<path d="M86.2285 210.27C86.2285 210.27 88.6067 209.062 92.8873 207.853C96.6922 206.242 101.924 204.631 106.68 202.214C107.632 201.408 109.058 201.005 110.01 200.2C110.961 199.394 112.388 198.991 113.339 198.186C114.29 197.38 115.241 196.574 116.193 196.172C117.144 195.366 117.62 194.963 118.095 194.157C118.571 193.352 119.046 192.949 119.522 192.143C119.998 191.338 120.473 190.935 120.473 190.532C120.949 189.726 120.949 188.921 120.949 188.921C120.949 188.921 120.949 189.323 120.949 190.532C120.949 190.935 120.473 191.74 120.473 192.546C120.473 193.352 119.998 194.157 119.046 194.963C118.571 195.769 117.62 196.574 117.144 197.38C116.193 198.186 115.241 198.991 114.29 199.797C113.339 200.603 111.912 201.408 110.961 201.811C110.01 202.617 108.583 203.02 107.156 203.422C101.924 205.437 96.6922 207.451 92.8873 208.659C89.0823 209.465 86.7041 210.27 86.2285 210.27Z" fill="url(#paint14_linear)" fill-opacity="0.2"/>
<path d="M78.6191 49.1401C78.6191 49.1401 79.0948 48.3345 80.046 46.7232C80.5216 45.9175 80.9972 45.1118 81.9485 43.9034C82.4241 42.6949 83.3753 41.4864 84.3266 40.2779C85.2778 39.0694 86.2291 37.4581 87.6559 36.2497C89.0828 34.6384 90.0341 33.4299 91.9366 31.8186C94.7903 28.9988 98.1196 25.7762 101.925 23.3592C103.827 22.1507 105.73 20.5394 107.632 19.7338C109.534 18.5253 111.437 17.3168 113.815 16.5112C115.718 15.7055 117.62 14.8999 119.998 14.0942C121.901 13.2885 123.803 12.8857 125.706 12.4829C127.608 12.0801 129.035 11.6772 130.462 11.6772C131.889 11.2744 133.316 11.2744 134.267 11.2744C136.169 11.2744 137.596 11.2744 137.596 11.2744C137.596 11.2744 136.169 11.6772 134.267 11.6772C133.316 11.6772 131.889 12.0801 130.462 12.4829C129.986 12.4829 129.035 12.8857 128.084 12.8857C127.132 13.2885 126.657 13.2885 125.706 13.6914C123.803 14.0942 122.376 14.8999 120.474 15.7055C118.571 16.5112 116.669 17.3168 114.766 18.1225C112.864 18.9281 110.961 20.1366 108.583 21.3451C106.681 22.5536 104.778 23.762 102.876 24.9705C99.0708 27.3875 95.7415 30.2073 92.4121 33.4299C90.9853 35.0412 89.5584 36.2497 88.1316 37.861C86.7047 39.0694 85.7535 40.6808 84.8022 41.8892C83.851 43.0977 82.8997 44.3062 81.9485 45.5147C80.9972 46.7232 80.5216 47.5288 80.046 48.3345C79.5704 48.3345 78.6191 49.1401 78.6191 49.1401Z" fill="url(#paint15_linear)" fill-opacity="0.2"/>
<path d="M102.4 32.2219C102.4 32.2219 102.876 31.8191 104.303 31.0134C105.73 30.2077 107.157 28.9993 109.059 27.7908C110.962 26.5823 113.34 24.971 116.193 23.3597C117.62 22.554 119.047 21.7484 120.474 20.9427C121.901 20.1371 123.328 19.7343 125.23 18.9286C126.657 18.123 128.56 17.7201 129.986 16.9145C131.413 16.1088 133.316 15.706 134.743 15.3032C136.17 14.9003 137.596 14.4975 139.023 14.0947C140.45 13.6919 141.877 13.6919 143.304 13.289C144.731 12.8862 145.682 12.8862 146.633 12.8862C147.584 12.8862 148.536 12.4834 149.487 12.4834C150.914 12.4834 151.865 12.0806 151.865 12.0806C151.865 12.0806 150.914 12.4834 149.487 12.4834C148.06 12.8862 146.158 13.289 143.304 14.0947C140.926 14.9004 138.072 15.3032 134.743 16.5117C133.316 16.9145 131.413 17.3173 129.986 17.7201C128.56 18.123 126.657 18.9286 125.23 19.3314C123.803 20.1371 122.377 20.5399 120.474 21.3456C119.047 22.1512 117.62 22.554 116.193 23.3597C113.34 24.5682 110.962 26.1795 108.583 27.388C106.205 28.5964 104.778 29.8049 103.352 30.6106C103.352 31.8191 102.876 32.2219 102.4 32.2219Z" fill="url(#paint16_linear)" fill-opacity="0.2"/>
<path d="M166.609 140.581C166.609 140.581 167.085 140.179 168.512 138.97C169.463 137.762 171.366 136.553 173.268 134.539C174.219 133.733 175.171 132.525 176.122 131.719C177.073 130.511 178.024 129.705 179.451 128.497C180.402 127.288 181.829 126.08 182.78 124.871C183.732 123.663 184.683 122.051 186.11 120.843C187.061 119.635 188.012 118.023 188.964 116.815C189.915 115.606 190.39 113.995 191.342 112.787C191.817 111.578 192.769 109.967 193.244 108.758C193.72 107.55 194.195 106.341 194.671 105.133C195.147 103.924 195.622 103.119 195.622 101.91C195.622 101.105 196.098 100.299 196.098 99.4933C196.574 98.2848 196.574 97.4791 196.574 97.4791C196.574 97.4791 196.574 98.2848 196.574 99.4933C196.574 100.299 196.574 101.105 196.574 101.91C196.574 102.716 196.574 103.924 196.098 105.133C195.622 106.341 195.622 107.55 195.147 109.161C194.671 110.37 194.195 111.981 193.244 113.189C192.293 114.398 191.817 116.009 190.866 117.62C189.915 118.829 188.964 120.44 188.012 121.649C187.061 122.857 185.634 124.468 184.683 125.677C183.732 126.885 182.305 128.094 181.354 129.302C180.402 130.511 178.975 131.719 178.024 132.525C177.073 133.331 175.646 134.539 174.695 135.345C172.792 136.956 170.89 138.567 169.939 139.373C167.085 140.179 166.609 140.581 166.609 140.581Z" fill="url(#paint17_linear)" fill-opacity="0.2"/>
<defs>
<linearGradient id="paint0_linear" x1="173.072" y1="16.1084" x2="173.072" y2="84.9916" gradientUnits="userSpaceOnUse">
<stop stop-color="#F96F14" stop-opacity="0.58"/>
<stop offset="1" stop-color="#F96F14" stop-opacity="0.14"/>
</linearGradient>
<linearGradient id="paint1_linear" x1="-19.4677" y1="26.5819" x2="-19.4677" y2="93.8539" gradientUnits="userSpaceOnUse">
<stop stop-color="#F96F14" stop-opacity="0.58"/>
<stop offset="1" stop-color="#F96F14" stop-opacity="0.14"/>
</linearGradient>
<linearGradient id="paint2_linear" x1="113.576" y1="101.91" x2="113.576" y2="168.779" gradientUnits="userSpaceOnUse">
<stop stop-color="#F96F14" stop-opacity="0.58"/>
<stop offset="1" stop-color="#F96F14" stop-opacity="0.14"/>
</linearGradient>
<linearGradient id="paint3_linear" x1="71.7447" y1="0.876953" x2="71.7447" y2="402.822" gradientUnits="userSpaceOnUse">
<stop stop-color="#F96F14" stop-opacity="0.58"/>
<stop offset="1" stop-color="#F96F14" stop-opacity="0.14"/>
</linearGradient>
<linearGradient id="paint4_linear" x1="-26.0183" y1="82.5745" x2="-26.0183" y2="164.248" gradientUnits="userSpaceOnUse">
<stop stop-color="#F96F14" stop-opacity="0.58"/>
<stop offset="1" stop-color="#F96F14" stop-opacity="0.14"/>
</linearGradient>
<linearGradient id="paint5_linear" x1="-22.2127" y1="125.677" x2="-22.2127" y2="170.391" gradientUnits="userSpaceOnUse">
<stop stop-color="#F96F14" stop-opacity="0.58"/>
<stop offset="1" stop-color="#F96F14" stop-opacity="0.14"/>
</linearGradient>
<linearGradient id="paint6_linear" x1="-2.94926" y1="159.112" x2="-2.94926" y2="169.988" gradientUnits="userSpaceOnUse">
<stop stop-color="#F96F14" stop-opacity="0.58"/>
<stop offset="1" stop-color="#F96F14" stop-opacity="0.14"/>
</linearGradient>
<linearGradient id="paint7_linear" x1="-8.42012" y1="152.666" x2="-8.42012" y2="162.737" gradientUnits="userSpaceOnUse">
<stop stop-color="#F96F14" stop-opacity="0.58"/>
<stop offset="1" stop-color="#F96F14" stop-opacity="0.14"/>
</linearGradient>
<linearGradient id="paint8_linear" x1="71.0089" y1="85.7972" x2="71.0089" y2="127.467" gradientUnits="userSpaceOnUse">
<stop stop-color="#F96F14" stop-opacity="0.58"/>
<stop offset="1" stop-color="#F96F14" stop-opacity="0.14"/>
</linearGradient>
<linearGradient id="paint9_linear" x1="65.5389" y1="101.105" x2="65.5389" y2="125.677" gradientUnits="userSpaceOnUse">
<stop stop-color="#F96F14" stop-opacity="0.58"/>
<stop offset="1" stop-color="#F96F14" stop-opacity="0.14"/>
</linearGradient>
<linearGradient id="paint10_linear" x1="77.9061" y1="80.5604" x2="77.9061" y2="116.009" gradientUnits="userSpaceOnUse">
<stop stop-color="#F96F14" stop-opacity="0.58"/>
<stop offset="1" stop-color="#F96F14" stop-opacity="0.14"/>
</linearGradient>
<linearGradient id="paint11_linear" x1="59.8329" y1="88.2141" x2="59.8329" y2="128.9" gradientUnits="userSpaceOnUse">
<stop stop-color="#F96F14" stop-opacity="0.58"/>
<stop offset="1" stop-color="#F96F14" stop-opacity="0.14"/>
</linearGradient>
<linearGradient id="paint12_linear" x1="39.6182" y1="103.924" x2="39.6182" y2="137.359" gradientUnits="userSpaceOnUse">
<stop stop-color="#F96F14" stop-opacity="0.58"/>
<stop offset="1" stop-color="#F96F14" stop-opacity="0.14"/>
</linearGradient>
<linearGradient id="paint13_linear" x1="89.7957" y1="182.878" x2="89.7957" y2="202.796" gradientUnits="userSpaceOnUse">
<stop stop-color="#F96F14" stop-opacity="0.58"/>
<stop offset="1" stop-color="#F96F14" stop-opacity="0.14"/>
</linearGradient>
<linearGradient id="paint14_linear" x1="103.589" y1="188.921" x2="103.589" y2="210.27" gradientUnits="userSpaceOnUse">
<stop stop-color="#F96F14" stop-opacity="0.58"/>
<stop offset="1" stop-color="#F96F14" stop-opacity="0.14"/>
</linearGradient>
<linearGradient id="paint15_linear" x1="108.108" y1="11.2744" x2="108.108" y2="49.1401" gradientUnits="userSpaceOnUse">
<stop stop-color="#F96F14" stop-opacity="0.58"/>
<stop offset="1" stop-color="#F96F14" stop-opacity="0.14"/>
</linearGradient>
<linearGradient id="paint16_linear" x1="127.133" y1="12.0806" x2="127.133" y2="32.2219" gradientUnits="userSpaceOnUse">
<stop stop-color="#F96F14" stop-opacity="0.58"/>
<stop offset="1" stop-color="#F96F14" stop-opacity="0.14"/>
</linearGradient>
<linearGradient id="paint17_linear" x1="181.591" y1="97.4791" x2="181.591" y2="140.581" gradientUnits="userSpaceOnUse">
<stop stop-color="#F96F14" stop-opacity="0.58"/>
<stop offset="1" stop-color="#F96F14" stop-opacity="0.14"/>
</linearGradient>
</defs>
</svg>
