<svg width="332" height="422" viewBox="0 0 332 422" fill="none" xmlns="http://www.w3.org/2000/svg">
<path d="M303.031 258.57L304.091 258.348L303.045 254.756L300.925 255.2L301.971 258.791L303.031 258.57Z" fill="url(#paint0_linear)" fill-opacity="0.2"/>
<path d="M-61.9322 333.893C-60.342 333.56 -57.6915 333.006 -52.6591 332.907C-47.2274 332.248 -41.7957 331.59 -37.0249 330.592C-35.4346 330.26 -33.8444 329.928 -31.724 329.485C-30.1338 329.152 -28.5435 328.82 -26.4232 328.377L-25.893 328.266C-21.6523 327.38 -17.4116 326.493 -13.701 325.718C-9.46028 324.832 -5.74971 324.056 -1.509 323.17C7.50253 321.286 14.5245 320.295 21.0164 319.415C38.9017 317.106 55.1968 315.129 71.0994 311.805C74.81 311.03 78.5207 310.254 82.3621 309.928C89.3841 308.937 96.2752 307.496 103.036 305.607C104.096 305.386 104.626 305.275 105.686 305.053C105.555 304.604 105.294 303.706 105.163 303.257C104.901 302.359 104.77 301.911 104.509 301.013L104.378 300.564C104.247 300.115 104.116 299.666 103.855 298.768C102.264 299.1 100.543 298.984 98.9532 299.316C96.8328 299.759 95.2425 300.091 92.9913 300.086C91.4011 300.418 89.68 300.301 87.5597 300.745C84.3791 301.409 80.1384 302.296 76.1662 302.173C72.1939 302.051 68.0909 301.479 63.9879 300.908C59.8848 300.337 55.1209 299.427 51.2795 299.754C44.6568 300.185 37.9102 298.261 33.6832 295.334C30.778 293.084 28.8022 290.162 28.8159 286.349C28.4372 281.189 30.3097 276.035 31.7829 271.44C32.4507 269.872 32.5883 268.414 33.3869 267.295C33.6553 266.286 34.0546 265.726 34.3231 264.717C29.4558 255.733 24.5885 246.748 19.7212 237.763C17.0914 232.597 13.9314 227.542 11.3016 222.376C7.4876 215.076 4.73385 207.554 2.24854 199.024C1.4637 196.33 1.07814 193.077 0.293306 190.383C-0.0922577 187.13 -0.477826 183.876 -1.39347 180.734C-4.79443 169.061 -8.18854 155.481 -8.0097 142.584C-7.72064 135.855 -5.71051 129.243 -3.56955 123.08L-2.49563 119.046C-1.55939 116.468 -1.15322 114.002 0.443894 111.763C1.64175 110.084 2.83957 108.405 4.03741 106.725C4.83598 105.606 6.16465 104.376 6.83241 102.807L6.30233 102.918C-0.0518839 102.341 -8.14087 105.46 -14.2472 109.594C-15.1766 110.265 -16.1059 110.935 -17.0353 111.606C-20.7528 114.288 -24.8696 117.53 -29.9089 119.535C-34.0188 120.871 -38.9204 121.419 -43.9528 121.518C-45.013 121.74 -46.2039 121.512 -47.2641 121.734C-53.8868 122.165 -58.9192 122.264 -64.8741 121.127C-70.829 119.991 -75.056 117.064 -79.8131 114.248C-81.1349 113.571 -81.9266 112.784 -83.2484 112.108L-82.3259 113.344L-84.4393 111.88C-85.7611 111.204 -87.2137 110.079 -88.7971 108.504L-89.4581 108.166C-89.5889 107.717 -90.1189 107.828 -90.2497 107.379L-92.3632 105.916L-90.6421 106.032C-90.7729 105.583 -90.9037 105.134 -91.5647 104.796C-91.8263 103.898 -92.4872 103.56 -92.618 103.111C-95.3856 99.4028 -96.5559 93.4556 -96.4114 90.0913C-96.2737 88.6337 -95.069 85.0478 -92.4185 84.4939C-91.8884 84.3831 -91.3584 84.2723 -90.6975 84.6105L-92.15 83.4853L-88.3155 85.0653C-88.3155 85.0653 -87.7854 84.9544 -87.6546 85.4034C-86.9937 85.7416 -86.3328 86.0798 -85.6719 86.418L-85.011 86.7562C-80.1163 88.1147 -75.2215 89.4732 -68.3372 89.9396C-64.2342 90.5109 -61.3221 90.8549 -57.4807 90.5284C-55.2295 90.5342 -52.7099 89.5313 -50.0595 88.9774C-48.4692 88.645 -47.409 88.4235 -45.8188 88.0911C-38.9276 86.6509 -36.3943 81.8347 -33.9917 76.5696C-33.1932 75.4501 -32.9247 74.4415 -32.1261 73.322C-31.059 71.1938 -31.0522 69.2872 -30.5152 67.2698C-30.1091 64.8034 -30.233 62.4478 -28.7667 59.7599C-25.7033 54.833 -20.7948 52.3783 -14.7022 52.0575C-9.66977 51.9584 1.97844 53.3343 4.87676 57.4915C8.45659 56.2671 13.489 56.1679 19.974 57.1941C24.0771 57.7655 25.2543 61.806 26.0391 64.4998C26.3008 65.3977 26.5624 66.2956 26.824 67.1935C28.4005 70.6744 29.5778 74.715 29.9633 77.9685C30.3557 79.3153 30.3489 81.222 30.7413 82.5688C31.2645 84.3647 31.7878 86.1605 31.6501 87.6182C39.0645 87.9738 46.7336 91.1339 53.2117 94.0666C54.5335 94.743 55.7245 94.9703 57.0463 95.6467C61.5418 97.5649 66.5673 99.3724 70.932 100.842C78.4703 103.553 86.0086 106.264 93.1476 109.535C122.234 122.508 141.785 135.568 154.177 151.078C156.945 154.786 159.712 158.494 162.349 161.753C166.17 167.147 170.521 172.429 174.741 177.263C175.663 178.499 177.116 179.624 178.039 180.86C180.544 183.671 183.711 186.819 186.217 189.63C187.931 191.653 190.306 194.014 192.551 195.927C194.926 198.288 197.962 200.988 200.599 204.247C206.795 212.001 210.739 219.75 213.617 229.627C215.056 234.566 217.273 244.105 215.655 252.064C215.772 256.326 212.454 258.448 208.606 260.681L208.076 260.792C205.687 262.244 203.828 263.585 201.57 265.486C200.641 266.156 199.711 266.827 198.782 267.497C196.923 268.839 194.403 269.841 192.015 271.293C190.555 272.075 188.566 272.967 187.106 273.748C183.258 275.981 179.279 277.765 174.639 279.211C173.179 279.993 171.059 280.436 169.6 281.217C167.08 282.22 164.56 283.223 161.641 284.786C156.203 287.351 150.234 290.027 144.004 291.806C139.364 293.252 134.462 293.8 128.5 294.57C128.762 295.468 128.893 295.917 129.155 296.814C129.155 296.814 129.154 296.814 129.285 297.263C129.416 297.712 130.208 298.499 129.809 299.059C136.17 297.73 142.4 295.951 148.1 294.284C152.74 292.838 157.38 291.392 162.681 290.284C170.501 288.173 181.234 286.406 189.846 285.083C195.147 283.975 200.448 282.867 205.219 281.87C208.399 281.205 211.979 279.981 215.16 279.316C226.822 276.879 238.222 273.543 248.431 269.981C253.471 267.975 258.772 266.867 263.542 265.87C266.193 265.316 268.582 263.864 271.101 262.861L271.631 262.751C273.621 261.859 275.61 260.967 277.6 260.074C279.059 259.293 280.65 258.961 282.109 258.179C282.639 258.069 283.569 257.398 284.629 257.177C288.078 255.503 292.456 253.159 296.697 252.273C299.877 251.608 302.259 252.063 304.242 253.078C306.886 254.43 306.349 256.448 306.342 258.354C306.473 258.803 306.073 259.363 306.335 260.261L306.066 261.27C305.798 262.278 306.19 263.625 305.922 264.634C305.653 265.643 305.915 266.54 305.647 267.549C305.495 272.82 303.754 278.423 302.542 283.916C301.874 285.484 301.737 286.942 301.069 288.51C299.32 296.02 296.78 302.743 291.989 309.46C288.395 314.497 284.01 318.748 279.094 323.109L277.766 324.34C275.109 326.8 272.582 329.71 270.186 333.068C268.988 334.747 267.529 335.529 265.67 336.87C264.342 338.1 262.882 338.881 262.084 340.001C257.031 345.82 249.602 349.277 242.704 352.624C238.195 354.519 234.216 356.303 229.576 357.749C225.466 359.085 221.487 360.869 217.508 362.653C211.009 365.44 202.259 368.221 194.308 369.883C174.695 373.982 157.333 378.087 141.162 382.42C132.811 384.641 122.87 387.195 112.798 389.3C104.317 391.072 96.7649 392.174 89.0821 392.828L88.552 392.938C79.809 393.813 70.5358 394.798 61.7928 395.673C59.0116 395.778 56.8912 396.221 54.1099 396.326C47.6181 397.207 40.9955 397.638 34.772 397.51C26.2975 397.376 18.4906 395.673 12.2741 393.639C9.76134 392.735 6.71848 391.942 3.54479 390.7C-1.34995 389.342 -6.24466 387.983 -10.3409 385.505C-13.6453 383.814 -16.4196 382.013 -19.194 380.211C-21.9684 378.409 -25.4037 376.27 -28.7082 374.579C-34.6563 371.535 -40.205 367.932 -46.6763 363.092C-48.7898 361.629 -50.6348 359.157 -52.3491 357.134C-55.1166 353.425 -57.6225 350.615 -61.3193 347.577C-64.4861 344.429 -65.5326 340.837 -66.5791 337.245L-66.8407 336.348C-65.6429 334.668 -62.9924 334.114 -61.9322 333.893ZM-43.4889 360.521C-39.1311 363.897 -34.3741 366.713 -29.617 369.529C-28.2952 370.206 -26.9735 370.882 -25.7825 371.109C-23.9306 371.675 -21.9479 372.689 -20.4953 373.815C-18.3818 375.278 -16.2683 376.742 -14.1548 378.205L-13.3631 378.992C-11.2496 380.456 -8.60603 381.808 -5.43237 383.05L-4.90228 382.94C-4.3722 382.829 -3.71127 383.167 -3.05038 383.505C-1.99019 383.284 -0.269132 383.4 0.260949 383.289C3.5723 383.074 6.75276 382.409 9.93331 381.744L12.5837 381.19C18.9448 379.861 25.5744 377.523 29.5535 375.738C34.5927 373.733 40.823 371.954 49.3045 370.182C53.0151 369.406 56.1956 368.742 59.3761 368.077C66.7974 366.526 74.4802 365.873 82.0323 364.771C86.9339 364.223 92.2348 363.115 97.1364 362.567C107.869 360.8 120.722 358.59 133.045 356.491C138.876 355.272 144.307 354.613 150.269 353.844C156.761 352.963 163.783 351.972 170.674 350.532C172.264 350.199 173.325 349.978 174.915 349.645C176.505 349.313 177.565 349.091 179.156 348.759C182.336 348.094 186.577 347.208 190.687 345.873L193.206 344.87C197.846 343.424 202.356 341.529 207.126 340.532C214.947 338.421 222.637 335.861 229.266 333.523L231.256 332.631C235.765 330.736 240.274 328.841 245.575 327.733C247.165 327.401 248.225 327.179 249.816 326.847C254.056 325.961 258.827 324.964 263.068 324.077L263.598 323.966C265.188 323.634 266.779 323.302 268.238 322.521C269.298 322.299 270.358 322.077 271.288 321.407C272.348 321.185 273.408 320.964 274.337 320.293C275.398 320.072 276.327 319.401 277.917 319.069L278.316 318.509L279.377 318.287C279.776 317.728 280.705 317.057 281.105 316.497C286.688 310.568 292.402 305.087 295.871 297.694C297.207 294.557 298.542 291.42 300.015 286.825C272.843 293.933 243.812 302.382 216.502 310.947C213.983 311.95 210.802 312.615 207.092 313.39C204.971 313.833 202.321 314.387 200.201 314.83C198.08 315.274 195.96 315.717 193.309 316.271L165.215 322.142C152.493 324.801 137.65 327.903 122.284 329.209C108.64 330.632 92.2138 332.16 76.3111 335.483C68.8899 337.034 61.5994 339.034 53.7789 341.145C51.1285 341.699 48.6088 342.702 45.9584 343.256C42.2477 344.031 38.5372 344.807 34.9573 346.031C28.8579 348.259 22.4968 349.588 14.0154 351.361C9.77468 352.247 6.06405 353.023 1.82334 353.909C-1.88729 354.684 -5.59789 355.46 -9.30852 356.235C-16.1997 357.676 -22.8223 358.107 -29.9751 358.649L-32.7563 358.754C-33.2864 358.865 -34.3466 359.087 -35.4068 359.308C-38.0572 359.862 -40.8385 359.967 -43.0897 359.961C-44.1499 360.183 -44.019 360.632 -43.4889 360.521ZM167.418 372.169L172.719 371.061C191.272 367.184 207.312 362.402 222.43 356.385C224.95 355.382 228 354.269 230.519 353.266C236.619 351.038 242.718 348.811 248.026 345.797C250.945 344.234 254.394 342.56 257.182 340.549C258.511 339.319 259.839 338.088 261.168 336.858C262.896 335.068 264.094 333.389 266.483 331.937C269.801 329.815 272.727 326.345 275.652 322.876C275.122 322.987 274.592 323.098 273.663 323.768C271.143 324.771 268.624 325.774 265.973 326.328C262.923 327.442 258.022 327.99 253.781 328.876C251.661 329.319 250.07 329.651 247.95 330.095C241.589 331.424 235.49 333.651 229.521 336.328L227.531 337.22C223.552 339.004 219.312 339.89 215.202 341.226C213.081 341.669 211.622 342.45 209.501 342.893L206.452 344.007C195.051 347.342 184.312 351.015 172.65 353.453C165.759 354.893 159.267 355.773 152.245 356.765C146.813 357.423 140.852 358.193 135.021 359.412C110.506 364.059 84.669 368.03 60.9527 371.558C56.5812 371.995 51.411 373.552 46.6402 374.549C45.05 374.881 43.9898 375.103 42.3996 375.435L41.3394 375.657C36.5685 376.654 30.8685 378.321 26.8894 380.106C22.3802 382.001 17.0792 383.108 12.8385 383.995L11.7783 384.216C11.2483 384.327 10.1881 384.549 9.65799 384.659C7.00755 385.213 3.29692 385.989 -0.0144376 386.205C3.68933 387.336 7.39313 388.467 11.0969 389.598C19.8262 392.537 28.0323 393.679 36.6376 394.262C42.861 394.391 48.8228 393.621 55.3146 392.74C58.0959 392.635 61.2764 391.971 64.0577 391.866C81.0137 390.227 99.56 388.256 118.244 384.828L119.834 384.495C127.785 382.834 136.005 380.163 143.826 378.052L146.345 377.049C153.636 375.049 160.527 373.609 167.418 372.169ZM-47.1858 357.483C-46.6557 357.373 -46.6557 357.373 -45.9948 357.711C-45.3339 358.049 -44.2737 357.827 -43.2136 357.606C-42.6835 357.495 -42.1534 357.384 -41.6233 357.273C-38.1812 357.507 -34.3398 357.18 -31.1592 356.515L-29.5689 356.183C-22.9463 355.752 -16.5852 354.422 -8.10382 352.649L-7.57374 352.539C6.20859 349.658 21.0511 346.556 35.1019 342.667C47.0323 339.221 58.5635 336.335 69.6953 334.008C86.6582 330.463 103.353 327.927 119.778 326.399C133.554 325.425 147.336 322.545 160.588 319.775C165.889 318.667 171.19 317.559 176.491 316.452C181.792 315.344 187.093 314.236 192.394 313.128C199.815 311.577 205.646 310.358 211.477 309.14C221.948 306.475 232.288 303.361 242.098 300.358C247.268 298.802 252.438 297.245 258.138 295.577C264.899 293.688 270.599 292.02 276.96 290.691L277.49 290.58C279.61 290.137 281.6 289.245 283.72 288.802C285.311 288.47 286.77 287.688 288.36 287.356C291.011 286.802 294.191 286.137 296.973 286.032C297.503 285.921 298.563 285.7 299.093 285.589C300.167 281.554 301.11 277.071 301.516 274.604C301.785 273.596 302.053 272.587 301.791 271.689C301.661 271.24 302.06 270.68 301.929 270.231C301.399 270.342 301.268 269.893 300.607 269.555L300.476 269.106L300.876 268.546C302.335 267.765 301.95 264.511 301.957 262.605C301.695 261.707 302.094 261.147 301.963 260.698C301.833 260.249 302.232 259.689 302.101 259.24C302.108 257.334 301.846 256.436 301.984 254.978C301.323 254.64 300.132 254.413 298.941 254.185C297.881 254.407 297.351 254.518 296.291 254.739C293.11 255.404 290.191 256.967 287.672 257.97C285.152 258.972 283.162 259.864 280.643 260.867C278.123 261.87 275.604 262.873 273.215 264.325C268.836 266.669 263.535 267.777 258.895 269.223C256.245 269.777 253.195 270.89 250.145 272.004C244.975 273.561 239.805 275.118 234.635 276.675C231.455 277.339 227.875 278.564 224.295 279.788C221.775 280.791 219.125 281.345 215.414 282.121C212.764 282.674 210.114 283.228 207.463 283.782C204.813 284.336 202.162 284.89 199.512 285.444L171.947 291.205C163.996 292.867 156.705 294.867 148.885 296.977C141.594 298.977 133.774 301.088 125.823 302.75L124.232 303.082C118.401 304.301 112.57 305.52 107.269 306.627C106.87 307.187 106.34 307.298 105.679 306.96L99.8482 308.178C94.0172 309.397 88.1862 310.616 82.3552 311.834C66.4526 315.158 47.7687 318.587 28.0315 320.33C23.1299 320.878 17.6982 321.537 12.9274 322.534C10.277 323.088 8.15656 323.531 5.37531 323.636C1.00379 324.073 -3.63619 325.52 -7.87691 326.406C-11.5875 327.181 -15.1673 328.406 -19.4081 329.292C-22.5886 329.957 -26.2992 330.732 -31.07 331.729C-33.1904 332.173 -35.8408 332.726 -37.9611 333.17C-40.0815 333.613 -42.732 334.167 -44.8523 334.61C-45.3824 334.721 -46.9726 335.053 -49.2238 335.047C-52.5351 335.263 -56.9066 335.7 -60.0872 336.365C-63.2677 337.03 -63.667 337.589 -63.667 337.589C-62.359 342.079 -59.1922 345.227 -56.0254 348.376C-54.5727 349.501 -53.5194 351.186 -52.0669 352.312C-51.2751 353.099 -50.4835 353.886 -50.091 355.233C-48.2391 355.798 -47.4474 356.586 -47.1858 357.483ZM174.384 276.407C176.904 275.404 179.953 274.29 183.402 272.617C186.321 271.054 188.18 269.713 190.039 268.372C191.498 267.591 192.428 266.92 194.018 266.588C195.477 265.807 196.538 265.585 197.467 264.914C198.396 264.244 199.856 263.463 201.315 262.681C206.093 259.778 212.33 256.093 211.683 251.941C211.552 251.492 211.951 250.933 212.481 250.822C212.894 246.449 212.247 242.297 211.332 239.155C209.638 231.412 208.605 224.007 204.392 217.267C199.917 209.628 194.774 203.559 187.78 196.924C183.952 193.437 179.863 189.052 176.435 185.006C174.059 182.645 172.084 179.723 169.708 177.362C165.75 173.426 162.721 168.82 159.292 164.774L157.447 162.302C151.121 154.098 145.186 147.241 138.453 141.504C125.118 130.478 109.395 120.905 87.5783 111.652C79.7784 108.042 71.7099 105.442 64.0408 102.282C61.528 101.378 58.3544 100.136 55.8416 99.2326C49.4943 96.7488 43.0161 93.816 37.192 93.128C36.6619 93.2388 36.001 92.9006 35.4709 93.0114C34.2799 92.784 31.898 92.3293 30.8378 92.5509C30.3077 92.6617 30.3077 92.6617 30.3077 92.6617C30.3077 92.6617 30.0392 93.6704 30.5625 95.4662C31.0857 97.2621 31.6089 99.0578 32.1321 100.854C32.3937 101.752 32.6553 102.649 32.9169 103.547C33.3094 104.894 34.3627 106.579 34.7551 107.926C35.1475 109.273 36.07 110.509 36.4625 111.856C36.9857 113.652 37.3781 114.999 37.9013 116.795C38.5554 119.039 39.2094 121.284 40.3935 123.418C42.7549 129.593 44.0561 135.989 45.8874 142.274L46.0182 142.723C47.1886 148.671 47.5673 153.831 47.6775 159.999C47.8083 160.448 47.8083 160.448 47.9391 160.897C48.4692 160.787 48.6 161.235 48.7308 161.684C48.8616 162.133 48.9924 162.582 48.5931 163.142L48.1939 163.702L47.6638 163.813C47.6638 163.813 47.6638 163.813 47.1337 163.923C47.3953 164.821 46.996 165.381 47.2576 166.279C47.5124 169.084 47.7671 171.888 47.4918 174.803C48.0081 178.506 48.1252 182.768 48.1115 186.581C48.2285 190.843 47.2855 195.327 47.2718 199.14C46.8588 203.513 46.0464 208.446 46.1635 212.708C45.9915 223.699 44.4978 234.013 42.3362 245.896C41.1178 253.295 38.7083 260.467 35.638 267.3C34.4333 270.886 33.0978 274.023 31.8931 277.609C29.883 284.221 28.1344 291.731 36.196 296.238C39.5005 297.929 42.4125 298.273 45.7238 298.057C47.4449 298.173 49.166 298.29 51.4171 298.296C54.3292 298.64 56.7112 299.095 59.4924 298.99C62.4045 299.334 65.8466 299.567 68.7587 299.911C75.2437 300.937 80.5446 299.829 87.4358 298.389C88.4959 298.167 89.5561 297.946 90.7471 298.173C91.8072 297.952 92.9982 298.179 94.0584 297.957L96.1788 297.514C97.769 297.182 99.8894 296.739 101.61 296.855C104.922 296.64 108.233 296.424 112.474 295.538C114.064 295.205 116.184 294.762 118.305 294.319C121.485 293.654 124.797 293.438 127.977 292.774C130.758 292.669 132.879 292.226 135.529 291.672C136.589 291.45 137.65 291.229 138.71 291.007C144.541 289.788 149.181 288.342 153.16 286.558L156.21 285.444C160.719 283.549 164.698 281.765 168.677 279.981C169.606 279.311 170.667 279.089 171.727 278.867C173.324 276.628 173.854 276.518 174.384 276.407ZM17.1859 59.2056C14.6731 58.3019 11.3618 58.5177 8.71133 59.0716C7.65115 59.2932 7.12105 59.404 6.06087 59.6255L5.00071 59.8471C4.47063 59.9579 4.07133 60.5177 3.54125 60.6285C2.08178 61.4098 1.94411 62.8674 1.93723 64.774L3.52752 64.4416L2.06805 65.223C2.06805 65.223 2.06806 65.223 2.19886 65.672L2.72899 65.5612L2.8598 66.0102L2.99058 66.459C4.03703 70.0507 6.93535 74.208 8.25029 76.7909L10.0953 79.263C10.7562 79.6012 10.7562 79.6012 10.887 80.0502L11.6787 80.8374C13.7853 84.2075 16.5528 87.9157 18.1294 91.3966L18.7903 91.7346L18.9211 92.1836C18.9211 92.1836 18.9211 92.1836 19.0519 92.6326C19.1827 93.0816 19.3135 93.5306 19.3135 93.5306C20.2292 96.6733 21.8057 100.154 22.8521 103.746L23.513 104.084C24.1739 104.422 24.9656 105.209 24.6972 106.218C24.828 106.667 24.2979 106.778 23.7678 106.888C26.9209 113.85 30.0739 120.812 33.8879 128.112C35.2028 130.695 36.5178 133.278 37.8327 135.861C39.2784 138.893 40.7241 141.925 42.0391 144.507C43.2232 146.641 44.4073 148.775 44.9305 150.571C44.9305 150.571 45.1922 151.469 45.8531 151.807C45.8599 149.901 45.736 147.545 45.2127 145.749C44.1731 140.251 42.6035 134.864 41.0338 129.476L40.1182 126.333C39.595 124.538 39.0717 122.742 38.0184 121.057C37.3644 118.812 36.0495 116.229 35.3954 113.984C34.6106 111.291 33.8257 108.597 32.5108 106.014C31.3267 103.88 30.6727 101.635 30.0186 99.3902C29.757 98.4923 29.4954 97.5944 29.103 96.2476C27.6573 93.2157 26.7416 90.073 28.0771 86.9361L28.4764 86.3763L29.0065 86.2655C28.6141 84.9186 28.2217 83.5718 27.8293 82.2249L27.6985 81.7759C27.0444 79.5312 26.3904 77.2864 26.3973 75.3798C26.0048 74.0329 26.0117 72.1263 25.6193 70.7794C25.2269 69.4326 24.8345 68.0857 23.7811 66.4006C23.3887 65.0538 22.4662 63.8176 22.0738 62.4707C21.5505 60.6749 19.0378 59.7712 17.1859 59.2056ZM-29.0627 68.395C-29.2003 69.8527 -29.7373 71.8701 -29.8749 73.3277C-30.5427 74.8962 -33.0898 83.5255 -38.2667 86.9889C-43.4437 90.4524 -50.7341 92.4523 -57.7561 93.4436C-61.5975 93.7701 -66.0998 93.7586 -71.3938 92.9598C-70.2028 93.1872 -69.542 93.5254 -68.2202 94.2017C-54.066 98.388 -42.2801 98.3063 -33.3926 94.0673C-23.4448 89.6068 -18.7842 82.441 -13.5867 73.2577C-11.3218 69.4503 -8.13443 66.8789 -4.4238 66.1034C-3.89372 65.9926 -3.89374 65.9926 -3.36364 65.8818C-2.30346 65.6603 -1.77337 65.5495 -1.24328 65.4387C-1.5049 64.5408 -1.23641 63.5321 -0.967922 62.5234C-0.300163 60.9549 0.498411 59.8355 1.82706 58.6052C-2.13144 54.6696 -11.2669 54.1974 -18.1581 55.6376C-19.7483 55.97 -21.3386 56.3023 -22.2679 56.9729C-27.3072 58.9786 -28.2504 63.4623 -29.0627 68.395ZM-94.291 89.6482C-93.2377 91.3332 -90.4633 93.1349 -88.3498 94.5984C-87.5581 95.3855 -86.2363 96.0619 -85.5754 96.4C-81.0868 100.225 -74.7395 102.709 -68.3922 105.192L-67.8621 105.082C-57.0193 109.484 -46.2935 109.624 -33.0413 106.854C-29.3307 106.078 -26.0125 103.956 -22.6943 101.834L-22.295 101.274C-18.4467 99.0407 -14.0684 96.6968 -8.89831 95.1399L-7.30803 94.8076C-4.25829 93.6939 -0.148378 92.3587 3.56225 91.5832C7.27287 90.8077 10.0541 90.7027 12.4361 91.1575C10.9903 88.1256 8.88371 84.7555 6.77708 81.3855C-1.83513 82.7091 -7.28056 87.1811 -13.917 91.4259C-15.7757 92.7669 -17.6344 94.108 -19.4932 95.4491C-27.9883 101.035 -35.678 103.595 -46.6722 104.463C-63.759 105.653 -83.1935 96.8548 -94.2842 87.7416C-93.6233 88.0798 -94.0225 88.6395 -94.291 89.6482ZM-1.5037 174.565C-1.24209 175.463 -0.980469 176.36 -0.718857 177.258C-0.195631 179.054 0.3276 180.85 0.189939 182.308C0.16934 188.028 2.13144 194.762 3.83192 200.598L4.48595 202.843C6.97127 211.373 10.7852 218.673 14.3376 225.075C16.575 228.894 18.2824 232.824 20.5198 236.643C22.2271 240.573 24.5954 244.841 26.8328 248.66C27.0944 249.558 28.0169 250.794 28.2785 251.692C29.5935 254.275 30.9084 256.858 32.7534 259.33C32.8842 259.779 33.6759 260.566 33.9375 261.464C34.6053 259.896 34.8737 258.887 35.5415 257.318C37.1455 253.173 38.7495 249.027 39.8234 244.992C42.6459 233.448 43.0863 221.448 44.1877 209.787C44.4699 204.965 44.6213 199.694 45.4336 194.762C45.9911 187.024 46.5487 179.287 45.7844 170.874C45.3989 167.62 45.6742 164.705 45.8187 161.34L45.6948 158.985C43.719 156.064 42.2732 153.032 40.9583 150.449C40.3043 148.204 39.251 146.519 38.0669 144.385C35.6986 140.117 33.8604 135.738 31.623 131.919C30.1773 128.887 28.6007 125.406 27.155 122.375C24.3944 116.76 22.2946 111.483 20.3257 106.655C16.4911 105.075 12.6565 103.495 8.5535 102.924C7.48646 105.052 5.88931 107.291 4.29218 109.53C1.3664 112.999 0.161704 116.585 -0.781409 121.069C-1.44915 122.637 -1.58682 124.095 -2.2546 125.663C-3.99625 131.266 -5.73794 136.87 -5.7585 142.59C-6.04757 149.318 -5.41417 157.283 -3.58288 163.568C-3.32127 164.466 -3.05965 165.364 -2.79804 166.262C-2.54328 169.066 -1.75846 171.76 -1.5037 174.565ZM17.565 101.04C16.7801 98.3467 15.4652 95.7636 14.1503 93.1807C11.7683 92.7259 9.1179 93.2799 5.93737 93.9446C2.22676 94.7201 -1.88317 96.0553 -4.9329 97.169C-10.5023 99.2855 -16.4709 101.962 -22.8389 105.198C-31.0655 109.775 -43.1268 112.772 -51.8629 111.74C-61.7901 110.481 -72.7705 107.536 -80.4328 102.47C-83.7373 100.779 -86.6424 98.5282 -89.4168 96.7266C-90.2085 95.9394 -91.5304 95.2631 -92.3221 94.476L-92.9829 94.1377C-93.6438 93.7996 -93.6438 93.7996 -94.3047 93.4615C-94.1739 93.9104 -94.0431 94.3593 -93.9123 94.8083C-93.7815 95.2572 -93.6507 95.7062 -93.5199 96.1551C-92.2118 100.645 -88.7834 104.691 -86.1467 107.95C-84.0332 109.414 -81.9197 110.877 -79.1453 112.679C-71.4831 117.746 -63.0154 119.786 -52.0212 118.918L-50.4309 118.585C-43.8083 118.154 -37.3164 117.273 -31.6162 115.606C-27.5063 114.27 -24.3189 111.699 -20.7322 108.568C-18.4742 106.667 -15.6861 104.656 -13.2973 103.204C-10.9084 101.752 -7.32859 100.527 -3.61797 99.752C-1.49762 99.3088 0.0926659 98.9765 1.81373 99.0931C7.90633 98.7724 12.9318 100.58 18.0882 102.836C17.9574 102.387 17.6958 101.489 17.565 101.04ZM-87.7991 88.7677C-85.6856 90.2312 -83.5721 91.6947 -80.3985 92.9366C-74.4504 95.9802 -69.2941 98.2365 -64.2685 100.044C-56.2001 102.644 -45.4744 102.784 -35.9328 100.79C-28.6424 98.7901 -22.536 94.6562 -16.4297 90.5222C-10.3234 86.3882 -3.81779 81.6946 4.13355 80.0328C4.66364 79.922 5.72378 79.7004 6.25386 79.5897L5.06977 77.4557C3.09395 74.5345 0.326383 70.8262 -0.189985 67.1237C-0.720067 67.2345 -1.38091 66.8964 -1.911 67.0072C-4.96073 68.1209 -8.67825 70.8029 -8.54744 71.2519C-9.34601 72.3713 -10.1446 73.4909 -10.8123 75.0593C-13.0772 78.8667 -15.4729 82.2252 -18.2679 86.1434C-23.9887 93.5309 -33.9364 97.9913 -45.5915 98.522C-58.8368 99.385 -70.2097 95.0938 -80.6533 90.1321C-83.0352 89.6773 -85.0179 88.6627 -87.5307 87.759C-87.93 88.3187 -87.7991 88.7677 -87.7991 88.7677ZM125.437 299.497C125.437 299.497 125.306 299.048 125.437 299.497L124.129 295.007C123.069 295.229 122.539 295.339 121.348 295.112C119.757 295.444 117.637 295.887 115.517 296.331C113.396 296.774 111.407 297.666 109.156 297.66C108.095 297.882 106.904 297.654 105.844 297.876C106.237 299.223 106.498 300.121 106.891 301.467C107.022 301.916 107.283 302.814 107.545 303.712C110.195 303.158 112.846 302.604 115.496 302.05C118.677 301.386 121.857 300.721 125.568 299.946L125.437 299.497Z" fill="url(#paint1_linear)" fill-opacity="0.2"/>
<path d="M239.785 280.837L240.845 280.616L241.375 280.505C242.036 280.843 242.566 280.732 243.227 281.07C245.079 281.636 247.592 282.54 248.776 284.674L250.098 285.35L248.907 285.123C249.038 285.572 249.168 286.02 249.299 286.469C249.822 288.265 250.215 289.612 249.279 292.189C247.943 295.326 244.095 297.559 239.854 298.446C237.204 298.999 234.422 299.104 231.91 298.201C228.206 297.07 226.092 295.606 224.908 293.472C223.855 291.787 224.392 289.77 225.459 287.642C228.784 283.613 234.622 280.487 239.785 280.837ZM227.69 293.367C228.474 296.061 234.959 297.087 237.61 296.533L238.14 296.422C241.851 295.647 244.639 293.635 246.635 290.837C248.101 288.149 247.447 285.904 243.351 283.426C241.499 282.86 239.778 282.744 237.658 283.187C235.008 283.741 232.619 285.193 230.891 286.983C230.491 287.542 230.491 287.542 230.092 288.102C227.834 290.003 227.036 291.122 227.69 293.367Z" fill="url(#paint2_linear)" fill-opacity="0.2"/>
<path d="M161.993 297.572C163.453 296.79 165.442 295.898 167.562 295.455C170.743 294.79 172.994 294.796 174.977 295.811L174.846 295.362L175.638 296.149C176.829 296.376 177.62 297.164 178.412 297.951C183.169 300.767 185.269 306.044 181.675 311.081C180.078 313.32 177.689 314.772 174.509 315.437C170.268 316.323 164.974 315.525 161.408 312.936C158.634 311.134 157.319 308.551 157.463 305.187C157.078 301.933 159.074 299.134 161.993 297.572ZM166.971 312.726C171.204 313.746 175.844 312.3 178.901 309.28C181.427 306.37 180.381 302.778 178.006 300.417C177.476 300.528 177.345 300.079 177.345 300.079C177.214 299.63 176.553 299.292 176.423 298.843C175.762 298.505 174.44 297.828 173.91 297.939L173.249 297.601C170.337 297.257 165.697 298.703 162.909 300.715C160.52 302.166 160.775 304.971 161.167 306.318C161.023 309.682 162.737 311.705 166.971 312.726Z" fill="url(#paint3_linear)" fill-opacity="0.2"/>
<path d="M101.563 310.201L102.093 310.091C103.284 310.318 104.475 310.545 105.136 310.884L106.327 311.111C107.649 311.787 108.971 312.464 109.762 313.251C110.554 314.038 114.113 318.533 112.778 321.67C111.841 324.247 109.053 326.259 105.343 327.034C102.162 327.699 97.6598 327.687 95.0162 326.335C91.1816 324.755 86.9615 319.921 88.5655 315.776C89.6394 311.741 94.6787 309.735 101.563 310.201ZM97.405 324.883C99.2569 325.448 101.508 325.454 103.628 325.011C106.279 324.457 108.668 323.005 109.866 321.326C110.664 320.207 110.933 319.198 110.54 317.851C109.755 315.157 106.32 313.018 103.807 312.114C99.7042 311.542 96.3929 311.758 93.474 313.321C91.0852 314.773 90.4174 316.341 90.8098 317.688C91.1954 320.941 94.3622 324.09 97.405 324.883Z" fill="url(#paint4_linear)" fill-opacity="0.2"/>
<path d="M13.9599 329.939C14.49 329.828 14.3592 329.379 14.8893 329.269C16.2179 328.038 18.7376 327.035 20.8579 326.592L17.6842 325.35L21.9181 326.371C22.9782 326.149 23.5083 326.038 24.1692 326.376C24.8301 326.715 25.3602 326.604 26.0211 326.942C26.0211 326.942 26.0211 326.942 26.5512 326.831L27.0813 326.72C30.1241 327.513 31.9691 329.986 32.6232 332.23C34.0689 335.262 33.1327 337.839 29.6768 341.419C28.3482 342.65 26.8887 343.431 24.7683 343.874C21.0577 344.65 16.2938 343.74 12.8586 341.6C11.406 340.475 10.3526 338.79 9.69859 336.545C10.3732 333.07 12.232 331.729 13.9599 329.939ZM23.5842 341.74C25.8354 341.746 27.8249 340.854 29.9521 338.504C31.2808 337.274 31.8177 335.256 31.2945 333.461L30.7644 333.571L30.372 332.224C30.1104 331.327 29.9796 330.878 29.3187 330.539L28.7886 330.65L28.1277 330.312C24.6924 328.172 19.7909 328.72 16.6035 331.292C13.5469 334.312 12.7483 335.432 14.3248 338.912C16.1698 341.385 20.803 341.845 23.5842 341.74Z" fill="url(#paint5_linear)" fill-opacity="0.2"/>
<path d="M210.21 256.536C210.21 256.536 209.948 255.638 209.687 254.74C209.294 253.393 208.771 251.597 208.117 249.353C207.463 247.108 206.547 243.965 205.102 240.933C204.578 239.137 203.525 237.452 202.472 235.767C201.418 234.082 200.365 232.397 199.181 230.263C196.944 226.444 194.575 222.176 191.677 218.019C188.779 213.862 185.35 209.815 181.791 205.32C178.232 200.824 174.673 196.329 171.113 191.834L168.346 188.125L165.179 184.977C162.804 182.615 161.09 180.592 158.715 178.231C154.625 173.846 150.536 169.462 146.447 165.077C144.072 162.716 142.357 160.692 140.113 158.78C137.869 156.868 135.625 154.955 133.38 153.043C128.892 149.218 124.534 145.842 120.176 142.466C115.818 139.09 111.591 136.163 108.025 133.574C104.459 130.986 100.363 128.508 96.9276 126.368C93.4923 124.228 90.7179 122.426 88.0744 121.074C82.7872 118.368 80.1436 117.016 80.1436 117.016C80.1436 117.016 82.918 118.817 87.5443 121.184C89.6578 122.648 92.9622 124.339 95.8674 126.589C99.3027 128.729 102.869 131.318 106.435 133.907C110.132 136.944 114.359 139.871 118.186 143.358C122.544 146.734 126.902 150.11 131.391 153.935C133.635 155.847 135.879 157.76 138.124 159.672C140.368 161.584 142.612 163.497 144.457 165.969C148.546 170.354 152.636 174.738 157.255 179.012C159.63 181.374 161.344 183.397 163.72 185.758L166.886 188.907L169.523 192.166C173.082 196.661 177.172 201.046 180.731 205.541C184.29 210.037 187.719 214.083 191.147 218.13C194.045 222.287 196.413 226.555 198.651 230.374C199.704 232.059 200.888 234.193 201.942 235.878C202.995 237.563 204.048 239.248 204.571 241.044C206.017 244.076 206.933 247.219 208.117 249.353C208.771 251.597 209.425 253.842 209.687 254.74C210.079 256.087 210.21 256.536 210.21 256.536Z" fill="url(#paint6_linear)" fill-opacity="0.2"/>
<path d="M181.703 230.106C181.703 230.106 181.572 229.657 181.31 228.759C181.049 227.861 180.656 226.514 180.133 224.718C179.08 223.033 178.426 220.788 176.712 218.765C175.397 216.182 173.552 213.71 172.237 211.127C170.791 208.095 168.815 205.174 166.708 201.804C164.602 198.434 162.495 195.064 159.859 191.804C157.222 188.545 154.454 184.837 151.818 181.577C149.05 177.869 145.883 174.721 142.586 171.123C139.419 167.975 136.121 164.377 132.954 161.229C129.788 158.08 126.621 154.932 122.924 151.894C119.757 148.745 116.191 146.156 113.286 143.906C110.25 141.206 106.815 139.067 104.04 137.265C101.135 135.014 97.9613 133.772 95.717 131.86C93.0734 130.507 90.9599 129.044 88.9772 128.029C85.0119 126 83.0292 124.986 83.0292 124.986C83.0292 124.986 85.0119 126 88.578 128.589C90.5606 129.604 92.6741 131.067 94.7876 132.531C96.9011 133.994 100.206 135.685 103.111 137.935C106.016 140.186 109.451 142.326 112.356 144.576C113.809 145.702 115.392 147.276 117.375 148.291C118.959 149.865 120.411 150.99 122.525 152.454C126.091 155.042 129.258 158.191 132.424 161.339C135.591 164.488 138.758 167.636 142.056 171.234C145.222 174.382 148.52 177.98 151.157 181.239C154.323 184.388 157.091 188.096 159.198 191.466C161.834 194.725 163.941 198.096 166.048 201.466C168.154 204.836 170.13 207.757 171.576 210.789C173.022 213.821 174.866 216.293 176.051 218.427C177.235 220.561 178.419 222.695 179.472 224.38C179.995 226.176 180.918 227.412 181.18 228.31C181.042 229.768 181.173 230.216 181.703 230.106Z" fill="url(#paint7_linear)" fill-opacity="0.2"/>
<path d="M165.704 223.447L165.573 222.998C165.442 222.549 165.311 222.1 165.05 221.202C164.788 220.304 164.526 219.406 163.604 218.17C163.211 216.823 162.42 216.036 161.497 214.8C157.807 209.856 152.665 203.786 147.921 197.157C145.285 193.897 143.178 190.527 140.672 187.717C138.166 184.907 135.66 182.096 133.416 180.184C129.326 175.799 126.29 173.1 126.29 173.1C126.29 173.1 128.927 176.359 132.486 180.854C134.331 183.327 136.707 185.688 139.343 188.947C141.849 191.758 144.486 195.017 146.992 197.827C149.629 201.087 152.134 203.897 154.771 207.156C157.277 209.966 159.783 212.777 161.628 215.249C162.551 216.485 163.473 217.721 164.265 218.508C165.056 219.295 165.449 220.642 165.58 221.091C165.841 221.989 165.972 222.438 166.103 222.887C165.573 222.998 165.704 223.447 165.704 223.447Z" fill="url(#paint8_linear)" fill-opacity="0.2"/>
<path d="M182.5 192.311C182.5 192.311 182.101 192.871 181.963 194.329C181.695 195.337 180.497 197.017 179.299 198.696C178.101 200.375 176.374 202.165 174.246 204.515C171.988 206.416 169.73 208.317 167.472 210.217C165.214 212.118 162.295 213.681 159.906 215.133C157.518 216.584 155.26 218.485 153.401 219.826C149.683 222.508 147.556 224.858 147.556 224.858C147.556 224.858 150.475 223.295 154.323 221.062C156.182 219.721 158.702 218.718 160.96 216.818C163.349 215.366 165.607 213.465 168.395 211.453C170.653 209.553 172.911 207.652 175.038 205.302C176.766 203.512 178.363 201.273 179.43 199.145C180.628 197.466 181.165 195.448 181.433 194.44C182.762 193.209 183.161 192.65 182.5 192.311Z" fill="url(#paint9_linear)" fill-opacity="0.2"/>
<path d="M173.799 181.746C173.799 181.746 173 182.865 171.802 184.545C171.534 185.553 170.735 186.673 169.937 187.792C169.138 188.912 167.81 190.142 167.142 191.71C165.813 192.941 164.615 194.62 163.417 196.299C162.22 197.978 160.361 199.319 158.633 201.109C156.905 202.899 155.177 204.689 153.979 206.369C152.251 208.159 150.523 209.949 148.665 211.29L145.477 213.861C144.548 214.532 143.619 215.202 142.82 216.322C140.961 217.663 139.233 219.453 137.375 220.794C135.516 222.135 133.657 223.476 131.798 224.817C129.94 226.158 128.611 227.388 126.752 228.729C120.777 233.312 116.66 236.554 116.66 236.554C116.66 236.554 120.907 233.761 127.675 229.965C129.003 228.735 130.993 227.843 132.852 226.502C134.71 225.161 136.569 223.82 138.428 222.479C140.287 221.138 142.015 219.348 143.742 217.558C144.672 216.887 145.47 215.768 146.4 215.097L149.057 212.637C150.785 210.847 152.513 209.057 154.241 207.267C155.969 205.477 157.697 203.687 158.895 202.007C160.623 200.217 161.82 198.538 163.018 196.859C164.216 195.18 165.414 193.5 166.743 192.27C167.94 190.591 168.739 189.472 169.538 188.352C170.336 187.233 171.135 186.113 171.403 185.104C173.53 182.755 173.799 181.746 173.799 181.746Z" fill="url(#paint10_linear)" fill-opacity="0.2"/>
<path d="M154.659 164.313C154.659 164.313 154.79 164.762 154.521 165.77C154.253 166.779 153.984 167.788 153.186 168.907C151.059 171.257 148.663 174.615 146.267 177.974C145.069 179.653 143.871 181.332 142.543 182.562C141.345 184.242 140.016 185.472 139.218 186.592C137.621 188.83 136.554 190.959 136.554 190.959C136.554 190.959 138.412 189.618 140.54 187.268C141.868 186.038 143.197 184.807 144.395 183.128C145.593 181.449 146.79 179.77 147.988 178.09C149.186 176.411 150.384 174.732 151.052 173.164C151.451 172.604 152.25 171.484 152.649 170.925C153.048 170.365 153.317 169.356 153.716 168.796C154.514 167.677 155.182 166.109 154.921 165.211C155.32 164.651 154.659 164.313 154.659 164.313Z" fill="url(#paint11_linear)" fill-opacity="0.2"/>
<path d="M138.164 148.232C138.164 148.232 138.295 148.681 137.896 149.24C138.026 149.689 137.627 150.249 137.359 151.258C136.959 151.818 136.691 152.826 135.892 153.946C135.624 154.954 134.694 155.625 133.896 156.744C132.967 157.415 132.168 158.534 131.239 159.205C130.309 159.876 130.041 160.884 129.111 161.555C127.914 163.234 127.645 164.243 127.645 164.243C127.645 164.243 128.574 163.572 129.903 162.342C130.832 161.671 131.232 161.112 132.161 160.441C133.091 159.771 133.359 158.762 134.158 157.642C134.956 156.523 135.355 155.963 136.154 154.844C136.553 154.284 136.422 153.835 136.822 153.275C137.221 152.715 137.09 152.267 136.959 151.818C137.228 150.809 137.097 150.36 136.966 149.911C138.295 148.681 138.295 148.681 138.164 148.232Z" fill="url(#paint12_linear)" fill-opacity="0.2"/>
<path d="M46.2113 162.687C46.2113 162.687 44.8895 162.011 43.0376 161.445C41.8467 161.218 41.0549 160.431 39.7332 159.754C38.4114 159.078 37.6197 158.291 36.2979 157.614C34.9761 156.938 34.1844 156.151 32.8626 155.475C31.5408 154.798 30.7491 154.011 29.5581 153.784C27.5754 152.769 26.3844 152.542 26.3844 152.542C26.3844 152.542 27.3069 153.778 28.7595 154.903C29.5512 155.69 30.3429 156.478 31.6647 157.154C32.9865 157.83 34.3083 158.507 35.1 159.294C36.4218 159.97 37.7436 160.646 38.9346 160.874C40.2564 161.55 41.4474 161.777 42.6384 162.005C44.4903 162.57 45.812 163.247 46.2113 162.687Z" fill="url(#paint13_linear)" fill-opacity="0.2"/>
<path d="M45.3993 167.62C45.3993 167.62 44.7384 167.282 42.8865 166.716C41.5647 166.04 39.582 165.025 38.1295 163.9C37.3378 163.113 36.6769 162.775 35.4859 162.547C34.825 162.209 33.634 161.982 32.9731 161.644C31.6513 160.967 30.4604 160.74 30.4604 160.74C30.4604 160.74 31.2521 161.527 32.0438 162.314C32.7047 162.652 33.4964 163.44 34.1573 163.778C34.8182 164.116 36.1399 164.792 36.8008 165.13C38.6527 165.696 40.6354 166.71 42.4873 167.276C44.8692 167.731 45.5301 168.069 45.3993 167.62Z" fill="url(#paint14_linear)" fill-opacity="0.2"/>
<path d="M45.5092 173.789C45.5092 173.789 43.5265 172.774 42.074 171.649C41.4131 171.311 41.2822 170.862 40.7522 170.973C40.0913 170.635 39.5612 170.745 39.5612 170.745C38.9003 170.407 37.8402 170.629 37.8402 170.629C37.8402 170.629 37.9709 171.078 38.7626 171.865C38.8934 172.314 39.4236 172.203 40.0844 172.541C40.7453 172.879 41.2754 172.768 41.9363 173.107C43.1272 173.334 44.9791 173.9 45.5092 173.789Z" fill="url(#paint15_linear)" fill-opacity="0.2"/>
<path d="M45.0895 180.068C45.0895 180.068 44.2978 179.281 42.976 178.605C42.8452 178.156 42.3151 178.266 42.1843 177.817L41.5234 177.479C40.9934 177.59 40.4633 177.701 40.4633 177.701C40.4633 177.701 40.5941 178.15 40.7249 178.599C40.7249 178.599 40.8557 179.048 41.3858 178.937C41.3858 178.937 42.0467 179.275 42.5768 179.164C43.8985 179.841 45.2203 180.517 45.0895 180.068Z" fill="url(#paint16_linear)" fill-opacity="0.2"/>
<path d="M45.9919 187.024C45.9919 187.024 45.2003 186.237 44.5394 185.899L43.8785 185.56L43.3484 185.671C42.8183 185.782 42.2882 185.893 42.2882 185.893C42.2882 185.893 42.419 186.342 42.5498 186.791C42.5498 186.791 42.6806 187.24 43.2107 187.129C43.2107 187.129 43.7408 187.018 43.8716 187.467C44.9318 187.246 45.9919 187.024 45.9919 187.024Z" fill="url(#paint17_linear)" fill-opacity="0.2"/>
<path d="M46.0875 197.006C46.0875 197.006 44.7657 196.33 43.3131 195.205C43.1823 194.756 42.6522 194.866 42.5214 194.418C41.9913 194.528 41.8605 194.079 41.3304 194.19C40.8003 194.301 40.2702 194.412 40.2702 194.412C40.2702 194.412 40.401 194.861 41.0619 195.199C41.0619 195.199 41.7228 195.537 41.8537 195.986C42.3837 195.875 42.5145 196.324 43.0446 196.213C44.3664 196.89 46.0875 197.006 46.0875 197.006Z" fill="url(#paint18_linear)" fill-opacity="0.2"/>
<path d="M42.7557 202.942C42.7557 202.942 42.494 202.044 41.8331 201.706C41.8331 201.706 41.7023 201.257 41.1722 201.368L40.6421 201.478C40.112 201.589 39.582 201.7 39.582 201.7C39.582 201.7 39.7128 202.149 39.8436 202.598L39.9744 203.047L40.5045 202.936C41.5647 202.715 42.7557 202.942 42.7557 202.942Z" fill="url(#paint19_linear)" fill-opacity="0.2"/>
<path d="M45.3784 210.013C45.3784 210.013 44.5868 209.227 43.7952 208.44L43.1343 208.102C42.6042 208.213 42.6043 208.213 42.0742 208.323C41.5441 208.434 41.014 208.545 41.014 208.545C41.014 208.545 41.1448 208.994 41.8056 209.332C41.8056 209.332 41.9364 209.78 42.4665 209.67C42.4665 209.67 42.9965 209.559 43.5266 209.448C43.6574 209.897 45.3784 210.013 45.3784 210.013Z" fill="url(#paint20_linear)" fill-opacity="0.2"/>
<path d="M44.0293 216.965C44.0293 216.965 43.2374 216.178 42.4456 215.39L41.7847 215.052L41.2546 215.163C40.7245 215.274 40.1944 215.384 40.1944 215.384C40.1944 215.384 40.3252 215.833 40.4561 216.282C40.4561 216.282 40.587 216.732 41.1171 216.621L41.6472 216.51C42.9691 217.187 44.0293 216.965 44.0293 216.965Z" fill="url(#paint21_linear)" fill-opacity="0.2"/>
<path d="M43.6035 225.151C42.9426 224.812 43.4727 224.702 43.4727 224.702L42.9425 224.812C42.9425 224.812 42.4125 224.923 42.5433 225.372L42.6741 225.821L43.335 226.159C43.2042 225.71 43.7343 225.6 43.6035 225.151C43.7343 225.6 43.7343 225.6 43.6035 225.151Z" fill="url(#paint22_linear)" fill-opacity="0.2"/>
<path d="M13.4686 61.8871C12.8077 61.5489 12.2776 61.6598 11.7476 61.7706C11.2175 61.8814 10.5566 61.5432 9.62719 62.2138C8.56701 62.4353 8.29855 63.444 7.89927 64.0038C7.23151 65.5722 7.88553 67.8171 8.40876 69.613C8.67037 70.5109 9.06277 71.8577 9.32438 72.7557C9.58599 73.6536 10.5085 74.8898 10.7701 75.7877C11.5618 76.5748 11.9542 77.9216 12.746 78.7088C13.0076 79.6067 13.9301 80.8429 14.1917 81.7408C14.9834 82.5279 14.7149 83.5367 15.5066 84.3238C15.7682 85.2218 16.0299 86.1197 16.2915 87.0177C17.2071 90.1604 18.3912 92.2944 18.3912 92.2944C18.3912 92.2944 18.2673 89.9388 17.3517 86.7961C17.0901 85.8981 16.8284 85.0002 16.5668 84.1023C16.3052 83.2043 15.9128 81.8574 15.6512 80.9594C15.3896 80.0615 14.5978 79.2745 14.2054 77.9276C13.4137 77.1404 12.4912 75.9043 12.2296 75.0063C11.4379 74.2192 11.0455 72.8722 10.2538 72.0851C9.99216 71.1872 9.06964 69.9511 8.80803 69.0532C8.2848 67.2573 7.63078 65.0125 7.76845 63.5548C8.03693 62.546 8.43621 61.9864 8.9663 61.8756C9.49639 61.7648 10.5566 61.5432 11.0867 61.4324C12.2777 61.6598 12.9385 61.9979 13.4686 61.8871Z" fill="url(#paint23_linear)" fill-opacity="0.2"/>
<path d="M16.0977 67.0532C15.0375 67.2748 14.6382 67.8346 14.7691 68.2835C13.9705 69.403 14.3629 70.7499 14.7553 72.0967C15.0169 72.9946 15.1477 73.4436 15.2785 73.8925C15.4093 74.3415 16.201 75.1286 16.3318 75.5775C17.1235 76.3647 17.7844 76.7029 17.7844 76.7029C17.7844 76.7029 18.0529 75.6942 17.7913 74.7963C17.6605 74.3474 17.5296 73.8983 17.268 73.0004C17.1372 72.5514 16.8756 71.6535 16.2147 71.3154C15.8223 69.9685 15.4299 68.6217 15.2991 68.1728C15.1683 67.7238 15.5676 67.164 16.0977 67.0532Z" fill="url(#paint24_linear)" fill-opacity="0.2"/>
<path d="M6.19246 60.0743C6.19246 60.0743 6.19247 60.0744 5.79319 60.6341C5.924 61.0831 5.52472 61.6428 5.78633 62.5407C6.17875 63.8875 7.36288 66.0215 8.81547 67.1468C9.60717 67.9339 10.3988 68.7209 11.1905 69.508C11.9822 70.2951 12.6431 70.6334 13.304 70.9716C14.6258 71.6479 15.9476 72.3242 15.9476 72.3242C15.9476 72.3242 15.686 71.4263 14.2334 70.301C13.5725 69.9629 13.3109 69.065 12.5192 68.2778C11.7275 67.4907 11.0666 67.1526 10.2749 66.3655C8.82231 65.2402 7.2389 63.6659 6.84649 62.3191C6.71568 61.8701 6.45408 60.9723 6.32327 60.5233C6.19246 60.0744 6.19246 60.0743 6.19246 60.0743Z" fill="url(#paint25_linear)" fill-opacity="0.2"/>
<path d="M5.50994 65.456C5.50994 65.456 6.30163 66.2431 7.22414 67.4792C7.48576 68.3772 8.27745 69.1643 8.93834 69.5025C9.73005 70.2896 10.5217 71.0766 11.3134 71.8638C12.1052 72.6509 12.8969 73.438 13.6886 74.2252C14.4803 75.0123 15.1412 75.3505 15.9329 76.1376C17.3855 77.2629 18.5765 77.4903 18.5765 77.4903C18.5765 77.4903 18.3149 76.5925 17.2616 74.9074C16.4699 74.1203 16.2082 73.2224 15.5473 72.8842C14.7556 72.0971 13.9639 71.3099 12.6421 70.6335C11.0587 69.0593 9.076 68.0447 8.02268 66.3597C6.3016 66.2431 6.04003 65.3452 5.50994 65.456Z" fill="url(#paint26_linear)" fill-opacity="0.2"/>
<path d="M13.0085 79.6065C13.0085 79.6065 14.1926 81.7405 15.9068 83.7637C16.0376 84.2127 16.8293 84.9998 16.9601 85.4488C17.621 85.7869 17.7518 86.236 18.4127 86.5742C19.2044 87.3613 20.2646 87.1396 20.2646 87.1396C20.2646 87.1396 20.003 86.2417 19.7414 85.3438C19.6106 84.8948 19.4798 84.4459 18.8189 84.1078C18.158 83.7696 18.0272 83.3205 17.3663 82.9824C15.122 81.0699 13.0085 79.6065 13.0085 79.6065Z" fill="url(#paint27_linear)" fill-opacity="0.2"/>
<path d="M43.8563 154.606C43.8563 154.606 43.0646 153.819 41.7428 153.142C41.0819 152.804 40.2902 152.017 39.0992 151.79C38.4383 151.451 37.1165 150.775 35.9255 150.548C35.2646 150.209 33.9428 149.533 33.2819 149.195C32.0909 148.968 31.4301 148.629 30.7692 148.291C29.4474 147.615 27.7263 147.498 27.7263 147.498C27.7263 147.498 28.518 148.285 29.9706 149.411C30.1014 149.86 30.6315 149.749 31.2924 150.087C31.9533 150.425 31.9532 150.425 32.6141 150.763C33.8051 150.991 34.466 151.329 35.7878 152.005C37.7705 153.02 40.1525 153.475 41.4743 154.151C42.6653 154.378 43.3262 154.717 43.8563 154.606Z" fill="url(#paint28_linear)" fill-opacity="0.2"/>
<path d="M39.6435 147.866C39.6435 147.866 39.6435 147.866 39.5127 147.417C39.3819 146.968 38.721 146.63 38.0601 146.291C36.7383 145.615 35.2857 144.49 33.4339 143.924C32.773 143.586 31.4512 142.91 30.7903 142.571C30.1294 142.233 28.9384 142.006 28.4084 142.117C27.2174 141.889 26.0264 141.662 26.0264 141.662C26.0264 141.662 26.8181 142.449 28.1399 143.125C28.8008 143.463 29.4617 143.802 30.1225 144.14C30.7834 144.478 31.9744 144.705 32.6353 145.044C34.4872 145.609 36.3391 146.175 37.6609 146.851C38.3218 147.189 38.8518 147.078 38.9826 147.527C39.1134 147.976 39.1134 147.976 39.6435 147.866Z" fill="url(#paint29_linear)" fill-opacity="0.2"/>
<path d="M35.4367 139.218C35.4367 139.218 33.4541 138.203 30.9414 137.3C30.2805 136.962 30.1498 136.513 29.6197 136.624C28.9588 136.286 28.4287 136.397 28.4287 136.397C27.2377 136.169 26.7077 136.28 26.7077 136.28C26.7077 136.28 26.8384 136.729 27.6301 137.516C28.2909 137.854 28.4217 138.303 28.9518 138.192C29.6127 138.53 30.1428 138.419 30.8037 138.757C33.1856 139.212 35.4367 139.218 35.4367 139.218Z" fill="url(#paint30_linear)" fill-opacity="0.2"/>
<path d="M32.2847 132.257C32.2847 132.257 30.8321 131.132 29.5103 130.455C29.3795 130.006 28.8494 130.117 28.7186 129.668C28.0577 129.33 28.0578 129.33 27.5277 129.441C26.9976 129.552 26.4675 129.662 26.4675 129.662C26.4675 129.662 26.5983 130.111 27.2592 130.45C27.39 130.899 27.9201 130.788 28.0509 131.237C28.581 131.126 28.7118 131.575 29.2419 131.464C30.4328 131.692 32.2847 132.257 32.2847 132.257Z" fill="url(#paint31_linear)" fill-opacity="0.2"/>
<path d="M27.2787 124.73C27.2787 124.73 25.1652 123.266 23.1825 122.252C22.5216 121.914 22.3908 121.465 21.8607 121.576C21.1999 121.237 21.1998 121.237 20.5389 120.899C19.878 120.561 18.8179 120.782 18.8179 120.782C18.8179 120.782 18.9487 121.232 19.7404 122.019C19.8712 122.468 20.532 122.806 21.0621 122.695C21.723 123.033 22.2531 122.922 22.914 123.261C24.8967 124.275 27.2787 124.73 27.2787 124.73Z" fill="url(#paint32_linear)" fill-opacity="0.2"/>
<path d="M25.7104 119.342C25.7104 119.342 24.2578 118.217 22.8052 117.092C22.1443 116.753 22.0135 116.304 21.4834 116.415C20.8225 116.077 20.8226 116.077 20.2925 116.188C19.6316 115.85 18.5714 116.071 18.5714 116.071C18.5714 116.071 18.7022 116.52 19.3631 116.858C19.4939 117.307 20.0239 117.197 20.1547 117.645C20.8156 117.984 21.3458 117.873 21.3458 117.873C23.8585 118.777 25.7104 119.342 25.7104 119.342Z" fill="url(#paint33_linear)" fill-opacity="0.2"/>
<path d="M24.0093 113.506C24.0093 113.506 22.5567 112.381 20.7048 111.815C20.0439 111.477 20.0439 111.477 19.3831 111.139C18.7222 110.801 18.7221 110.801 18.1921 110.911C17.5312 110.573 16.4711 110.795 16.4711 110.795C16.4711 110.795 16.6018 111.244 17.2627 111.582C17.3935 112.031 17.9236 111.92 18.0544 112.369C18.7153 112.707 19.2454 112.596 19.3762 113.045C22.1574 112.94 24.0093 113.506 24.0093 113.506Z" fill="url(#paint34_linear)" fill-opacity="0.2"/>
<path d="M22.7006 109.016C22.7006 109.016 22.0397 108.678 21.3789 108.34C20.5872 107.553 19.3962 107.325 18.2052 107.098C17.5443 106.76 16.8834 106.421 16.3533 106.532C15.6924 106.194 15.1624 106.305 14.6323 106.416C14.1022 106.527 13.9714 106.078 13.4413 106.188C12.9112 106.299 12.9112 106.299 12.9112 106.299C12.9112 106.299 12.9112 106.299 13.042 106.748C13.1728 107.197 13.1728 107.197 13.8337 107.535C14.4946 107.873 14.6254 108.322 15.1555 108.212C15.8164 108.55 16.3464 108.439 17.0073 108.777C18.1983 109.004 19.9194 109.121 20.5803 109.459C22.1705 109.127 22.7006 109.016 22.7006 109.016Z" fill="url(#paint35_linear)" fill-opacity="0.2"/>
<path d="M121.747 294.552C122.277 294.441 122.277 294.441 122.277 294.441C122.277 294.441 122.277 294.441 122.146 293.992C122.015 293.543 121.616 294.103 121.616 294.103L121.747 294.552C121.478 295.561 121.21 296.57 121.471 297.468C121.602 297.917 121.733 298.365 121.864 298.814C121.995 299.263 122.125 299.713 122.786 300.051C123.186 299.491 123.055 299.042 123.454 298.482C123.323 298.033 123.192 297.584 123.062 297.135C122.8 296.237 122.538 295.339 121.747 294.552C122.146 293.992 122.277 294.441 121.747 294.552C121.616 294.103 121.616 294.103 121.747 294.552C121.616 294.103 121.616 294.103 121.747 294.552C121.616 294.103 121.747 294.552 121.747 294.552Z" fill="url(#paint36_linear)" fill-opacity="0.2"/>
<path d="M118.175 293.87C118.175 293.87 118.168 295.776 118.691 297.572C118.822 298.021 118.953 298.47 119.084 298.919C119.215 299.368 119.345 299.817 119.476 300.266C120.268 301.053 120.399 301.502 120.399 301.502C120.399 301.502 120.798 300.942 120.536 300.044C120.406 299.595 120.275 299.147 120.144 298.698C120.013 298.249 119.882 297.8 119.752 297.351C119.359 296.004 118.175 293.87 118.175 293.87Z" fill="url(#paint37_linear)" fill-opacity="0.2"/>
<path d="M114.995 294.535C114.995 294.535 114.988 296.441 115.642 298.686C115.773 299.135 115.373 299.695 115.504 300.144C115.635 300.593 115.766 301.042 115.896 301.49C116.158 302.388 116.819 302.726 116.819 302.726C116.819 302.726 117.218 302.167 117.618 301.607C117.487 301.158 117.886 300.598 117.755 300.149C117.624 299.7 117.494 299.252 117.363 298.803C116.179 296.669 114.995 294.535 114.995 294.535Z" fill="url(#paint38_linear)" fill-opacity="0.2"/>
<path d="M112.736 296.435C112.736 296.435 112.729 298.342 113.252 300.138C113.383 300.587 113.514 301.036 113.644 301.485C113.775 301.934 113.906 302.383 114.037 302.832C114.298 303.73 114.959 304.068 114.959 304.068C114.959 304.068 115.359 303.508 115.097 302.61C114.966 302.161 114.835 301.712 114.705 301.263C114.574 300.814 114.443 300.365 114.312 299.916C113.789 298.121 112.736 296.435 112.736 296.435Z" fill="url(#paint39_linear)" fill-opacity="0.2"/>
<path d="M110.085 296.989C110.085 296.989 110.079 298.896 110.202 301.251C110.333 301.7 110.464 302.149 110.065 302.709C110.196 303.158 110.326 303.607 110.457 304.056C110.719 304.954 111.38 305.292 111.38 305.292C111.38 305.292 111.779 304.732 111.517 303.834C111.387 303.385 111.256 302.937 111.125 302.488C110.994 302.039 110.863 301.59 110.733 301.141C111.139 298.674 110.615 296.879 110.085 296.989Z" fill="url(#paint40_linear)" fill-opacity="0.2"/>
<path d="M284.596 303.384C282.076 304.387 280.086 305.279 278.228 306.62C277.298 307.291 276.369 307.961 275.44 308.632L271.991 310.305C270.001 311.197 267.351 311.751 264.831 312.754C262.18 313.308 260.06 313.751 257.41 314.305L243.097 317.296L228.916 320.736C224.276 322.182 219.505 323.179 214.865 324.625C212.214 325.179 210.094 325.623 207.574 326.625L200.153 328.176C195.382 329.173 190.612 330.171 185.841 331.168C183.72 331.611 180.939 331.716 178.688 331.71C176.437 331.704 173.525 331.36 172.072 330.235L171.804 331.244L182.543 327.57C186.123 326.346 189.703 325.121 193.283 323.897C196.862 322.672 200.573 321.897 204.153 320.672C207.733 319.448 211.443 318.672 215.154 317.897C218.865 317.121 222.575 316.346 226.286 315.57L237.548 313.693C239.139 313.361 241.259 312.917 243.379 312.474L249.08 310.807C250.67 310.474 252.79 310.031 254.381 309.699C255.971 309.366 258.222 309.372 259.943 309.489L259.551 308.142L256.763 310.154L253.313 311.827C250.794 312.83 248.804 313.722 246.154 314.276C245.094 314.497 243.503 314.83 242.443 315.051C241.383 315.273 239.793 315.605 238.733 315.827L231.311 317.378C228.661 317.932 226.01 318.486 223.491 319.489L216.331 321.938C213.681 322.491 211.161 323.494 209.041 323.938C207.981 324.159 206.39 324.491 205.199 324.264C204.139 324.486 202.948 324.258 201.626 323.582L201.757 324.031C202.156 323.471 202.556 322.911 203.616 322.69C204.146 322.579 205.075 321.908 205.605 321.798C207.065 321.016 208.655 320.684 210.245 320.352C211.836 320.019 213.426 319.687 215.016 319.355C216.076 319.133 216.607 319.022 217.798 319.25C218.858 319.028 219.519 319.366 220.579 319.145C219.519 319.366 218.858 319.028 217.798 319.25C216.737 319.471 216.076 319.133 215.016 319.355C213.426 319.687 211.705 319.57 210.115 319.903C208.524 320.235 206.934 320.567 205.344 320.9C204.284 321.121 203.884 321.681 202.824 321.903C201.764 322.124 201.365 322.684 200.435 323.355L200.036 323.914L200.697 324.252C201.888 324.48 203.21 325.156 204.8 324.824C205.991 325.051 207.581 324.719 208.641 324.497C211.292 323.943 213.942 323.389 216.593 322.835L223.883 320.836C226.403 319.833 228.523 319.389 231.304 319.285L238.726 317.734C239.786 317.512 241.376 317.18 242.436 316.958C243.497 316.736 245.087 316.404 246.147 316.183C248.797 315.629 251.317 314.626 253.837 313.623L257.286 311.949L260.604 309.827L262.463 308.486L260.211 308.48C257.96 308.474 256.239 308.358 254.119 308.801C251.999 309.244 250.408 309.576 248.288 310.02L243.118 311.576C240.997 312.019 239.407 312.352 237.287 312.795L226.024 314.673C222.314 315.448 218.603 316.224 214.892 316.999C211.182 317.775 207.471 318.55 203.891 319.774C200.311 320.999 196.601 321.774 193.021 322.999C189.441 324.223 185.861 325.448 182.282 326.672L171.673 330.795L170.613 331.016L171.404 331.803C173.518 333.267 176.43 333.611 178.681 333.617C181.462 333.512 183.714 333.517 186.364 332.963C191.266 332.415 196.036 331.418 200.676 329.972L207.967 327.972C210.617 327.418 212.738 326.975 215.257 325.972C219.897 324.526 224.537 323.08 229.308 322.083L243.49 318.643L257.802 315.652C260.452 315.098 262.573 314.655 265.223 314.101C267.874 313.547 269.863 312.655 272.383 311.652L275.832 309.979C276.761 309.308 277.691 308.638 278.62 307.967C280.747 305.617 282.606 304.276 284.596 303.384Z" fill="url(#paint41_linear)" fill-opacity="0.2"/>
<path d="M187.803 337.902C183.824 339.686 180.375 341.36 176.265 342.695C172.155 344.03 167.914 344.917 164.204 345.692C159.963 346.578 155.722 347.465 151.881 347.791C147.64 348.678 143.269 349.115 139.427 349.441C135.056 349.879 130.815 350.765 126.973 351.092C122.602 351.529 118.492 352.864 114.651 353.191C112.53 353.634 110.41 354.077 108.159 354.071C106.038 354.514 103.787 354.509 101.667 354.952C97.2954 355.389 93.3231 355.267 88.8208 355.255C84.8486 355.133 80.2155 354.672 76.7802 352.532C76.1193 352.194 75.3276 351.407 75.066 350.509L74.9352 350.06C74.9352 350.06 74.9351 350.06 75.3344 349.5C75.3344 349.5 75.7337 348.94 76.2638 348.83C77.5924 347.599 79.582 346.707 81.7024 346.264C89.2613 343.255 97.6119 341.034 106.093 339.261C114.575 337.489 122.657 336.276 131.4 335.401C135.771 334.964 139.613 334.637 144.115 334.649C146.366 334.655 148.087 334.771 150.469 335.226C152.19 335.343 154.572 335.798 156.025 336.923L155.763 336.025L154.435 337.255L153.106 338.486C152.177 339.156 150.717 339.937 149.788 340.608C147.268 341.611 144.749 342.614 141.568 343.278C135.868 344.946 130.436 345.605 124.605 346.824C118.774 348.042 113.074 349.71 107.773 350.818C105.123 351.372 101.942 352.036 99.161 352.141C97.5707 352.474 96.3797 352.246 94.6587 352.13C93.4677 351.902 91.7466 351.786 90.9549 350.999L90.6864 352.007C93.0752 350.555 95.9942 348.993 99.0439 347.879C102.094 346.765 105.143 345.652 108.324 344.987C111.504 344.322 114.685 343.658 117.996 343.442C119.587 343.109 121.308 343.226 123.029 343.343C123.559 343.232 124.75 343.459 125.411 343.797C126.072 344.136 127.132 343.914 127.793 344.252L127.531 343.354C126.732 344.474 125.273 345.255 123.283 346.147C121.824 346.928 119.704 347.372 118.113 347.704C114.403 348.48 111.091 348.695 107.119 348.573L107.25 349.022L109.37 348.579L111.491 348.136C112.551 347.914 114.272 348.031 115.463 348.258C114.272 348.031 112.551 347.914 111.491 348.136L109.24 348.13L107.119 348.573L105.529 348.905L106.72 349.133C110.692 349.255 114.003 349.039 117.845 348.713C119.435 348.38 121.555 347.937 123.146 347.605C124.605 346.824 126.595 345.932 127.923 344.701L128.323 344.141L127.662 343.803C127.001 343.465 125.81 343.238 125.28 343.348C124.619 343.01 123.559 343.232 122.898 342.894C121.177 342.777 119.456 342.66 117.865 342.993C114.554 343.209 111.374 343.873 108.193 344.538C105.013 345.203 101.963 346.316 98.9131 347.43C95.8634 348.544 92.9444 350.106 90.0255 351.669L89.0962 352.34L89.7571 352.678C91.2097 353.803 92.9307 353.92 94.1217 354.147C95.8428 354.264 97.0338 354.491 98.624 354.159C101.405 354.054 104.586 353.389 107.236 352.835C113.067 351.616 118.767 349.949 124.068 348.841C129.899 347.622 135.73 346.404 141.561 345.185C144.212 344.631 147.261 343.517 149.65 342.066C151.11 341.284 152.039 340.614 153.498 339.832C153.898 339.273 154.428 339.162 155.357 338.491C155.757 337.932 156.156 337.372 156.555 336.812L156.954 336.252L156.293 335.914C154.18 334.451 151.798 333.996 150.077 333.879C147.695 333.425 145.444 333.419 143.723 333.302C139.22 333.291 134.849 333.728 131.007 334.054C122.264 334.929 114.313 336.591 105.832 338.363C97.3503 340.136 89.5298 342.247 81.4408 345.366C79.4512 346.258 77.4617 347.151 76.133 348.381C75.7337 348.941 75.2036 349.051 74.8043 349.611C74.9352 350.06 74.4051 350.171 74.5359 350.62C74.6667 351.069 74.6667 351.069 74.7975 351.518C75.0591 352.415 75.8508 353.203 77.1726 353.879C81.1379 355.908 85.7711 356.369 89.7433 356.491C94.2456 356.503 98.2179 356.625 102.589 356.188C104.841 356.194 106.961 355.75 109.081 355.307C111.202 354.864 113.322 354.421 115.442 353.978C119.683 353.092 123.924 352.205 127.765 351.879C132.006 350.992 136.377 350.555 140.088 349.78C144.329 348.893 148.7 348.456 152.411 347.68C156.652 346.794 161.023 346.357 165.264 345.471C169.504 344.584 173.745 343.698 177.194 342.024C180.375 341.36 183.824 339.686 187.803 337.902Z" fill="url(#paint42_linear)" fill-opacity="0.2"/>
<path d="M73.0495 359.027C67.8794 360.584 62.4545 359.337 56.6304 358.649L48.5552 357.955C45.6431 357.611 43.2611 357.156 40.6107 357.71C35.0482 357.92 29.3549 357.681 23.9232 358.34C18.4915 358.999 13.0598 359.658 7.75887 360.765C5.10842 361.319 2.58879 362.322 0.0691563 363.325C-0.860215 363.996 -2.31971 364.777 -3.11827 365.897C-3.51755 366.456 -3.91679 367.016 -4.31607 367.576C-4.71536 368.136 -4.45374 369.033 -4.32294 369.482C-3.93052 370.829 -2.47795 371.955 -0.756872 372.071C0.564919 372.747 2.286 372.864 3.34618 372.643C6.25824 372.987 9.03949 372.882 11.8207 372.777C17.3832 372.567 22.6841 371.459 28.1158 370.8C30.7663 370.246 33.4167 369.692 36.0672 369.138C38.7176 368.584 41.3681 368.03 43.7569 366.578L44.8171 366.357L44.0254 365.57C42.972 363.885 41.1202 363.319 39.2683 362.754C37.4164 362.188 35.6954 362.071 33.9743 361.955C30.5321 361.722 27.09 361.488 23.2486 361.815C19.9372 362.031 16.2266 362.806 13.046 363.471C11.4558 363.803 9.46619 364.695 8.00673 365.477C7.07735 366.147 6.67813 366.707 6.27885 367.267C5.87957 367.826 5.61106 368.835 5.87267 369.733L6.00349 370.182L6.53357 370.071L11.566 369.972L16.4676 369.424L21.2384 368.427L25.8784 366.981L27.4687 366.648L26.2777 366.421C25.6168 366.083 25.0867 366.194 24.4258 365.856C23.8957 365.966 23.2348 365.628 22.1746 365.85C21.1144 366.071 19.5242 366.404 18.464 366.625C18.464 366.625 18.464 366.625 18.5948 367.074L19.1249 366.963L19.655 366.853L18.9941 366.514C20.0543 366.293 21.6446 365.961 22.8356 366.188C23.3656 366.077 24.0265 366.415 24.5566 366.305C25.2175 366.643 25.7476 366.532 26.4085 366.87L26.2777 366.421L22.0369 367.307L17.7963 368.194L13.4247 368.631L8.92239 368.619L9.58333 368.958C9.19091 367.611 9.98946 366.491 11.4489 365.71C12.9084 364.929 14.3678 364.147 15.9581 363.815C19.1386 363.15 22.3192 362.485 25.6305 362.27C28.9418 362.054 32.384 362.287 35.8262 362.52C37.5472 362.637 39.2683 362.753 40.5901 363.43C41.9119 364.106 43.7637 364.672 44.0254 365.57L44.2939 364.561C42.3043 365.453 39.1237 366.118 36.6041 367.121C33.9537 367.675 31.3032 368.229 28.6528 368.782C23.3519 369.89 17.9202 370.549 12.4885 371.208C9.70724 371.313 6.92596 371.418 4.14471 371.523C2.95373 371.296 1.23269 371.179 0.0417023 370.952C-1.14928 370.724 -2.47108 370.048 -2.73269 369.15C-3.25592 367.354 -0.997877 365.453 0.860866 364.112C3.2497 362.661 5.90014 362.107 8.55058 361.553C13.7207 359.996 19.1524 359.337 24.7149 359.127C30.1466 358.468 35.8399 358.707 41.4024 358.497C44.1836 358.392 47.0957 358.736 49.3469 358.742L57.4222 359.436C60.3342 359.78 62.7161 360.234 65.6282 360.578C67.6177 359.686 70.5298 360.03 73.0495 359.027Z" fill="url(#paint43_linear)" fill-opacity="0.2"/>
<path d="M9.28591 340.918C7.16556 341.361 5.57529 341.694 3.32413 341.688C1.60306 341.571 -0.648128 341.565 -2.3692 341.449C-6.34143 341.326 -9.91436 340.644 -13.8866 340.522C-17.9896 339.95 -21.4318 339.717 -25.404 339.595C-29.3762 339.472 -33.4793 338.901 -37.1899 339.677C-39.3103 340.12 -41.2998 341.012 -42.6285 342.242C-43.427 343.362 -45.6851 345.262 -43.9709 347.286C-42.3875 348.86 -40.5355 349.425 -38.1536 349.88C-36.3017 350.446 -34.0505 350.451 -32.3295 350.568C-28.3572 350.69 -24.3851 350.813 -20.5436 350.486C-18.2925 350.492 -16.7022 350.16 -14.451 350.166C-12.3306 349.723 -10.6096 349.839 -8.48921 349.396L-7.42901 349.174L-7.55982 348.725C-7.69063 348.276 -7.95224 347.379 -8.08304 346.93C-8.21385 346.481 -8.87479 346.142 -9.53569 345.804C-10.1966 345.466 -10.8574 345.128 -10.9882 344.679C-11.6491 344.341 -12.1793 344.452 -12.8402 344.113C-15.2221 343.659 -17.6041 343.204 -19.8553 343.198C-22.1064 343.192 -24.3576 343.187 -26.6087 343.181C-28.8599 343.175 -30.9803 343.618 -33.6307 344.172L-34.6909 344.393L-34.0299 344.732C-33.8991 345.181 -33.2383 345.519 -33.2383 345.519C-32.5774 345.857 -32.5773 345.857 -31.9164 346.195C-31.2555 346.533 -30.1954 346.312 -29.5345 346.65C-27.8134 346.767 -26.2232 346.434 -24.633 346.102C-26.2232 346.434 -27.9442 346.318 -29.6653 346.201C-30.3262 345.863 -31.3864 346.084 -32.0473 345.746C-32.5773 345.857 -32.7082 345.408 -33.2383 345.519C-33.3691 345.07 -33.8991 345.181 -34.0299 344.732L-34.4292 345.291C-32.3089 344.848 -30.0578 344.854 -27.9374 344.411C-25.6863 344.417 -23.435 344.423 -21.1839 344.428C-18.9327 344.434 -16.5508 344.889 -14.6989 345.455C-14.038 345.793 -13.5079 345.682 -13.3771 346.131C-12.7162 346.469 -12.7162 346.469 -12.0553 346.807C-11.3944 347.145 -11.3944 347.145 -11.2636 347.594C-11.1328 348.043 -11.1328 348.043 -11.002 348.492L-10.2034 347.373C-11.7937 347.705 -13.914 348.148 -15.6351 348.032C-17.2254 348.364 -19.4766 348.358 -21.0668 348.691C-24.9083 349.017 -28.7496 349.344 -32.7219 349.221C-34.443 349.105 -36.6941 349.099 -38.546 348.533C-40.2671 348.417 -42.1189 347.851 -43.0414 346.615C-43.7023 346.277 -43.4339 345.268 -43.0346 344.708C-42.6353 344.149 -42.236 343.589 -41.3066 342.918C-39.978 341.688 -38.5186 340.907 -36.9283 340.575C-33.2177 339.799 -29.2454 339.921 -25.6725 340.604C-21.7002 340.726 -17.728 340.848 -14.1551 341.53C-10.1829 341.653 -6.60989 342.335 -2.63765 342.457C-0.91658 342.574 1.33456 342.58 3.05564 342.696C5.57527 341.694 7.69564 341.251 9.28591 340.918Z" fill="url(#paint44_linear)" fill-opacity="0.2"/>
<path d="M48.4983 336.533C50.2262 334.743 52.3535 332.393 54.7423 330.941C56.2017 330.16 57.0003 329.041 58.4598 328.259C59.9192 327.478 60.8486 326.807 62.308 326.026C63.7675 325.245 64.8277 325.023 66.2871 324.242C67.7466 323.461 68.8068 323.239 70.3971 322.907C71.9873 322.574 73.5776 322.242 74.6378 322.02C76.228 321.688 77.9491 321.805 79.0093 321.583C80.5995 321.251 81.7905 321.478 83.5116 321.595C85.2327 321.711 86.4237 321.939 87.6146 322.166C88.9364 322.843 88.5372 323.402 87.6078 324.073C86.6784 324.743 85.0881 325.076 84.1588 325.746C81.6391 326.749 78.4586 327.414 75.1472 327.629C73.557 327.962 71.9668 328.294 70.7758 328.067C69.1855 328.399 67.4644 328.283 66.8035 327.944L67.0651 328.842L69.4539 327.39L72.5036 326.277L78.7339 324.498L78.6032 324.05L76.7444 325.391L79.264 324.388L80.7235 323.606L79.1332 323.939C77.0129 324.382 74.7617 324.376 72.6414 324.819L69.4608 325.484L66.5419 327.046L65.0824 327.828L66.4042 328.504C68.2561 329.07 69.8464 328.737 71.5674 328.854C73.1577 328.522 74.8788 328.638 76.4691 328.306C79.6496 327.641 82.3 327.087 85.4806 326.422C87.0708 326.09 88.5303 325.309 89.859 324.079C90.2582 323.519 90.7883 323.408 90.6575 322.959C90.6575 322.959 90.5267 322.51 90.6575 322.959L90.5267 322.51C90.2651 321.612 89.4734 320.825 88.8125 320.487C86.9606 319.921 85.7696 319.694 84.0485 319.577C82.3275 319.461 80.7372 319.793 79.5462 319.566C77.956 319.898 76.2349 319.782 74.6446 320.114C73.0544 320.446 71.4641 320.779 69.8738 321.111C68.2836 321.443 66.6933 321.776 65.7639 322.446C64.1736 322.778 62.7142 323.56 61.7848 324.23C60.3254 325.012 59.396 325.682 57.9365 326.463C56.477 327.245 55.6785 328.364 54.2191 329.146C52.3535 332.393 50.0954 334.294 48.4983 336.533Z" fill="url(#paint45_linear)" fill-opacity="0.2"/>
<path d="M124.846 316.767C127.496 316.213 130.016 315.21 132.666 314.656C134.257 314.323 135.317 314.102 136.377 313.88C136.907 313.769 137.437 313.659 138.628 313.886C139.158 313.775 139.688 313.664 140.879 313.892C142.07 314.119 143.791 314.236 144.982 314.463C146.173 314.691 147.495 315.367 148.686 315.594C149.877 315.822 151.199 316.498 152.92 316.615C154.111 316.842 155.832 316.959 157.422 316.626L157.03 315.279L144.046 317.04C139.544 317.029 135.172 317.466 131.331 317.793L131.723 319.14C133.843 318.696 135.303 317.915 137.423 317.472C139.544 317.029 141.134 316.696 143.385 316.702C141.533 316.137 139.413 316.58 137.292 317.023L131.461 318.242L131.854 319.589C136.356 319.6 140.728 319.163 145.23 319.175L158.083 316.965L157.691 315.618C156.63 315.839 154.909 315.723 153.718 315.495C152.527 315.268 151.336 315.04 150.015 314.364C148.824 314.137 147.502 313.46 145.781 313.344C144.59 313.116 142.869 313 141.678 312.772C141.148 312.883 139.957 312.656 139.427 312.767C138.897 312.877 137.836 313.099 137.306 313.21C135.716 313.542 134.656 313.764 133.066 314.096C130.016 315.21 127.496 316.213 124.846 316.767Z" fill="url(#paint46_linear)" fill-opacity="0.2"/>
<path d="M197.873 299.122C197.481 297.776 198.41 297.105 199.34 296.435C200.269 295.764 201.859 295.432 203.05 295.659C205.831 295.554 208.613 295.449 210.995 295.904C213.907 296.248 216.289 296.703 219.201 297.047C220.392 297.274 221.583 297.501 222.905 298.178C224.095 298.405 225.417 299.081 226.608 299.309L226.477 298.86C225.28 300.539 223.29 301.431 221.431 302.772C219.442 303.664 217.452 304.556 215.463 305.448C211.353 306.784 206.713 308.23 202.08 307.769C200.889 307.542 199.828 307.763 199.037 306.976C198.376 306.638 197.584 305.851 196.923 305.513L196.662 304.615L196.531 304.166L196.4 303.717C196.4 303.717 196.269 303.268 196.799 303.157C197.199 302.597 198.128 301.927 199.188 301.705C201.178 300.813 203.429 300.819 206.079 300.265C208.33 300.271 210.981 299.717 212.833 300.283L212.702 299.834C212.434 300.842 211.504 301.513 210.444 301.734C209.515 302.405 208.454 302.626 207.394 302.848C208.454 302.626 209.645 302.854 211.105 302.072C211.635 301.962 212.034 301.402 212.564 301.291C212.964 300.731 213.494 300.621 213.893 300.061L214.292 299.501L213.762 299.612C211.38 299.157 209.129 299.151 206.348 299.256C204.097 299.251 201.446 299.805 199.326 300.248C198.266 300.469 196.806 301.25 196.008 302.37C195.608 302.93 195.209 303.49 195.471 304.387C195.601 304.836 195.732 305.285 195.732 305.285L195.994 306.183C196.916 307.419 197.708 308.206 198.899 308.434C200.09 308.661 201.281 308.889 202.472 309.116C203.663 309.343 204.723 309.122 206.313 308.789C207.374 308.568 208.434 308.346 210.024 308.014C212.144 307.571 214.664 306.568 216.784 306.125C218.774 305.233 221.294 304.23 223.283 303.338C225.142 301.997 227.131 301.105 228.729 298.866L229.128 298.306L228.467 297.968C227.145 297.291 225.954 297.064 224.632 296.388C223.441 296.16 222.25 295.933 220.399 295.367C217.487 295.023 215.105 294.569 212.192 294.225C209.28 293.881 206.499 293.986 203.849 294.539C202.258 294.872 201.198 295.093 199.739 295.875C199.209 295.986 198.809 296.545 198.41 297.105C197.612 298.224 197.212 298.784 197.873 299.122Z" fill="url(#paint47_linear)" fill-opacity="0.2"/>
<path d="M267.454 283.152C267.592 281.694 268.521 281.024 269.32 279.904C270.249 279.234 271.708 278.453 273.168 277.671C275.557 276.219 278.606 275.106 281.126 274.103C284.176 272.989 286.826 272.435 290.007 271.771C291.597 271.438 293.187 271.106 294.378 271.333C294.908 271.222 296.099 271.45 296.23 271.899C296.891 272.237 297.552 272.575 297.683 273.024C298.474 273.811 297.676 274.931 296.747 275.601C295.817 276.272 294.358 277.053 292.898 277.834C290.379 278.837 287.329 279.951 284.809 280.954C281.76 282.068 279.109 282.621 275.928 283.286C272.748 283.951 270.228 284.954 266.917 285.169L268.37 286.295C268.638 285.286 269.967 284.056 271.426 283.275C272.886 282.493 274.345 281.712 275.935 281.379C277.526 281.047 278.985 280.266 281.105 279.823C282.696 279.49 284.816 279.047 286.668 279.613L286.537 279.164L285.869 280.732L286.537 279.164C284.685 278.598 283.095 278.931 280.844 278.925C279.254 279.257 277.133 279.7 275.543 280.033C273.953 280.365 271.963 281.257 270.504 282.038C269.574 282.709 269.044 282.82 268.115 283.49C267.585 283.601 267.186 284.161 267.316 284.61C266.917 285.17 267.048 285.618 266.518 285.729L265.719 286.849L267.309 286.516C268.9 286.184 270.49 285.852 272.08 285.519C273.671 285.187 275.261 284.855 276.321 284.633C279.501 283.968 282.021 282.965 285.071 281.852C288.121 280.738 290.64 279.735 293.69 278.622C295.149 277.84 296.609 277.059 297.538 276.388C297.937 275.829 298.867 275.158 299.266 274.598C299.665 274.039 299.273 272.692 299.142 272.243C298.351 271.456 297.69 271.117 297.029 270.779C296.368 270.441 295.308 270.663 294.647 270.324C292.926 270.208 291.335 270.54 289.745 270.873C286.565 271.537 284.045 272.54 280.995 273.654C277.946 274.768 275.426 275.77 273.168 277.671C271.708 278.453 270.779 279.123 269.45 280.353C268.39 280.575 267.592 281.694 267.454 283.152Z" fill="url(#paint48_linear)" fill-opacity="0.2"/>
<path d="M217.28 352.222L196.345 355.645C189.323 356.636 182.17 357.178 175.149 358.17L133.024 362.211C129.712 362.426 125.871 362.753 122.16 363.528C120.57 363.861 118.45 364.304 116.99 365.085C115.93 365.307 115.531 365.867 114.601 366.537C114.202 367.097 113.273 367.767 113.004 368.776C113.135 369.225 112.736 369.785 113.527 370.572C114.188 370.91 114.319 371.359 114.849 371.248C116.04 371.476 116.701 371.814 117.761 371.592C119.482 371.709 121.203 371.825 123.324 371.382C126.635 371.166 130.476 370.84 133.657 370.175C140.679 369.184 147.57 367.744 154.461 366.303L175.266 362.432L174.742 360.636L163.879 361.954C160.038 362.28 156.196 362.607 152.885 362.823C149.043 363.149 145.732 363.365 141.891 363.691C140.169 363.575 138.049 364.018 136.459 364.35C134.869 364.683 132.748 365.126 131.55 366.805L131.151 367.365L131.681 367.254L138.834 366.712L131.55 366.805L131.681 367.254C132.48 366.135 134.6 365.691 136.19 365.359C137.781 365.027 140.032 365.033 141.753 365.149C145.725 365.272 149.036 365.056 152.878 364.729C156.719 364.403 160.161 364.636 163.872 363.86L174.866 362.991L174.343 361.196L153.539 365.067C146.648 366.508 139.756 367.948 132.734 368.939C129.554 369.604 125.713 369.93 122.401 370.146C120.68 370.029 119.09 370.362 117.369 370.245C115.648 370.129 113.796 369.563 114.195 369.003C115.131 366.426 118.842 365.651 122.022 364.986C125.203 364.321 129.044 363.995 132.225 363.33L174.219 358.84C181.241 357.849 188.394 357.306 195.416 356.315L217.28 352.222Z" fill="url(#paint49_linear)" fill-opacity="0.2"/>
<path d="M131.916 375.778C129.259 378.239 125.018 379.125 121.308 379.901C117.597 380.676 113.226 381.114 109.515 381.889L97.5914 383.428C93.75 383.755 89.5093 384.641 85.6678 384.968C77.4549 385.732 69.7721 386.385 61.9584 386.589C57.9862 386.466 54.0139 386.344 50.3102 385.213C49.6493 384.875 48.4583 384.647 47.6666 383.86C47.0057 383.522 46.7441 382.624 46.6133 382.175C47.4118 381.056 49.4014 380.164 50.9917 379.831C52.9812 378.939 54.5715 378.607 56.6918 378.164C58.8122 377.72 60.4025 377.388 62.5228 376.945C64.6432 376.502 66.3643 376.618 68.4846 376.175C70.7358 376.181 72.326 375.849 74.5772 375.855C78.5494 375.977 82.9209 375.54 86.7623 375.213C90.6037 374.886 94.9753 374.449 98.4175 374.682C99.4776 374.461 100.139 374.799 101.329 375.026C101.99 375.365 103.181 375.592 103.842 375.93C104.503 376.268 104.503 376.268 104.503 376.268C104.104 376.828 103.044 377.05 102.514 377.16C98.9338 378.385 95.0923 378.711 90.8516 379.598C87.0102 379.924 82.7695 380.811 78.7973 380.688C74.9559 381.015 70.9836 380.892 67.2799 379.761L67.0114 380.77C70.0611 379.656 73.2417 378.991 76.9523 378.216C78.0125 377.994 78.5426 377.884 79.6027 377.662C80.6629 377.44 81.193 377.33 82.384 377.557C83.4442 377.335 84.105 377.674 84.6351 377.563C85.1652 377.452 85.296 377.901 85.8261 377.79L87.0171 378.018L86.8863 377.569L84.3666 378.572L81.7162 379.125L84.3666 378.572L87.0171 378.018L87.5472 377.907L86.8863 377.569L85.6953 377.341C85.1652 377.452 85.0344 377.003 84.5043 377.114C83.8434 376.776 82.7833 376.997 82.1224 376.659C81.0622 376.881 80.4013 376.542 79.3411 376.764C78.2809 376.986 77.7508 377.096 76.6907 377.318C73.5101 377.983 69.7995 378.758 66.7498 379.872L65.1595 380.204L67.0114 380.77C70.7152 381.901 75.3483 382.362 79.1897 382.035C83.1619 382.157 87.5335 381.72 91.2441 380.945C95.0855 380.618 99.3262 379.732 103.037 378.956C104.097 378.735 105.157 378.513 105.956 377.394C106.355 376.834 106.355 376.834 106.224 376.385C106.093 375.936 105.963 375.487 105.963 375.487C105.302 375.149 105.171 374.7 104.51 374.362C102.658 373.796 100.675 372.782 98.4243 372.776C94.3212 372.204 90.0805 373.091 86.2391 373.417C82.3977 373.744 78.5563 374.07 74.1848 374.508C71.9336 374.502 70.3433 374.834 68.0922 374.828C65.841 374.823 64.2508 375.155 62.1304 375.598C60.01 376.041 58.4197 376.374 56.2994 376.817C54.179 377.26 52.5888 377.592 50.5992 378.484C48.6097 379.376 46.4893 379.82 45.2915 381.499C44.4929 382.618 45.9455 383.744 46.7372 384.531C47.5289 385.318 48.7199 385.545 49.3808 385.883C53.2154 387.464 57.7177 387.475 61.5591 387.149C69.3728 386.945 77.5857 386.181 85.7987 385.417C89.6401 385.09 93.8808 384.204 97.7222 383.877L109.515 381.889C113.356 381.562 117.597 380.676 121.308 379.901C125.018 379.125 129.259 378.239 131.916 375.778Z" fill="url(#paint50_linear)" fill-opacity="0.2"/>
<path d="M202.06 350.163C206.431 349.726 211.333 349.178 215.705 348.741C220.076 348.303 224.978 347.755 229.349 347.318C233.721 346.881 238.492 345.884 242.601 344.548C244.722 344.105 247.241 343.102 249.231 342.21C250.16 341.54 251.09 340.869 252.019 340.199C252.949 339.528 253.086 338.07 252.694 336.724L252.432 335.826L251.372 336.047C247 336.484 242.76 337.371 238.65 338.706C236.529 339.149 234.54 340.041 232.55 340.933C231.49 341.155 230.561 341.826 229.631 342.496C228.702 343.167 227.773 343.837 227.504 344.846L227.236 345.854L228.427 346.082C229.618 346.309 230.809 346.537 232.399 346.204C233.459 345.983 234.65 346.21 236.24 345.878C238.361 345.435 241.011 344.881 242.87 343.54L244.859 342.647L242.739 343.091L240.619 343.534L239.559 343.755L239.028 343.866L238.498 343.977C238.629 344.426 238.498 343.977 238.498 343.977L239.028 343.866L239.559 343.755L240.619 343.534L242.739 343.091L242.608 342.642C240.619 343.534 238.498 343.977 235.848 344.531C234.788 344.752 233.597 344.525 232.537 344.747C231.346 344.519 230.285 344.741 229.094 344.513L229.886 345.3C230.285 344.741 230.685 344.181 231.614 343.511C232.543 342.84 233.074 342.729 234.134 342.508C236.123 341.616 238.244 341.172 239.834 340.84C243.944 339.505 248.185 338.618 252.026 338.292L250.704 337.616C251.097 338.963 249.899 340.642 247.909 341.534C245.92 342.426 243.93 343.318 241.81 343.761C237.7 345.096 232.929 346.093 228.558 346.531C224.317 347.417 219.415 347.965 215.044 348.402C210.672 348.84 206.301 349.277 202.06 350.163Z" fill="url(#paint51_linear)" fill-opacity="0.2"/>
<defs>
<linearGradient id="paint0_linear" x1="301.985" y1="254.978" x2="302.748" y2="258.629" gradientUnits="userSpaceOnUse">
<stop stop-color="#F96F14" stop-opacity="0.58"/>
<stop offset="1" stop-color="#F96F14" stop-opacity="0.14"/>
</linearGradient>
<linearGradient id="paint1_linear" x1="44.9595" y1="39.3065" x2="117.884" y2="388.237" gradientUnits="userSpaceOnUse">
<stop stop-color="#F96F14" stop-opacity="0.58"/>
<stop offset="1" stop-color="#F96F14" stop-opacity="0.14"/>
</linearGradient>
<linearGradient id="paint2_linear" x1="235.079" y1="281.341" x2="238.704" y2="298.686" gradientUnits="userSpaceOnUse">
<stop stop-color="#F96F14" stop-opacity="0.58"/>
<stop offset="1" stop-color="#F96F14" stop-opacity="0.14"/>
</linearGradient>
<linearGradient id="paint3_linear" x1="167.43" y1="295.483" x2="171.722" y2="316.019" gradientUnits="userSpaceOnUse">
<stop stop-color="#F96F14" stop-opacity="0.58"/>
<stop offset="1" stop-color="#F96F14" stop-opacity="0.14"/>
</linearGradient>
<linearGradient id="paint4_linear" x1="98.0403" y1="309.985" x2="101.76" y2="327.783" gradientUnits="userSpaceOnUse">
<stop stop-color="#F96F14" stop-opacity="0.58"/>
<stop offset="1" stop-color="#F96F14" stop-opacity="0.14"/>
</linearGradient>
<linearGradient id="paint5_linear" x1="18.5285" y1="325.174" x2="22.5344" y2="344.341" gradientUnits="userSpaceOnUse">
<stop stop-color="#F96F14" stop-opacity="0.58"/>
<stop offset="1" stop-color="#F96F14" stop-opacity="0.14"/>
</linearGradient>
<linearGradient id="paint6_linear" x1="122.286" y1="108.208" x2="155.668" y2="267.935" gradientUnits="userSpaceOnUse">
<stop stop-color="#F96F14" stop-opacity="0.58"/>
<stop offset="1" stop-color="#F96F14" stop-opacity="0.14"/>
</linearGradient>
<linearGradient id="paint7_linear" x1="115.1" y1="118.283" x2="140.279" y2="238.763" gradientUnits="userSpaceOnUse">
<stop stop-color="#F96F14" stop-opacity="0.58"/>
<stop offset="1" stop-color="#F96F14" stop-opacity="0.14"/>
</linearGradient>
<linearGradient id="paint8_linear" x1="138.218" y1="170.607" x2="149.949" y2="226.739" gradientUnits="userSpaceOnUse">
<stop stop-color="#F96F14" stop-opacity="0.58"/>
<stop offset="1" stop-color="#F96F14" stop-opacity="0.14"/>
</linearGradient>
<linearGradient id="paint9_linear" x1="161.661" y1="196.667" x2="166.716" y2="220.854" gradientUnits="userSpaceOnUse">
<stop stop-color="#F96F14" stop-opacity="0.58"/>
<stop offset="1" stop-color="#F96F14" stop-opacity="0.14"/>
</linearGradient>
<linearGradient id="paint10_linear" x1="139.343" y1="188.947" x2="147.927" y2="230.019" gradientUnits="userSpaceOnUse">
<stop stop-color="#F96F14" stop-opacity="0.58"/>
<stop offset="1" stop-color="#F96F14" stop-opacity="0.14"/>
</linearGradient>
<linearGradient id="paint11_linear" x1="142.585" y1="166.836" x2="147.163" y2="188.741" gradientUnits="userSpaceOnUse">
<stop stop-color="#F96F14" stop-opacity="0.58"/>
<stop offset="1" stop-color="#F96F14" stop-opacity="0.14"/>
</linearGradient>
<linearGradient id="paint12_linear" x1="131.008" y1="149.727" x2="133.774" y2="162.962" gradientUnits="userSpaceOnUse">
<stop stop-color="#F96F14" stop-opacity="0.58"/>
<stop offset="1" stop-color="#F96F14" stop-opacity="0.14"/>
</linearGradient>
<linearGradient id="paint13_linear" x1="34.3358" y1="150.88" x2="37.2224" y2="164.692" gradientUnits="userSpaceOnUse">
<stop stop-color="#F96F14" stop-opacity="0.58"/>
<stop offset="1" stop-color="#F96F14" stop-opacity="0.14"/>
</linearGradient>
<linearGradient id="paint14_linear" x1="36.5564" y1="159.466" x2="38.5966" y2="169.228" gradientUnits="userSpaceOnUse">
<stop stop-color="#F96F14" stop-opacity="0.58"/>
<stop offset="1" stop-color="#F96F14" stop-opacity="0.14"/>
</linearGradient>
<linearGradient id="paint15_linear" x1="41.0207" y1="169.964" x2="41.9744" y2="174.528" gradientUnits="userSpaceOnUse">
<stop stop-color="#F96F14" stop-opacity="0.58"/>
<stop offset="1" stop-color="#F96F14" stop-opacity="0.14"/>
</linearGradient>
<linearGradient id="paint16_linear" x1="42.3185" y1="177.313" x2="43.0116" y2="180.629" gradientUnits="userSpaceOnUse">
<stop stop-color="#F96F14" stop-opacity="0.58"/>
<stop offset="1" stop-color="#F96F14" stop-opacity="0.14"/>
</linearGradient>
<linearGradient id="paint17_linear" x1="43.8785" y1="185.56" x2="44.2602" y2="187.386" gradientUnits="userSpaceOnUse">
<stop stop-color="#F96F14" stop-opacity="0.58"/>
<stop offset="1" stop-color="#F96F14" stop-opacity="0.14"/>
</linearGradient>
<linearGradient id="paint18_linear" x1="42.6556" y1="193.913" x2="43.4186" y2="197.564" gradientUnits="userSpaceOnUse">
<stop stop-color="#F96F14" stop-opacity="0.58"/>
<stop offset="1" stop-color="#F96F14" stop-opacity="0.14"/>
</linearGradient>
<linearGradient id="paint19_linear" x1="40.9072" y1="201.423" x2="41.2887" y2="203.249" gradientUnits="userSpaceOnUse">
<stop stop-color="#F96F14" stop-opacity="0.58"/>
<stop offset="1" stop-color="#F96F14" stop-opacity="0.14"/>
</linearGradient>
<linearGradient id="paint20_linear" x1="42.8693" y1="208.157" x2="43.3459" y2="210.438" gradientUnits="userSpaceOnUse">
<stop stop-color="#F96F14" stop-opacity="0.58"/>
<stop offset="1" stop-color="#F96F14" stop-opacity="0.14"/>
</linearGradient>
<linearGradient id="paint21_linear" x1="41.7847" y1="215.052" x2="42.2617" y2="217.335" gradientUnits="userSpaceOnUse">
<stop stop-color="#F96F14" stop-opacity="0.58"/>
<stop offset="1" stop-color="#F96F14" stop-opacity="0.14"/>
</linearGradient>
<linearGradient id="paint22_linear" x1="42.9426" y1="224.812" x2="43.2288" y2="226.182" gradientUnits="userSpaceOnUse">
<stop stop-color="#F96F14" stop-opacity="0.58"/>
<stop offset="1" stop-color="#F96F14" stop-opacity="0.14"/>
</linearGradient>
<linearGradient id="paint23_linear" x1="9.76144" y1="61.7094" x2="16.2473" y2="92.7425" gradientUnits="userSpaceOnUse">
<stop stop-color="#F96F14" stop-opacity="0.58"/>
<stop offset="1" stop-color="#F96F14" stop-opacity="0.14"/>
</linearGradient>
<linearGradient id="paint24_linear" x1="14.7724" y1="67.3302" x2="16.7754" y2="76.9138" gradientUnits="userSpaceOnUse">
<stop stop-color="#F96F14" stop-opacity="0.58"/>
<stop offset="1" stop-color="#F96F14" stop-opacity="0.14"/>
</linearGradient>
<linearGradient id="paint25_linear" x1="8.57787" y1="59.5758" x2="11.4391" y2="73.2664" gradientUnits="userSpaceOnUse">
<stop stop-color="#F96F14" stop-opacity="0.58"/>
<stop offset="1" stop-color="#F96F14" stop-opacity="0.14"/>
</linearGradient>
<linearGradient id="paint26_linear" x1="10.0157" y1="64.5143" x2="12.9724" y2="78.6615" gradientUnits="userSpaceOnUse">
<stop stop-color="#F96F14" stop-opacity="0.58"/>
<stop offset="1" stop-color="#F96F14" stop-opacity="0.14"/>
</linearGradient>
<linearGradient id="paint27_linear" x1="15.3939" y1="79.1079" x2="17.2061" y2="87.7789" gradientUnits="userSpaceOnUse">
<stop stop-color="#F96F14" stop-opacity="0.58"/>
<stop offset="1" stop-color="#F96F14" stop-opacity="0.14"/>
</linearGradient>
<linearGradient id="paint28_linear" x1="34.3524" y1="146.113" x2="36.4508" y2="156.154" gradientUnits="userSpaceOnUse">
<stop stop-color="#F96F14" stop-opacity="0.58"/>
<stop offset="1" stop-color="#F96F14" stop-opacity="0.14"/>
</linearGradient>
<linearGradient id="paint29_linear" x1="31.5923" y1="140.499" x2="33.4045" y2="149.17" gradientUnits="userSpaceOnUse">
<stop stop-color="#F96F14" stop-opacity="0.58"/>
<stop offset="1" stop-color="#F96F14" stop-opacity="0.14"/>
</linearGradient>
<linearGradient id="paint30_linear" x1="30.4183" y1="135.505" x2="31.3717" y2="140.067" gradientUnits="userSpaceOnUse">
<stop stop-color="#F96F14" stop-opacity="0.58"/>
<stop offset="1" stop-color="#F96F14" stop-opacity="0.14"/>
</linearGradient>
<linearGradient id="paint31_linear" x1="28.8529" y1="129.164" x2="29.6162" y2="132.815" gradientUnits="userSpaceOnUse">
<stop stop-color="#F96F14" stop-opacity="0.58"/>
<stop offset="1" stop-color="#F96F14" stop-opacity="0.14"/>
</linearGradient>
<linearGradient id="paint32_linear" x1="22.2634" y1="120.062" x2="23.4081" y2="125.539" gradientUnits="userSpaceOnUse">
<stop stop-color="#F96F14" stop-opacity="0.58"/>
<stop offset="1" stop-color="#F96F14" stop-opacity="0.14"/>
</linearGradient>
<linearGradient id="paint33_linear" x1="21.4869" y1="115.462" x2="22.4407" y2="120.026" gradientUnits="userSpaceOnUse">
<stop stop-color="#F96F14" stop-opacity="0.58"/>
<stop offset="1" stop-color="#F96F14" stop-opacity="0.14"/>
</linearGradient>
<linearGradient id="paint34_linear" x1="19.6515" y1="110.13" x2="20.5099" y2="114.237" gradientUnits="userSpaceOnUse">
<stop stop-color="#F96F14" stop-opacity="0.58"/>
<stop offset="1" stop-color="#F96F14" stop-opacity="0.14"/>
</linearGradient>
<linearGradient id="paint35_linear" x1="17.1519" y1="105.413" x2="18.1057" y2="109.976" gradientUnits="userSpaceOnUse">
<stop stop-color="#F96F14" stop-opacity="0.58"/>
<stop offset="1" stop-color="#F96F14" stop-opacity="0.14"/>
</linearGradient>
<linearGradient id="paint36_linear" x1="121.293" y1="293.959" x2="122.575" y2="300.095" gradientUnits="userSpaceOnUse">
<stop stop-color="#F96F14" stop-opacity="0.58"/>
<stop offset="1" stop-color="#F96F14" stop-opacity="0.14"/>
</linearGradient>
<linearGradient id="paint37_linear" x1="118.175" y1="293.87" x2="119.796" y2="301.628" gradientUnits="userSpaceOnUse">
<stop stop-color="#F96F14" stop-opacity="0.58"/>
<stop offset="1" stop-color="#F96F14" stop-opacity="0.14"/>
</linearGradient>
<linearGradient id="paint38_linear" x1="114.995" y1="294.535" x2="116.711" y2="302.749" gradientUnits="userSpaceOnUse">
<stop stop-color="#F96F14" stop-opacity="0.58"/>
<stop offset="1" stop-color="#F96F14" stop-opacity="0.14"/>
</linearGradient>
<linearGradient id="paint39_linear" x1="112.736" y1="296.435" x2="114.357" y2="304.194" gradientUnits="userSpaceOnUse">
<stop stop-color="#F96F14" stop-opacity="0.58"/>
<stop offset="1" stop-color="#F96F14" stop-opacity="0.14"/>
</linearGradient>
<linearGradient id="paint40_linear" x1="109.464" y1="297.119" x2="111.181" y2="305.334" gradientUnits="userSpaceOnUse">
<stop stop-color="#F96F14" stop-opacity="0.58"/>
<stop offset="1" stop-color="#F96F14" stop-opacity="0.14"/>
</linearGradient>
<linearGradient id="paint41_linear" x1="226.819" y1="314.506" x2="228.894" y2="324.432" gradientUnits="userSpaceOnUse">
<stop stop-color="#F96F14" stop-opacity="0.58"/>
<stop offset="1" stop-color="#F96F14" stop-opacity="0.14"/>
</linearGradient>
<linearGradient id="paint42_linear" x1="128.095" y1="333.71" x2="132.006" y2="352.421" gradientUnits="userSpaceOnUse">
<stop stop-color="#F96F14" stop-opacity="0.58"/>
<stop offset="1" stop-color="#F96F14" stop-opacity="0.14"/>
</linearGradient>
<linearGradient id="paint43_linear" x1="31.8779" y1="355.725" x2="34.7392" y2="369.416" gradientUnits="userSpaceOnUse">
<stop stop-color="#F96F14" stop-opacity="0.58"/>
<stop offset="1" stop-color="#F96F14" stop-opacity="0.14"/>
</linearGradient>
<linearGradient id="paint44_linear" x1="-19.8198" y1="336.046" x2="-16.6724" y2="351.106" gradientUnits="userSpaceOnUse">
<stop stop-color="#F96F14" stop-opacity="0.58"/>
<stop offset="1" stop-color="#F96F14" stop-opacity="0.14"/>
</linearGradient>
<linearGradient id="paint45_linear" x1="67.2234" y1="321.665" x2="69.4171" y2="332.161" gradientUnits="userSpaceOnUse">
<stop stop-color="#F96F14" stop-opacity="0.58"/>
<stop offset="1" stop-color="#F96F14" stop-opacity="0.14"/>
</linearGradient>
<linearGradient id="paint46_linear" x1="140.222" y1="312.6" x2="141.843" y2="320.359" gradientUnits="userSpaceOnUse">
<stop stop-color="#F96F14" stop-opacity="0.58"/>
<stop offset="1" stop-color="#F96F14" stop-opacity="0.14"/>
</linearGradient>
<linearGradient id="paint47_linear" x1="209.945" y1="293.265" x2="212.901" y2="307.413" gradientUnits="userSpaceOnUse">
<stop stop-color="#F96F14" stop-opacity="0.58"/>
<stop offset="1" stop-color="#F96F14" stop-opacity="0.14"/>
</linearGradient>
<linearGradient id="paint48_linear" x1="280.469" y1="272.811" x2="282.662" y2="283.308" gradientUnits="userSpaceOnUse">
<stop stop-color="#F96F14" stop-opacity="0.58"/>
<stop offset="1" stop-color="#F96F14" stop-opacity="0.14"/>
</linearGradient>
<linearGradient id="paint49_linear" x1="163.389" y1="354.911" x2="165.488" y2="364.952" gradientUnits="userSpaceOnUse">
<stop stop-color="#F96F14" stop-opacity="0.58"/>
<stop offset="1" stop-color="#F96F14" stop-opacity="0.14"/>
</linearGradient>
<linearGradient id="paint50_linear" x1="86.0226" y1="370.605" x2="89.3608" y2="386.577" gradientUnits="userSpaceOnUse">
<stop stop-color="#F96F14" stop-opacity="0.58"/>
<stop offset="1" stop-color="#F96F14" stop-opacity="0.14"/>
</linearGradient>
<linearGradient id="paint51_linear" x1="226.625" y1="340.862" x2="228.103" y2="347.936" gradientUnits="userSpaceOnUse">
<stop stop-color="#F96F14" stop-opacity="0.58"/>
<stop offset="1" stop-color="#F96F14" stop-opacity="0.14"/>
</linearGradient>
</defs>
</svg>
