<!-- Generated by IcoMoon.io -->
<svg version="1.1" xmlns="http://www.w3.org/2000/svg" width="1090" height="1024" viewBox="0 0 1090 1024">
<title></title>
<g id="icomoon-ignore">
</g>
<path stroke-linejoin="miter" stroke-linecap="butt" stroke-miterlimit="4" stroke-width="16.5161" stroke="#fff" fill="#fff" d="M461.217 809.727c-50.346 0-91.307 40.959-91.307 91.307s40.959 91.307 91.307 91.307c50.345 0 91.307-40.959 91.307-91.307-0.004-50.346-40.965-91.307-91.307-91.307zM461.217 941.358c-22.237 0-40.326-18.092-40.326-40.326s18.092-40.326 40.326-40.326c22.237 0 40.322 18.092 40.322 40.326 0 22.241-18.088 40.326-40.322 40.326z"></path>
<path stroke-linejoin="miter" stroke-linecap="butt" stroke-miterlimit="4" stroke-width="16.5161" stroke="#fff" fill="#fff" d="M781.51 809.727c-50.346 0-91.307 40.959-91.307 91.307s40.959 91.307 91.307 91.307c50.346 0 91.307-40.959 91.307-91.307-0.004-50.346-40.965-91.307-91.307-91.307zM781.51 941.358c-22.237 0-40.326-18.092-40.326-40.326s18.092-40.326 40.326-40.326c22.237 0 40.322 18.092 40.322 40.326 0 22.241-18.088 40.326-40.322 40.326z"></path>
<path stroke-linejoin="miter" stroke-linecap="butt" stroke-miterlimit="4" stroke-width="16.5161" stroke="#fff" fill="#fff" d="M1052.624 215.427c-9.718-11.93-24.127-18.771-39.52-18.771h-794.002l-16.035-77.843c-3.347-16.24-14.424-29.871-29.631-36.476l-111.886-48.564c-12.917-5.612-27.928 0.318-33.531 13.23-5.609 12.917 0.319 27.931 13.23 33.534l111.887 48.565 123.34 598.712c4.856 23.575 25.855 40.687 49.931 40.687h610.679c14.080 0 25.488-11.412 25.488-25.488s-11.412-25.488-25.488-25.488h-610.679l-15.004-72.827h630.406c24.072 0 45.075-17.113 49.931-40.693l71.298-346.081c3.105-15.070-0.69-30.559-10.416-42.488zM941.806 593.716h-640.906l-71.299-346.081 783.5 0.001-71.298 346.079z"></path>
</svg>
