<svg width="146" height="21" viewBox="0 0 146 21" fill="none" xmlns="http://www.w3.org/2000/svg">
<g opacity="0.3">
<path d="M22.2435 3.35992C20.384 1.46992 17.9048 0.419922 15.2878 0.419922H2.8916V7.83992L4.68217 7.06992V2.16992H15.2878C19.7642 2.16992 23.3454 5.87992 23.3454 10.3599C23.3454 14.8399 19.6954 18.5499 15.2878 18.5499H4.68217V14.1399L2.8916 13.5099V20.3699H15.2878C17.9048 20.3699 20.384 19.3199 22.2435 17.4299C24.1029 15.5399 25.1359 13.0199 25.1359 10.3599C25.1359 7.69992 24.1029 5.24992 22.2435 3.35992Z" fill="white"/>
<path d="M21.0729 10.43C21.0729 7.56 18.8003 5.25 15.9767 5.25C13.1531 5.25 0.619141 10.78 0.619141 10.78C0.619141 10.78 13.1531 15.68 15.9767 15.68C18.8003 15.68 21.0729 13.3 21.0729 10.43Z" fill="white"/>
<path d="M35.0537 5.11035H39.599C40.7009 5.11035 41.665 5.32035 42.5603 5.74035C43.4556 6.16035 44.0754 6.79035 44.5575 7.63035C45.0396 8.40035 45.2462 9.38035 45.2462 10.4304C45.2462 11.4804 45.0396 12.3904 44.5575 13.2304C44.0754 14.0004 43.3867 14.6304 42.5603 15.1204C41.665 15.5404 40.7009 15.7504 39.599 15.7504H35.0537C35.0537 15.7504 35.0537 5.11035 35.0537 5.11035ZM39.4613 14.0704C40.2188 14.0704 40.9075 13.9304 41.4584 13.6504C42.0094 13.3704 42.4914 12.9504 42.7669 12.3904C43.1113 11.8304 43.249 11.2004 43.249 10.5004C43.249 9.80035 43.1113 9.17035 42.7669 8.61035C42.4226 8.05035 42.0094 7.63035 41.4584 7.35035C40.9075 7.07035 40.2188 6.93035 39.4613 6.93035H36.9131V14.2104H39.4613V14.0704Z" fill="white"/>
<path d="M57.2298 5.11035L52.6845 15.6804H50.7562L46.2109 5.11035H48.277L51.7204 13.2304L55.2326 5.11035C55.2326 5.11035 57.2298 5.11035 57.2298 5.11035Z" fill="white"/>
<path d="M59.0879 5.11035H61.0162V15.6804H59.0879V5.11035Z" fill="white"/>
<path d="M64.3227 15.4704C63.7717 15.1904 63.2897 14.8404 62.9453 14.3504L64.0472 13.0204C64.5981 13.8604 65.2868 14.2104 66.1132 14.2104C67.2151 14.2104 67.7661 13.5804 67.7661 12.2504V6.79035H64.0472V5.11035H69.6944V12.1104C69.6944 13.3704 69.4189 14.2804 68.7991 14.9104C68.1793 15.5404 67.3529 15.8204 66.1821 15.8204C65.4934 15.8904 64.8736 15.7504 64.3227 15.4704Z" fill="white"/>
<path d="M84.7075 13.2304H79.5424L78.5094 15.6804H76.4434L81.1264 5.11035H83.0547L87.7377 15.6804H85.7405L84.7075 13.2304ZM84.0188 11.6904L82.0905 7.07035L80.1622 11.6904H84.0188Z" fill="white"/>
<path d="M96.7601 10.2904H98.6195V14.4904C98.0686 14.9104 97.4488 15.2604 96.7601 15.4704C96.0714 15.6804 95.3139 15.8204 94.5563 15.8204C93.5233 15.8204 92.5592 15.6104 91.6639 15.1204C90.8375 14.6304 90.1488 14.0004 89.6667 13.1604C89.1846 12.3204 88.9092 11.4104 88.9092 10.3604C88.9092 9.31039 89.1846 8.40039 89.6667 7.56039C90.1488 6.72039 90.8375 6.09039 91.6639 5.60039C92.4903 5.11039 93.4545 4.90039 94.5563 4.90039C95.4516 4.90039 96.2092 5.04039 96.9667 5.32039C97.6554 5.60039 98.2752 6.02039 98.7573 6.58039L97.5177 7.77039C96.6913 7.00039 95.796 6.58039 94.6252 6.58039C93.8677 6.58039 93.2479 6.72039 92.6969 7.07039C92.146 7.35039 91.6639 7.84039 91.3884 8.40039C91.0441 8.96039 90.9063 9.59039 90.9063 10.3604C90.9063 11.0604 91.0441 11.6904 91.3884 12.2504C91.7328 12.8104 92.146 13.2304 92.6969 13.5804C93.2479 13.9304 93.9365 14.0704 94.6252 14.0704C95.4516 14.0704 96.1403 13.8604 96.7601 13.5104V10.2904Z" fill="white"/>
<path d="M109.638 14.0704V15.7504H101.855V5.11035H109.431V6.79035H103.784V9.52035H108.811V11.1304H103.784V14.0704H109.638Z" fill="white"/>
<path d="M121.828 5.11035V15.6804H120.244L114.528 8.54035V15.6804H112.6V5.11035H114.184L119.9 12.2504V5.11035H121.828Z" fill="white"/>
<path d="M127.268 15.1204C126.441 14.6304 125.753 14.0004 125.271 13.1604C124.789 12.3204 124.582 11.4104 124.582 10.3604C124.582 9.31039 124.858 8.40039 125.34 7.56039C125.822 6.72039 126.51 6.09039 127.337 5.60039C128.163 5.11039 129.127 4.90039 130.16 4.90039C130.987 4.90039 131.813 5.04039 132.502 5.32039C133.191 5.60039 133.81 6.09039 134.292 6.65039L133.053 7.84039C132.295 7.00039 131.4 6.58039 130.298 6.58039C129.609 6.58039 128.921 6.72039 128.37 7.07039C127.819 7.42039 127.337 7.84039 127.061 8.40039C126.717 8.96039 126.579 9.59039 126.579 10.2904C126.579 10.9904 126.717 11.6204 127.061 12.1804C127.406 12.7404 127.819 13.1604 128.37 13.5104C128.921 13.8604 129.541 14.0004 130.298 14.0004C131.4 14.0004 132.295 13.5804 133.053 12.7404L134.292 13.9304C133.81 14.4904 133.191 14.9104 132.502 15.2604C131.813 15.5404 130.987 15.6804 130.16 15.6804C129.127 15.8904 128.163 15.6104 127.268 15.1204Z" fill="white"/>
<path d="M141.179 11.9704V15.6804H139.251V11.9704L135.188 5.11035H137.254L140.284 10.2904L143.383 5.11035H145.311L141.179 11.9704Z" fill="white"/>
</g>
</svg>
