<svg width="29" height="28" viewBox="0 0 29 28" fill="none" xmlns="http://www.w3.org/2000/svg">
<g clip-path="url(#clip0)">
<path d="M14.5003 0C7.04929 0 0.987305 6.06198 0.987305 13.513C0.987305 20.9636 7.04929 27.0261 14.5003 27.0261C21.9509 27.0261 28.0134 20.9636 28.0134 13.513C28.0134 6.06198 21.952 0 14.5003 0ZM17.8609 13.9888H15.6625C15.6625 17.5012 15.6625 21.8247 15.6625 21.8247H12.4048C12.4048 21.8247 12.4048 17.5431 12.4048 13.9888H10.8562V11.2193H12.4048V9.428C12.4048 8.14506 13.0144 6.14036 15.6924 6.14036L18.1064 6.14962V8.83796C18.1064 8.83796 16.6395 8.83796 16.3543 8.83796C16.0691 8.83796 15.6635 8.98057 15.6635 9.59238V11.2199H18.1456L17.8609 13.9888Z" fill="#1D1D1D"/>
</g>
<defs>
<clipPath id="clip0">
<rect width="27.0261" height="27.0261" fill="white" transform="translate(0.987305)"/>
</clipPath>
</defs>
</svg>
