<svg width="28" height="28" viewBox="0 0 28 28" fill="none" xmlns="http://www.w3.org/2000/svg">
<path fill-rule="evenodd" clip-rule="evenodd" d="M13.513 27.0261C20.9761 27.0261 27.0261 20.9761 27.0261 13.513C27.0261 6.05 20.9761 0 13.513 0C6.05 0 0 6.05 0 13.513C0 20.9761 6.05 27.0261 13.513 27.0261ZM10.0529 5.79126H16.9727C19.3228 5.79126 21.2348 7.70318 21.2347 10.0531V16.9729C21.2347 19.3228 19.3228 21.2347 16.9727 21.2347H10.0529C7.703 21.2347 5.79118 19.3229 5.79118 16.9729V10.0531C5.79118 7.70318 7.703 5.79126 10.0529 5.79126ZM16.9728 19.8645C18.5673 19.8645 19.8645 18.5674 19.8645 16.9729H19.8644V10.0531C19.8644 8.45872 18.5672 7.16148 16.9727 7.16148H10.0529C8.45854 7.16148 7.1614 8.45872 7.1614 10.0531V16.9729C7.1614 18.5674 8.45854 19.8646 10.0529 19.8645H16.9728ZM13.5129 9.65179C11.384 9.65179 9.65206 11.3838 9.65206 13.5127C9.65206 15.6416 11.384 17.3735 13.5129 17.3735C15.6418 17.3735 17.3738 15.6416 17.3738 13.5127C17.3738 11.3838 15.6418 9.65179 13.5129 9.65179ZM13.5129 16.044C12.1171 16.044 10.9815 14.9085 10.9815 13.5127C10.9815 12.1167 12.1171 10.9811 13.5129 10.9811C14.9088 10.9811 16.0444 12.1167 16.0444 13.5127C16.0444 14.9085 14.9087 16.044 13.5129 16.044ZM16.692 8.96902C16.8711 8.78914 17.1202 8.68647 17.3738 8.68647C17.6283 8.68647 17.8775 8.78914 18.0565 8.96902C18.2364 9.14802 18.339 9.39723 18.339 9.65169C18.339 9.90528 18.2364 10.1545 18.0565 10.3344C17.8766 10.5134 17.6283 10.6169 17.3738 10.6169C17.1202 10.6169 16.871 10.5134 16.692 10.3344C16.5121 10.1545 16.4086 9.90537 16.4086 9.65169C16.4086 9.39723 16.512 9.14802 16.692 8.96902Z" fill="#1D1D1D"/>
</svg>
