<svg width="311" height="93" viewBox="0 0 311 93" fill="none" xmlns="http://www.w3.org/2000/svg">
<path d="M38.8667 43.6047L25.4642 16.4586L25.3017 16.1296L25.5098 15.8274L35.9784 0.625605H25.3266L13.2753 18.5948L12.1312 20.3007V18.2467V0.625605H0.625V43.6047H12.1312V33.978V33.7766L12.2488 33.6131L16.8839 27.1661L17.5134 26.2905L17.9602 27.2719L25.3954 43.6047H38.8667ZM76.6493 18.484H76.0243V17.859V9.41216V8.78716H76.6493H82.1235L82.1901 8.78715C83.4327 8.78694 84.9772 8.78668 86.269 9.43321L86.2691 9.4331L86.28 9.43884C87.8543 10.266 88.7395 11.9103 88.7395 13.6043C88.7395 14.6555 88.4936 15.5211 88.0376 16.2168C87.5827 16.911 86.9473 17.3925 86.2384 17.7244C84.847 18.376 83.0975 18.484 81.609 18.484H76.6493ZM101.479 43.6044L93.8503 25.1901L93.6196 24.6332L94.1679 24.3825C96.709 23.2209 98.5516 21.8171 99.7641 20.0449C100.974 18.2773 101.594 16.0871 101.594 13.2818C101.594 9.13108 99.9308 5.41897 96.4763 3.23597L96.4762 3.23614L96.4632 3.22744C93.338 1.14113 89.2412 0.625309 85.4099 0.625309H63.554V43.6044H76.0243V27.3382V26.7132H76.6493H80.8998H81.3303L81.4837 27.1155L87.771 43.6044H101.479ZM145.594 43.6047L132.192 16.4586L132.029 16.1296L132.237 15.8274L142.706 0.625605H132.054L120.003 18.5948L118.859 20.3007V18.2467V0.625605H107.355V43.6047H118.859V33.978V33.7766L118.976 33.6131L123.611 27.1661L124.241 26.2905L124.688 27.2719L132.123 43.6047H145.594ZM163.41 34.023H162.785V33.398V0.625605H150.38V43.6047H180.112V34.023H163.41ZM254.707 43.6047H264.813V0.625605H255.047V12.2901L256.012 24.5146L256.034 24.7983L255.835 25.0014L255.707 25.1314L255.141 25.7085L254.725 25.0152L240.091 0.625605H228.251V43.6047H238.017V23.5987C238.017 20.6288 237.768 19.1296 237.132 16.3276C237.132 16.3252 237.131 16.3228 237.131 16.3203L237.004 15.8196L236.918 15.4759L237.168 15.2251L237.298 15.0952L237.916 14.477L238.301 15.2614L242.217 23.232L254.707 43.6047ZM284.694 34.6677H284.069V34.0427V10.0571V9.43211H284.694H286.24C286.381 9.43211 286.521 9.43179 286.66 9.43147C288.007 9.42838 289.252 9.42552 290.397 9.71807C291.709 10.0532 292.868 10.7643 294.007 12.1802L294.007 12.18L294.017 12.1929C295.998 14.7914 296.85 18.8147 296.85 21.8561C296.85 24.8861 296.325 27.9759 294.703 30.685C293.939 32.0023 292.895 33.0472 291.578 33.8089L291.57 33.8136L291.561 33.8181C289.929 34.697 288.696 34.6853 287.213 34.6713C287.022 34.6695 286.827 34.6677 286.627 34.6677H284.694ZM287.401 0.625309H271.729V43.6044H288.303C294.321 43.6044 299.603 42.2141 303.824 37.8004L303.827 37.7976C307.754 33.7434 309.77 27.8492 309.77 22.1786C309.77 16 307.693 10.1145 303.202 5.8691L303.199 5.86567C298.605 1.45351 293.714 0.625309 287.401 0.625309ZM184.215 43.6484H194.04L200.865 19.9847L200.865 19.9824L202.092 15.7927L202.69 13.7479L203.291 15.7919L204.58 20.1741L204.58 20.1759L211.404 43.6484H224.312L210.48 0.666951H197.548L184.215 43.6484ZM43.5226 0.62509V43.6042H55.928V0.62509H43.5226Z" fill="black" stroke="black"/>
<path d="M199.639 32.9568C199.639 32.9568 205.762 33.4285 205.762 36.2562C206.705 32.721 222.719 25.179 222.719 25.179C222.719 25.179 199.639 27.2992 199.639 32.9568ZM53.1808 49.4505C53.1736 49.4529 50.5002 49.9583 46.3843 50.7717C40.2154 51.9918 30.8249 53.8978 22.4658 55.7965C18.285 56.7471 14.3639 57.6952 11.2457 58.5519C9.68544 58.9803 8.32715 59.3845 7.2501 59.7503C6.17786 60.1113 5.36526 60.4506 4.99984 60.6648L4.983 60.6744L4.65123 60.1498L5.1056 60.5637L4.983 60.6744L4.65123 60.1498L5.1056 60.5637L4.17764 59.719H5.42056C5.40854 60.2124 5.18974 60.4651 5.1056 60.5637L4.17764 59.719H5.42056H4.11271L5.02867 58.7805C5.19936 58.9297 5.42778 59.3123 5.42056 59.719H4.11271L5.02867 58.7805L4.39639 59.4279L4.62958 58.5278C4.62478 58.5423 4.71854 58.5062 5.02867 58.7805L4.39639 59.4279L4.62958 58.5278C4.67286 58.5519 5.32439 58.6145 6.17064 58.6073C10.0605 58.6097 19.0543 57.8925 27.5697 57.8901C32.5414 57.8949 37.3593 58.1284 41.0808 58.9345C42.944 59.346 44.5403 59.8827 45.8049 60.725C46.4348 61.1486 46.9878 61.6611 47.3916 62.3013C47.7955 62.9366 48.0287 63.7043 48.0239 64.4888C48.0167 66.2166 47.1007 67.6966 45.8314 68.936C43.5883 71.109 40.0375 72.8923 35.9024 74.5166C23.5284 79.3321 5.83888 82.3113 5.7932 82.3233L5.11282 79.5703C5.12003 79.5679 17.3498 75.5659 30.5676 71.5615C37.1789 69.5593 44.0331 67.5546 49.7453 66.0481C52.6038 65.2949 55.1738 64.6644 57.2966 64.2192C59.4315 63.7764 61.0711 63.5069 62.2707 63.5021C62.6097 63.5045 62.9199 63.5214 63.254 63.5984H63.2564C63.694 63.7067 64.1027 63.8414 64.5138 64.1614C64.9273 64.4623 65.2807 65.1072 65.2591 65.6848C65.2374 66.4284 64.9321 66.8615 64.6604 67.2393C64.158 67.8843 63.5113 68.4306 62.778 69.0419C61.6865 69.9395 60.4148 70.9189 59.4699 71.8647C58.9987 72.3316 58.6165 72.7887 58.3833 73.1738C58.1429 73.5612 58.0731 73.8452 58.0755 73.9944L58.0828 74.0739L57.3375 74.187L57.7558 73.5853L58.0828 74.0762L57.3375 74.187L57.7558 73.5853L57.3856 74.1171L57.5418 73.4842L57.7558 73.5853L57.3856 74.1171L57.5418 73.4842L57.4841 73.7128L57.5106 73.477L57.5418 73.4842L57.4841 73.7128L57.5106 73.477L57.5346 73.4794C57.6909 73.4939 58.3593 73.3447 59.2031 72.9933C62.2299 71.7756 67.6872 68.4835 73.3441 65.5115C76.181 64.0219 79.0899 62.6068 81.8523 61.548C84.617 60.4963 87.2255 59.7816 89.5815 59.7744C91.4447 59.7672 93.255 60.263 94.5677 61.5962L94.9764 62.0124V62.5948C94.9643 63.5021 94.5965 64.2289 94.1325 64.9123C93.3031 66.1035 92.0313 67.2418 90.4879 68.3897C88.1751 70.1007 85.2565 71.7756 82.4341 73.0486C79.5924 74.3121 76.9382 75.2049 74.8106 75.2265C74.4163 75.2241 74.0317 75.1928 73.6494 75.1038L72.3512 74.8006L72.57 73.4842C73.0268 70.7191 74.1495 68.486 75.6521 66.7726C77.9119 64.1952 80.9411 62.7946 83.8141 62.0173C86.6918 61.2424 89.4541 61.0835 91.3269 61.0811C92.7574 61.0811 93.6661 61.1774 93.707 61.1822L96.2121 61.4494L72.2502 93.001L71.3319 92.7603C71.2453 92.7338 70.3269 92.498 69.2956 91.8458C68.7835 91.5161 68.2354 91.0758 67.7858 90.4501C67.3362 89.834 67.0044 88.999 67.0093 88.0653C67.0141 86.6815 67.6728 85.2544 69.0023 83.7335C71.0169 81.4497 74.6495 78.7809 81.0517 75.4142C87.4515 72.0572 96.6232 68.0287 109.678 63.1892L110.055 63.0496L110.449 63.1291C111.286 63.2975 112.026 63.6032 112.601 64.1663C113.185 64.727 113.469 65.5476 113.454 66.2575C113.423 67.5907 112.8 68.6761 112.055 69.7807C110.916 71.4123 109.322 73.015 107.995 74.2495C106.672 75.4793 105.619 76.3239 105.603 76.3383L103.828 74.1148C103.855 74.0931 107.223 71.4123 111.55 68.7073C113.714 67.3549 116.118 65.9976 118.493 64.958C120.876 63.9256 123.21 63.1892 125.381 63.1796C125.937 63.1796 126.482 63.2302 127.011 63.3481L127.014 63.3504C127.381 63.4275 127.821 63.6248 128.148 64.0195C128.48 64.4093 128.596 64.9075 128.591 65.2781C128.576 65.9206 128.374 66.3586 128.153 66.8135C127.752 67.5932 127.167 68.3873 126.499 69.2488C125.499 70.5291 124.314 71.9152 123.403 73.1161C122.948 73.7105 122.564 74.2615 122.323 74.6875L122.076 75.1929L122.04 75.3084L122.037 75.3132L121.725 75.2771H122.04L122.037 75.3132L121.725 75.2771H122.04H121.311L121.97 74.9787L122.04 75.2771H121.311L121.97 74.9787L121.225 75.3156L121.556 74.5551L121.97 74.9787L121.225 75.3156L121.556 74.5551L121.446 74.8078L121.494 74.5311L121.556 74.5551L121.446 74.8078L121.494 74.5311L121.612 74.5383L121.878 74.5214L122.037 75.934L121.357 74.6851C121.381 74.6731 127.16 71.5181 134.474 68.3536C138.133 66.7701 142.176 65.1818 146.095 63.9834C150.019 62.7849 153.803 61.9644 157.048 61.9596C157.683 61.9596 158.298 61.9908 158.892 62.0606L159.14 62.1063L159.474 62.2363L159.856 62.5347C160.015 62.7007 160.231 63.0568 160.229 63.4948C160.229 63.8029 160.121 64.0796 160.01 64.2529C159.777 64.5994 159.599 64.674 159.493 64.7438L159.14 64.8858C158.919 64.9387 158.842 64.9388 158.678 64.9628C157.611 65.0952 154.257 65.4128 150.735 66.4933C147.203 67.5642 143.691 69.4293 142.217 72.2281C141.506 73.5469 141.01 74.6081 140.705 75.4119C140.395 76.206 140.296 76.7619 140.304 76.9376L140.306 76.9857L139.965 77.0314L140.27 76.8847L140.306 76.9857L139.965 77.0314L140.27 76.8847L139.599 77.2071L139.948 76.5526L140.27 76.8847L139.599 77.2071L139.948 76.5526L139.657 77.1012L139.787 76.4923L139.948 76.5526L139.657 77.1012L139.787 76.4923L139.739 76.7162V76.4851L139.787 76.4923L139.739 76.7162V76.4851C139.777 76.5044 140.328 76.3769 141.006 76.0183C142.217 75.407 143.934 74.2327 145.751 72.8345C148.487 70.736 151.497 68.1298 153.812 66.0554C154.971 65.0182 155.957 64.1133 156.652 63.4684C157.346 62.8234 157.748 62.4432 157.748 62.4432L159.888 64.2938L159.695 64.573C159.253 65.2276 158.123 66.953 157.123 68.8975C156.116 70.8203 155.291 73.0366 155.317 74.2784C155.317 74.7549 155.418 75.0244 155.512 75.152C155.611 75.2747 155.716 75.395 156.185 75.5009L156.337 75.5129C156.738 75.5298 157.733 75.2531 158.936 74.6442C161.068 73.5926 163.931 71.6481 166.956 69.3403C171.502 65.8797 176.454 61.6009 180.255 58.1957C182.159 56.4919 183.775 55.0047 184.914 53.9459C186.054 52.887 186.713 52.2565 186.713 52.2565L188.783 54.2009C188.783 54.2009 188.583 54.4392 188.23 54.8724C186.987 56.3909 183.859 60.2822 181.07 64.3179C179.676 66.3345 178.366 68.3897 177.426 70.1705C176.957 71.0585 176.582 71.8791 176.334 72.5698C176.084 73.2581 175.976 73.8236 175.981 74.1244L176.005 74.353L175.851 74.4348L175.928 74.2736L176.005 74.353L175.851 74.4348L175.928 74.2736C175.93 74.276 176.034 74.3193 176.279 74.3193C176.505 74.3193 176.841 74.2832 177.269 74.1821C182.832 72.885 188.203 70.4978 192.16 68.4306C194.139 67.3958 195.767 66.4453 196.897 65.7546C197.459 65.4105 197.899 65.1313 198.195 64.9387C198.49 64.7462 198.635 64.6476 198.635 64.6476L200.262 66.9795L199.986 67.184C199.349 67.6581 197.714 68.9239 196.293 70.3366C195.582 71.0392 194.925 71.7828 194.485 72.4374C194.031 73.0896 193.853 73.6551 193.872 73.8163L193.884 73.8958L194.055 74.0402C194.069 74.0522 194.214 74.1195 194.528 74.1171C195.382 74.1412 197.154 73.5733 199.084 72.6203C202.008 71.2005 205.429 69.0129 208.093 67.1888C209.424 66.2768 210.571 65.4538 211.384 64.8618C212.194 64.2674 212.663 63.9112 212.665 63.9088L214.512 66.065L214.322 66.2527C213.882 66.6955 212.744 67.8747 211.756 69.1959C211.261 69.8528 210.807 70.5459 210.497 71.1668C210.182 71.7829 210.037 72.3291 210.047 72.589L210.081 72.7984C210.102 72.8249 210.11 72.8898 210.408 73.0198C210.701 73.1401 211.266 73.258 212.117 73.2556L212.463 73.2508C216.651 73.1401 222.147 70.7264 226.47 68.2814C228.638 67.0661 230.53 65.8533 231.874 64.946C232.545 64.4936 233.081 64.1182 233.446 63.8559C233.812 63.596 233.999 63.4539 233.999 63.4539L234.593 63.0087L235.3 63.2446L235.408 63.2783C235.947 63.4539 238.471 64.1759 240.553 64.1687C240.829 64.1687 241.096 64.1566 241.346 64.1302L241.313 64.135L241.349 64.1302L241.618 64.1158C241.854 64.1254 242.156 64.1254 242.577 64.3732C242.782 64.496 243 64.7078 243.135 64.9653C243.272 65.2203 243.32 65.4946 243.318 65.7064C243.308 66.1348 243.19 66.3634 243.099 66.5536C242.919 66.8953 242.731 67.1191 242.51 67.3814C241.757 68.2501 240.555 69.3716 239.541 70.5676C239.036 71.1572 238.591 71.7563 238.298 72.281C238 72.8056 237.882 73.2436 237.889 73.4578L238.108 73.9054C238.324 74.1075 238.875 74.4132 239.868 74.6346C240.421 74.7597 241.063 74.8247 241.781 74.8247C243.986 74.8295 246.854 74.199 249.862 73.1979C254.384 71.6962 259.243 69.3811 263.029 67.3236C264.923 66.296 266.553 65.3334 267.736 64.5754C268.328 64.1975 268.809 63.8703 269.143 63.6248L269.515 63.3312L269.59 63.2639L269.922 63.596L269.544 63.3216L269.59 63.2639L269.922 63.596L269.544 63.3216L269.813 62.874L269.84 62.7921L269.989 62.8259H269.84V62.7921L269.989 62.8259H269.84H270.398L269.936 63.1315L269.84 62.8259H270.398L269.936 63.1315L270.314 62.8812L270.059 63.2614L269.936 63.1315L270.314 62.8812L270.059 63.2614L270.102 63.194L270.066 63.2663L270.059 63.2614L270.102 63.194L270.066 63.2663C270.054 63.2494 269.765 63.1579 269.323 63.1652C268.58 63.1627 267.443 63.3625 266.217 63.7788C264.368 64.3997 262.293 65.4971 260.697 66.9266C259.089 68.3608 257.995 70.0694 257.793 71.9705L257.081 71.8936H257.795L257.793 71.973L257.081 71.8936H257.795H257.129L257.716 71.5662L257.795 71.8936H257.129L257.716 71.5662L257.403 71.7419L257.68 71.5109L257.716 71.5662L257.403 71.7419L257.68 71.5109L257.634 71.5494L257.675 71.5085L257.68 71.5109L257.634 71.5494L257.675 71.5085C257.682 71.5566 258.31 71.9296 259.286 72.1799C262.26 73.0174 268.263 73.4939 274.727 73.4866C275.951 73.4866 277.194 73.4698 278.442 73.4361C280.723 73.3784 283.243 73.3567 285.818 73.3567C296.11 73.3567 307.27 73.7297 307.279 73.7297L307.183 76.5718C307.176 76.5718 304.404 76.478 300.339 76.3865C296.276 76.2927 290.931 76.1988 285.818 76.1988C283.262 76.1988 280.762 76.2229 278.514 76.2806C277.245 76.3143 275.978 76.3311 274.727 76.3311C269.794 76.3287 265.161 76.0784 261.68 75.5586C259.935 75.2963 258.485 74.9787 257.351 74.5335C256.781 74.3072 256.283 74.057 255.836 73.6768C255.401 73.3134 254.954 72.6853 254.954 71.8936L254.968 71.6625C255.168 69.7903 255.947 68.1274 257.014 66.7268C258.62 64.6235 260.858 63.0617 263.092 61.9884C265.335 60.9223 267.542 60.3303 269.323 60.3207C270.051 60.3279 270.729 60.4073 271.398 60.7539C271.73 60.9271 272.064 61.1895 272.309 61.5625C272.557 61.9331 272.684 62.3975 272.682 62.8259C272.667 63.6633 272.319 64.3275 271.838 64.9989C271.609 65.2973 271.439 65.4273 271.205 65.6246C270.366 66.2984 268.799 67.3116 266.669 68.5461C263.486 70.3847 259.127 72.642 254.648 74.4565C250.157 76.2638 245.59 77.6571 241.781 77.6692C240.894 77.6692 240.046 77.5897 239.243 77.4092C237.966 77.1157 236.971 76.6969 236.211 76.0231C235.444 75.3613 235.028 74.3626 235.048 73.4578C235.06 72.2834 235.545 71.3016 236.12 70.3895C236.997 69.0298 238.197 67.7881 239.159 66.7918C239.639 66.2985 240.06 65.8652 240.327 65.5596L240.572 65.2516L240.577 65.2444L241.409 65.7064H240.476C240.49 65.3454 240.577 65.2661 240.577 65.2444L241.409 65.7064H240.476H241.745L240.627 66.3033L240.476 65.7064H241.745L240.627 66.3033L241.736 65.7113L241.298 66.8976C241.118 66.8375 240.801 66.6378 240.627 66.3033L241.736 65.7113L241.298 66.8976L241.618 66.0337V66.9602L241.298 66.8976L241.618 66.0337V66.9602V66.8567L241.628 66.9602H241.618V66.8567L241.628 66.9602L241.664 66.9578L241.63 66.9602C241.272 66.9963 240.911 67.0131 240.553 67.0131C237.514 67.0011 234.475 65.9592 234.401 65.9423L234.85 64.5922L235.704 65.7305C235.67 65.7546 232.369 68.2309 227.859 70.7625C223.337 73.2869 217.661 75.91 212.555 76.0929L212.117 76.1001C210.672 76.0929 209.537 75.8811 208.609 75.2698C208.153 74.9666 207.77 74.5407 207.535 74.0618C207.297 73.5805 207.205 73.0679 207.205 72.589C207.217 71.47 207.633 70.4857 208.145 69.5327C209.701 66.7171 212.499 64.07 212.543 64.0146L213.526 65.0399L214.387 66.1709C214.37 66.1854 210.908 68.8277 206.756 71.4869C204.679 72.8201 202.431 74.1557 200.325 75.1784C198.202 76.1916 196.288 76.94 194.528 76.9616C193.872 76.9616 193.192 76.8437 192.564 76.4635C192.1 76.1795 191.694 75.7921 191.422 75.318C191.148 74.8464 191.028 74.3096 191.031 73.8163C191.059 72.5096 191.677 71.4748 192.398 70.4641C193.507 68.9673 195.036 67.5595 196.31 66.4789C197.579 65.4056 198.587 64.6813 198.608 64.6669L199.435 65.8219L200.236 66.9988C200.159 67.0397 189.73 74.1845 177.914 76.952C177.329 77.0868 176.793 77.1638 176.279 77.1638C175.457 77.1686 174.594 76.9496 173.961 76.3191C173.331 75.6886 173.134 74.8488 173.139 74.1244C173.146 73.181 173.411 72.2497 173.8 71.2318C175.18 67.7255 178.354 63.1122 181.212 59.2498C184.066 55.4042 186.595 52.3865 186.605 52.3745L187.694 53.2865L188.674 54.3164C188.662 54.3285 182.448 60.2533 175.389 66.1998C171.855 69.1742 168.117 72.1511 164.802 74.4156C163.143 75.5466 161.594 76.502 160.198 77.1927C158.789 77.8785 157.575 78.3406 156.337 78.3574C156.103 78.3574 155.865 78.3381 155.627 78.29C154.632 78.0999 153.733 77.5753 153.192 76.7956C152.646 76.0207 152.476 75.1279 152.476 74.2784C152.48 73.003 152.839 71.7131 153.322 70.4232C154.784 66.5824 157.536 62.7055 157.565 62.655L158.726 63.4732L159.705 64.5056C159.693 64.5152 155.885 68.137 151.574 71.778C149.418 73.5998 147.141 75.4263 145.117 76.8244C144.105 77.5223 143.157 78.1167 142.287 78.5571C141.407 78.9879 140.652 79.3104 139.739 79.3296C139.229 79.3417 138.541 79.1684 138.063 78.639C137.585 78.1144 137.462 77.4767 137.462 76.9376C137.472 76.1555 137.683 75.3758 138.049 74.3963C138.421 73.4241 138.967 72.2714 139.717 70.878C140.873 68.7362 142.703 67.1624 144.71 65.988C147.728 64.2264 151.204 63.3096 153.94 62.7825C155.308 62.5202 156.493 62.3614 157.33 62.2604C157.745 62.2074 158.08 62.1713 158.289 62.1448L158.474 62.1208L158.618 62.9486L158.38 62.1448L158.474 62.1208L158.618 62.9486L158.38 62.1448L158.762 63.4275L158.113 62.2579L158.38 62.1448L158.762 63.4275L158.113 62.2579L158.794 63.4852L157.767 62.5275L158.113 62.2579L158.794 63.4852L157.767 62.5275L158.803 63.4948H157.387C157.387 63.0183 157.62 62.6815 157.767 62.5275L158.803 63.4948L157.755 64.4502C157.599 64.2866 157.385 63.9304 157.387 63.4948H158.803L157.755 64.4502L158.791 63.5069L158.291 64.816C158.195 64.7679 158.046 64.7462 157.755 64.4502L158.791 63.5069L158.291 64.816L158.693 63.7668L158.558 64.8858C158.539 64.8762 158.551 64.9027 158.291 64.816L158.693 63.7668L158.558 64.8858C158.092 64.8304 157.587 64.804 157.048 64.804C154.288 64.7992 150.694 65.5452 146.927 66.7027C141.268 68.433 135.192 71.0585 130.555 73.2484C128.233 74.3434 126.271 75.33 124.888 76.0399C124.198 76.3961 123.653 76.6825 123.282 76.8798C122.91 77.0771 122.717 77.183 122.717 77.183L122.472 77.3178L122.196 77.3491L121.612 77.3828C121.1 77.378 120.556 77.313 120.013 76.9279C119.748 76.7378 119.515 76.4562 119.381 76.1506C119.244 75.8474 119.198 75.5418 119.198 75.2771C119.207 74.6418 119.402 74.1798 119.623 73.7105C120.025 72.9019 120.614 72.0812 121.282 71.2053C122.287 69.9058 123.477 68.5148 124.391 67.3284C124.848 66.7388 125.232 66.1974 125.475 65.7859L125.723 65.3046L125.754 65.2083L126.047 65.2781H125.749L125.754 65.2083L126.047 65.2781H125.749H126.643L125.968 65.8412L125.749 65.2781H126.643L125.968 65.8412L126.569 65.3383L126.393 66.1252L125.968 65.8412L126.569 65.3383L126.393 66.1252H126.396C126.1 66.0602 125.761 66.0241 125.381 66.0241C123.891 66.0145 121.811 66.6065 119.631 67.5667C116.349 68.9961 112.813 71.2005 110.125 73.039C108.778 73.9607 107.641 74.7886 106.843 75.3854C106.446 75.6838 106.131 75.9244 105.918 76.0905L105.598 76.3408L103.826 74.1171L104.119 73.8765C104.792 73.3158 106.511 71.843 108.016 70.2235C108.769 69.4173 109.466 68.5725 109.94 67.8313C110.428 67.095 110.632 66.4452 110.613 66.2575L110.606 66.1877L110.632 66.1781L110.61 66.1949L110.606 66.1877L110.632 66.1781L110.61 66.1949L110.466 66.0987C110.358 66.0433 110.168 65.9736 109.892 65.9182L110.17 64.5224L110.663 65.8581C93.3608 72.269 82.9894 77.2336 77.0392 80.9709C74.0653 82.8335 72.1997 84.3953 71.1395 85.6106C70.0673 86.8331 69.8461 87.6441 69.8509 88.0653C69.8557 88.3613 69.9327 88.5562 70.0937 88.792C70.3318 89.1386 70.8318 89.4875 71.2838 89.7041C71.5098 89.8148 71.7165 89.8966 71.8608 89.9471L72.0242 90L72.0603 90.0097L72.0675 90.0121L72.0747 90.0145L72.0891 90.0193L72.118 90.0266L72.1781 90.0482L72.2887 90.0939L71.6925 91.3838L70.5625 90.5247L92.4256 61.7357L93.5555 62.5948L93.4065 64.0099L93.2814 63.9978C93.0074 63.9762 92.303 63.9256 91.3269 63.9256C89.055 63.9208 85.295 64.2096 82.059 65.6295C80.4386 66.337 78.9553 67.314 77.7917 68.6448C76.6281 69.9804 75.7578 71.6721 75.3732 73.9511L73.9716 73.7177L74.2937 72.3339C74.4043 72.3604 74.5822 72.3821 74.8106 72.3821C75.7771 72.3917 77.5176 71.9706 79.4217 71.2269C82.2946 70.1224 85.6364 68.3392 88.1799 66.5511C89.4493 65.6583 90.5239 64.7607 91.2259 63.9954C91.5769 63.6152 91.8318 63.2686 91.9736 63.0087C92.1227 62.7488 92.1347 62.5948 92.1347 62.5948H93.5555L92.5434 63.5935C91.9231 62.9654 90.9999 62.6261 89.5815 62.6189C87.5717 62.6093 84.7685 63.3962 81.7417 64.6524C77.1859 66.5295 72.0891 69.398 67.7329 71.8093C65.5523 73.0174 63.5545 74.1099 61.862 74.9185C61.0158 75.3252 60.2441 75.6597 59.5421 75.9052C58.8352 76.1458 58.2126 76.3167 57.5346 76.3239C57.1139 76.3215 56.6163 76.2517 56.1306 75.9197C55.6378 75.59 55.3277 74.9883 55.27 74.4901L55.2339 73.9944C55.2555 72.6468 55.9311 71.6047 56.6908 70.6855C57.8544 69.3114 59.4218 68.1153 60.6696 67.095C61.2898 66.5896 61.8284 66.1324 62.1553 65.7931L62.4559 65.4345L62.4655 65.4152L62.9992 65.6848H62.4174L62.4655 65.4152L62.9992 65.6848H62.4174H63.2949L62.7371 66.3827C62.6169 66.3177 62.3957 65.9495 62.4174 65.6848H63.2949L62.7371 66.3827L63.016 66.0313L62.7924 66.4236L62.7371 66.3827L63.016 66.0313L62.7924 66.4236L62.8189 66.3779L62.7972 66.426L62.7924 66.4236L62.8189 66.3779L62.7972 66.426L62.6073 66.3682L62.6482 66.3779L62.6097 66.3682L62.2707 66.3466C61.5158 66.3394 59.9171 66.5728 57.8784 67.0035C50.6925 68.51 37.6766 72.334 26.5143 75.7728C20.9295 77.4935 15.7991 79.1203 12.0655 80.3139C8.33193 81.5099 6.00234 82.2704 5.99753 82.2728L5.55519 80.9204L5.31957 79.5198C5.31957 79.5198 5.94705 79.4115 7.06015 79.2045C10.9572 78.4826 20.742 76.5308 29.4785 73.7537C33.842 72.37 37.9459 70.7697 40.8572 69.0732C42.3093 68.2285 43.4585 67.3573 44.1822 66.5511C44.9154 65.7353 45.1847 65.0567 45.1823 64.4888C45.1799 64.2241 45.1246 64.0411 44.9875 63.8197C44.7591 63.4371 44.1533 62.9414 43.1388 62.5178C41.6266 61.8705 39.3114 61.3988 36.5996 61.122C33.8853 60.8405 30.7672 60.7346 27.5697 60.7346C19.1793 60.7346 10.3057 61.4493 6.17064 61.4517C5.45181 61.4517 4.87481 61.4325 4.38197 61.3699C4.12954 61.3314 3.90594 61.2977 3.60302 61.1774C3.45156 61.1124 3.26648 61.0282 3.04289 60.814C2.82172 60.6167 2.56926 60.1835 2.57888 59.719C2.57888 59.4062 2.67507 59.1463 2.77363 58.9658C3.09579 58.4484 3.34821 58.357 3.58622 58.1981C4.49979 57.6807 5.81481 57.2067 7.57703 56.6556C13.6931 54.7593 24.9155 52.2758 34.6666 50.2447C44.4105 48.216 52.6471 46.6566 52.6519 46.6566L53.1808 49.4505Z" fill="#EF2E31"/>
<path d="M67.2095 60.2588C67.2095 60.2588 70.2699 60.4922 70.2699 61.9072C70.7411 60.1409 78.7492 56.3699 78.7492 56.3699C78.7492 56.3699 67.2095 57.4287 67.2095 60.2588ZM160.262 57.5181L211.982 57.1547L211.996 59.051L160.276 59.4144" fill="#EF2E31"/>
</svg>
