<svg width="170" height="147" viewBox="0 0 170 147" fill="none" xmlns="http://www.w3.org/2000/svg">
<path d="M94.7247 108.56H134.476C134.476 108.56 133.703 89.8761 133.207 82.3706C132.712 74.8648 131.939 70.1206 131.939 70.1206H93.8789L94.7247 108.56Z" fill="#F5BFCF"/>
<path d="M103.184 108.56H134.9C134.9 108.56 134.127 89.8761 133.631 82.3706C133.136 74.8648 132.363 70.1206 132.363 70.1206H110.373L103.184 108.56Z" fill="#F39AB8"/>
<path d="M126.442 88.707H117.139C117.139 88.707 116.887 75.7216 122.213 76.0346C127.427 76.341 126.442 88.707 126.442 88.707Z" fill="white"/>
<path d="M127.711 108.56H134.9C134.9 108.56 135.6 104.214 136.592 102.647C137.583 101.079 140.398 100.535 140.398 100.535L141.243 80.6812H131.094L127.711 108.56Z" fill="#F8FE0A"/>
<path d="M149.703 108.983H146.743C146.743 108.983 146.32 105.076 145.051 103.069C143.783 101.063 139.977 100.535 139.977 100.535L140.822 80.6812L148.434 81.1036L149.703 108.983Z" fill="#AAD224"/>
<path d="M137.016 87.8621H133.633V92.0862H137.016V87.8621Z" fill="white"/>
<path d="M148.432 81.1035L140.82 67.1638V80.6811L148.432 81.1035Z" fill="#0A9ACF"/>
<path d="M140.82 80.6811H131.094L140.82 67.1638V80.6811Z" fill="#057AC0"/>
<path d="M140.82 67.1637V62.0947L152.238 66.319L140.82 67.1637Z" fill="#F85493"/>
<path fill-rule="evenodd" clip-rule="evenodd" d="M133.512 80.681H131.094L133.26 77.6711C133.346 78.6027 133.431 79.6083 133.512 80.681Z" fill="#03304B"/>
<path fill-rule="evenodd" clip-rule="evenodd" d="M133.512 80.6812H131.094L127.711 108.56H134.9C134.9 108.56 134.127 89.8762 133.631 82.3708C133.593 81.7908 133.554 81.2272 133.512 80.6812Z" fill="#F49408"/>
<path d="M111.641 50.2672V41.3965L130.671 45.6206L111.641 50.2672Z" fill="#003EFF" stroke="#0034D5" stroke-width="0.5"/>
<path d="M110.371 70.1208L111.64 50.2673C111.64 50.2673 120 51.5346 124.749 56.1811C129.498 60.8277 132.361 70.1208 132.361 70.1208H110.371Z" fill="#E9498F"/>
<path d="M93.8789 70.1208H110.371L111.64 50.2673C111.64 50.2673 106.296 50.2673 102.337 54.4915C98.3776 58.7156 93.8789 70.1208 93.8789 70.1208Z" fill="#FB0400"/>
<path d="M103.194 108.56L93.8906 70.5432L94.7271 108.56H103.194Z" fill="#E6468C"/>
<path d="M89.2305 91.2413L93.8822 70.1206L94.728 108.56L89.2305 91.2413Z" fill="#D11400"/>
<path d="M85.846 108.56L89.229 91.2414L70.1992 21.9656L93.8808 22.8104V70.1207L89.229 91.2414L94.7265 108.56H85.846Z" fill="#E16B07"/>
<path d="M66.8177 21.9656H70.2008L89.2306 91.2414L85.8475 108.56C85.8475 108.56 87.2177 87.547 78.6585 87.8621C70.2014 88.1739 72.3152 108.56 72.3152 108.56H63.0117L66.8177 21.9656Z" fill="#FFBC01"/>
<path d="M89.2308 31.2585H85.8477V37.1724H89.2308V31.2585Z" fill="white"/>
<path d="M74.0042 54.9138H70.6211V60.8276H74.0042V54.9138Z" fill="white"/>
<path d="M97.6882 22.8103L64.7031 21.9655L65.5489 0H69.7778V4.64655H72.738V0H76.5439V5.91379H79.927V0.844828H84.1559V6.75862L87.539 7.60345V2.11207L91.7678 2.9569V7.60345H95.1509V2.9569H99.3798L97.6882 22.8103Z" fill="#057AC0"/>
<path d="M64.7033 72.2327L67.2405 108.56H63.0117L64.7033 72.2327Z" fill="#097307"/>
<path d="M64.7001 73.0776H54.5508L55.3966 107.716L63.0085 108.56L64.7001 73.0776Z" fill="#0A9ACF"/>
<path d="M43.9805 72.6553L54.5526 73.0777L55.3984 107.716L43.9805 72.6553Z" fill="#115110"/>
<path d="M41.0195 107.293L43.9797 72.6553L55.3976 107.716L41.0195 107.293Z" fill="#0A1F0A"/>
<path d="M59.6253 87.8621C61.4937 87.8621 63.0084 86.3492 63.0084 84.4828C63.0084 82.6165 61.4937 81.1035 59.6253 81.1035C57.7568 81.1035 56.2422 82.6165 56.2422 84.4828C56.2422 86.3492 57.7568 87.8621 59.6253 87.8621Z" fill="white"/>
<path d="M50.7466 51.5344L43.9805 72.6551L54.5526 73.0775L50.7466 51.5344Z" fill="#AAD224"/>
<path d="M64.7013 73.0775L50.7461 51.5344L54.5521 73.0775H64.7013Z" fill="#0A3F0A"/>
<path d="M50.7461 43.5085V51.5344L63.0098 47.3103L50.7461 43.5085Z" fill="#FFBA00"/>
<path d="M45.6713 85.75L43.134 81.9482L41.0195 107.293H46.517L45.6713 85.75Z" fill="#081408"/>
<path d="M42.7109 85.75H31.293L32.1387 107.293H41.0193L42.7109 85.75Z" fill="#FFBA00"/>
<path d="M31.293 85.7501C32.7026 81.6668 35.6064 73.4156 35.9447 73.0776L39.3278 85.7501H31.293Z" fill="#FFB6D3"/>
<path d="M43.1344 81.9483L35.9453 73.0776L39.3284 85.7501H42.7115L43.1344 81.9483Z" fill="#F25099"/>
<path d="M35.9453 67.5862V73.0776L43.1344 70.5431L35.9453 67.5862Z" fill="#08B4E0"/>
<path d="M23.2578 67.5862V72.6551L30.4469 70.5431L23.2578 67.5862Z" fill="#08B4E0"/>
<path d="M16.9141 85.75H31.2922L32.1379 107.293L16.9141 108.56V85.75Z" fill="#F96F14"/>
<path d="M23.2574 72.6553L16.9141 85.7501H23.2574V72.6553Z" fill="#FFB6D3"/>
<path d="M31.2926 85.7501L23.2578 72.6553V85.7501H31.2926Z" fill="#F25099"/>
<path d="M8.13687 127.991L7.90598 131.912C8.01593 131.846 8.45573 131.802 9.22541 131.78C9.99506 131.737 10.5008 131.737 10.7427 131.78L11.9632 132.341C12.271 132.538 12.6339 132.879 13.0517 133.362C13.3156 133.933 12.9967 134.372 12.0951 134.68C11.2375 134.812 10.6877 134.878 10.4459 134.878L7.84001 135.009V136.525C7.97195 139.227 8.03792 140.797 8.03792 141.237C8.14787 141.896 8.20284 142.291 8.20284 142.423V143.148C8.20284 143.565 8.14787 143.829 8.03792 143.938C7.77404 144.268 7.60911 144.444 7.54314 144.466C6.64155 144.817 5.68498 144.597 4.67344 143.807L4.14568 143.115C4.14568 143.027 4.07971 142.697 3.94777 142.126C3.96976 142.06 3.8818 141.698 3.68389 141.039C3.68389 140.907 3.70588 140.742 3.74986 140.545C3.81583 140.347 3.84881 140.127 3.84881 139.886C3.84881 139.644 3.79384 139.391 3.68389 139.128C3.68389 138.842 3.6619 138.59 3.61792 138.37V138.041C3.6619 137.799 3.68389 137.546 3.68389 137.283C3.70588 136.997 3.73886 136.723 3.78284 136.459C3.84881 136.174 3.85981 135.91 3.81583 135.668V135.569C3.50797 135.416 3.27707 135.35 3.12314 135.372C2.9912 135.394 2.83727 135.328 2.66135 135.174C2.50742 134.998 2.41946 134.834 2.39747 134.68C2.37548 134.526 2.60638 134.219 3.09016 133.757C3.13414 133.669 3.39802 133.516 3.8818 133.296V132.637L4.04672 130.792C3.98075 130.199 3.98075 129.749 4.04672 129.441C4.11269 129.134 4.12369 128.881 4.07971 128.683L4.27762 127.958C3.17812 128.156 2.38648 128.2 1.90269 128.09C1.48488 127.893 1.26498 127.574 1.24299 127.135C1.221 127.113 1.27598 126.794 1.40792 126.179C1.34195 125.872 1.60583 125.487 2.19956 125.026C2.68334 124.806 3.14513 124.653 3.58493 124.565C4.42056 124.279 5.16822 124.093 5.82792 124.005C7.12533 123.785 8.16986 123.598 8.96153 123.445L10.5118 122.884C10.8637 122.687 11.1056 122.599 11.2375 122.621C11.3914 122.643 11.6113 122.599 11.8972 122.489C11.9412 122.379 12.1941 122.28 12.6559 122.193C13.6014 122.017 14.1512 122.116 14.3051 122.489C14.503 122.533 14.7669 122.687 15.0967 122.95C15.1627 122.972 15.4156 123.401 15.8554 124.235C15.9214 124.411 15.8884 124.598 15.7565 124.795C15.6245 124.971 15.4156 125.07 15.1297 125.092L14.2391 125.421C13.9753 125.443 13.6014 125.564 13.1176 125.784C12.2161 126.025 11.7103 126.146 11.6003 126.146C11.4904 126.146 11.3804 126.157 11.2705 126.179C10.9406 126.245 10.5888 126.333 10.215 126.443C9.84113 126.553 9.52227 126.608 9.25839 126.608C8.64267 126.739 8.3018 126.893 8.23583 127.069C8.21384 127.113 8.20284 127.179 8.20284 127.267L8.13687 127.662V127.991ZM20.851 135.569C20.895 135.526 21.1479 135.482 21.6097 135.438C22.0935 135.372 22.6542 135.174 23.2919 134.845C23.3139 134.845 23.3029 134.581 23.2589 134.054C23.193 133.131 23.138 132.472 23.094 132.077C23.05 131.55 23.0061 131.176 22.9621 130.957C22.9621 130.539 22.7972 129.672 22.4673 128.354L21.016 133.263C20.7081 134.625 20.5872 135.46 20.6531 135.767L20.851 135.569ZM16.3981 136.525L16.596 135.075C16.596 134.79 16.6399 134.504 16.7279 134.219C16.7279 133.845 16.9148 133.285 17.2886 132.538C17.2886 132.494 17.3876 132.209 17.5855 131.682C17.5855 131.638 17.7944 130.99 18.2122 129.738L18.6081 128.782C18.6081 128.694 18.663 128.53 18.773 128.288C18.8829 128.024 18.9599 127.772 19.0039 127.53C19.0698 127.267 19.1468 127.014 19.2348 126.772C19.5426 126.179 19.8175 125.674 20.0594 125.257C20.5212 124.378 21.3788 123.983 22.6322 124.071L23.6878 124.169C24.3475 124.345 24.8532 124.532 25.2051 124.73C25.7108 124.927 26.0517 125.147 26.2276 125.388C26.4035 125.608 26.4805 125.982 26.4585 126.509C26.4805 126.772 26.5465 127.915 26.6564 129.935C26.7664 131.956 26.8213 132.978 26.8213 133L26.9863 134.416C26.9863 134.548 27.2282 136.13 27.7119 139.161L28.4376 141.467C28.8774 142.697 29.1083 143.345 29.1303 143.411C29.1743 143.455 29.2732 143.686 29.4272 144.103C29.669 144.828 29.4601 145.311 28.8004 145.553C28.2067 145.641 27.7669 145.586 27.481 145.388C27.3711 145.388 27.1182 145.289 26.7224 145.092C26.6784 144.982 26.5465 144.872 26.3266 144.762C26.1286 144.674 25.9967 144.597 25.9307 144.531C25.6888 144.466 25.4689 144.125 25.271 143.51C25.2051 143.466 25.0841 143.29 24.9082 142.983C24.7543 142.675 24.7103 142.423 24.7763 142.225C24.6223 142.027 24.5454 141.621 24.5454 141.006C24.3475 140.676 24.2485 140.16 24.2485 139.457C24.2485 138.754 24.1385 138.205 23.9186 137.81C22.7972 138.315 21.5987 138.59 20.3233 138.634C20.0814 138.634 19.9604 138.678 19.9604 138.765C19.9604 138.963 19.8945 139.315 19.7625 139.82L19.2018 143.444C19.4217 145.07 19.2238 145.926 18.6081 146.014C18.4321 146.014 18.1353 146.058 17.7175 146.146C17.3216 146.234 16.9918 146.157 16.7279 145.915C16.2221 145.63 15.8593 145.333 15.6394 145.026C15.4415 144.74 15.3535 144.411 15.3755 144.037C15.3975 143.73 15.4525 143.071 15.5404 142.06C15.5844 142.016 15.5954 141.775 15.5734 141.335C15.5734 140.874 15.6064 140.523 15.6724 140.281L16.2001 138.238C16.2661 138.194 16.3541 137.865 16.464 137.25C16.442 137.206 16.431 137.096 16.431 136.92L16.3981 136.525ZM34.995 123.708L35.3908 123.675C35.5227 123.675 35.7756 123.631 36.1494 123.543C36.5233 123.456 37.2599 123.357 38.3594 123.247C39.239 123.401 39.9537 123.565 40.5035 123.741C41.559 124.334 42.2297 124.949 42.5155 125.586C42.6915 125.762 42.7794 125.872 42.7794 125.916C42.7794 125.96 42.8014 126.015 42.8454 126.08C43.3292 127.42 43.5051 128.376 43.3732 128.947C43.3292 129.43 43.3512 129.716 43.4391 129.804C43.4831 129.957 43.4281 130.111 43.2742 130.265C43.1423 130.419 42.9114 130.528 42.5815 130.594C42.4496 130.66 42.2737 130.704 42.0538 130.726C41.526 130.88 41.1852 130.902 41.0312 130.792C40.5474 130.748 40.2506 130.495 40.1406 130.034L39.9097 129.573C39.7778 129.331 39.7118 129.035 39.7118 128.683L39.5799 127.497C39.5359 127.453 39.4809 127.365 39.415 127.234C39.195 126.772 39.0301 126.476 38.9202 126.344C38.2605 125.839 37.4468 125.861 36.4793 126.41C36.1054 127.069 35.9185 127.519 35.9185 127.761L35.5887 128.716C35.5447 128.804 35.5337 128.947 35.5557 129.145C35.4677 129.979 35.5227 130.605 35.7206 131.023C35.7206 131.242 35.9075 131.561 36.2814 131.978L37.04 132.637C37.4798 132.879 37.6997 133.032 37.6997 133.098L38.4584 133.461L38.7552 133.757C39.8328 134.35 40.4155 134.79 40.5035 135.075L41.592 136.327L42.0867 137.349C42.1527 137.459 42.2297 137.81 42.3176 138.403C42.4056 138.974 42.4276 139.37 42.3836 139.589C42.4716 139.787 42.4606 140.127 42.3506 140.611C42.4606 141.006 42.3066 141.566 41.8888 142.291C41.8888 142.357 41.7349 142.609 41.427 143.049C41.1192 143.466 40.8333 143.807 40.5694 144.07C40.3055 144.312 39.8877 144.619 39.316 144.993C39.206 145.212 38.7003 145.366 37.7987 145.454C37.5128 145.586 37.2159 145.564 36.9081 145.388C36.6882 145.432 36.4903 145.421 36.3144 145.355C36.1604 145.289 35.8526 145.19 35.3908 145.059L34.5991 144.993L34.0054 144.762C33.9394 144.652 33.4886 144.312 32.653 143.741C32.4771 143.741 32.3122 143.631 32.1582 143.411C32.0263 143.17 31.8834 142.95 31.7294 142.752C31.4216 142.401 31.2676 142.038 31.2676 141.665C31.1357 141.445 31.1357 141.171 31.2676 140.841C31.6415 140.007 32.3781 139.787 33.4776 140.182C33.9614 140.468 34.2913 140.698 34.4672 140.874L35.7866 141.961C36.6442 142.445 37.3589 142.467 37.9306 142.027L38.3924 141.302C38.4364 141.149 38.4584 140.841 38.4584 140.38C38.4584 139.919 38.4364 139.6 38.3924 139.424C38.3484 139.227 38.2165 138.919 37.9966 138.502C37.7107 138.107 37.5568 137.887 37.5348 137.843L37.007 137.349C36.8971 137.327 36.7542 137.283 36.5782 137.217C36.4243 137.151 36.3254 137.107 36.2814 137.085C36.2594 137.063 36.1274 137.008 35.8855 136.92C35.6437 136.811 35.3578 136.536 35.0279 136.097C35.0059 136.097 34.863 136.02 34.5991 135.866C34.5112 135.822 34.1923 135.613 33.6426 135.24C33.2907 135.108 33.0598 134.878 32.9499 134.548L32.4221 134.054C32.4221 133.878 32.3781 133.746 32.2902 133.658C32.2022 133.571 32.1472 133.505 32.1253 133.461C32.1253 133.395 32.1143 133.34 32.0923 133.296C32.0263 132.989 31.9713 132.769 31.9273 132.637C31.7954 132.527 31.6854 132.341 31.5975 132.077C31.5095 131.813 31.4765 131.583 31.4985 131.385C31.3886 131.209 31.3556 130.759 31.3996 130.034V129.441C31.3996 128.958 31.4326 128.606 31.4985 128.387C31.6745 128.189 31.7294 127.86 31.6635 127.398C31.6635 127.332 31.6964 127.256 31.7624 127.168L32.4881 125.751C32.576 125.663 32.686 125.564 32.8179 125.454C32.9719 125.323 33.1258 125.125 33.2797 124.861L34.0714 124.202C34.0714 124.136 34.2473 124.016 34.5991 123.84C34.7751 123.796 34.907 123.752 34.995 123.708ZM60.4146 133.263L60.3156 135.932V136.163C60.2937 136.36 60.2827 136.569 60.2827 136.789C60.3486 137.118 60.3706 137.327 60.3486 137.415C60.3486 137.48 60.3486 137.601 60.3486 137.777C60.3486 137.931 60.3156 138.161 60.2497 138.469L60.3816 138.93C60.3816 138.996 60.3926 139.139 60.4146 139.359C60.4586 139.556 60.4586 139.71 60.4146 139.82C60.3926 139.93 60.3926 140.182 60.4146 140.578C60.4586 140.951 60.4806 141.171 60.4806 141.237V141.566L60.5465 142.126C60.7225 142.785 60.7884 143.257 60.7444 143.543V144.334C60.7444 144.839 60.5136 145.114 60.0518 145.157L59.458 145.092C59.1942 145.026 58.6664 144.762 57.8748 144.301C57.4569 143.818 57.226 143.466 57.1821 143.246C57.1601 143.027 57.1051 142.829 57.0171 142.653C56.8412 142.236 56.7752 141.753 56.8192 141.204C56.7533 140.611 56.7313 140.27 56.7533 140.182C56.6653 139.919 56.6213 139.754 56.6213 139.688L56.7533 139.194C56.7093 138.601 56.6543 138.139 56.5883 137.81C56.5224 137.459 56.5334 136.997 56.6213 136.426C56.4014 136.294 56.1155 136.261 55.7637 136.327L55.4009 136.36C55.225 136.36 54.7742 136.426 54.0485 136.558C53.6527 136.558 53.3448 136.558 53.1249 136.558C52.905 136.558 52.7401 136.547 52.6301 136.525C52.4982 136.503 52.3113 136.393 52.0694 136.196C51.7175 136.086 51.4427 135.998 51.2448 135.932C51.0468 135.844 50.9149 135.789 50.8489 135.767C50.805 135.723 50.717 135.723 50.585 135.767C50.585 136.053 50.629 136.635 50.717 137.513L50.684 137.744C50.684 138.008 50.662 138.293 50.618 138.601L50.651 138.93L50.618 139.49V140.116C50.706 140.204 50.695 140.369 50.585 140.611V141.335C50.4971 141.994 50.4421 142.39 50.4201 142.522L50.4531 143.115L50.3542 143.675C50.3542 143.982 50.2882 144.213 50.1562 144.367C50.0243 144.52 49.8704 144.608 49.6945 144.63C49.5405 144.652 49.3096 144.663 49.0018 144.663C48.7159 144.663 48.496 144.685 48.3421 144.729L47.5504 144.663L47.1216 144.4C46.9017 144.312 46.7918 144.235 46.7918 144.169C46.5719 143.949 46.385 143.653 46.231 143.279C46.1211 142.84 46.1101 142.533 46.198 142.357C46.0881 142.093 46.0771 141.896 46.1651 141.764C46.0771 141.368 46.0331 141.127 46.0331 141.039C46.0331 140.951 46.0111 140.863 45.9671 140.775L46.0661 140.05C46.0661 139.875 46.0551 139.732 46.0331 139.622C46.0551 139.534 46.0661 139.391 46.0661 139.194L46.1321 137.711L46.297 137.217C46.231 137.085 46.198 136.931 46.198 136.756C46.198 136.558 46.231 136.327 46.297 136.064C46.297 135.756 46.352 135.196 46.4619 134.383C46.5719 133.571 46.6708 133.109 46.7588 133C46.6708 132.956 46.6268 132.835 46.6268 132.637L46.7918 130.924C46.8577 130.77 46.8907 130.638 46.8907 130.528C46.8248 130.287 46.8138 130.089 46.8577 129.935C46.9237 129.76 46.9457 129.617 46.9237 129.507C46.9017 129.375 46.9347 129.189 47.0227 128.947C47.1106 128.705 47.1216 128.53 47.0556 128.42C47.1876 128.024 47.2536 127.75 47.2536 127.596C47.2975 127.464 47.3195 127.299 47.3195 127.102C47.5394 126.509 47.6164 125.971 47.5504 125.487C47.5944 125.29 47.7153 125.092 47.9133 124.894C47.9133 124.872 47.9352 124.795 47.9792 124.664C48.0232 124.51 48.0562 124.378 48.0782 124.268C48.1661 124.114 48.386 123.906 48.7379 123.642L48.9358 123.576C49.3536 123.335 49.8154 123.258 50.3212 123.346C51.1128 123.456 51.4976 123.862 51.4756 124.565C51.5196 124.697 51.5416 124.85 51.5416 125.026V125.257C51.4976 125.388 51.4317 125.784 51.3437 126.443C51.2777 127.08 51.2557 127.497 51.2777 127.695L51.0139 130.1V130.726C50.9259 131.693 50.8929 132.22 50.9149 132.308C50.8929 132.352 50.8819 132.461 50.8819 132.637C51.1898 132.725 52.1683 132.791 53.8176 132.835C55.027 132.989 55.7087 133.12 55.8627 133.23C56.1925 133.23 56.4454 133.252 56.6213 133.296C56.3574 132.593 56.3684 132.143 56.6543 131.945C56.6543 131.242 56.6323 130.693 56.5883 130.298C56.6763 129.485 56.7093 129.013 56.6873 128.881C56.5993 128.683 56.5773 128.562 56.6213 128.519L56.6543 128.09V127.497C56.6983 127.234 56.7203 126.86 56.7203 126.377C56.7423 125.96 56.7752 125.685 56.8192 125.553C56.8852 125.29 56.9182 125.136 56.9182 125.092C57.0941 124.719 57.413 124.444 57.8748 124.268C58.1606 124.071 58.4465 123.994 58.7324 124.038C58.9962 124.016 59.3811 124.158 59.8868 124.466C60.1287 124.488 60.3156 124.51 60.4476 124.532C60.7335 124.576 60.8764 124.894 60.8764 125.487C60.9644 125.927 60.9204 126.234 60.7444 126.41C60.3926 128.694 60.2167 130.067 60.2167 130.528C60.2387 130.968 60.2497 131.407 60.2497 131.846L60.4146 133.263ZM75.0182 125.388C75.0842 125.674 75.0292 125.872 74.8533 125.982C74.6993 126.091 74.5234 126.146 74.3255 126.146C74.1276 126.146 73.6328 126.168 72.8412 126.212C72.3574 126.3 71.8516 126.454 71.3239 126.673H71.2909C71.2909 127.025 71.1809 127.64 70.961 128.519C70.961 128.782 70.8951 129.232 70.7631 129.869C70.7631 130.023 70.7301 130.199 70.6642 130.397C70.5982 130.594 70.5652 130.891 70.5652 131.286C70.4113 132.209 70.3563 132.769 70.4003 132.967C70.2244 133.889 70.1364 134.592 70.1364 135.075C70.1364 135.537 70.0814 135.943 69.9715 136.294V136.657C70.0155 137.491 69.9825 138.085 69.8725 138.436C69.7846 138.787 69.7406 139.084 69.7406 139.326C69.7406 139.567 69.6856 139.941 69.5757 140.446C69.4657 140.951 69.4327 141.555 69.4767 142.258H69.6746C70.2244 142.214 70.5212 142.203 70.5652 142.225C70.6092 142.225 70.7631 142.192 71.027 142.126L71.5548 142.159H71.8846C71.9506 142.159 72.0935 142.247 72.3134 142.423C72.7972 142.818 73.0061 143.126 72.9401 143.345C72.8742 143.543 72.6213 143.807 72.1815 144.136L71.5548 144.334C71.4888 144.422 71.3239 144.509 71.06 144.597C70.8181 144.685 70.6092 144.729 70.4333 144.729C69.9275 144.839 69.6196 145.015 69.5097 145.256C69.4437 145.454 68.9269 145.531 67.9594 145.487H66.8379L66.2112 145.685C65.6614 145.904 65.1776 145.959 64.7598 145.849C64.342 145.74 64.0562 145.652 63.9022 145.586C63.7703 145.542 63.6054 145.432 63.4074 145.256C63.2095 145.103 63.1216 144.905 63.1436 144.663C63.1875 144.444 63.2645 144.136 63.3745 143.741C63.7703 143.433 64.0342 143.246 64.1661 143.181C64.298 143.093 64.5289 143.005 64.8588 142.917C65.1886 142.829 65.6284 142.664 66.1782 142.423C66.1782 141.654 66.1562 141.204 66.1122 141.072C66.1782 141.05 66.2552 140.556 66.3431 139.589C66.3651 139.501 66.3101 139.282 66.1782 138.93V138.733C66.2442 138.074 66.2332 137.48 66.1452 136.953C66.1452 136.931 66.1892 136.525 66.2771 135.734C66.3871 135.602 66.3871 135.229 66.2771 134.614C66.3651 134.153 66.4421 133.812 66.508 133.593L66.541 133.098C66.541 132.967 66.607 132.549 66.7389 131.846L66.8049 131.22C67.1787 129.595 67.4426 128.343 67.5965 127.464C67.4206 127.508 67.3107 127.53 67.2667 127.53L66.1782 127.728C65.3426 127.969 64.6059 127.772 63.9682 127.135C63.4184 126.322 63.4184 125.641 63.9682 125.092C64.2761 124.784 64.6499 124.609 65.0897 124.565C65.5295 124.499 66.0353 124.323 66.607 124.038C66.7829 124.038 67.2997 123.785 68.1573 123.28C68.9489 123.148 69.4217 123.082 69.5757 123.082L71.1589 122.884C71.3568 122.862 71.6207 122.884 71.9506 122.95C72.2804 122.994 72.4783 123.06 72.5443 123.148C72.8742 123.236 73.226 123.379 73.5998 123.576L74.3915 124.334C74.6993 124.817 74.9082 125.169 75.0182 125.388ZM80.391 136.064C80.5229 137.645 80.5889 138.634 80.5889 139.029C80.9847 140.259 81.5344 141.116 82.2381 141.599C82.3041 141.665 82.557 141.775 82.9968 141.929L83.8544 142.093C83.9863 142.093 84.0963 142.049 84.1842 141.961C84.2942 141.939 84.4041 141.874 84.5141 141.764C84.6678 141.566 84.8217 141.39 84.9756 141.237C85.1296 141.083 85.1845 141.006 85.1405 141.006C85.2285 140.918 85.2615 140.775 85.2395 140.578C85.2835 140.534 85.3714 140.38 85.5034 140.116C85.7013 138.886 85.9102 138.096 86.1301 137.744C86.1741 136.624 86.1961 136.009 86.1961 135.899C86.1741 134.932 85.8882 133.801 85.3385 132.505C85.1186 132.286 84.9536 131.319 84.8437 129.606C84.7117 129.276 84.6348 128.991 84.6128 128.749C84.5908 128.486 84.5031 128.189 84.3492 127.86C84.2172 127.53 84.1183 127.31 84.0523 127.201C83.9863 127.091 83.9423 127.003 83.9204 126.937C83.8764 126.564 83.7114 126.333 83.4256 126.245C83.0957 126.113 82.6779 126.509 82.1721 127.431L81.9083 127.86C81.8863 127.969 81.7983 128.156 81.6444 128.42C81.6444 128.464 81.5454 128.881 81.3475 129.672C81.1716 130.441 81.0507 130.957 80.9847 131.22C80.9187 131.484 80.8967 131.66 80.9187 131.747C80.9407 131.835 80.8308 132.286 80.5889 133.098V133.856C80.6109 133.9 80.5779 134.131 80.4899 134.548C80.4239 134.943 80.391 135.449 80.391 136.064ZM79.3684 124.367C79.3904 124.257 79.6213 124.071 80.0611 123.807C80.5229 123.543 80.9187 123.346 81.2486 123.214C82.1721 122.862 83.3706 122.884 84.8437 123.28C85.1076 123.346 85.4594 123.532 85.8992 123.84C85.9432 123.84 85.9982 123.862 86.0641 123.906C86.306 124.038 86.4709 124.125 86.5589 124.169C86.9327 124.367 87.3286 124.817 87.7464 125.52C88.1862 126.223 88.4171 126.717 88.4391 127.003C88.483 127.267 88.615 127.739 88.8349 128.42C89.1647 129.21 89.3297 129.826 89.3297 130.265C89.3516 130.682 89.4286 131.22 89.5605 131.879C89.7145 132.516 89.7804 133.011 89.7585 133.362C89.7585 136.415 89.4506 138.667 88.8349 140.116C88.7029 141.105 88.472 141.731 88.1422 141.994C87.9883 143.093 87.5704 143.807 86.8888 144.136C86.8228 144.202 86.372 144.323 85.5364 144.498C84.2612 144.762 83.3706 144.916 82.8648 144.96C82.3811 145.026 81.8533 144.982 81.2816 144.828C80.7318 144.674 80.38 144.586 80.226 144.564C80.0721 144.564 79.8082 144.455 79.4344 144.235C78.6647 143.774 78.2139 143.4 78.082 143.115L77.7521 142.587C75.905 143.84 75.85 143.719 77.5872 142.225C77.3233 141.983 77.0924 141.566 76.8945 140.973C76.8066 140.512 76.6966 140.182 76.5647 139.985C76.4327 139.699 76.3228 139.446 76.2348 139.227C76.2568 139.073 76.2678 138.798 76.2678 138.403L76.2348 138.074C76.1249 137.722 76.1359 137.404 76.2678 137.118C76.2898 136.964 76.3008 136.789 76.3008 136.591C76.3008 136.393 76.3228 136.042 76.3668 135.537L76.3338 135.108C76.5097 134.493 76.5867 134.054 76.5647 133.79C76.5427 133.505 76.5647 133.109 76.6307 132.604C76.6966 132.099 76.7186 131.715 76.6966 131.451C76.6966 131.165 76.7406 130.913 76.8286 130.693C76.9165 130.452 76.9715 130.298 76.9935 130.232C76.9935 130.188 77.0155 130.111 77.0595 130.001C77.0155 129.452 77.1584 128.936 77.4883 128.453C77.7741 127.728 77.9281 127.31 77.9501 127.201L78.3789 126.245C78.7087 125.388 79.0386 124.762 79.3684 124.367ZM103.028 137.085C102.984 136.975 102.973 136.789 102.995 136.525C103.039 136.261 103.083 135.91 103.127 135.471C103.127 134.79 103.138 134.372 103.16 134.219L103.127 133.56C103.127 133.208 103.138 132.912 103.16 132.67V131.715C103.204 131.517 103.204 131.187 103.16 130.726C103.138 130.265 103.16 129.683 103.226 128.98C103.292 128.255 103.347 127.816 103.391 127.662V127.003C103.391 126.937 103.402 126.706 103.424 126.311V126.08C103.446 125.751 103.435 125.553 103.391 125.487L103.687 124.268L103.819 123.576C103.863 123.488 104.028 123.302 104.314 123.016C104.38 122.95 104.633 122.917 105.073 122.917C105.513 122.917 105.842 122.928 106.062 122.95C106.282 122.972 106.425 123.038 106.491 123.148C106.557 123.236 106.623 123.434 106.689 123.741C106.821 124.027 106.854 124.389 106.788 124.828C106.81 124.96 106.821 125.059 106.821 125.125V125.454C106.887 125.894 106.876 126.344 106.788 126.805C106.788 126.981 106.799 127.157 106.821 127.332V127.629C106.821 128.068 106.788 128.453 106.722 128.782V129.606C106.744 129.891 106.711 130.166 106.623 130.43C106.623 130.517 106.612 130.781 106.59 131.22C106.546 131.374 106.502 131.561 106.458 131.78C106.524 131.956 106.524 132.187 106.458 132.472C106.392 132.538 106.414 132.802 106.524 133.263C106.436 133.549 106.447 134.065 106.557 134.812V135.471C106.623 136.174 106.612 136.865 106.524 137.546V137.744C106.524 138.183 106.502 138.502 106.458 138.7C106.502 139.073 106.502 139.545 106.458 140.116V140.314L106.392 141.105C106.15 142.664 105.447 143.554 104.281 143.774C102.852 144.037 101.719 143.653 100.884 142.62L100.686 142.126C100.444 142.082 100.125 141.577 99.7293 140.611C99.1135 139.139 98.7727 138.326 98.7067 138.172C98.3989 137.316 98.2449 136.854 98.2449 136.789L98.179 136.163C98.157 136.119 98.113 136.031 98.047 135.899C97.981 135.767 97.9261 135.635 97.8821 135.504C97.8821 135.35 97.8051 135.02 97.6512 134.515C97.6512 134.471 97.5962 134.197 97.4863 133.691L97.0904 130.759C97.0904 130.693 97.0795 130.583 97.0575 130.43L96.9255 131.154C96.7716 132.626 96.6616 133.516 96.5957 133.823L96.4307 137.151V138.469L96.3318 140.083C96.3318 140.896 96.3648 141.654 96.4307 142.357C96.4088 142.994 96.2878 143.422 96.0679 143.642C95.848 143.84 95.5182 143.949 95.0784 143.971C94.7705 143.883 94.3527 143.719 93.8249 143.477C93.671 143.389 93.561 143.213 93.4951 142.95C93.4511 142.664 93.3301 142.423 93.1322 142.225C92.9343 142.027 92.8244 141.808 92.8024 141.566L92.4066 139.062C92.4066 138.711 92.4176 138.348 92.4396 137.975C92.4835 137.579 92.4835 137.173 92.4396 136.756C92.4176 136.338 92.4725 135.855 92.6045 135.306C92.7584 134.757 92.8244 134.295 92.8024 133.922C92.7804 133.527 92.8024 133.032 92.8684 132.439C92.9343 131.824 92.9673 131.385 92.9673 131.121C92.9673 130.836 93.0003 130.616 93.0663 130.463C93.0663 130.111 93.0883 129.836 93.1322 129.639C93.1103 129.573 93.1762 129.243 93.3301 128.65C93.3301 128.497 93.3631 128.266 93.4291 127.958C93.4951 127.651 93.561 127.234 93.627 126.706C93.693 126.179 93.8139 125.751 93.9899 125.421C94.1658 125.092 94.4407 124.719 94.8145 124.301C95.0124 124.191 95.1883 123.906 95.3422 123.445C95.4962 123.225 95.782 123.016 96.1999 122.819C96.3538 122.709 96.5517 122.654 96.7936 122.654C97.0575 122.654 97.2994 122.731 97.5193 122.884C98.3769 123.214 98.9046 123.796 99.1025 124.631L99.2345 125.454C99.2345 125.586 99.3334 125.883 99.5313 126.344C99.5313 126.564 99.5753 126.882 99.6633 127.299C99.6633 127.607 99.7402 127.925 99.8942 128.255C100.114 129.375 100.279 130.155 100.389 130.594C100.499 130.748 100.587 130.957 100.653 131.22C100.697 131.418 100.785 131.715 100.917 132.11C100.961 132.483 101.06 132.912 101.214 133.395C102.115 136.338 102.676 137.997 102.896 138.37C102.94 138.282 102.962 138.008 102.962 137.546L103.028 137.085ZM114.808 133.395C114.83 132.868 114.83 132.549 114.808 132.439C114.808 132.33 114.808 132.253 114.808 132.209L114.907 131.319C114.907 130.99 114.885 130.737 114.841 130.561C114.863 130.474 114.874 130.298 114.874 130.034C114.918 129.946 114.94 129.826 114.94 129.672C114.94 129.496 114.995 128.859 115.105 127.761C114.621 127.871 114.302 127.947 114.148 127.991L112.829 128.057C112.235 128.233 111.806 128.321 111.542 128.321C110.926 128.497 110.564 128.573 110.454 128.552C109.904 128.595 109.541 128.552 109.365 128.42C109.123 128.134 109.002 127.728 109.002 127.201C108.914 126.739 108.903 126.432 108.969 126.278C109.211 125.949 109.365 125.762 109.431 125.718C109.519 125.652 109.717 125.586 110.025 125.52C110.333 125.454 110.63 125.301 110.915 125.059L112.697 124.334C112.697 124.334 112.95 124.29 113.455 124.202C113.983 124.093 114.379 123.972 114.643 123.84C114.753 123.84 114.995 123.807 115.368 123.741C115.742 123.675 115.973 123.653 116.061 123.675C116.149 123.675 116.303 123.609 116.523 123.477L118.634 123.28C118.656 123.302 118.777 123.324 118.997 123.346C119.327 123.39 119.733 123.335 120.217 123.181C120.569 123.225 120.866 123.236 121.108 123.214C121.218 123.258 121.548 123.192 122.097 123.016C122.229 123.016 122.35 123.005 122.46 122.983C122.57 122.939 122.823 122.873 123.219 122.786C123.461 122.786 123.659 122.84 123.813 122.95C123.923 122.928 124.043 122.994 124.175 123.148C124.329 123.302 124.483 123.51 124.637 123.774C124.989 124.301 125.198 124.609 125.264 124.697C125.55 125.158 125.737 125.63 125.825 126.113C125.913 126.289 125.935 126.41 125.891 126.476C125.847 126.542 125.693 126.597 125.429 126.641C125.319 126.553 125.187 126.52 125.033 126.542C124.879 126.542 124.406 126.597 123.615 126.706L123.054 126.673C122.526 126.805 121.855 126.871 121.042 126.871L118.997 126.937L118.799 127.036C118.667 128.661 118.623 129.716 118.667 130.199C118.777 131.034 118.81 131.473 118.766 131.517V132.176C118.986 136.13 119.107 138.183 119.129 138.337C119.173 138.491 119.195 138.798 119.195 139.26L119.426 141.929C119.558 142.082 119.634 142.335 119.656 142.686C119.678 143.148 119.558 143.422 119.294 143.51C118.832 143.664 118.458 143.807 118.172 143.938C117.886 144.048 117.435 144.059 116.82 143.971C116.82 143.905 116.567 143.796 116.061 143.642C116.061 143.62 115.918 143.455 115.632 143.148C115.544 143.038 115.5 142.884 115.5 142.686C115.368 142.159 115.302 141.456 115.302 140.578C115.17 139.963 115.149 139.501 115.236 139.194C115.214 139.172 115.138 138.798 115.006 138.074V136.854C115.006 136.679 114.951 136.503 114.841 136.327L114.808 135.306V133.395ZM129.834 136.986L129.933 139.952C130.285 141.204 130.802 142.082 131.484 142.587C131.594 142.697 131.847 142.818 132.242 142.95L133.067 143.148C133.177 143.148 133.298 143.104 133.43 143.016C133.584 142.972 133.694 142.917 133.76 142.851C133.914 142.653 134.068 142.478 134.221 142.324C134.375 142.17 134.441 142.093 134.419 142.093C134.507 142.005 134.54 141.863 134.518 141.665C134.584 141.599 134.672 141.456 134.782 141.237C135.024 140.007 135.266 139.216 135.508 138.864C135.596 137.898 135.64 137.283 135.64 137.019C135.64 136.097 135.398 134.965 134.914 133.626C134.65 133.318 134.518 132.341 134.518 130.693C134.386 130.364 134.309 130.067 134.287 129.804C134.265 129.518 134.189 129.221 134.057 128.914C133.947 128.584 133.859 128.365 133.793 128.255C133.727 128.145 133.683 128.046 133.661 127.958C133.661 127.849 133.617 127.717 133.529 127.563C133.177 127.036 132.638 127.321 131.913 128.42L131.352 129.408C131.352 129.452 131.242 129.858 131.022 130.627C130.67 131.857 130.494 132.549 130.494 132.703C130.516 132.835 130.395 133.285 130.131 134.054C130.109 134.12 130.098 134.274 130.098 134.515C130.12 134.757 130.076 135.097 129.966 135.537C129.878 135.954 129.834 136.437 129.834 136.986ZM126.074 134.581L126.305 132.143C126.305 132.011 126.349 131.813 126.437 131.55C126.547 131.286 126.613 131.121 126.635 131.056C126.635 131.012 126.657 130.935 126.701 130.825C126.701 130.232 126.866 129.716 127.196 129.276C127.701 128.112 128.086 127.245 128.35 126.673C128.614 126.102 128.9 125.63 129.208 125.257C129.23 125.147 129.461 124.971 129.9 124.73C130.802 124.246 131.649 124.005 132.44 124.005C133.232 124.005 133.991 124.125 134.716 124.367C134.958 124.411 135.277 124.576 135.673 124.861C136.091 125.147 136.333 125.301 136.398 125.323C136.772 125.542 137.157 126.015 137.553 126.739C137.971 127.442 138.191 127.958 138.213 128.288C138.257 128.617 138.389 129.145 138.608 129.869C138.85 130.572 138.971 131.1 138.971 131.451C138.971 131.78 139.026 132.286 139.136 132.967C139.268 133.648 139.323 134.197 139.301 134.614C139.169 137.711 138.773 139.952 138.114 141.335C137.982 142.302 137.729 142.917 137.355 143.181L137.289 143.642C137.267 143.905 137.135 144.202 136.893 144.531C136.673 144.861 136.388 145.114 136.036 145.289C135.97 145.355 135.53 145.454 134.716 145.586C133.551 145.805 132.781 145.915 132.407 145.915C131.924 146.069 131.308 146.036 130.56 145.816C129.834 145.619 129.417 145.509 129.307 145.487C129.197 145.487 128.955 145.366 128.581 145.124C128.229 144.905 127.998 144.729 127.888 144.597C127.537 144.334 127.328 144.125 127.262 143.971L126.8 143.049C126.514 142.763 126.316 142.357 126.206 141.83C126.096 141.281 125.986 140.929 125.876 140.775C125.766 140.534 125.667 140.281 125.579 140.018C125.601 139.864 125.612 139.589 125.612 139.194V138.864C125.524 138.535 125.546 138.216 125.678 137.909C125.7 137.755 125.711 137.568 125.711 137.349C125.733 137.107 125.766 136.767 125.81 136.327V135.899C126.008 135.24 126.096 134.801 126.074 134.581ZM149.305 133.098C149.305 132.637 149.305 132.352 149.305 132.242C149.327 132.11 149.36 131.627 149.404 130.792C149.492 130.441 149.536 130.1 149.536 129.771L149.503 128.354C149.547 128.288 149.58 127.673 149.602 126.509C149.624 125.345 149.657 124.642 149.701 124.4C149.657 124.093 149.756 123.774 149.998 123.445C150.196 122.983 150.514 122.632 150.954 122.39H150.987C151.471 122.258 152.098 122.346 152.867 122.654C153.241 122.808 153.483 123.049 153.593 123.379L153.692 124.169C153.78 124.301 153.901 125.367 154.055 127.365C154.121 127.761 154.154 128.2 154.154 128.683C154.22 129.013 154.253 129.793 154.253 131.023V131.352C154.231 131.55 154.22 131.846 154.22 132.242V132.472C154.264 132.846 154.242 133.164 154.154 133.428C154.154 133.999 154.132 134.35 154.088 134.482C154.088 134.548 154.044 134.932 153.956 135.635C153.824 136.097 153.791 136.47 153.857 136.756C153.857 136.865 153.758 137.294 153.56 138.041C153.582 138.128 153.516 138.469 153.362 139.062C153.362 139.348 153.318 139.578 153.23 139.754C153.164 139.908 153.109 140.05 153.065 140.182C153.021 140.314 152.944 140.501 152.834 140.742C152.746 140.962 152.68 141.171 152.636 141.368C152.548 142.049 152.219 142.796 151.647 143.609L151.152 144.169C151.196 144.213 151.086 144.367 150.822 144.63C150.8 144.674 150.207 145.037 149.041 145.718C149.019 145.74 148.777 145.816 148.315 145.948C147.392 146.234 146.391 146.234 145.314 145.948C145.006 145.882 144.731 145.783 144.489 145.652C144.379 145.542 144.225 145.432 144.027 145.322C143.961 145.322 143.895 145.289 143.829 145.223C143.719 145.223 143.456 145.07 143.038 144.762C142.906 144.696 142.609 144.301 142.147 143.576C141.949 143.159 141.817 142.906 141.751 142.818C141.707 142.708 141.674 142.456 141.652 142.06C141.564 141.16 141.839 140.709 142.477 140.709C143.137 140.665 143.763 140.973 144.357 141.632C144.995 142.269 145.402 142.598 145.578 142.62C145.754 142.642 145.962 142.686 146.204 142.752C146.446 142.818 146.644 142.785 146.798 142.653C147.128 142.522 147.326 142.379 147.392 142.225C147.392 141.961 147.513 141.665 147.755 141.335C147.997 140.984 148.129 140.786 148.15 140.742C148.172 140.479 148.249 140.193 148.381 139.886V139.853C148.381 139.853 148.381 139.842 148.381 139.82C148.403 139.776 148.414 139.732 148.414 139.688C148.436 139.644 148.447 139.589 148.447 139.523L148.612 138.568C148.656 138.524 148.601 138.249 148.447 137.744C148.425 137.656 148.227 137.557 147.854 137.448C147.502 137.338 147.194 137.283 146.93 137.283C146.556 137.349 146.193 137.261 145.842 137.019C145.688 136.975 145.468 136.854 145.182 136.657C144.918 136.459 144.742 136.305 144.654 136.196C144.588 136.064 144.533 135.976 144.489 135.932C144.335 135.778 144.148 135.504 143.928 135.108C143.708 134.691 143.599 134.405 143.599 134.252L143.467 133.955C143.401 133.691 143.302 133.494 143.17 133.362C143.17 132.923 143.06 132.264 142.84 131.385L142.741 130.627V129.408C142.675 129.167 142.675 128.815 142.741 128.354L142.675 127.102L142.708 126.608L142.675 125.916C142.697 125.894 142.708 125.784 142.708 125.586V125.257C142.708 125.037 142.708 124.883 142.708 124.795C142.73 124.708 142.741 124.598 142.741 124.466C142.741 124.312 142.752 124.202 142.774 124.136C142.994 123.543 143.445 123.192 144.126 123.082C144.83 122.95 145.336 123.005 145.644 123.247C146.193 123.664 146.446 124.565 146.402 125.949C146.402 126.476 146.391 126.805 146.369 126.937C146.523 127.42 146.567 127.783 146.501 128.024C146.567 128.178 146.6 128.332 146.6 128.486V128.98L147.062 131.682C147.062 131.901 147.117 132.176 147.227 132.505C147.227 132.659 147.359 132.978 147.623 133.461C147.843 134.449 148.238 134.9 148.81 134.812C149.03 134.746 149.184 134.361 149.272 133.658C149.338 133.593 149.349 133.406 149.305 133.098ZM164.249 145.355C164.095 145.509 163.622 145.586 162.831 145.586C162.281 145.696 161.632 145.608 160.884 145.322L160.192 145.092L159.169 144.597C159.081 144.597 159.026 144.597 159.004 144.597C158.982 144.619 158.927 144.597 158.839 144.531C158.707 144.422 158.553 144.334 158.378 144.268C157.938 143.96 157.63 143.686 157.454 143.444C156.75 142.324 156.398 141.39 156.398 140.644C156.398 140.556 156.508 140.391 156.728 140.149C157.168 139.622 157.718 139.359 158.378 139.359C158.641 139.381 158.85 139.468 159.004 139.622L160.093 141.039C160.269 141.215 160.467 141.39 160.687 141.566L161.115 142.027L161.775 142.587C161.863 142.631 161.951 142.653 162.039 142.653C162.127 142.697 162.369 142.752 162.765 142.818C163.204 142.708 163.578 142.587 163.886 142.456C164.084 142.258 164.26 142.104 164.414 141.994L164.876 141.467C164.92 141.423 164.997 141.248 165.107 140.94C165.107 140.655 165.107 140.468 165.107 140.38C165.128 140.27 165.096 139.996 165.008 139.556C164.986 139.49 164.832 139.315 164.546 139.029C164.414 138.765 164.227 138.48 163.985 138.172C163.853 138.041 163.215 137.689 162.072 137.118L161.445 136.756L160.851 136.228C160.566 136.141 160.159 135.844 159.631 135.339C159.411 135.185 159.246 135.064 159.136 134.976C159.004 134.932 158.641 134.559 158.048 133.856C158.048 133.812 157.861 133.395 157.487 132.604L157.19 131.319L157.322 130.463C157.19 129.891 157.146 129.463 157.19 129.178C157.278 129.046 157.388 128.782 157.52 128.387C157.454 128.057 157.751 127.409 158.411 126.443C158.411 126.311 158.894 125.784 159.862 124.861L160.983 124.268L161.511 124.038C161.709 124.016 161.973 123.983 162.303 123.939C162.655 123.895 163.171 123.895 163.853 123.939C164.535 123.983 164.964 124.071 165.139 124.202C165.293 124.268 165.733 124.565 166.459 125.092C167.426 125.949 167.954 126.717 168.042 127.398C168.416 128.519 168.438 129.716 168.108 130.99C168.108 131.078 167.8 131.253 167.185 131.517L166.36 131.484C165.656 131.396 164.986 131.034 164.348 130.397C164.172 130.287 164.04 129.979 163.952 129.474C163.93 128.947 163.82 128.628 163.622 128.519C163.6 128.497 163.512 128.299 163.358 127.925C162.984 127.442 162.732 127.201 162.6 127.201C162.49 127.201 162.358 127.234 162.204 127.299C161.412 127.936 160.994 128.65 160.95 129.441C160.796 130.078 160.994 130.858 161.544 131.78C161.786 132.132 161.94 132.308 162.006 132.308C162.138 132.527 162.391 132.802 162.765 133.131L163.226 133.626L164.612 134.647L165.172 135.207L165.799 135.602C166.151 135.756 166.492 135.965 166.822 136.228C167.262 136.558 167.8 137.173 168.438 138.074C168.57 138.271 168.746 138.864 168.966 139.853V141.138L168.801 141.896C168.691 142.005 168.57 142.225 168.438 142.555C168.438 142.576 168.317 142.873 168.075 143.444C168.009 143.554 167.745 143.785 167.284 144.136C166.624 144.663 165.887 145.059 165.074 145.322C164.898 145.366 164.623 145.377 164.249 145.355Z" fill="#3E3E3E"/>
</svg>
