<svg width="169" height="53" viewBox="0 0 169 53" fill="none" xmlns="http://www.w3.org/2000/svg">
<path d="M169 51.3213H0V0.989816H169V51.3213Z" fill="#231F20"/>
<path d="M21.0087 28.91L17.2537 20.6615L14.9642 23.8461V28.91H8.66309V7.06259H14.9642V16.0754L21.0087 7.06259H27.0224L21.5182 15.0555L28.3584 28.91H21.0087ZM36.5981 28.9098H29.8528V7.06233H36.5981V28.9098ZM46.5248 15.8839V11.7115H49.2289C49.8654 11.7115 50.566 11.7115 51.1384 11.998C51.8058 12.3487 52.1882 13.05 52.1882 13.7823C52.1882 15.6616 50.439 15.8839 48.9747 15.8839H46.5248ZM59.2517 28.9099L55.3067 19.3871C57.8836 18.2091 59.1555 16.489 59.1555 13.623C59.1555 11.4892 58.2969 9.54567 56.4835 8.39975C54.8614 7.31683 52.7606 7.06244 50.8522 7.06244H39.7475V28.9099H46.5248V20.5663H48.6244L51.8058 28.9099H59.2517ZM73.7279 28.91L69.9729 20.6615L67.6834 23.8461V28.91H61.3834V7.06259H67.6834V16.0754L73.7279 7.06259H79.7416L74.2374 15.0555L81.0776 28.91H73.7279ZM97.9399 28.91H82.636V7.06259H89.3813V23.5596H97.9399V28.91ZM134.306 28.91L128.038 18.687L126.097 14.7369L126.033 14.8011L126.097 15.0555C126.416 16.457 126.543 17.2214 126.543 18.7191V28.91H121.101V7.06259H127.433L134.752 19.26L134.815 19.1958L134.338 13.1452V7.06259H139.779V28.91H134.306ZM149.291 23.878V12.0301H150.055C151.582 12.0301 152.601 11.9671 153.65 13.2723C154.573 14.4824 154.986 16.3939 154.986 17.8584C154.986 19.3229 154.732 20.7886 153.969 22.0629C153.618 22.6679 153.141 23.1458 152.537 23.4953C151.709 23.941 151.136 23.878 150.246 23.878H149.291ZM142.578 28.9099H151.073C154.096 28.9099 156.8 28.2098 158.964 25.9476C160.968 23.8781 161.986 20.8849 161.986 18.0177C161.986 14.8973 160.936 11.9029 158.645 9.73706C156.292 7.47612 153.777 7.06244 150.628 7.06244H142.578V28.9099ZM106.017 7.08301H112.857L119.888 28.9316H112.857L109.421 17.1146L108.785 14.95L108.179 17.0195L104.744 28.9316H99.2392L106.017 7.08301Z" fill="white"/>
<path d="M107.276 23.3405C107.276 23.3405 110.301 23.5735 110.301 24.9703C110.766 23.2241 118.677 19.4986 118.677 19.4986C118.677 19.4974 107.276 20.5459 107.276 23.3405ZM34.9315 31.4878C34.928 31.489 33.6074 31.7386 31.5743 32.1404C28.5271 32.7431 23.8886 33.6845 19.7595 34.6224C17.6944 35.092 15.7575 35.5603 14.2172 35.9835C13.4465 36.1951 12.7756 36.3948 12.2436 36.5755C11.7139 36.7538 11.3125 36.9214 11.132 37.0272L11.1237 37.0319L10.9598 36.7728L11.1843 36.9773L11.1237 37.0319L10.9598 36.7728L11.1843 36.9773L10.7259 36.56H11.3398C11.3339 36.8037 11.2258 36.9285 11.1843 36.9773L10.7259 36.56H11.3398H10.6938L11.1463 36.0964C11.2306 36.1701 11.3434 36.3591 11.3398 36.56H10.6938L11.1463 36.0964L10.8339 36.4162L10.9491 35.9716C10.9468 35.9787 10.9931 35.9609 11.1463 36.0964L10.8339 36.4162L10.9491 35.9716C10.9705 35.9835 11.2923 36.0144 11.7104 36.0109C13.6318 36.0121 18.0744 35.6578 22.2807 35.6566C24.7365 35.659 27.1163 35.7743 28.9546 36.1725C29.875 36.3758 30.6635 36.6409 31.2881 37.0569C31.5993 37.2662 31.8724 37.5193 32.0719 37.8355C32.2714 38.1494 32.3866 38.5286 32.3842 38.9161C32.3807 39.7696 31.9282 40.5006 31.3012 41.1128C30.1932 42.1862 28.4392 43.0671 26.3967 43.8695C20.2844 46.2481 11.5465 47.7197 11.5239 47.7256L11.1878 46.3658C11.1914 46.3646 17.2324 44.3877 23.7615 42.4097C27.0272 41.4207 30.4129 40.4305 33.2345 39.6864C34.6465 39.3143 35.916 39.0029 36.9646 38.783C38.0191 38.5642 38.829 38.4311 39.4216 38.4287C39.589 38.4299 39.7422 38.4382 39.9073 38.4763H39.9085C40.1246 38.5298 40.3265 38.5963 40.5296 38.7544C40.7338 38.903 40.9084 39.2216 40.8977 39.5069C40.887 39.8742 40.7362 40.0881 40.602 40.2748C40.3538 40.5933 40.0344 40.8632 39.6722 41.1651C39.133 41.6085 38.5048 42.0923 38.0381 42.5595C37.8054 42.7901 37.6165 43.0159 37.5014 43.2061C37.3826 43.3975 37.3482 43.5378 37.3493 43.6115L37.3529 43.6507L36.9848 43.7066L37.1914 43.4094L37.3529 43.6519L36.9848 43.7066L37.1914 43.4094L37.0085 43.6721L37.0857 43.3595L37.1914 43.4094L37.0085 43.6721L37.0857 43.3595L37.0572 43.4724L37.0703 43.3559L37.0857 43.3595L37.0572 43.4724L37.0703 43.3559L37.0822 43.3571C37.1593 43.3643 37.4895 43.2906 37.9063 43.117C39.4014 42.5155 42.0971 40.8893 44.8914 39.4213C46.2927 38.6855 47.7296 37.9865 49.0941 37.4635C50.4598 36.944 51.7483 36.5909 52.9121 36.5874C53.8324 36.5838 54.7266 36.8287 55.375 37.4873L55.5769 37.6929V37.9805C55.571 38.4287 55.3893 38.7877 55.1601 39.1253C54.7504 39.7137 54.1222 40.276 53.3598 40.843C52.2174 41.6882 50.7757 42.5155 49.3815 43.1443C47.9778 43.7684 46.6668 44.2094 45.6158 44.2201C45.4211 44.2189 45.231 44.2035 45.0422 44.1595L44.401 44.0097L44.509 43.3595C44.7347 41.9936 45.2892 40.8906 46.0315 40.0442C47.1477 38.7711 48.644 38.0792 50.0632 37.6953C51.4846 37.3125 52.8491 37.234 53.7742 37.2328C54.4808 37.2328 54.9297 37.2804 54.9499 37.2828L56.1873 37.4147L44.3511 53L43.8975 52.8811C43.8547 52.868 43.4011 52.7515 42.8916 52.4294C42.6387 52.2665 42.3679 52.049 42.1458 51.74C41.9238 51.4357 41.7599 51.0232 41.7622 50.5619C41.7646 49.8784 42.09 49.1735 42.7467 48.4222C43.7419 47.2941 45.5363 45.9759 48.6987 44.3128C51.8599 42.6546 56.3904 40.6647 62.8387 38.2742L63.0252 38.2052L63.2199 38.2445C63.6332 38.3277 63.9989 38.4786 64.2828 38.7568C64.5713 39.0338 64.7115 39.4391 64.7043 39.7898C64.6889 40.4483 64.3813 40.9845 64.0132 41.5301C63.4503 42.336 62.663 43.1277 62.0074 43.7375C61.3543 44.345 60.8341 44.7622 60.8258 44.7693L59.9494 43.671C59.9625 43.6603 61.6262 42.336 63.7638 40.9999C64.8326 40.3318 66.0201 39.6614 67.1934 39.1479C68.3703 38.6379 69.5234 38.2742 70.5957 38.2694C70.87 38.2694 71.1396 38.2944 71.4009 38.3526L71.4021 38.3538C71.5838 38.3918 71.8011 38.4893 71.9626 38.6843C72.1265 38.8768 72.1835 39.1229 72.1811 39.306C72.174 39.6234 72.0742 39.8397 71.965 40.0644C71.7666 40.4495 71.4781 40.8418 71.1479 41.2674C70.6539 41.8998 70.0685 42.5845 69.6184 43.1776C69.3939 43.4712 69.2039 43.7434 69.0852 43.9538L68.9629 44.2035L68.945 44.2606L68.9438 44.2629L68.7895 44.2451H68.945L68.9438 44.2629L68.7895 44.2451H68.945H68.5852L68.9106 44.0977L68.945 44.2451H68.5852L68.9106 44.0977L68.5425 44.2641L68.7063 43.8885L68.9106 44.0977L68.5425 44.2641L68.7063 43.8885L68.6517 44.0133L68.6755 43.8766L68.7063 43.8885L68.6517 44.0133L68.6755 43.8766L68.7337 43.8802L68.8655 43.8718L68.9438 44.5696L68.6078 43.9527C68.6197 43.9467 71.4745 42.3883 75.087 40.8252C76.8944 40.043 78.8919 39.2584 80.8276 38.6664C82.7656 38.0744 84.6348 37.6691 86.238 37.6668C86.5515 37.6668 86.8555 37.6822 87.1488 37.7167L87.2712 37.7392L87.4362 37.8034L87.625 37.9508C87.7034 38.0329 87.8103 38.2088 87.8091 38.4251C87.8091 38.5773 87.7557 38.714 87.7011 38.7996C87.5859 38.9707 87.498 39.0076 87.4457 39.0421L87.2712 39.1122C87.1619 39.1384 87.1239 39.1384 87.0432 39.1503C86.5159 39.2156 84.8593 39.3725 83.1195 39.9063C81.375 40.4352 79.64 41.3565 78.9121 42.739C78.5606 43.3904 78.3159 43.9146 78.1651 44.3117C78.0119 44.704 77.9632 44.9785 77.9668 45.0653L77.968 45.0891L77.7993 45.1117L77.9502 45.0392L77.968 45.0891L77.7993 45.1117L77.9502 45.0392L77.6188 45.1985L77.791 44.8751L77.9502 45.0392L77.6188 45.1985L77.791 44.8751L77.6473 45.1462L77.7115 44.8454L77.791 44.8751L77.6473 45.1462L77.7115 44.8454L77.6877 44.956V44.8418L77.7115 44.8454L77.6877 44.956V44.8418C77.7067 44.8513 77.9787 44.7883 78.3135 44.6112C78.9121 44.3093 79.76 43.7292 80.6578 43.0385C82.0092 42.002 83.496 40.7146 84.6396 39.6899C85.212 39.1776 85.6989 38.7306 86.0421 38.4121C86.3853 38.0935 86.5836 37.9057 86.5836 37.9057L87.6405 38.8198L87.5455 38.9577C87.327 39.281 86.7688 40.1333 86.2748 41.0938C85.7772 42.0436 85.3699 43.1384 85.383 43.7518C85.383 43.9871 85.4329 44.1203 85.4792 44.1833C85.5279 44.2439 85.5801 44.3033 85.8117 44.3556L85.8865 44.3616C86.0848 44.3699 86.5765 44.2332 87.1702 43.9325C88.2236 43.413 89.6379 42.4525 91.1319 41.3125C93.3775 39.6032 95.8238 37.4896 97.7013 35.8076C98.6419 34.966 99.4399 34.2313 100.003 33.7083C100.566 33.1853 100.891 32.875 100.891 32.8738L101.914 33.8343C101.914 33.8343 101.815 33.952 101.64 34.166C101.026 34.916 99.4815 36.8382 98.1039 38.8317C97.4151 39.8278 96.7679 40.843 96.3036 41.7226C96.072 42.1613 95.8868 42.5666 95.7645 42.9078C95.641 43.2478 95.5875 43.5271 95.5899 43.6757L95.6018 43.7886L95.5258 43.829L95.5638 43.7494L95.6018 43.7886L95.5258 43.829L95.5638 43.7494C95.5649 43.7506 95.616 43.772 95.7372 43.772C95.8488 43.772 96.015 43.7541 96.2264 43.7042C98.9744 43.0635 101.627 41.8843 103.582 40.8632C104.559 40.3521 105.363 39.8825 105.921 39.5414C106.199 39.3714 106.417 39.2335 106.563 39.1384C106.709 39.0433 106.78 38.9945 106.78 38.9945L107.584 40.1464L107.447 40.2474C107.133 40.4816 106.325 41.1069 105.623 41.8047C105.272 42.1518 104.948 42.5191 104.73 42.8424C104.506 43.1645 104.418 43.4439 104.428 43.5235L104.434 43.5628L104.518 43.6341C104.525 43.64 104.596 43.6733 104.752 43.6721C105.173 43.684 106.049 43.4035 107.002 42.9328C108.446 42.2314 110.136 41.1509 111.452 40.2498C112.11 39.7993 112.676 39.3928 113.078 39.1003C113.478 38.8067 113.709 38.6308 113.711 38.6296L114.623 39.6947L114.529 39.7874C114.311 40.0061 113.75 40.5886 113.262 41.2412C113.017 41.5657 112.793 41.9081 112.639 42.2148C112.484 42.5191 112.413 42.7889 112.417 42.9173L112.434 43.0207C112.445 43.0338 112.448 43.0659 112.595 43.1301C112.74 43.1895 113.019 43.2477 113.44 43.2466L113.611 43.2442C115.68 43.1895 118.394 41.9972 120.529 40.7895C121.601 40.1892 122.535 39.5901 123.199 39.1419C123.53 38.9185 123.795 38.733 123.976 38.6035C124.156 38.4751 124.248 38.4049 124.249 38.4049L124.542 38.185L124.891 38.3015L124.945 38.3181C125.211 38.4049 126.458 38.7616 127.486 38.758C127.623 38.758 127.754 38.752 127.878 38.7389L127.861 38.7413L127.879 38.7389L128.012 38.7318C128.128 38.7366 128.278 38.7366 128.486 38.859C128.587 38.9196 128.695 39.0243 128.761 39.1515C128.829 39.2775 128.853 39.4129 128.852 39.5176C128.847 39.7291 128.789 39.8421 128.744 39.936C128.655 40.1048 128.562 40.2153 128.453 40.3449C128.081 40.774 127.487 41.328 126.986 41.9188C126.737 42.21 126.517 42.506 126.372 42.7651C126.225 43.0243 126.167 43.2406 126.17 43.3464L126.278 43.5675C126.385 43.6674 126.657 43.8184 127.148 43.9277C127.421 43.9895 127.738 44.0216 128.093 44.0216C129.182 44.024 130.599 43.7125 132.084 43.218C134.318 42.4763 136.718 41.3327 138.588 40.3164C139.524 39.8088 140.329 39.3333 140.914 38.9589C141.206 38.7722 141.443 38.6106 141.608 38.4893L141.792 38.3443L141.829 38.311L141.993 38.4751L141.807 38.3395L141.829 38.311L141.993 38.4751L141.807 38.3395L141.94 38.1184L141.953 38.078L142.026 38.0947H141.953V38.078L142.026 38.0947H141.953H142.228L142 38.2457L141.953 38.0947H142.228L142 38.2457L142.187 38.122L142.061 38.3098L142 38.2457L142.187 38.122L142.061 38.3098L142.082 38.2765L142.064 38.3122L142.061 38.3098L142.082 38.2765L142.064 38.3122C142.058 38.3039 141.916 38.2587 141.697 38.2623C141.33 38.2611 140.769 38.3598 140.163 38.5654C139.25 38.8721 138.225 39.4142 137.436 40.1203C136.642 40.8287 136.102 41.6727 136.002 42.6118L135.65 42.5738H136.003L136.002 42.613L135.65 42.5738H136.003H135.674L135.964 42.4121L136.003 42.5738H135.674L135.964 42.4121L135.809 42.4989L135.946 42.3848L135.964 42.4121L135.809 42.4989L135.946 42.3848L135.924 42.4038L135.944 42.3836L135.946 42.3848L135.924 42.4038L135.944 42.3836C135.947 42.4073 136.257 42.5916 136.739 42.7152C138.208 43.1289 141.174 43.3642 144.367 43.3607C144.971 43.3607 145.585 43.3524 146.202 43.3357C147.329 43.3072 148.573 43.2965 149.845 43.2965C154.929 43.2965 160.441 43.4808 160.446 43.4808L160.399 44.8846C160.395 44.8846 159.026 44.8383 157.018 44.7931C155.011 44.7467 152.371 44.7004 149.845 44.7004C148.583 44.7004 147.348 44.7123 146.237 44.7408C145.61 44.7574 144.984 44.7658 144.367 44.7658C141.93 44.7646 139.642 44.6409 137.922 44.3842C137.06 44.2546 136.344 44.0977 135.783 43.8778C135.502 43.766 135.256 43.6424 135.035 43.4546C134.82 43.2751 134.599 42.9649 134.599 42.5738L134.607 42.4596C134.705 41.5348 135.09 40.7134 135.617 40.0216C136.41 38.9826 137.516 38.2112 138.619 37.681C139.727 37.1544 140.817 36.862 141.697 36.8572C142.057 36.8608 142.392 36.9 142.722 37.0712C142.886 37.1568 143.051 37.2864 143.172 37.4706C143.295 37.6537 143.358 37.8831 143.356 38.0947C143.349 38.5083 143.177 38.8364 142.939 39.1681C142.827 39.3155 142.742 39.3797 142.627 39.4771C142.213 39.81 141.438 40.3105 140.386 40.9203C138.814 41.8284 136.661 42.9435 134.449 43.8398C132.23 44.7325 129.974 45.4207 128.093 45.4267C127.655 45.4267 127.235 45.3874 126.839 45.2983C126.208 45.1533 125.717 44.9464 125.341 44.6136C124.963 44.2867 124.757 43.7934 124.767 43.3464C124.772 42.7663 125.012 42.2813 125.296 41.8308C125.73 41.1592 126.322 40.5458 126.797 40.0537C127.035 39.81 127.243 39.596 127.374 39.445L127.496 39.2929L127.498 39.2893L127.909 39.5176H127.448C127.455 39.3392 127.498 39.3 127.498 39.2893L127.909 39.5176H127.448H128.075L127.523 39.8124L127.448 39.5176H128.075L127.523 39.8124L128.07 39.5199L127.854 40.106C127.765 40.0762 127.608 39.9776 127.523 39.8124L128.07 39.5199L127.854 40.106L128.012 39.6792V40.1369L127.854 40.106L128.012 39.6792V40.1369V40.0858L128.017 40.1369H128.012V40.0858L128.017 40.1369L128.035 40.1357L128.018 40.1369C127.841 40.1547 127.663 40.163 127.486 40.163C125.985 40.1571 124.484 39.6424 124.447 39.6341L124.669 38.9672L125.091 39.5295C125.074 39.5413 123.444 40.7645 121.216 42.0151C118.982 43.262 116.178 44.5577 113.656 44.6481L113.44 44.6516C112.726 44.6481 112.166 44.5435 111.707 44.2415C111.482 44.0917 111.293 43.8814 111.176 43.6448C111.059 43.4071 111.014 43.1539 111.014 42.9173C111.02 42.3646 111.225 41.8783 111.478 41.4076C112.246 40.0168 113.629 38.7092 113.65 38.6819L114.136 39.1883L114.561 39.747C114.553 39.7541 112.842 41.0593 110.792 42.3729C109.766 43.0314 108.655 43.6911 107.615 44.1964C106.566 44.6968 105.621 45.0665 104.752 45.0772C104.428 45.0772 104.091 45.0189 103.782 44.8311C103.552 44.6909 103.352 44.4995 103.217 44.2653C103.082 44.0323 103.023 43.7672 103.024 43.5235C103.038 42.8781 103.343 42.3669 103.7 41.8677C104.247 41.1283 105.002 40.4329 105.632 39.8992C106.259 39.369 106.756 39.0112 106.767 39.0041L107.176 39.5746L107.571 40.1559C107.533 40.1761 102.381 43.7054 96.5447 45.0724C96.2561 45.139 95.9913 45.1771 95.7372 45.1771C95.331 45.1794 94.9047 45.0712 94.5924 44.7598C94.2812 44.4484 94.1838 44.0335 94.1862 43.6757C94.1898 43.2097 94.3204 42.7497 94.5128 42.2469C95.1944 40.5149 96.762 38.2361 98.174 36.3282C99.5836 34.4287 100.833 32.938 100.838 32.9321L101.376 33.3826L101.86 33.8914C101.854 33.8973 98.7844 36.8239 95.2977 39.7613C93.5521 41.2305 91.7054 42.701 90.0678 43.8195C89.2484 44.3782 88.4836 44.8502 87.7937 45.1913C87.0978 45.5301 86.4981 45.7583 85.8865 45.7667C85.7713 45.7667 85.6537 45.7571 85.5362 45.7334C85.0445 45.6395 84.6004 45.3803 84.3332 44.9952C84.0636 44.6124 83.9793 44.1714 83.9793 43.7518C83.9817 43.1218 84.1586 42.4846 84.3973 41.8475C85.1193 39.9503 86.4791 38.0352 86.4933 38.0103L87.0669 38.4145L87.5502 38.9244C87.5443 38.9291 85.6632 40.7182 83.534 42.5167C82.4688 43.4166 81.3441 44.3188 80.3442 45.0094C79.8443 45.3542 79.3764 45.6478 78.9465 45.8653C78.5119 46.0781 78.139 46.2374 77.6877 46.2469C77.436 46.2528 77.0963 46.1673 76.86 45.9058C76.6237 45.6466 76.5631 45.3316 76.5631 45.0653C76.5679 44.679 76.6724 44.2938 76.8529 43.81C77.0369 43.3298 77.3065 42.7604 77.677 42.0721C78.2482 41.0142 79.1519 40.2367 80.1435 39.6566C81.6339 38.7865 83.3511 38.3336 84.7025 38.0733C85.3782 37.9437 85.9637 37.8653 86.377 37.8153C86.5824 37.7892 86.7475 37.7714 86.8508 37.7583L86.9422 37.7464L87.0135 38.1553L86.8959 37.7583L86.9422 37.7464L87.0135 38.1553L86.8959 37.7583L87.0847 38.3919L86.7641 37.8141L86.8959 37.7583L87.0847 38.3919L86.7641 37.8141L87.1002 38.4204L86.5931 37.9473L86.7641 37.8141L87.1002 38.4204L86.5931 37.9473L87.1049 38.4251H86.4055C86.4055 38.1898 86.5206 38.0234 86.5931 37.9473L87.1049 38.4251H86.4055H87.1049L86.5872 38.897C86.51 38.8162 86.4043 38.6403 86.4055 38.4251H87.1049L86.5872 38.897L87.099 38.4311L86.852 39.0777C86.8045 39.054 86.7308 39.0433 86.5872 38.897L87.099 38.4311L86.852 39.0777L87.0503 38.5594L86.9838 39.1122C86.9743 39.1074 86.9802 39.1205 86.852 39.0777L87.0503 38.5594L86.9838 39.1122C86.7534 39.0849 86.504 39.0718 86.238 39.0718C84.8747 39.0694 83.0993 39.4379 81.2385 40.0097C78.443 40.8644 75.4421 42.1613 73.1513 43.243C72.0041 43.7839 71.0351 44.2712 70.3523 44.6219C70.0115 44.7978 69.7419 44.9393 69.559 45.0368C69.3749 45.1343 69.2799 45.1866 69.2799 45.1866L69.1588 45.2531L69.0222 45.2686L68.7337 45.2852C68.4807 45.2829 68.2123 45.2507 67.9439 45.0605C67.8133 44.9666 67.6981 44.8276 67.6316 44.6766C67.5639 44.5268 67.5414 44.3759 67.5414 44.2451C67.5461 43.9313 67.6423 43.7031 67.7516 43.4713C67.9499 43.0718 68.2408 42.6665 68.571 42.2338C69.0674 41.5919 69.6552 40.9048 70.1065 40.3188C70.3321 40.0275 70.5221 39.7601 70.642 39.5568L70.7644 39.319L70.7798 39.2715L70.9247 39.306H70.7774L70.7798 39.2715L70.9247 39.306H70.7774H71.2192L70.8855 39.5841L70.7774 39.306H71.2192L70.8855 39.5841L71.1824 39.3357L71.0957 39.7244L70.8855 39.5841L71.1824 39.3357L71.0957 39.7244H71.0969C70.9508 39.6923 70.7834 39.6745 70.5957 39.6745C69.8595 39.6697 68.8322 39.9621 67.7551 40.4364C66.1341 41.1425 64.3873 42.2314 63.0596 43.1396C62.3946 43.5949 61.8329 44.0038 61.4386 44.2986C61.2427 44.446 61.0871 44.5649 60.9814 44.6469L60.8234 44.7705L59.9482 43.6721L60.0931 43.5533C60.4256 43.2763 61.2747 42.5488 62.0181 41.7488C62.3898 41.3506 62.7342 40.9333 62.9681 40.5672C63.2092 40.2034 63.3102 39.8825 63.3007 39.7898L63.2971 39.7553L63.3102 39.7506L63.2995 39.7589L63.2971 39.7553L63.3102 39.7506L63.2995 39.7589L63.2282 39.7113C63.1748 39.684 63.081 39.6495 62.9444 39.6222L63.0822 38.9327L63.3256 39.5925C54.7789 42.7592 49.6558 45.2115 46.7167 47.0576C45.2477 47.9777 44.3262 48.7491 43.8024 49.3494C43.2728 49.9533 43.1635 50.3539 43.1659 50.5619C43.1683 50.7082 43.2063 50.8044 43.2859 50.9209C43.4034 51.0921 43.6504 51.2645 43.8737 51.3715C43.9853 51.4261 44.0875 51.4665 44.1587 51.4915L44.2395 51.5177L44.2573 51.5224L44.2608 51.5236L44.2644 51.5248L44.2715 51.5272L44.2858 51.5308L44.3155 51.5415L44.3701 51.564L44.0756 52.2012L43.5174 51.7768L54.3169 37.5562L54.8751 37.9805L54.8014 38.6795L54.7397 38.6736C54.6043 38.6629 54.2564 38.6379 53.7742 38.6379C52.652 38.6355 50.7947 38.7782 49.1962 39.4795C48.3958 39.829 47.6631 40.3116 47.0884 40.969C46.5136 41.6287 46.0837 42.4644 45.8937 43.5901L45.2014 43.4748L45.3605 42.7913C45.4151 42.8044 45.503 42.8151 45.6158 42.8151C46.0932 42.8198 46.953 42.6118 47.8935 42.2445C49.3126 41.6989 50.9633 40.818 52.2197 39.9348C52.8467 39.4938 53.3776 39.0504 53.7243 38.6724C53.8977 38.4846 54.0236 38.3134 54.0937 38.185C54.1673 38.0566 54.1732 37.9817 54.1732 37.9805H54.8751L54.3751 38.4739C54.0687 38.1636 53.6127 37.996 52.9121 37.9924C51.9193 37.9877 50.5346 38.3764 49.0395 38.9969C46.7891 39.9241 44.2715 41.3411 42.1197 42.5322C41.0426 43.1289 40.0557 43.6686 39.2197 44.068C38.8017 44.2689 38.4205 44.4341 38.0737 44.5553C37.7246 44.6742 37.417 44.7586 37.0822 44.7622C36.8743 44.761 36.6285 44.7265 36.3886 44.5625C36.1452 44.3996 35.992 44.1024 35.9635 43.8564L35.9457 43.6115C35.9564 42.9458 36.2901 42.4311 36.6653 41.977C37.2401 41.2983 38.0144 40.7075 38.6307 40.2034C38.9371 39.9538 39.2031 39.728 39.3646 39.5604L39.513 39.3832L39.5178 39.3737L39.7814 39.5069H39.494L39.5178 39.3737L39.7814 39.5069H39.494H39.9275L39.652 39.8516C39.5926 39.8195 39.4834 39.6376 39.494 39.5069H39.9275L39.652 39.8516L39.7897 39.678L39.6793 39.8718L39.652 39.8516L39.7897 39.678L39.6793 39.8718L39.6924 39.8492L39.6817 39.873L39.6793 39.8718L39.6924 39.8492L39.6817 39.873L39.5879 39.8444L39.6081 39.8492L39.589 39.8444L39.4216 39.8338C39.0487 39.8302 38.259 39.9455 37.252 40.1583C33.7024 40.9024 27.2731 42.7913 21.7593 44.49C19.0007 45.3399 16.4664 46.1435 14.6222 46.7331C12.7779 47.3239 11.6272 47.6995 11.6248 47.7007L11.4063 47.0327L11.29 46.3408C11.29 46.3396 11.5999 46.2873 12.1497 46.1851C14.0747 45.8285 18.908 44.8644 23.2235 43.4926C25.3789 42.8091 27.4061 42.0186 28.8442 41.1806C29.5615 40.7634 30.1291 40.333 30.4866 39.9348C30.8488 39.5318 30.9818 39.1966 30.9806 38.9161C30.9794 38.7853 30.9521 38.695 30.8844 38.5856C30.7716 38.3966 30.4723 38.1517 29.9712 37.9425C29.2242 37.6228 28.0806 37.3898 26.741 37.2531C25.4003 37.114 23.8601 37.0617 22.2807 37.0617C18.1361 37.0617 13.7529 37.4147 11.7104 37.4159C11.3553 37.4159 11.0703 37.4064 10.8268 37.3755C10.7021 37.3565 10.5917 37.3398 10.4421 37.2804C10.3672 37.2483 10.2758 37.2067 10.1654 37.1009C10.0561 37.0034 9.93142 36.7894 9.93617 36.56C9.93617 36.4055 9.98368 36.2771 10.0324 36.188C10.1915 35.9324 10.3162 35.8872 10.4338 35.8088C10.885 35.5532 11.5346 35.319 12.4051 35.0468C15.4262 34.1101 20.9696 32.8833 25.7863 31.8801C30.5994 30.878 34.6679 30.1077 34.6703 30.1077L34.9315 31.4878Z" fill="#EF2E31"/>
<path d="M41.8608 36.8273C41.8608 36.8273 43.3726 36.9426 43.3726 37.6416C43.6053 36.7691 47.561 34.9064 47.561 34.9064C47.561 34.9064 41.8608 35.4294 41.8608 36.8273ZM87.8252 35.4735L113.373 35.294L113.38 36.2307L87.8323 36.4102" fill="#EF2E31"/>
</svg>
