<svg width="80" height="80" viewBox="0 0 80 80" fill="none" xmlns="http://www.w3.org/2000/svg">
<path d="M40.6802 55.0319C39.9766 55.0319 39.4062 55.6022 39.4062 56.3058V59.023C39.4062 59.7266 39.9766 60.2969 40.6802 60.2969C41.3837 60.2969 41.9541 59.7266 41.9541 59.023V56.3058C41.9541 55.6022 41.3837 55.0319 40.6802 55.0319Z" fill="#595959"/>
<path d="M79.2288 36.7792C78.7316 36.282 78.0708 36.0082 77.3675 36.0082C77.3673 36.0082 77.3672 36.0082 77.367 36.0082L74.0969 36.0087C74.0555 36.0087 74.027 35.9621 74.0183 35.919C73.1194 31.5099 71.1036 27.3534 68.1886 23.8984C65.3711 20.559 61.7625 17.9328 57.7386 16.2832C57.0895 13.5432 55.7191 10.7182 53.0164 8.59463C50.3998 6.53869 47.7645 6.14306 47.6538 6.12713C47.2887 6.0751 46.918 6.18385 46.6389 6.42588C46.3598 6.66791 46.1997 7.01885 46.1997 7.38822V14.2673H41.5766C40.4341 10.347 36.8109 7.47322 32.5267 7.47322C28.1516 7.47322 24.4637 10.4696 23.4055 14.5178C17.1067 15.3757 11.3117 18.4273 7.01172 23.1718C2.49016 28.1613 0 34.6201 0 41.3587C0 56.4838 7.85234 68.7906 10.2592 72.202C11.0027 73.2559 12.2203 73.8852 13.5164 73.8852H18.9384C21.1394 73.8852 22.93 72.0946 22.93 69.8937V68.1304C24.302 68.3417 25.6959 68.4499 27.0914 68.4499H39.4056V69.8937C39.4056 72.0946 41.1963 73.8852 43.3972 73.8852H49.353C51.2227 73.8852 52.8641 72.5582 53.2558 70.7301L53.9095 67.6795C62.282 65.6406 69.0137 59.7668 72.327 52.1445H77.3673C78.8191 52.1445 80 50.9635 80 49.5118V38.6412C80 37.9376 79.7262 37.2765 79.2288 36.7792ZM32.5266 10.0212C36.3197 10.0212 39.4055 13.1071 39.4055 16.9003C39.4055 17.8703 39.1978 18.8257 38.8066 19.7028H26.2464C25.8553 18.8254 25.6475 17.8703 25.6475 16.9003C25.6475 13.107 28.7334 10.0212 32.5266 10.0212ZM77.4522 49.5115C77.4522 49.5584 77.4142 49.5965 77.3672 49.5965H73.2847C73.9786 47.424 74.4056 45.1393 74.5278 42.7834C74.5644 42.0809 74.0242 41.4817 73.3216 41.4452C72.6189 41.4096 72.0198 41.9488 71.9834 42.6515C71.4437 53.0565 64.3619 61.9404 54.5097 64.8784L56.2895 56.5729C56.437 55.8849 55.9988 55.2077 55.3108 55.0604C54.6233 54.9126 53.9456 55.3512 53.7983 56.0392L50.7645 70.196C50.6228 70.8573 50.0291 71.3373 49.353 71.3373H43.3969C42.6008 71.3373 41.9531 70.6896 41.9531 69.8935V64.4582C41.9531 63.7546 41.3828 63.1843 40.6792 63.1843C39.9756 63.1843 39.4053 63.7546 39.4053 64.4582V65.902H27.0911C25.6934 65.902 24.2983 65.7818 22.9297 65.5485V56.3056C22.9297 55.602 22.3594 55.0317 21.6558 55.0317C20.9522 55.0317 20.3819 55.602 20.3819 56.3056V69.8937C20.3819 70.6898 19.7342 71.3374 18.9381 71.3374H13.5164C13.0402 71.3374 12.6117 71.1173 12.3411 70.7334C10.0437 67.4767 2.54781 55.7338 2.54781 41.3585C2.54781 35.2535 4.80359 29.4023 8.89953 24.8828C12.648 20.7463 17.6494 18.0307 23.1038 17.1388C23.1258 18.0118 23.2689 18.8749 23.5258 19.7024H23.0148C22.3113 19.7024 21.7409 20.2727 21.7409 20.9763C21.7409 21.6799 22.3113 22.2502 23.0148 22.2502H42.0383C42.7419 22.2502 43.3122 21.6799 43.3122 20.9763C43.3122 20.2727 42.7419 19.7024 42.0383 19.7024H41.5272C41.8077 18.7995 41.9533 17.8543 41.9533 16.8999C41.9533 16.8713 41.9514 16.8434 41.9511 16.8149H46.1995V19.6174C46.1995 20.321 46.7698 20.8913 47.4734 20.8913C48.177 20.8913 48.7473 20.321 48.7473 19.6174V9.06088C51.1644 9.97556 55.7113 12.7851 55.7113 20.9765C55.7113 21.6801 56.2816 22.2504 56.9852 22.2504C57.6887 22.2504 58.2591 21.6801 58.2591 20.9765C58.2591 20.4368 58.2395 19.867 58.1948 19.2781C61.2678 20.7749 64.0247 22.9143 66.2414 25.5417C68.882 28.6715 70.708 32.4359 71.5219 36.4281C71.7733 37.6617 72.8564 38.5568 74.0973 38.5567L77.3675 38.5563C77.3761 38.5563 77.4027 38.5563 77.4275 38.5812C77.4523 38.606 77.4523 38.6323 77.4523 38.6412V49.5115H77.4522Z" fill="#595959"/>
<path d="M66.3335 36.8373C65.5429 34.7161 63.4499 33.2908 61.1261 33.2908C58.8022 33.2908 56.7096 34.7159 55.9185 36.8373C55.6727 37.4966 56.0079 38.2302 56.6671 38.4759C57.3265 38.722 58.0601 38.3866 58.3057 37.7273C58.7269 36.5977 59.8604 35.8386 61.126 35.8386C62.3916 35.8386 63.5252 36.5977 63.9463 37.7273C64.1374 38.24 64.6233 38.5566 65.14 38.5566C65.288 38.5566 65.4383 38.5306 65.5849 38.4759C66.2441 38.2302 66.5793 37.4964 66.3335 36.8373Z" fill="#F96F14"/>
<path d="M33.8009 40.3873V33.8773C36.2999 34.181 38.0471 35.3388 38.0471 36.3905C38.0471 37.0941 38.6174 37.6645 39.321 37.6645C40.0246 37.6645 40.5949 37.0941 40.5949 36.3905C40.5949 33.7862 37.699 31.6923 33.8009 31.314V31.1676C33.8009 30.464 33.2305 29.8937 32.527 29.8937C31.8234 29.8937 31.253 30.464 31.253 31.1676V31.314C27.3549 31.6923 24.459 33.7862 24.459 36.3905C24.459 40.1104 28.134 41.4529 31.253 42.3301V48.8401C28.754 48.5363 27.0068 47.3785 27.0068 46.3268C27.0068 45.6232 26.4365 45.0529 25.7329 45.0529C25.0293 45.0529 24.459 45.6232 24.459 46.3268C24.459 48.9312 27.3549 51.0251 31.253 51.4034V51.5498C31.253 52.2534 31.8234 52.8237 32.527 52.8237C33.2305 52.8237 33.8009 52.2534 33.8009 51.5498V51.4034C37.699 51.0251 40.5949 48.9312 40.5949 46.3268C40.5949 42.6068 36.9198 41.2645 33.8009 40.3873ZM31.253 39.6629C28.1155 38.6787 27.0068 37.7843 27.0068 36.3905C27.0068 35.3388 28.754 34.181 31.253 33.8773V39.6629ZM33.8009 48.8402V43.0546C36.9384 44.0387 38.0471 44.9332 38.0471 46.327C38.0471 47.3787 36.2998 48.5365 33.8009 48.8402Z" fill="#F96F14"/>
</svg>
