<svg width="50" height="50" viewBox="0 0 50 50" fill="none" xmlns="http://www.w3.org/2000/svg">
<g clip-path="url(#clip0)">
<path d="M47.6524 11.6508C46.6841 10.8409 46.1733 10.1208 46.1754 9.56838C46.1771 9.13478 46.4857 8.75119 46.8123 8.34514C47.1922 7.87307 47.6228 7.33801 47.4905 6.65022C47.3655 5.99924 46.7952 5.61037 46.3771 5.37453C43.7772 3.90784 36.5804 3.03577 32.5362 8.82131C32.3044 9.15285 32.3854 9.60949 32.7169 9.84123C33.0486 10.0731 33.5051 9.99211 33.7369 9.66056C37.7488 3.92131 45.1251 5.91067 46.0355 6.92258C45.6836 7.68312 42.861 9.55295 46.7127 12.7744C48.0758 13.9144 48.6786 14.9733 48.5045 15.9218C48.2443 17.3387 46.3542 18.3469 45.2785 18.7192C44.789 18.8886 44.6531 18.7998 44.0643 17.9284C43.5071 17.1037 42.7439 15.9741 41.0241 15.9741C39.9636 15.9741 39.09 16.3263 38.4277 17.0207C36.9059 18.6164 37.0465 21.5807 37.0928 22.5548C37.0937 22.5726 37.0951 22.5904 37.0973 22.6082C37.108 22.6976 37.1136 22.7857 37.1136 22.8702V34.2653C35.8169 35.4476 34.3987 36.4503 32.928 37.2512V32.4726C32.928 31.0572 31.7765 29.9057 30.3612 29.9057H14.972C13.5565 29.9057 12.405 31.0573 12.405 32.4726V37.2513C10.8932 36.4219 9.50966 35.4419 8.21943 34.2654V24.3936C8.21943 23.9892 7.8916 23.6612 7.48701 23.6612H5.54658C4.72481 23.6612 4.05625 22.9926 4.05625 22.1707C4.05625 21.349 4.72481 20.6805 5.54658 20.6805H15.9904V25.1953C15.9904 26.4252 16.9909 27.4258 18.2208 27.4258H25.6278C26.8577 27.4258 27.8583 26.4252 27.8583 25.1953V20.6805H28.3767C28.4196 20.6805 28.4626 20.6767 28.5049 20.6691C29.3533 20.5185 31.0208 19.6908 31.2715 17.6378C31.2725 17.6318 31.2735 17.6249 31.2739 17.6214C31.2758 17.6078 31.2772 17.5942 31.2783 17.5806C31.461 15.263 31.9283 13.2423 32.667 11.5746C32.8309 11.2048 32.6639 10.7722 32.2941 10.6083C31.9242 10.4445 31.4916 10.6113 31.3277 10.9814C30.5244 12.7946 30.0172 14.9677 29.8201 17.4405C29.8199 17.4413 29.8198 17.4421 29.8197 17.4427C29.8193 17.446 29.8188 17.4494 29.8184 17.4527C29.6579 18.7989 28.5728 19.1485 28.2991 19.2156C27.8234 19.2156 17.2365 19.2156 16.7229 19.2156H5.54658C3.91709 19.2156 2.59141 20.5413 2.59141 22.1707C2.59141 23.8003 3.91709 25.1261 5.54658 25.1261H6.75459V32.7948C6.23447 32.2191 5.74189 31.6141 5.28311 30.9784C4.82715 30.3465 4.15235 29.9301 3.38301 29.8057C2.61426 29.6814 1.84249 29.8641 1.21075 30.32C0.578817 30.776 0.162412 31.4508 0.0379979 32.22C-0.0862206 32.9891 0.0963963 33.7607 0.55245 34.3926C2.49756 37.0875 4.89688 39.3871 7.68388 41.2275C8.02138 41.4505 8.47568 41.3576 8.69872 41.02C8.92158 40.6824 8.8287 40.2281 8.49111 40.0052C5.85254 38.2628 3.58125 36.086 1.74014 33.5354C1.51319 33.2209 1.42227 32.8368 1.48419 32.4539C1.68907 31.186 3.33662 30.7845 4.09531 31.8357C13.0996 44.3115 31.9805 44.6612 41.2374 31.8358C41.7061 31.1865 42.6159 31.0395 43.2651 31.508C43.9143 31.9765 44.0613 32.8861 43.5927 33.5354C35.9862 44.0745 21.8237 47.2481 10.5367 41.2239C10.1798 41.0335 9.73622 41.1685 9.54579 41.5253C9.35546 41.8822 9.49032 42.3258 9.84726 42.5163C9.91435 42.552 9.98144 42.5875 10.0488 42.6228C17.9131 46.7375 27.4024 46.7465 35.2843 42.6228C39.0222 40.6671 42.3059 37.8212 44.7805 34.3926C45.7217 33.0885 45.4264 31.2615 44.1223 30.3202C42.8181 29.3791 40.9911 29.6744 40.0497 30.9785C39.591 31.6141 39.0985 32.219 38.5785 32.7946V22.8703C38.5785 22.7362 38.5705 22.5983 38.5548 22.4601C38.5149 21.6162 38.4099 19.1621 39.4877 18.0318C39.8682 17.633 40.3706 17.4391 41.0241 17.4391C41.9203 17.4391 42.302 17.9366 42.8505 18.7485C43.3655 19.5106 44.1441 20.6623 45.7576 20.1035C47.4661 19.5121 49.588 18.1314 49.9452 16.1864C50.2216 14.6805 49.4503 13.1544 47.6524 11.6508ZM17.4552 20.6806H26.3933V25.1954C26.3933 25.6176 26.0499 25.961 25.6277 25.961H18.2207C17.7986 25.961 17.4552 25.6176 17.4552 25.1954V20.6806ZM31.4629 37.9792C26.0224 40.4346 19.6589 40.5919 13.8698 37.9793V32.4727C13.8698 31.865 14.3642 31.3707 14.972 31.3707H30.361C30.9686 31.3707 31.4629 31.8651 31.4629 32.4727V37.9792Z" fill="#787878"/>
<path d="M43.0847 13.2428C43.6017 13.2428 44.0209 12.8237 44.0209 12.3066C44.0209 11.7895 43.6017 11.3704 43.0847 11.3704C42.5676 11.3704 42.1484 11.7895 42.1484 12.3066C42.1484 12.8237 42.5676 13.2428 43.0847 13.2428Z" fill="#F96F14"/>
<path fill-rule="evenodd" clip-rule="evenodd" d="M17.5 21H16V25.5C16 26.6046 16.8954 27.5 18 27.5H22H26C27.1046 27.5 28 26.6046 28 25.5V21H26.5V25.5C26.5 25.7761 26.2761 26 26 26H22H18C17.7239 26 17.5 25.7761 17.5 25.5V21Z" fill="#F96F14"/>
</g>
<defs>
<clipPath id="clip0">
<rect width="50" height="50" fill="white"/>
</clipPath>
</defs>
</svg>
