<svg width="21" height="21" viewBox="0 0 21 21" fill="none" xmlns="http://www.w3.org/2000/svg">
<path d="M15.2576 14.1202C15.2853 14.0925 15.3131 14.037 15.3686 14.0092C16.5892 12.4835 17.255 10.5694 17.255 8.62748C17.255 3.88375 13.3989 0 8.62748 0C3.88375 0 0 3.85601 0 8.62748C0 13.3712 3.85601 17.255 8.62748 17.255C10.6526 17.255 12.5945 16.5614 14.148 15.2576L19.8904 21L21 19.8904L15.2576 14.1202ZM15.3408 8.62748C15.3408 10.181 14.8415 11.6235 13.8705 12.8164C12.5945 14.4254 10.6803 15.3408 8.62748 15.3408C4.91017 15.3408 1.91413 12.317 1.91413 8.62748C1.91413 4.93791 4.93791 1.91414 8.62748 1.91414C12.317 1.91414 15.3408 4.91017 15.3408 8.62748Z" fill="white"/>
</svg>
