<svg width="80" height="80" viewBox="0 0 80 80" fill="none" xmlns="http://www.w3.org/2000/svg">
<g clip-path="url(#clip0)">
<path d="M80 5.44983C80.0061 3.98905 79.4423 2.61764 78.4127 1.58796C77.383 0.55827 76.0089 -0.00454281 74.5509 0.00076969C73.0944 0.00686344 71.7231 0.579207 70.6898 1.61233C70.2523 2.04983 69.4566 2.99483 69.0212 3.51936C68.5641 4.07014 68.6397 4.88733 69.1905 5.34436C69.7411 5.80155 70.5583 5.72593 71.0155 5.17514C71.6973 4.35389 72.2609 3.70718 72.5227 3.4453C73.0692 2.89889 73.7933 2.59608 74.5617 2.5928C74.5659 2.5928 74.5698 2.5928 74.5741 2.5928C75.3337 2.5928 76.0458 2.88655 76.5798 3.42077C77.1169 3.9578 77.4111 4.67452 77.4078 5.43889C77.4045 6.20718 77.1017 6.93124 76.5553 7.47796C76.0661 7.96718 74.3845 9.30108 71.9753 10.9841C70.5502 8.54749 67.907 6.90608 64.8863 6.90608H45.9075C43.3456 6.90608 40.9372 7.90374 39.1255 9.71514L1.18953 47.6515C0.4225 48.4186 0 49.4384 0 50.5231C0 51.6078 0.4225 52.6278 1.18953 53.3947L26.6063 78.8114C27.3981 79.6031 28.4378 79.9989 29.4778 79.9989C30.5178 79.9989 31.5578 79.603 32.3494 78.8114L70.2856 40.8753C72.097 39.0637 73.0947 36.6553 73.0947 34.0933V15.1147C73.0947 14.5545 73.038 14.0076 72.9305 13.4787C75.6728 11.5917 77.6859 10.0131 78.3881 9.31093C79.4216 8.2778 79.9939 6.90655 80 5.44983ZM70.5027 34.0933C70.5027 35.9628 69.7745 37.7205 68.4528 39.0422L30.5166 76.9786C29.9441 77.5512 29.0119 77.5512 28.4392 76.9786L3.0225 51.5619C2.74516 51.2845 2.59219 50.9156 2.59219 50.5231C2.59219 50.1306 2.745 49.7619 3.0225 49.4845L40.9586 11.5484C42.2806 10.2266 44.0381 9.49858 45.9075 9.49858H64.8861C67.0173 9.49858 68.8752 10.6919 69.8264 12.4453C68.2955 13.4591 66.5812 14.537 64.7627 15.597C64.7059 15.5348 64.648 15.4733 64.5878 15.4131C62.4653 13.2906 59.0119 13.2906 56.8894 15.4131C54.7669 17.5356 54.7669 20.989 56.8894 23.1115C57.9506 24.1728 59.3447 24.7033 60.7386 24.7033C62.1325 24.7033 63.5266 24.1728 64.5878 23.1115C66.0045 21.6948 66.4741 19.6856 65.9997 17.8745C67.5814 16.9537 69.1003 16.0126 70.502 15.1022C70.5022 15.1065 70.5025 15.1106 70.5025 15.1148V34.0933H70.5027ZM59.5811 19.8447C59.8088 20.2973 60.2656 20.5586 60.74 20.5586C60.9358 20.5586 61.1347 20.514 61.3216 20.42C62.0813 20.0378 62.8383 19.6403 63.5878 19.2331C63.5953 19.973 63.3188 20.7151 62.7553 21.2786C61.6434 22.3903 59.8347 22.3903 58.7228 21.2786C57.6111 20.1667 57.6111 18.358 58.7228 17.2461C59.2787 16.6901 60.0089 16.4123 60.7391 16.4123C61.3172 16.4123 61.8936 16.5895 62.3853 16.9378C61.6517 17.3365 60.9072 17.727 60.1567 18.1047C59.5169 18.4261 59.2592 19.2053 59.5811 19.8447Z" fill="#595959"/>
<path d="M38.6184 26.4003C37.9026 26.4003 37.3223 26.9804 37.3223 27.6964V55.0681C37.3223 55.7839 37.9026 56.3642 38.6184 56.3642C39.3341 56.3642 39.9144 55.7839 39.9144 55.0681V27.6964C39.9144 26.9804 39.3341 26.4003 38.6184 26.4003Z" fill="#F96F14"/>
<path d="M32.6943 37.5332C30.572 35.4104 27.1184 35.4106 24.9962 37.5331C22.8737 39.6556 22.8737 43.109 24.9962 45.2315C26.0576 46.2929 27.4513 46.8234 28.8454 46.8232C30.2391 46.8232 31.6334 46.2924 32.6945 45.2315C33.7227 44.2032 34.289 42.8363 34.289 41.3823C34.289 39.9282 33.7226 38.5612 32.6943 37.5332ZM30.8615 43.3984C29.7496 44.5103 27.9409 44.5101 26.8291 43.3984C25.7174 42.2865 25.7174 40.4778 26.8291 39.3659C27.3851 38.8099 28.1152 38.5321 28.8454 38.5321C29.5755 38.5321 30.3057 38.8099 30.8616 39.3659C31.4002 39.9045 31.6968 40.6204 31.6968 41.3821C31.6966 42.1439 31.4001 42.8598 30.8615 43.3984Z" fill="#F96F14"/>
<path d="M52.2451 37.5331C50.1226 35.4104 46.669 35.4106 44.547 37.5331C42.4245 39.6556 42.4245 43.109 44.547 45.2315C45.6082 46.2928 47.0021 46.8232 48.3962 46.8232C49.7901 46.8232 51.1841 46.2928 52.2452 45.2315C54.3676 43.109 54.3676 39.6556 52.2451 37.5331ZM50.4121 43.3984C49.3002 44.5103 47.4915 44.5101 46.3798 43.3984C45.268 42.2865 45.268 40.4778 46.3798 39.3659C46.9357 38.81 47.6659 38.5322 48.396 38.5322C49.1262 38.5322 49.8563 38.81 50.4123 39.3659C51.524 40.4778 51.524 42.2865 50.4121 43.3984Z" fill="#F96F14"/>
</g>
<defs>
<clipPath id="clip0">
<rect width="80" height="80" fill="white"/>
</clipPath>
</defs>
</svg>
