<svg width="28" height="28" viewBox="0 0 28 28" fill="none" xmlns="http://www.w3.org/2000/svg">
<path fill-rule="evenodd" clip-rule="evenodd" d="M14.4867 27.0261C21.9497 27.0261 27.9997 20.9761 27.9997 13.513C27.9997 6.05 21.9497 0 14.4867 0C7.02363 0 0.973633 6.05 0.973633 13.513C0.973633 20.9761 7.02363 27.0261 14.4867 27.0261ZM20.4118 7.82166C21.4532 7.88029 21.9646 8.03449 22.4359 8.87278C22.9267 9.70998 23.1743 11.152 23.1743 13.6919V13.6951V13.7006C23.1743 16.2285 22.9267 17.6814 22.437 18.5099C21.9657 19.3482 21.4543 19.5002 20.4129 19.5708C19.3716 19.6305 16.7557 19.6663 14.4895 19.6663C12.2189 19.6663 9.602 19.6305 8.56174 19.5697C7.52256 19.4991 7.01112 19.3471 6.53551 18.5088C6.05012 17.6803 5.80037 16.2274 5.80037 13.6995V13.6973V13.694V13.6908C5.80037 11.152 6.05012 9.70998 6.53551 8.87278C7.01112 8.0334 7.52365 7.88029 8.56282 7.82057C9.602 7.75108 12.2189 7.72176 14.4895 7.72176C16.7557 7.72176 19.3716 7.75108 20.4118 7.82166ZM17.7449 13.694L12.3156 10.4364V16.9516L17.7449 13.694Z" fill="#1D1D1D"/>
</svg>
